<svg width="240" height="114" viewBox="0 0 240 114" fill="none" xmlns="http://www.w3.org/2000/svg">
<path d="M59.4954 50.0467L59.5079 50.0669C59.8933 50.6847 61.4298 53.1994 62.9219 55.6534C64.4138 58.1082 67.6237 63.3809 70.055 67.3702L69.6306 67.6302L70.055 67.3702C72.8069 71.887 74.2631 74.2942 75.0281 75.7555C75.4119 76.489 75.6406 77.0202 75.7688 77.4837C75.9013 77.9635 75.9175 78.3412 75.9175 78.7402C75.9175 79.6346 75.73 80.4264 75.2881 81.1097C74.8488 81.7894 74.1956 82.3036 73.3656 82.7101L72.1981 83.2826L72.0581 83.3515L71.9019 83.3509L54.0566 83.2914H54.0513C53.5532 83.2858 53.0748 83.2801 52.6154 83.2751C46.8646 83.2106 44.0817 83.1799 42.6823 83.1154C41.9492 83.0822 41.5134 83.0383 41.2179 82.9431C40.9062 82.8423 40.6723 82.6237 40.6336 82.5874C40.6305 82.5842 40.6286 82.5823 40.6281 82.5823L41.026 82.048L40.6283 82.5823C39.7777 81.9459 39.0884 80.6694 38.8408 79.4605L38.6925 78.7364L38.5277 77.9321H39.3469H52.0577H52.0598L69.0481 77.8783L67.06 74.4144L67.5625 74.125L67.06 74.4144C65.6512 71.9591 62.5719 66.5854 60.2171 62.4729C57.8622 58.3607 54.7677 52.9651 53.3409 50.4829C52.6264 49.2402 51.9764 48.0967 51.5045 47.2552C51.2688 46.8348 51.0764 46.4878 50.9424 46.2408C50.8758 46.1179 50.8216 46.0161 50.7831 45.9411C50.7644 45.9044 50.7462 45.8679 50.7315 45.8359C50.7246 45.821 50.7143 45.7981 50.7045 45.7725C50.6997 45.7602 50.6915 45.738 50.6836 45.7105C50.6803 45.6988 50.6565 45.621 50.6565 45.5203C50.6565 45.2746 50.7802 45.0944 50.8625 45.0009C50.9633 44.8864 51.0904 44.7984 51.2299 44.7322C51.5038 44.6021 51.8753 44.5322 52.3728 44.5319C52.3736 44.5319 52.3744 44.5319 52.3753 44.5319L59.5639 44.4782L59.6693 33.6612L51.7767 33.8478L51.77 33.848L51.7634 33.848L36.7766 33.9039L36.1212 35.1169V35.117C35.6574 35.9751 31.6419 43.4564 27.1967 51.7433C22.7522 60.0294 17.6759 69.4836 15.9158 72.7533C15.0367 74.3869 14.2379 75.8864 13.6592 76.9863C13.473 77.3402 13.3099 77.6522 13.1746 77.9134C13.5762 77.9253 14.0882 77.9365 14.6902 77.9459C16.2599 77.971 18.4274 77.9866 20.8135 77.9866H29.0857L41.0912 53.9256L41.6836 52.7384L42.2842 53.9214L42.8486 55.0329L42.8487 55.0331C43.152 55.6309 44.7608 58.5785 46.4288 61.5916L45.8445 61.9164L46.4288 61.5916L49.4558 67.0596L49.9652 67.9803L48.9176 68.053L46.8591 68.1952C45.7083 68.2747 43.3142 68.3511 41.5312 68.3668H41.5312L38.7297 68.39L36.6241 73.0746H36.6241C35.9984 74.4664 35.3942 75.852 34.9251 76.9619C34.4474 78.0925 34.1294 78.8918 34.0549 79.1436C33.6151 80.6306 32.8401 81.79 31.6956 82.5761L31.3321 82.0449L31.6956 82.5761L30.9126 83.1141L30.7439 83.23L30.5394 83.2313L20.5012 83.3008C17.1374 83.324 14.5542 83.3215 12.7414 83.2933C11.8356 83.2789 11.1167 83.2576 10.5865 83.23C10.3217 83.2156 10.0982 83.2 9.91906 83.1812C9.75344 83.1642 9.58394 83.1411 9.45144 83.1022C8.13225 82.7145 7.13756 81.4918 6.9015 80.0913L59.4954 50.0467ZM59.4954 50.0467L7.56025 79.9798L59.4954 50.0467ZM59.4954 50.0467L59.4814 50.0275L59.1039 49.5083L59.4954 50.0467ZM59.4954 50.0467L59.1039 49.5083L59.4954 50.0467ZM6.9015 80.0913L7.56025 79.9798L6.9015 80.0913ZM6.9015 80.0913L7.56025 79.9798L6.9015 80.0913ZM6.9015 80.0913C6.89925 80.0781 6.897 80.0643 6.89469 80.0512C6.85494 79.8175 6.80925 79.5482 6.84494 79.2212C6.882 78.883 6.99944 78.5234 7.20487 78.053C7.60275 77.1404 8.42856 75.5989 10.0294 72.6105L10.1289 72.4244L10.7136 72.7395L10.1289 72.4244C11.1135 70.5867 13.1475 66.7226 14.6481 63.8387L6.9015 80.0913ZM7.56025 79.9798C7.534 79.8238 7.51131 79.6929 7.50319 79.5613C7.45762 78.821 7.87281 78.0524 10.7176 72.7414C11.7039 70.8998 13.7392 67.0333 15.2405 64.1482L7.56025 79.9798ZM14.6481 63.8387C14.6481 63.8387 14.6481 63.8387 14.6481 63.8387L15.2405 64.1482L14.6481 63.8387ZM14.6481 63.8387C17.4426 58.4682 19.1161 55.2706 20.782 52.1174L14.6481 63.8387ZM14.6481 63.8387L15.2405 64.1482L14.6481 63.8387ZM15.2405 64.1482L20.782 52.1174L15.2405 64.1482ZM59.1039 49.5083C60.1015 49.496 60.7599 49.4739 61.2309 49.4189C61.5686 49.3795 61.8413 49.3205 62.0923 49.2231C62.3438 49.1256 62.5425 49.0013 62.7319 48.8733V48.8734L59.1039 49.5083ZM20.782 52.1174C21.2995 51.1375 23.055 47.7748 24.6831 44.6441C26.3112 41.5136 28.2797 37.7458 29.0577 36.2708C29.835 34.7969 30.6443 33.257 30.8564 32.8473L20.782 52.1174ZM20.782 52.1174L30.8564 32.8473L20.782 52.1174ZM30.8564 32.8473L30.8566 32.8471C31.5712 31.4679 33.0687 29.9299 34.3939 29.2293H34.3939L35.5348 28.6261L35.6803 28.5491L35.8449 28.5487L51.6569 28.5078C55.2674 28.4985 57.4786 28.4792 58.8555 28.4672C59.1361 28.4647 59.382 28.4626 59.5981 28.4609C60.2319 28.456 60.6213 28.4546 60.8733 28.4616C61.1218 28.4685 61.297 28.4837 61.4714 28.5376C62.5363 28.8671 63.6319 29.7334 64.23 30.7041L30.8564 32.8473ZM30.8564 32.8473L64.23 30.7041L30.8564 32.8473ZM64.23 30.7041C64.3581 30.9115 64.4781 31.13 64.5656 31.4594C64.6475 31.7667 64.6944 32.147 64.725 32.6814C64.7862 33.7481 64.7913 35.5942 64.7913 39.0541C64.7913 42.6252 64.79 44.4696 64.7244 45.5082C64.6912 46.0291 64.64 46.3991 64.5437 46.703C64.4419 47.0263 64.3 47.2392 64.1706 47.4316L64.23 30.7041Z" fill="url(#paint0_linear_12_91)" stroke="url(#paint1_linear_12_91)" stroke-width="2.13798"/>
<path d="M114.206 49.6401H105.066L103.322 53.8681H98.6531L107.428 34.1373H111.928L120.731 53.8681H115.95L114.206 49.6401ZM112.772 46.1731L109.65 38.619L106.528 46.1731H112.772ZM140.689 53.8681L140.661 42.0296L134.868 51.7823H132.814L127.049 42.2833V53.8681H122.774V34.1373H126.543L133.911 46.3986L141.168 34.1373H144.908L144.964 53.8681H140.689ZM164.879 50.2038V53.8681H149.636V34.1373H164.514V37.8016H154.164V42.086H163.304V45.6375H154.164V50.2038H164.879ZM168.504 34.1373H177.448C179.586 34.1373 181.47 34.5507 183.101 35.3775C184.751 36.1856 186.026 37.3318 186.926 38.8163C187.845 40.3008 188.304 42.0296 188.304 44.0027C188.304 45.9758 187.845 47.7046 186.926 49.1891C186.026 50.6736 184.751 51.8292 183.101 52.6561C181.47 53.4641 179.586 53.8681 177.448 53.8681H168.504V34.1373ZM177.223 50.1192C179.192 50.1192 180.758 49.5743 181.92 48.4844C183.101 47.3757 183.692 45.8818 183.692 44.0027C183.692 42.1236 183.101 40.6391 181.92 39.5492C180.758 38.4405 179.192 37.8862 177.223 37.8862H173.061V50.1192H177.223ZM206.984 50.2038V53.8681H191.741V34.1373H206.619V37.8016H196.269V42.086H205.409V45.6375H196.269V50.2038H206.984ZM220.089 54.2063C218.046 54.2063 216.199 53.7647 214.549 52.8815C212.918 51.9984 211.633 50.7863 210.696 49.2455C209.777 47.6858 209.318 45.9382 209.318 44.0027C209.318 42.0672 209.777 40.329 210.696 38.7881C211.633 37.2285 212.918 36.007 214.549 35.1239C216.199 34.2407 218.046 33.7991 220.089 33.7991C222.133 33.7991 223.971 34.2407 225.602 35.1239C227.233 36.007 228.518 37.2285 229.455 38.7881C230.393 40.329 230.861 42.0672 230.861 44.0027C230.861 45.9382 230.393 47.6858 229.455 49.2455C228.518 50.7863 227.233 51.9984 225.602 52.8815C223.971 53.7647 222.133 54.2063 220.089 54.2063ZM220.089 50.3165C221.252 50.3165 222.302 50.0535 223.239 49.5273C224.177 48.9824 224.908 48.2307 225.433 47.2724C225.977 46.314 226.249 45.2241 226.249 44.0027C226.249 42.7813 225.977 41.6914 225.433 40.733C224.908 39.7747 224.177 39.0324 223.239 38.5063C222.302 37.9613 221.252 37.6889 220.089 37.6889C218.927 37.6889 217.877 37.9613 216.939 38.5063C216.002 39.0324 215.261 39.7747 214.718 40.733C214.193 41.6914 213.93 42.7813 213.93 44.0027C213.93 45.2241 214.193 46.314 214.718 47.2724C215.261 48.2307 216.002 48.9824 216.939 49.5273C217.877 50.0535 218.927 50.3165 220.089 50.3165Z" fill="#27272C"/>
<path d="M108.311 82.1902C106.751 82.1902 105.341 81.8445 104.081 81.153C102.836 80.4614 101.854 79.5068 101.134 78.2892C100.429 77.0565 100.076 75.681 100.076 74.1626C100.076 72.6443 100.429 71.2763 101.134 70.0586C101.854 68.8259 102.844 67.8638 104.104 67.1723C105.364 66.4808 106.774 66.135 108.334 66.135C109.504 66.135 110.584 66.3304 111.574 66.7213C112.564 67.1122 113.404 67.6834 114.094 68.4351L113.036 69.4949C111.806 68.2472 110.254 67.6233 108.379 67.6233C107.134 67.6233 106.001 67.9089 104.981 68.4802C103.961 69.0514 103.159 69.8331 102.574 70.8253C102.004 71.8175 101.719 72.9299 101.719 74.1626C101.719 75.3953 102.004 76.5078 102.574 77.4999C103.159 78.4921 103.961 79.2738 104.981 79.8451C106.001 80.4163 107.134 80.702 108.379 80.702C110.269 80.702 111.821 80.0706 113.036 78.8078L114.094 79.8676C113.404 80.6193 112.556 81.1981 111.551 81.6039C110.561 81.9948 109.481 82.1902 108.311 82.1902ZM123.336 70.1037C124.821 70.1037 125.998 70.5397 126.868 71.4116C127.753 72.2685 128.196 73.5237 128.196 75.1773V82.0549H126.598V75.3352C126.598 74.1025 126.291 73.1629 125.676 72.5165C125.061 71.8701 124.183 71.5469 123.043 71.5469C121.768 71.5469 120.756 71.9302 120.006 72.6969C119.271 73.4486 118.903 74.4934 118.903 75.8313V82.0549H117.306V65.3232H118.903V72.2685C119.338 71.577 119.938 71.0433 120.703 70.6675C121.468 70.2916 122.346 70.1037 123.336 70.1037ZM142.882 76.6205H132.982C133.072 77.8532 133.544 78.8529 134.399 79.6196C135.254 80.3712 136.334 80.7471 137.639 80.7471C138.374 80.7471 139.049 80.6193 139.664 80.3637C140.279 80.0931 140.812 79.7023 141.262 79.1912L142.162 80.2284C141.637 80.8598 140.977 81.3409 140.182 81.6716C139.402 82.0023 138.539 82.1677 137.594 82.1677C136.379 82.1677 135.299 81.9121 134.354 81.401C133.424 80.8748 132.697 80.1533 132.172 79.2363C131.647 78.3192 131.384 77.282 131.384 76.1244C131.384 74.9669 131.632 73.9296 132.127 73.0126C132.637 72.0956 133.327 71.3815 134.197 70.8704C135.082 70.3593 136.072 70.1037 137.167 70.1037C138.262 70.1037 139.244 70.3593 140.114 70.8704C140.984 71.3815 141.667 72.0956 142.162 73.0126C142.657 73.9146 142.904 74.9519 142.904 76.1244L142.882 76.6205ZM137.167 71.4792C136.027 71.4792 135.067 71.8475 134.287 72.5842C133.522 73.3057 133.087 74.2528 132.982 75.4254H141.374C141.269 74.2528 140.827 73.3057 140.047 72.5842C139.282 71.8475 138.322 71.4792 137.167 71.4792ZM160.916 70.1037C162.401 70.1037 163.564 70.5322 164.404 71.389C165.259 72.2459 165.686 73.5087 165.686 75.1773V82.0549H164.089V75.3352C164.089 74.1025 163.789 73.1629 163.189 72.5165C162.603 71.8701 161.771 71.5469 160.691 71.5469C159.461 71.5469 158.493 71.9302 157.788 72.6969C157.083 73.4486 156.731 74.4934 156.731 75.8313V82.0549H155.133V75.3352C155.133 74.1025 154.833 73.1629 154.233 72.5165C153.648 71.8701 152.808 71.5469 151.713 71.5469C150.498 71.5469 149.531 71.9302 148.811 72.6969C148.106 73.4486 147.753 74.4934 147.753 75.8313V82.0549H146.156V70.1939H147.686V72.3587C148.106 71.6371 148.691 71.0809 149.441 70.69C150.191 70.2992 151.053 70.1037 152.028 70.1037C153.018 70.1037 153.873 70.3142 154.593 70.7351C155.328 71.156 155.876 71.7799 156.236 72.6067C156.671 71.825 157.293 71.2162 158.103 70.7802C158.928 70.3292 159.866 70.1037 160.916 70.1037ZM170.018 70.1939H171.616V82.0549H170.018V70.1939ZM170.828 67.6007C170.498 67.6007 170.221 67.488 169.996 67.2625C169.771 67.037 169.658 66.7664 169.658 66.4507C169.658 66.1501 169.771 65.887 169.996 65.6615C170.221 65.436 170.498 65.3232 170.828 65.3232C171.158 65.3232 171.436 65.436 171.661 65.6615C171.886 65.8719 171.998 66.1275 171.998 66.4282C171.998 66.7589 171.886 67.037 171.661 67.2625C171.436 67.488 171.158 67.6007 170.828 67.6007ZM180.966 82.1677C179.796 82.1677 178.746 81.9121 177.816 81.401C176.901 80.8899 176.181 80.1758 175.656 79.2588C175.131 78.3268 174.868 77.282 174.868 76.1244C174.868 74.9669 175.131 73.9296 175.656 73.0126C176.181 72.0956 176.901 71.3815 177.816 70.8704C178.746 70.3593 179.796 70.1037 180.966 70.1037C181.986 70.1037 182.893 70.3067 183.688 70.7126C184.498 71.1034 185.136 71.6822 185.601 72.4489L184.408 73.2606C184.018 72.6744 183.523 72.2384 182.923 71.9528C182.323 71.6521 181.671 71.5018 180.966 71.5018C180.111 71.5018 179.338 71.6972 178.648 72.0881C177.973 72.4639 177.441 73.0051 177.051 73.7116C176.676 74.4182 176.488 75.2224 176.488 76.1244C176.488 77.0414 176.676 77.8532 177.051 78.5598C177.441 79.2513 177.973 79.7925 178.648 80.1833C179.338 80.5591 180.111 80.7471 180.966 80.7471C181.671 80.7471 182.323 80.6042 182.923 80.3186C183.523 80.033 184.018 79.597 184.408 79.0108L185.601 79.8225C185.136 80.5892 184.498 81.1755 183.688 81.5814C182.878 81.9723 181.971 82.1677 180.966 82.1677ZM192.879 70.1037C194.424 70.1037 195.609 70.4946 196.434 71.2763C197.259 72.043 197.671 73.1855 197.671 74.7038V82.0549H196.141V80.2059C195.781 80.8222 195.249 81.3033 194.544 81.649C193.854 81.9948 193.029 82.1677 192.069 82.1677C190.749 82.1677 189.699 81.852 188.919 81.2206C188.139 80.5892 187.749 79.7549 187.749 78.7176C187.749 77.7104 188.109 76.8986 188.829 76.2823C189.564 75.6659 190.726 75.3577 192.316 75.3577H196.074V74.6362C196.074 73.6139 195.789 72.8397 195.219 72.3136C194.649 71.7724 193.816 71.5018 192.721 71.5018C191.971 71.5018 191.251 71.6296 190.561 71.8851C189.871 72.1257 189.279 72.4639 188.784 72.8999L188.064 71.7047C188.664 71.1936 189.384 70.8028 190.224 70.5322C191.064 70.2465 191.949 70.1037 192.879 70.1037ZM192.316 80.9049C193.216 80.9049 193.989 80.702 194.634 80.2961C195.279 79.8752 195.759 79.2738 196.074 78.4921V76.5529H192.361C190.336 76.5529 189.324 77.2594 189.324 78.6725C189.324 79.364 189.586 79.9127 190.111 80.3186C190.636 80.7095 191.371 80.9049 192.316 80.9049ZM202.011 65.3232H203.608V82.0549H202.011V65.3232ZM211.226 82.1677C210.266 82.1677 209.343 82.0324 208.458 81.7618C207.588 81.4762 206.906 81.1229 206.411 80.702L207.131 79.4392C207.626 79.8301 208.248 80.1533 208.998 80.4088C209.748 80.6493 210.528 80.7696 211.338 80.7696C212.418 80.7696 213.213 80.6043 213.723 80.2735C214.248 79.9278 214.511 79.4467 214.511 78.8304C214.511 78.3944 214.368 78.0562 214.083 77.8156C213.798 77.5601 213.438 77.3722 213.003 77.2519C212.568 77.1166 211.991 76.9888 211.271 76.8686C210.311 76.6882 209.538 76.5078 208.953 76.3274C208.368 76.1319 207.866 75.8087 207.446 75.3577C207.041 74.9068 206.838 74.2829 206.838 73.4861C206.838 72.494 207.251 71.6822 208.076 71.0508C208.901 70.4194 210.048 70.1037 211.518 70.1037C212.283 70.1037 213.048 70.209 213.813 70.4194C214.578 70.6148 215.208 70.8779 215.703 71.2086L215.006 72.494C214.031 71.8175 212.868 71.4792 211.518 71.4792C210.498 71.4792 209.726 71.6596 209.201 72.0204C208.691 72.3812 208.436 72.8548 208.436 73.441C208.436 73.892 208.578 74.2528 208.863 74.5234C209.163 74.794 209.531 74.997 209.966 75.1323C210.401 75.2525 211.001 75.3803 211.766 75.5156C212.711 75.696 213.468 75.8764 214.038 76.0568C214.608 76.2372 215.096 76.5454 215.501 76.9813C215.906 77.4173 216.108 78.0186 216.108 78.7853C216.108 79.8225 215.673 80.6494 214.803 81.2657C213.948 81.867 212.756 82.1677 211.226 82.1677Z" fill="#27272C"/>
<defs>
<linearGradient id="paint0_linear_12_91" x1="41.3749" y1="29.1264" x2="41.3749" y2="82.6813" gradientUnits="userSpaceOnUse">
<stop stop-color="#2FFB80"/>
<stop offset="1" stop-color="#1DBB5C"/>
</linearGradient>
<linearGradient id="paint1_linear_12_91" x1="41.3749" y1="29.1264" x2="41.3749" y2="82.6813" gradientUnits="userSpaceOnUse">
<stop stop-color="#2FFB80"/>
<stop offset="1" stop-color="#1DBB5C"/>
</linearGradient>
</defs>
</svg>
