<svg width="18" height="18" viewBox="0 0 18 18" fill="none" xmlns="http://www.w3.org/2000/svg">
<path d="M3.6512 7.59333C5.0138 10.2698 7.2091 12.4545 9.8869 13.8258L11.9686 11.7451C12.2241 11.4898 12.6026 11.4047 12.9338 11.5181C13.9936 11.868 15.1386 12.0573 16.3118 12.0573C16.8323 12.0573 17.2581 12.4829 17.2581 13.003V16.3037C17.2581 16.8238 16.8323 17.2494 16.3118 17.2494C7.4267 17.2494 0.22583 10.0522 0.22583 1.17159C0.22583 0.65143 0.65164 0.22583 1.1721 0.22583H4.4839C5.0044 0.22583 5.4302 0.65143 5.4302 1.17159C5.4302 2.35376 5.6194 3.48873 5.9695 4.54793C6.0736 4.87893 5.9979 5.24783 5.7329 5.51263L3.6512 7.59333Z" fill="#41AD6C"/>
</svg>
