<svg width="1440" height="88" viewBox="0 0 1440 88" fill="none" xmlns="http://www.w3.org/2000/svg">
<path fill-rule="evenodd" clip-rule="evenodd" d="M0 16.7395L40 25.2341C80 33.7288 160 50.718 240 55.6732C320 60.8644 400 54.0215 480 40.3357C560 26.8859 640 6.3572 720 1.402C800 -3.78916 880 6.3572 960 16.7395C1040 26.8859 1120 37.0322 1200 35.3805C1280 33.7288 1360 20.043 1400 13.2001L1440 6.3572V88H1400C1360 88 1280 88 1200 88C1120 88 1040 88 960 88C880 88 800 88 720 88C640 88 560 88 480 88C400 88 320 88 240 88C160 88 80 88 40 88H0V16.7395Z" fill="white"/>
</svg>
