<svg width="32" height="48" viewBox="0 0 32 48" fill="none" xmlns="http://www.w3.org/2000/svg">
<path fill-rule="evenodd" clip-rule="evenodd" d="M16.0016 0C19.3958 0 20.4626 2.34106 21.3542 4.68212C21.733 5.67405 30.5492 28.92 30.8119 29.6166C30.8859 29.8119 30.8375 30.1304 30.5256 30.246C30.2133 30.3583 25.6321 32.0763 25.3793 32.167C25.1261 32.2576 24.841 32.1237 24.7476 31.8811C24.6535 31.6388 22.7546 26.5714 22.5404 26.0049H9.47816C9.26274 26.5714 7.34411 31.6494 7.2559 31.8811C7.16887 32.1127 6.89281 32.2682 6.62541 32.167C6.35684 32.0657 1.75481 30.3473 1.48308 30.246C1.22001 30.1482 1.09872 29.8589 1.19324 29.6166C1.51616 28.7456 10.1984 5.87426 10.643 4.68212C11.5027 2.3786 12.6081 0 16.0016 0ZM0.494624 41.59C0.220928 41.59 0 41.8106 0 42.0818V47.5116C0 47.7831 0.221321 48 0.494624 48H31.5093C31.781 48 32 47.7831 32 47.5116V42.0818C32 41.8103 31.781 41.59 31.5093 41.59H0.494624ZM15.976 7.59005L11.5582 20.3593H20.463L16.0303 7.59005H15.9764H15.976Z" fill="#EE3424"/>
</svg>
