<svg width="16" height="16" viewBox="0 0 16 16" fill="none" xmlns="http://www.w3.org/2000/svg">
<path d="M6.00174 14.2222C6.61539 14.2222 7.11285 13.7248 7.11285 13.1111C7.11285 12.4975 6.61539 12 6.00174 12C5.38809 12 4.89062 12.4975 4.89062 13.1111C4.89062 13.7248 5.38809 14.2222 6.00174 14.2222Z" fill="#2F80ED"/>
<path d="M11.7791 14.2222C12.3927 14.2222 12.8902 13.7248 12.8902 13.1111C12.8902 12.4975 12.3927 12 11.7791 12C11.1654 12 10.668 12.4975 10.668 13.1111C10.668 13.7248 11.1654 14.2222 11.7791 14.2222Z" fill="#2F80ED"/>
<path d="M14.71 2.84153C14.6686 2.78775 14.6154 2.74416 14.5546 2.71411C14.4937 2.68407 14.4268 2.66836 14.3589 2.6682H4.09224L3.89224 2.03264C3.87027 1.9644 3.83212 1.90249 3.78104 1.85218C3.72997 1.80188 3.66748 1.76468 3.59891 1.74375L1.77669 1.18375C1.72066 1.16654 1.66178 1.16052 1.60343 1.16606C1.54507 1.17159 1.48838 1.18857 1.43659 1.21601C1.33198 1.27144 1.25368 1.36615 1.21891 1.47931C1.18414 1.59247 1.19574 1.71481 1.25117 1.81941C1.3066 1.92401 1.40131 2.00231 1.51447 2.03709L3.11002 2.52597L5.14558 8.95709L4.42113 9.55264L4.36335 9.61042C4.1842 9.81787 4.08269 10.0811 4.07621 10.3552C4.06972 10.6292 4.15866 10.8969 4.3278 11.1126C4.44894 11.26 4.60287 11.3769 4.77728 11.4541C4.9517 11.5312 5.14175 11.5665 5.33224 11.5571H12.75C12.8679 11.5571 12.9809 11.5103 13.0643 11.4269C13.1476 11.3436 13.1945 11.2305 13.1945 11.1126C13.1945 10.9948 13.1476 10.8817 13.0643 10.7984C12.9809 10.715 12.8679 10.6682 12.75 10.6682H5.26113C5.20995 10.6664 5.16009 10.6515 5.11636 10.6249C5.07263 10.5982 5.03651 10.5608 5.01148 10.5161C4.98646 10.4714 4.97339 10.421 4.97352 10.3698C4.97365 10.3186 4.98699 10.2683 5.01224 10.2238L6.08335 9.33486H12.9411C13.0427 9.33782 13.1421 9.30592 13.223 9.24446C13.3039 9.183 13.3612 9.0957 13.3856 8.99709L14.8078 3.21931C14.8213 3.15305 14.8195 3.08458 14.8026 3.01911C14.7856 2.95365 14.754 2.89291 14.71 2.84153Z" fill="#2F80ED"/>
</svg>
