<svg width="16" height="16" viewBox="0 0 16 16" fill="none" xmlns="http://www.w3.org/2000/svg">
<path fill-rule="evenodd" clip-rule="evenodd" d="M0.999023 7.85317C0.999023 7.72056 1.0517 7.59339 1.14547 7.49962C1.23924 7.40585 1.36642 7.35317 1.49902 7.35317H13.292L10.145 4.20717C10.0511 4.11328 9.99839 3.98595 9.99839 3.85317C9.99839 3.72039 10.0511 3.59306 10.145 3.49917C10.2389 3.40528 10.3662 3.35254 10.499 3.35254C10.6318 3.35254 10.7591 3.40528 10.853 3.49917L14.853 7.49917C14.8996 7.54562 14.9365 7.60079 14.9617 7.66154C14.9869 7.72228 14.9999 7.7874 14.9999 7.85317C14.9999 7.91894 14.9869 7.98406 14.9617 8.0448C14.9365 8.10555 14.8996 8.16072 14.853 8.20717L10.853 12.2072C10.7591 12.3011 10.6318 12.3538 10.499 12.3538C10.3662 12.3538 10.2389 12.3011 10.145 12.2072C10.0511 12.1133 9.99839 11.9859 9.99839 11.8532C9.99839 11.7204 10.0511 11.5931 10.145 11.4992L13.292 8.35317H1.49902C1.36642 8.35317 1.23924 8.30049 1.14547 8.20672C1.0517 8.11296 0.999023 7.98578 0.999023 7.85317Z" fill="#3C3C3C" stroke="#3C3C3C"/>
</svg>
