<svg width="16" height="16" viewBox="0 0 16 16" fill="none" xmlns="http://www.w3.org/2000/svg">
<path d="M14 12.6663H6M2 3.33301H4.66667H2ZM14 3.33301H7.33333H14ZM2 7.99967H10H2ZM14 7.99967H12.6667H14ZM2 12.6663H3.33333H2Z" stroke="#2F80ED" stroke-width="1.3" stroke-linecap="round"/>
<path d="M6.00008 4.66667C6.73646 4.66667 7.33342 4.06971 7.33342 3.33333C7.33342 2.59695 6.73646 2 6.00008 2C5.2637 2 4.66675 2.59695 4.66675 3.33333C4.66675 4.06971 5.2637 4.66667 6.00008 4.66667Z" stroke="#2F80ED" stroke-width="1.3" stroke-linecap="round"/>
<path d="M11.3333 9.33366C12.0697 9.33366 12.6667 8.73671 12.6667 8.00033C12.6667 7.26395 12.0697 6.66699 11.3333 6.66699C10.597 6.66699 10 7.26395 10 8.00033C10 8.73671 10.597 9.33366 11.3333 9.33366Z" stroke="#2F80ED" stroke-width="1.3" stroke-linecap="round"/>
<path d="M4.66659 13.9997C5.40297 13.9997 5.99992 13.4027 5.99992 12.6663C5.99992 11.93 5.40297 11.333 4.66659 11.333C3.93021 11.333 3.33325 11.93 3.33325 12.6663C3.33325 13.4027 3.93021 13.9997 4.66659 13.9997Z" stroke="#2F80ED" stroke-width="1.3" stroke-linecap="round"/>
</svg>
