<svg width="24" height="24" viewBox="0 0 24 24" fill="none" xmlns="http://www.w3.org/2000/svg">
<path d="M19.4996 21.75H19.3721C4.63458 20.9025 2.54208 8.4675 2.24958 4.6725C2.22601 4.37744 2.26089 4.08062 2.35223 3.79906C2.44357 3.5175 2.58957 3.25673 2.78186 3.03169C2.97416 2.80665 3.20896 2.62177 3.47283 2.48763C3.7367 2.35349 4.02444 2.27274 4.31958 2.25H8.45208C8.75249 2.24971 9.04608 2.33963 9.2948 2.50812C9.54352 2.67661 9.73592 2.9159 9.84708 3.195L10.9871 6C11.0968 6.27266 11.1241 6.57156 11.0654 6.85957C11.0067 7.14758 10.8648 7.412 10.6571 7.62L9.05958 9.2325C9.30911 10.6506 9.98821 11.9578 11.005 12.9772C12.0218 13.9967 13.3272 14.6792 14.7446 14.9325L16.3721 13.32C16.5832 13.1146 16.8501 12.9759 17.1395 12.9213C17.429 12.8666 17.7281 12.8983 17.9996 13.0125L20.8271 14.145C21.102 14.2597 21.3365 14.4536 21.5008 14.702C21.6651 14.9504 21.7517 15.2422 21.7496 15.54V19.5C21.7496 20.0967 21.5125 20.669 21.0906 21.091C20.6686 21.5129 20.0963 21.75 19.4996 21.75ZM4.49958 3.75C4.30066 3.75 4.1099 3.82902 3.96925 3.96967C3.82859 4.11032 3.74958 4.30109 3.74958 4.5V4.56C4.09458 9 6.30708 19.5 19.4546 20.25C19.5531 20.2561 19.6519 20.2427 19.7452 20.2105C19.8385 20.1783 19.9246 20.1281 19.9985 20.0626C20.0723 19.9971 20.1325 19.9176 20.1756 19.8288C20.2187 19.74 20.2438 19.6436 20.2496 19.545V15.54L17.4221 14.4075L15.2696 16.545L14.9096 16.5C8.38458 15.6825 7.49958 9.1575 7.49958 9.09L7.45457 8.73L9.58458 6.5775L8.45958 3.75H4.49958Z" fill="#FED444"/>
</svg>
