<svg width="24" height="24" viewBox="0 0 24 24" fill="none" xmlns="http://www.w3.org/2000/svg">
<path d="M12 24C18.6274 24 24 18.6274 24 12C24 5.37258 18.6274 0 12 0C5.37258 0 0 5.37258 0 12C0 18.6274 5.37258 24 12 24Z" fill="#D80027"/>
<path d="M6.56719 7.30371L7.60312 10.4912H10.9547L8.24531 12.4646L9.28125 15.6521L6.56719 13.6834L3.85313 15.6521L4.89375 12.4646L2.17969 10.4912H5.53125L6.56719 7.30371Z" fill="#FFDA44"/>
<path d="M14.2267 18.5862L13.4345 17.6112L12.2626 18.0659L12.9423 17.0112L12.1501 16.0315L13.3642 16.355L14.0486 15.3003L14.1142 16.5565L15.3329 16.88L14.1564 17.33L14.2267 18.5862Z" fill="#FFDA44"/>
<path d="M15.8017 15.7269L16.1767 14.5269L15.1501 13.8003L16.4064 13.7815L16.7767 12.5815L17.1845 13.7722L18.4408 13.7581L17.433 14.5081L17.8361 15.6987L16.8095 14.9722L15.8017 15.7269Z" fill="#FFDA44"/>
<path d="M17.9249 8.8082L17.3717 9.93789L18.2717 10.8145L17.0295 10.6363L16.4764 11.7613L16.2608 10.5238L15.0139 10.3457L16.1295 9.75977L15.9139 8.51758L16.8139 9.39414L17.9249 8.8082Z" fill="#FFDA44"/>
<path d="M14.2594 5.38623L14.1657 6.63779L15.3329 7.11123L14.1094 7.41123L14.0204 8.66748L13.3594 7.59873L12.136 7.89873L12.9469 6.93779L12.2813 5.87373L13.4485 6.34717L14.2594 5.38623Z" fill="#FFDA44"/>
</svg>
