<svg width="24" height="24" viewBox="0 0 24 24" fill="none" xmlns="http://www.w3.org/2000/svg">
<path d="M21.7423 17.5757L13.5387 3.87504C13.2155 3.33531 12.6259 3 12 3C11.3741 3 10.7845 3.33531 10.4613 3.87508L2.25763 17.5757C1.92361 18.1336 1.91373 18.8325 2.23181 19.3997C2.54998 19.967 3.14943 20.3193 3.79631 20.3193H20.2037C20.8505 20.3193 21.45 19.967 21.7682 19.3997C22.0863 18.8324 22.0764 18.1335 21.7423 17.5757ZM20.6344 18.7549C20.5468 18.911 20.3817 19.0081 20.2037 19.0081H3.79631C3.61822 19.0081 3.45318 18.9111 3.36564 18.755C3.27806 18.5988 3.2808 18.4064 3.37271 18.2528L11.5764 4.55218C11.6654 4.40361 11.8277 4.31129 12 4.31129C12.1723 4.31129 12.3346 4.40361 12.4236 4.55218L20.6272 18.2528C20.7192 18.4064 20.7219 18.5988 20.6344 18.7549Z" fill="#FED444"/>
<path d="M12.0059 8.39551C11.5106 8.39551 11.124 8.66315 11.124 9.13763C11.124 10.5853 11.2931 12.6656 11.2931 14.1133C11.2932 14.4904 11.6194 14.6485 12.0059 14.6485C12.2959 14.6485 12.7066 14.4904 12.7066 14.1133C12.7066 12.6656 12.8757 10.5853 12.8757 9.13763C12.8757 8.66319 12.4771 8.39551 12.0059 8.39551Z" fill="#3C3C3C"/>
<path d="M12.0186 15.4873C11.4871 15.4873 11.0884 15.9131 11.0884 16.4241C11.0884 16.9229 11.4871 17.3608 12.0186 17.3608C12.5139 17.3608 12.9368 16.9229 12.9368 16.4241C12.9368 15.9131 12.5139 15.4873 12.0186 15.4873Z" fill="#3C3C3C"/>
</svg>
