<svg width="120" height="103" viewBox="0 0 120 103" fill="none" xmlns="http://www.w3.org/2000/svg">
<ellipse cx="2.04543" cy="2.04635" rx="2.04543" ry="2.04635" fill="#FED444"/>
<ellipse cx="48.4072" cy="2.04635" rx="2.04543" ry="2.04635" fill="#FED444"/>
<ellipse cx="94.773" cy="2.04635" rx="2.04543" ry="2.04635" fill="#FED444"/>
<ellipse cx="25.2266" cy="2.04635" rx="2.04543" ry="2.04635" fill="#FED444"/>
<ellipse cx="71.5884" cy="2.04635" rx="2.04543" ry="2.04635" fill="#FED444"/>
<ellipse cx="117.954" cy="2.04635" rx="2.04543" ry="2.04635" fill="#FED444"/>
<ellipse cx="2.04543" cy="41.6093" rx="2.04543" ry="2.04635" fill="#FED444"/>
<ellipse cx="48.4072" cy="41.6089" rx="2.04543" ry="2.04635" fill="#FED444"/>
<ellipse cx="94.773" cy="41.6089" rx="2.04543" ry="2.04635" fill="#FED444"/>
<ellipse cx="25.2266" cy="41.6089" rx="2.04543" ry="2.04635" fill="#FED444"/>
<ellipse cx="71.5884" cy="41.6089" rx="2.04543" ry="2.04635" fill="#FED444"/>
<ellipse cx="117.954" cy="41.6089" rx="2.04543" ry="2.04635" fill="#FED444"/>
<ellipse cx="2.04543" cy="81.1728" rx="2.04543" ry="2.04635" fill="#FED444"/>
<ellipse cx="48.4072" cy="81.1723" rx="2.04543" ry="2.04635" fill="#FED444"/>
<ellipse cx="94.773" cy="81.1723" rx="2.04543" ry="2.04635" fill="#FED444"/>
<ellipse cx="25.2266" cy="81.1723" rx="2.04543" ry="2.04635" fill="#FED444"/>
<ellipse cx="71.5884" cy="81.1723" rx="2.04543" ry="2.04635" fill="#FED444"/>
<ellipse cx="117.954" cy="81.1723" rx="2.04543" ry="2.04635" fill="#FED444"/>
<ellipse cx="2.04543" cy="21.8276" rx="2.04543" ry="2.04635" fill="#FED444"/>
<ellipse cx="48.4072" cy="21.8271" rx="2.04543" ry="2.04635" fill="#FED444"/>
<ellipse cx="94.773" cy="21.8271" rx="2.04543" ry="2.04635" fill="#FED444"/>
<ellipse cx="25.2266" cy="21.8271" rx="2.04543" ry="2.04635" fill="#FED444"/>
<ellipse cx="71.5884" cy="21.8271" rx="2.04543" ry="2.04635" fill="#FED444"/>
<ellipse cx="117.954" cy="21.8271" rx="2.04543" ry="2.04635" fill="#FED444"/>
<ellipse cx="2.04543" cy="61.3906" rx="2.04543" ry="2.04635" fill="#FED444"/>
<ellipse cx="48.4072" cy="61.3906" rx="2.04543" ry="2.04635" fill="#FED444"/>
<ellipse cx="94.773" cy="61.3906" rx="2.04543" ry="2.04635" fill="#FED444"/>
<ellipse cx="25.2266" cy="61.3906" rx="2.04543" ry="2.04635" fill="#FED444"/>
<ellipse cx="71.5884" cy="61.3906" rx="2.04543" ry="2.04635" fill="#FED444"/>
<ellipse cx="117.954" cy="61.3906" rx="2.04543" ry="2.04635" fill="#FED444"/>
<ellipse cx="2.04543" cy="100.953" rx="2.04543" ry="2.04635" fill="#FED444"/>
<ellipse cx="48.4072" cy="100.953" rx="2.04543" ry="2.04635" fill="#FED444"/>
<ellipse cx="94.773" cy="100.953" rx="2.04543" ry="2.04635" fill="#FED444"/>
<ellipse cx="25.2266" cy="100.953" rx="2.04543" ry="2.04635" fill="#FED444"/>
<ellipse cx="71.5884" cy="100.953" rx="2.04543" ry="2.04635" fill="#FED444"/>
<ellipse cx="117.954" cy="100.953" rx="2.04543" ry="2.04635" fill="#FED444"/>
</svg>
