<svg width="24" height="24" viewBox="0 0 24 24" fill="none" xmlns="http://www.w3.org/2000/svg">
<path d="M15.6667 2H5.66667C5.22479 2.0005 4.80116 2.17625 4.4887 2.4887C4.17625 2.80116 4.0005 3.22479 4 3.66667V20.3333C4.0005 20.7752 4.17625 21.1988 4.4887 21.5113C4.80116 21.8237 5.22479 21.9995 5.66667 22H18.3333C18.7752 21.9995 19.1988 21.8237 19.5113 21.5113C19.8238 21.1988 19.9995 20.7752 20 20.3333V6.33333C20 6.28956 19.9914 6.24621 19.9746 6.20577C19.9579 6.16533 19.9333 6.12858 19.9024 6.09763L15.9024 2.09763C15.8714 2.06667 15.8347 2.04212 15.7942 2.02537C15.7538 2.00862 15.7104 2 15.6667 2ZM19.3333 20.3333C19.333 20.5985 19.2276 20.8526 19.0401 21.0401C18.8526 21.2276 18.5985 21.333 18.3333 21.3333H5.66667C5.40155 21.333 5.14737 21.2276 4.9599 21.0401C4.77243 20.8526 4.66698 20.5985 4.66667 20.3333V3.66667C4.66698 3.40155 4.77243 3.14737 4.9599 2.9599C5.14737 2.77243 5.40155 2.66698 5.66667 2.66667H15.3333V5C15.3338 5.44188 15.5096 5.86551 15.822 6.17796C16.1345 6.49042 16.5581 6.66617 17 6.66667H19.3333V20.3333ZM16 3.13804L18.862 6H17C16.7349 5.99969 16.4807 5.89424 16.2932 5.70677C16.1058 5.5193 16.0003 5.26512 16 5V3.13804Z" fill="#FED444" stroke="#FED444" stroke-width="0.5"/>
<path d="M12.5 11C12.2033 11 11.9133 11.088 11.6666 11.2528C11.42 11.4176 11.2277 11.6519 11.1142 11.926C11.0006 12.2001 10.9709 12.5017 11.0288 12.7926C11.0867 13.0836 11.2296 13.3509 11.4393 13.5607C11.6491 13.7704 11.9164 13.9133 12.2074 13.9712C12.4983 14.0291 12.7999 13.9993 13.074 13.8858C13.3481 13.7723 13.5824 13.58 13.7472 13.3334C13.912 13.0867 14 12.7967 14 12.5C13.9995 12.1023 13.8414 11.7211 13.5601 11.4399C13.2789 11.1586 12.8977 11.0005 12.5 11ZM12.5 13C12.4011 13 12.3044 12.9707 12.2222 12.9157C12.14 12.8608 12.0759 12.7827 12.0381 12.6913C12.0002 12.6 11.9903 12.4994 12.0096 12.4025C12.0289 12.3055 12.0765 12.2164 12.1464 12.1464C12.2164 12.0765 12.3055 12.0289 12.4025 12.0096C12.4994 11.9903 12.6 12.0002 12.6913 12.0381C12.7827 12.0759 12.8608 12.14 12.9157 12.2222C12.9707 12.3044 13 12.4011 13 12.5C12.9999 12.6326 12.9471 12.7597 12.8534 12.8534C12.7597 12.9471 12.6326 12.9999 12.5 13Z" fill="#3C3C3C"/>
<path d="M8.5 11C8.20333 11 7.91332 11.088 7.66665 11.2528C7.41997 11.4176 7.22771 11.6519 7.11418 11.926C7.00065 12.2001 6.97094 12.5017 7.02882 12.7926C7.0867 13.0836 7.22956 13.3509 7.43934 13.5607C7.64912 13.7704 7.91639 13.9133 8.20736 13.9712C8.49834 14.0291 8.79994 13.9993 9.07402 13.8858C9.34811 13.7723 9.58238 13.58 9.7472 13.3334C9.91203 13.0867 10 12.7967 10 12.5C9.99954 12.1023 9.84135 11.7211 9.56015 11.4399C9.27894 11.1586 8.89768 11.0005 8.5 11ZM8.5 13C8.40111 13 8.30444 12.9707 8.22222 12.9157C8.13999 12.8608 8.0759 12.7827 8.03806 12.6913C8.00022 12.6 7.99032 12.4994 8.00961 12.4025C8.0289 12.3055 8.07652 12.2164 8.14645 12.1464C8.21637 12.0765 8.30546 12.0289 8.40245 12.0096C8.49945 11.9903 8.59998 12.0002 8.69134 12.0381C8.7827 12.0759 8.86079 12.14 8.91574 12.2222C8.97068 12.3044 9 12.4011 9 12.5C8.99985 12.6326 8.94713 12.7597 8.85339 12.8534C8.75965 12.9471 8.63256 12.9999 8.5 13Z" fill="#3C3C3C"/>
<path d="M16.5 11C16.2033 11 15.9133 11.088 15.6666 11.2528C15.42 11.4176 15.2277 11.6519 15.1142 11.926C15.0007 12.2001 14.9709 12.5017 15.0288 12.7926C15.0867 13.0836 15.2296 13.3509 15.4393 13.5607C15.6491 13.7704 15.9164 13.9133 16.2074 13.9712C16.4983 14.0291 16.7999 13.9993 17.074 13.8858C17.3481 13.7723 17.5824 13.58 17.7472 13.3334C17.912 13.0867 18 12.7967 18 12.5C17.9995 12.1023 17.8414 11.7211 17.5601 11.4399C17.2789 11.1586 16.8977 11.0005 16.5 11ZM16.5 13C16.4011 13 16.3044 12.9707 16.2222 12.9157C16.14 12.8608 16.0759 12.7827 16.0381 12.6913C16.0002 12.6 15.9903 12.4994 16.0096 12.4025C16.0289 12.3055 16.0765 12.2164 16.1464 12.1464C16.2164 12.0765 16.3055 12.0289 16.4025 12.0096C16.4994 11.9903 16.6 12.0002 16.6913 12.0381C16.7827 12.0759 16.8608 12.14 16.9157 12.2222C16.9707 12.3044 17 12.4011 17 12.5C16.9999 12.6326 16.9471 12.7597 16.8534 12.8534C16.7597 12.9471 16.6326 12.9999 16.5 13Z" fill="#3C3C3C"/>
</svg>
