<svg width="16" height="16" viewBox="0 0 16 16" fill="none" xmlns="http://www.w3.org/2000/svg">
<path d="M11 8C11.6504 7.99981 12.2832 7.78822 12.8029 7.39712C13.3227 7.00601 13.7012 6.45659 13.8815 5.83163C14.0618 5.20668 14.0341 4.54005 13.8026 3.9322C13.5711 3.32435 13.1483 2.80821 12.5979 2.46156C12.0476 2.1149 11.3994 1.95652 10.7512 2.01026C10.103 2.06401 9.48978 2.32698 9.00402 2.75954C8.51825 3.19211 8.18623 3.77083 8.05798 4.40851C7.92974 5.04619 8.01222 5.70828 8.29299 6.295L5.95299 7.465C5.53878 7.16947 5.04425 7.00736 4.53546 7.00034C4.02668 6.99333 3.52786 7.14173 3.10566 7.42572C2.68345 7.70972 2.35795 8.11578 2.17265 8.58968C1.98734 9.06357 1.95106 9.58272 2.06864 10.0778C2.18621 10.5729 2.45206 11.0203 2.83065 11.3602C3.20925 11.7002 3.68257 11.9165 4.18738 11.9804C4.6922 12.0442 5.20447 11.9525 5.65577 11.7174C6.10707 11.4824 6.4759 11.1152 6.71299 10.665L9.00899 11.813C8.96355 12.2974 9.09623 12.7817 9.38218 13.1753C9.66812 13.5689 10.0877 13.8448 10.5624 13.9513C11.0372 14.0578 11.5344 13.9876 11.9611 13.7539C12.3878 13.5202 12.7146 13.1389 12.8805 12.6815C13.0463 12.2242 13.0397 11.722 12.862 11.2691C12.6843 10.8163 12.3476 10.4437 11.9149 10.2212C11.4823 9.99872 10.9833 9.94156 10.5116 10.0604C10.0398 10.1793 9.62755 10.4661 9.35199 10.867L6.99299 9.687C7.03222 9.1785 6.91423 8.67022 6.65499 8.231L8.87799 7.121C9.1563 7.40016 9.48705 7.62153 9.85122 7.77239C10.2154 7.92324 10.6058 8.0006 11 8Z" fill="#2F80ED"/>
</svg>
