<svg width="227" height="50" viewBox="0 0 227 50" fill="none" xmlns="http://www.w3.org/2000/svg">
<g clip-path="url(#clip0)">
<path d="M13.8711 7.22949L28.2971 7.22949L14.9808 49.3977L0 49.3977L13.8711 7.22949Z" fill="#FED444"/>
<path d="M19.4187 34.9717L37.1738 34.9717L32.735 49.3976L14.98 49.3976L19.4187 34.9717Z" fill="#EAC030"/>
<path d="M31.6256 7.22949L41.6128 23.32L37.174 32.7524L22.748 32.7524L31.6256 7.22949Z" fill="#20263E"/>
<path d="M31.6265 7.22949L46.0524 7.22949L59.9236 49.3977L44.9427 49.3977L31.6265 7.22949Z" fill="#343A52"/>
<path d="M59.3683 7.22949L73.7942 7.22949L59.9231 49.3977L52.1553 28.3136L59.3683 7.22949Z" fill="#20263E"/>
<path d="M13.8711 7.22949L28.2971 7.22949L14.9808 49.3977L0 49.3977L13.8711 7.22949Z" fill="#FED444"/>
<path d="M19.4187 34.9717L37.1738 34.9717L32.735 49.3976L14.98 49.3976L19.4187 34.9717Z" fill="#EAC030"/>
<path d="M31.6256 7.22949L41.6128 23.32L37.174 32.7524L22.748 32.7524L31.6256 7.22949Z" fill="#343A52"/>
<path d="M59.3683 7.22949L73.7942 7.22949L59.9231 49.3977L52.1553 28.3136L59.3683 7.22949Z" fill="#343A52"/>
<path d="M31.627 7.22949L46.0529 7.22949L59.924 49.3977L44.9432 49.3977L31.627 7.22949Z" fill="#484E66"/>
<path d="M88.456 35.2222L223.38 35.2222L227 42.7098L223.38 49.2184L88.456 49.2184L84.3555 42.3477L88.456 35.2222Z" fill="#343A52"/>
<path d="M93.3154 45.9004L93.3154 39.6283H93.9889L93.9889 42.4057L97.4792 42.4057L97.4792 39.6283H98.1528L98.1528 45.9004L97.4792 45.9004V43.0355L93.9889 43.0355V45.9004H93.3154ZM100.929 45.9004L100.929 39.6283H101.603L101.603 45.9004H100.929ZM104.917 45.0475C104.29 44.4206 103.977 43.6595 103.977 42.7644C103.977 41.8692 104.29 41.1081 104.917 40.4812C105.544 39.8543 106.305 39.5409 107.201 39.5409C107.518 39.5409 107.823 39.5861 108.115 39.6764C108.406 39.7639 108.647 39.8704 108.836 39.9957C109.029 40.1211 109.196 40.248 109.339 40.3763C109.485 40.5046 109.59 40.6139 109.654 40.7043L109.755 40.8399L109.304 41.2423C109.287 41.2131 109.261 41.1752 109.226 41.1286C109.191 41.079 109.109 40.993 108.981 40.8705C108.852 40.748 108.712 40.6401 108.561 40.5468C108.412 40.4506 108.215 40.3631 107.97 40.2844C107.725 40.2057 107.469 40.1663 107.201 40.1663C106.483 40.1663 105.878 40.4156 105.385 40.9142C104.893 41.4129 104.646 42.0296 104.646 42.7644C104.646 43.4992 104.893 44.1159 105.385 44.6145C105.878 45.1131 106.483 45.3624 107.201 45.3624C107.451 45.3624 107.69 45.3333 107.918 45.2749C108.145 45.2137 108.332 45.1423 108.478 45.0606C108.623 44.9761 108.752 44.8944 108.863 44.8157C108.973 44.734 109.052 44.6626 109.099 44.6014L109.173 44.5139V43.3023H107.738V42.6769H109.842V44.6932C109.819 44.7282 109.781 44.7749 109.729 44.8332C109.679 44.8886 109.571 44.9906 109.405 45.1393C109.239 45.2881 109.059 45.4207 108.867 45.5374C108.677 45.654 108.431 45.759 108.128 45.8523C107.827 45.9427 107.518 45.9879 107.201 45.9879C106.305 45.9879 105.544 45.6744 104.917 45.0475ZM112.396 45.9004L112.396 39.6283H113.069L113.069 42.4057L116.56 42.4057L116.56 39.6283H117.233L117.233 45.9004H116.56V43.0355L113.069 43.0355V45.9004H112.396ZM122.611 39.6283L124.986 39.6283C125.566 39.6283 126.048 39.8164 126.43 40.1926C126.812 40.5687 127.003 41.0382 127.003 41.6009C127.003 42.1608 126.81 42.6302 126.425 43.0093C126.043 43.3854 125.564 43.5735 124.986 43.5735H123.285V45.9004L122.611 45.9004L122.611 39.6283ZM124.986 40.2582L123.285 40.2582L123.285 42.9437H124.986C125.392 42.9437 125.717 42.8212 125.962 42.5763C126.207 42.3314 126.329 42.0062 126.329 41.6009C126.329 41.1956 126.207 40.8705 125.962 40.6256C125.717 40.3806 125.392 40.2582 124.986 40.2582ZM130.466 44.8026C130.833 45.1758 131.276 45.3624 131.795 45.3624C132.314 45.3624 132.758 45.1758 133.125 44.8026C133.492 44.4293 133.676 43.9745 133.676 43.4379V39.6283H134.35V43.4379C134.35 44.1319 134.097 44.7311 133.593 45.2356C133.089 45.7371 132.489 45.9879 131.795 45.9879C131.104 45.9879 130.507 45.7356 130.002 45.2312C129.498 44.7267 129.245 44.129 129.245 43.4379V39.6283H129.915V43.4379C129.915 43.9745 130.098 44.4293 130.466 44.8026ZM137.034 39.6283H139.541C140.095 39.6283 140.554 39.8077 140.918 40.1663C141.286 40.525 141.469 40.9726 141.469 41.5091C141.469 41.7773 141.424 42.0223 141.334 42.2439C141.243 42.4655 141.136 42.639 141.01 42.7644C140.885 42.8897 140.758 42.9962 140.63 43.0837C140.501 43.1711 140.393 43.2294 140.306 43.2586L140.17 43.3023L141.649 45.9004H140.888L139.497 43.3942H137.708V45.9004H137.034V39.6283ZM139.541 40.2582H137.708V42.7644H139.541C139.923 42.7644 140.227 42.6521 140.455 42.4276C140.682 42.2001 140.796 41.8954 140.796 41.5134C140.796 41.1286 140.682 40.8238 140.455 40.5993C140.227 40.3719 139.923 40.2582 139.541 40.2582ZM143.975 45.9004V39.6283L144.648 39.6283V45.9004H143.975ZM146.664 39.6283L151.278 39.6283V40.2582H149.306V45.9004H148.636V40.2582L146.664 40.2582V39.6283ZM155.17 42.9874H155.214L157.094 39.6283H157.86L155.529 43.7047V45.9004H154.855V43.7047L152.528 39.6283L153.289 39.6283L155.17 42.9874ZM168.163 40.7961L165.652 44.1071L163.146 40.7961V45.9004H162.472V39.6283H163.054L165.652 43.0355L168.25 39.6283H168.832V45.9004H168.163V40.7961ZM175.011 43.5254L173.804 40.5687L172.593 43.5254L175.011 43.5254ZM175.283 44.1552L172.326 44.1552L171.609 45.9004H170.891L173.489 39.6283H174.115L176.713 45.9004H176L175.283 44.1552ZM177.473 39.6283L182.087 39.6283V40.2582L180.115 40.2582V45.9004H179.446V40.2582H177.473V39.6283ZM184.772 45.2749L188.49 45.2749V45.9004L184.098 45.9004V39.6283L188.398 39.6283V40.2582L184.772 40.2582V42.3182L187.681 42.3182V42.9437L184.772 42.9437V45.2749ZM190.724 39.6283H193.23C193.784 39.6283 194.243 39.8077 194.608 40.1663C194.975 40.525 195.159 40.9726 195.159 41.5091C195.159 41.7773 195.114 42.0223 195.023 42.2439C194.933 42.4655 194.825 42.639 194.7 42.7644C194.574 42.8897 194.447 42.9962 194.319 43.0837C194.191 43.1711 194.083 43.2294 193.995 43.2586L193.86 43.3023L195.338 45.9004H194.577L193.186 43.3942H191.397V45.9004H190.724V39.6283ZM193.23 40.2582H191.397V42.7644H193.23C193.612 42.7644 193.917 42.6521 194.144 42.4276C194.372 42.2001 194.485 41.8954 194.485 41.5134C194.485 41.1286 194.372 40.8238 194.144 40.5993C193.917 40.3719 193.612 40.2582 193.23 40.2582ZM197.664 45.9004V39.6283L198.338 39.6283V45.9004H197.664ZM204.517 43.5254L203.31 40.5687L202.098 43.5254L204.517 43.5254ZM204.788 44.1552L201.832 44.1552L201.114 45.9004H200.397L202.995 39.6283H203.62L206.219 45.9004L205.506 45.9004L204.788 44.1552ZM212.179 45.9004L208.282 45.9004V39.6283H208.956V45.2749L212.179 45.2749V45.9004ZM217.191 44.199C217.191 43.9832 217.128 43.7995 217.003 43.6479C216.877 43.4962 216.714 43.3782 216.513 43.2936C216.314 43.209 216.094 43.1332 215.852 43.0662C215.61 42.9962 215.368 42.9204 215.126 42.8387C214.884 42.7542 214.663 42.6521 214.461 42.5325C214.263 42.413 214.101 42.2439 213.976 42.0252C213.851 41.8065 213.788 41.5455 213.788 41.2423C213.788 40.7699 213.973 40.369 214.343 40.0395C214.714 39.7071 215.201 39.5409 215.804 39.5409C216.032 39.5409 216.247 39.57 216.452 39.6283C216.659 39.6837 216.831 39.7508 216.968 39.8295C217.105 39.9053 217.227 39.9826 217.335 40.0613C217.443 40.1372 217.52 40.2028 217.567 40.2582L217.641 40.3456L217.191 40.7961C217.179 40.7786 217.162 40.7568 217.138 40.7305C217.115 40.7014 217.059 40.6518 216.972 40.5818C216.885 40.5089 216.791 40.4448 216.692 40.3894C216.596 40.3311 216.466 40.28 216.303 40.2363C216.142 40.1896 215.976 40.1663 215.804 40.1663C215.393 40.1663 215.065 40.2713 214.82 40.4812C214.578 40.6912 214.457 40.9449 214.457 41.2423C214.457 41.458 214.52 41.6417 214.645 41.7934C214.771 41.945 214.934 42.0631 215.135 42.1477C215.336 42.2322 215.558 42.3095 215.8 42.3795C216.042 42.4465 216.282 42.5223 216.522 42.6069C216.764 42.6885 216.985 42.7891 217.186 42.9087C217.388 43.0282 217.551 43.1974 217.676 43.4161C217.802 43.6318 217.864 43.8928 217.864 44.199C217.864 44.7297 217.678 45.1612 217.304 45.4936C216.931 45.8231 216.415 45.9879 215.756 45.9879C215.488 45.9879 215.233 45.9558 214.991 45.8916C214.749 45.8246 214.55 45.7473 214.396 45.6598C214.241 45.5694 214.104 45.4776 213.985 45.3843C213.865 45.291 213.782 45.2122 213.735 45.1481L213.652 45.0475L214.063 44.5926C214.075 44.6101 214.096 44.6378 214.125 44.6757C214.157 44.7107 214.224 44.7734 214.326 44.8638C214.428 44.9513 214.537 45.0285 214.654 45.0956C214.773 45.1598 214.934 45.221 215.135 45.2793C215.336 45.3347 215.543 45.3624 215.756 45.3624C216.217 45.3624 216.571 45.256 216.819 45.0431C217.067 44.8273 217.191 44.546 217.191 44.199Z" fill="white"/>
<path d="M111.153 30H95.8044L100.584 7.38003H105.427L101.562 25.6464H112.052L111.153 30ZM128.953 20.4725L127.786 13.0429L123.448 20.4725H128.953ZM129.695 24.6684H120.972L117.896 30H112.596L126.272 7.38003H131.43L135.531 30H130.499L129.695 24.6684ZM159.231 7.38003H164.074L159.294 30H155.256L146.991 15.5983L143.946 30H139.104L143.883 7.38003H147.921L156.203 21.7975L159.231 7.38003ZM189.588 7.38003L184.808 30H179.966L181.906 20.788H172.205L170.265 30H165.422L170.202 7.38003H175.044L173.151 16.4343H182.837L184.745 7.38003H189.588ZM190.952 30L195.732 7.38003H200.574L195.795 30H190.952ZM204.462 7.38003H222.224L221.325 11.7494H214.857L210.993 30H206.134L210.015 11.7494H203.563L204.462 7.38003Z" fill="white"/>
</g>
<defs>
<clipPath id="clip0">
<rect width="227" height="50" fill="white"/>
</clipPath>
</defs>
</svg>
