<svg width="24" height="24" viewBox="0 0 24 24" fill="none" xmlns="http://www.w3.org/2000/svg">
<path d="M22.6236 11.7167H20.7624C21.5361 9.96007 21.4525 8.53802 21.1597 7.57604C20.6578 5.86122 18.9639 4 16.4544 4C15.7852 4 15.116 4.12548 14.4259 4.37643C13.2338 4.81559 12.4392 5.29658 12.0837 5.54753C11.7281 5.29658 10.9544 4.81559 9.74144 4.37643C9.05133 4.12548 8.36122 4 7.71293 4C5.20342 4 3.50951 5.86122 3.0076 7.57604C2.71483 8.60076 2.61027 10.1483 3.59316 12.0932H1.3346C1.14639 12.0932 1 12.2395 1 12.4278C1 12.616 1.14639 12.7624 1.3346 12.7624H3.99049C4.09506 12.9506 4.22053 13.1388 4.36692 13.327C6.54183 16.4639 11.2681 19.8726 12.1255 20.0817V20.1027C12.1255 20.1027 12.1464 20.1027 12.1673 20.0817C12.1882 20.0817 12.2091 20.0817 12.23 20.0817V20.0608C12.962 19.7053 17.5 16.7776 19.884 13.3061C20.1141 12.9924 20.3023 12.6787 20.4696 12.365H22.6654C22.8536 12.365 23 12.2186 23 12.0304C23 11.8422 22.8118 11.7167 22.6236 11.7167ZM19.2776 12.9506C17.0608 16.192 12.9829 18.8061 12.1046 19.3707C11.2053 18.8061 7.14829 16.1711 4.91065 12.9506C4.86882 12.8878 4.827 12.8251 4.78517 12.7624H7.85932C7.98479 12.7624 8.11027 12.6996 8.173 12.5741L9.57414 9.81369L11.77 15.4392C11.8118 15.5646 11.9582 15.6483 12.0837 15.6483C12.0837 15.6483 12.0836 15.6483 12.1046 15.6483C12.2509 15.6483 12.3764 15.5437 12.4183 15.3973L14.3422 8.80988L15.3669 12.135C15.4087 12.2605 15.5133 12.3441 15.6388 12.365C15.7643 12.3859 15.8897 12.3232 15.9734 12.2186L16.789 11.0266L17.4791 12.1977C17.5418 12.3023 17.6464 12.365 17.7719 12.365H19.654C19.5285 12.5741 19.403 12.7624 19.2776 12.9506ZM20.0304 11.7167H17.981L17.1236 10.2528C17.0608 10.1483 16.9563 10.0855 16.8308 10.0855C16.7053 10.0855 16.6008 10.1274 16.538 10.2319L15.827 11.2776L14.6768 7.53422C14.635 7.38783 14.4886 7.30418 14.3422 7.28327C14.1958 7.28327 14.0494 7.38783 14.0076 7.53422L12.0627 14.2471L9.95057 8.85171C9.90874 8.72623 9.78327 8.64258 9.65779 8.64258C9.51141 8.64258 9.40684 8.70532 9.34411 8.8308L7.69202 12.0722H4.36692C3.53042 10.5456 3.30038 9.08175 3.67681 7.76426C4.11597 6.27947 5.55894 4.69011 7.73384 4.69011C8.31939 4.69011 8.92586 4.81559 9.53232 5.02471C11.0589 5.58935 11.8745 6.23764 11.8954 6.23764C12.0209 6.3422 12.1882 6.3422 12.3137 6.23764C12.3137 6.23764 13.1293 5.58935 14.6768 5.02471C15.2833 4.79468 15.8897 4.69011 16.4753 4.69011C18.6293 4.69011 20.0932 6.27947 20.5323 7.76426C20.8878 8.97718 20.6996 10.3156 20.0304 11.7167Z" fill="#FED444" stroke="#FED444" stroke-width="0.458333"/>
<path d="M20.7624 11.7064H22.6236C22.8118 11.7064 23 11.8319 23 12.0201C23 12.2083 22.8536 12.3547 22.6654 12.3547H20.4696H19.0057H17.7719C17.6464 12.3547 17.5418 12.292 17.4791 12.1874L16.789 11.0163L15.9734 12.2083C15.8897 12.3129 15.7643 12.3756 15.6388 12.3547C15.5133 12.3338 15.4087 12.2501 15.3669 12.1247L14.3422 8.79956L12.4183 15.387C12.3764 15.5334 12.2509 15.638 12.1046 15.638H12.0837C11.9582 15.638 11.8118 15.5543 11.77 15.4288L9.57414 9.80336L8.173 12.5638C8.11027 12.6893 7.98479 12.752 7.85932 12.752H6.32224H3.99049H1.3346C1.14639 12.752 1 12.6056 1 12.4174C1 12.2292 1.14639 12.0828 1.3346 12.0828H3.59316L4.60741 12.0724L7.69202 12.0619L9.34411 8.82048C9.40684 8.695 9.51141 8.63226 9.65779 8.63226C9.78327 8.63226 9.90874 8.71591 9.95057 8.84139L12.0627 14.2368L14.0076 7.5239C14.0494 7.37751 14.1958 7.27295 14.3422 7.27295C14.4886 7.29386 14.635 7.37751 14.6768 7.5239L15.827 11.2672L16.538 10.2216C16.6008 10.1171 16.7053 10.0752 16.8308 10.0752C16.9563 10.0752 17.0608 10.138 17.1236 10.2425L17.981 11.7064H19.0057H20.7624Z" fill="#3C3C3C"/>
<path d="M3.99049 12.752H1.3346C1.14639 12.752 1 12.6056 1 12.4174C1 12.2292 1.14639 12.0828 1.3346 12.0828H3.59316L4.60741 12.0724L7.69202 12.0619L9.34411 8.82048C9.40684 8.695 9.51141 8.63226 9.65779 8.63226C9.78327 8.63226 9.90875 8.71591 9.95057 8.84139L12.0627 14.2368L14.0076 7.5239C14.0494 7.37751 14.1958 7.27295 14.3422 7.27295C14.4886 7.29386 14.635 7.37751 14.6768 7.5239L15.827 11.2672L16.538 10.2216C16.6008 10.1171 16.7053 10.0752 16.8308 10.0752C16.9563 10.0752 17.0608 10.138 17.1236 10.2425L17.981 11.7064H19.0057H20.7624H22.6236C22.8118 11.7064 23 11.8319 23 12.0201C23 12.2083 22.8536 12.3547 22.6654 12.3547H20.4696H19.0057H17.7719C17.6464 12.3547 17.5418 12.292 17.4791 12.1874L16.789 11.0163L15.9734 12.2083C15.8897 12.3129 15.7643 12.3756 15.6388 12.3547C15.5133 12.3338 15.4087 12.2501 15.3669 12.1247L14.3422 8.79956L12.4183 15.387C12.3764 15.5334 12.251 15.638 12.1046 15.638C12.0836 15.638 12.0837 15.638 12.0837 15.638C11.9582 15.638 11.8118 15.5543 11.77 15.4288L9.57414 9.80336L8.173 12.5638C8.11027 12.6893 7.98479 12.752 7.85932 12.752H6.32224H3.99049ZM3.99049 12.752C3.94867 12.6893 4.03232 12.8148 3.99049 12.752Z" stroke="#3C3C3C" stroke-width="0.458333"/>
</svg>
