<svg width="24" height="24" viewBox="0 0 24 24" fill="none" xmlns="http://www.w3.org/2000/svg">
<g clip-path="url(#clip0)">
<path d="M22.1261 15.0676C22.0843 14.9787 22.0075 14.9114 21.9139 14.8818C21.7547 14.8315 17.9855 13.6629 15.464 14.8477C13.9247 15.571 13.2961 17.6166 13.4803 18.7146C13.0752 18.9988 12.7288 19.2632 12.4492 19.4875C12.577 18.8635 12.6989 18.1816 12.805 17.4476C13 16.0997 13.1159 14.7464 13.1535 13.4012C13.1852 13.2498 13.4237 12.2439 14.2968 11.3043C14.524 11.4954 14.8263 11.6676 15.1626 11.7889C15.4949 11.9087 15.8265 11.9686 16.1431 11.9686C16.4774 11.9686 16.795 11.9018 17.0787 11.7685C18.8097 10.9551 19.8362 8.46957 19.8791 8.36415C19.916 8.27326 19.9133 8.17107 19.8716 8.08224C19.8298 7.99341 19.753 7.9261 19.6594 7.89652C19.5509 7.86226 16.9821 7.06594 15.2513 7.87923C14.0767 8.43118 13.6881 9.97862 13.883 10.7158C13.5846 11.0183 13.3466 11.3295 13.1573 11.6267C13.1502 11.3339 13.1395 11.0418 13.1248 10.7506C13.0468 9.20865 12.8609 7.68774 12.5696 6.20072C13.2329 5.76741 14.0037 4.58283 13.7007 3.4276C13.2155 1.57767 10.9578 0.116438 10.862 0.0551258C10.7792 0.00229761 10.6781 -0.0136399 10.5834 0.0112507C10.4885 0.0361414 10.4083 0.0995633 10.3622 0.186188C10.3088 0.286642 9.05888 2.6678 9.54408 4.51772C9.84671 5.67151 11.097 6.32518 11.8877 6.37871C12.1541 7.74948 12.3286 9.15001 12.4099 10.5694C12.1376 10.1857 11.848 9.84451 11.5563 9.5432C11.7834 8.79413 11.5576 7.32502 10.5117 6.66493C8.8943 5.64418 6.24703 6.11743 6.13514 6.13805C6.03862 6.15587 5.95397 6.21319 5.90161 6.29616C5.84925 6.37918 5.83397 6.48024 5.85942 6.57497C5.88895 6.6849 6.60089 9.27816 8.21822 10.2989C8.59814 10.5387 9.0278 10.6348 9.44893 10.6348C10.1026 10.6348 10.7348 10.4028 11.1269 10.1166C11.6113 10.6291 12.0844 11.2599 12.4614 12.0222C12.4797 13.4549 12.4048 14.903 12.2382 16.3491C12.067 16.1003 11.8601 15.865 11.6183 15.6432C11.791 14.5102 10.7778 12.1816 8.90466 11.627C7.68717 11.2665 6.15825 11.3415 4.36021 11.8497C3.03862 12.2232 2.07641 12.6939 2.0361 12.7137C1.94807 12.7571 1.88216 12.8352 1.85432 12.9293C1.82643 13.0234 1.83922 13.1248 1.88943 13.2092C1.91244 13.2477 2.46332 14.1663 3.36857 15.1992C4.60007 16.6045 5.84189 17.4997 7.05928 17.8601C7.36612 17.951 7.66823 17.9882 7.95778 17.9882C8.7998 17.9882 9.53372 17.6728 9.9556 17.4437C10.5207 17.1368 11.0083 16.7265 11.3068 16.3252C11.6681 16.6977 11.9386 17.1333 12.0651 17.6416C11.9126 18.6336 11.7261 19.5513 11.5339 20.3598C11.5327 20.3648 11.5314 20.3698 11.5304 20.3748C11.1736 21.8724 10.7982 22.9935 10.5856 23.5151C10.5122 23.6949 10.5984 23.9001 10.7782 23.9735C10.8217 23.9913 10.8667 23.9997 10.9109 23.9997C11.0495 23.9997 11.1809 23.9172 11.2365 23.781C11.2647 23.712 11.7284 22.5631 12.1953 20.627C12.3904 20.45 12.9467 19.9622 13.7792 19.371C14.2996 19.9944 15.5112 20.6141 16.7335 20.6141C17.1797 20.6141 17.6274 20.5314 18.0431 20.3361C20.5646 19.1514 22.0708 15.504 22.1337 15.3493C22.1706 15.2586 22.1678 15.1564 22.1261 15.0676ZM15.5502 8.51565C16.0233 8.29341 16.5891 8.21762 17.1412 8.21762C17.8991 8.21762 18.631 8.36054 19.0601 8.46357C18.7238 9.14818 17.9021 10.6048 16.7797 11.1322C16.2636 11.3746 15.6946 11.2333 15.4012 11.1275C15.159 11.0401 14.9611 10.9269 14.8182 10.8207C14.9457 10.7187 15.0818 10.6195 15.2287 10.525C15.3919 10.4199 15.4391 10.2024 15.3341 10.0391C15.229 9.87582 15.0115 9.82871 14.8482 9.93371C14.7418 10.0021 14.6403 10.0726 14.5429 10.1445C14.5993 9.61688 14.9054 8.81865 15.5502 8.51565ZM8.61614 8.28535C8.63166 8.29177 9.57966 8.69265 10.6149 9.61862C10.1687 9.88187 9.24403 10.115 8.59341 9.7044C7.54472 9.04257 6.90895 7.49555 6.65972 6.77476C7.41773 6.68954 9.08766 6.59776 10.1363 7.25959C10.7233 7.63004 10.9335 8.42762 10.9355 8.95904C9.88425 8.05759 8.95069 7.66276 8.8846 7.63548C8.70516 7.56137 8.49956 7.64677 8.42545 7.82621C8.3513 8.00565 8.4367 8.21124 8.61614 8.28535ZM12.4081 5.43146C12.2062 4.52269 11.9654 3.62738 11.6842 2.74917C11.625 2.56425 11.427 2.4623 11.2422 2.52155C11.0573 2.58075 10.9554 2.77866 11.0146 2.96358C11.2961 3.8431 11.5365 4.74033 11.7367 5.65144C11.229 5.53046 10.4164 5.07221 10.2242 4.33936C9.90957 3.13988 10.5009 1.57538 10.8108 0.878486C11.423 1.3336 12.706 2.40647 13.0206 3.60596C13.2026 4.30013 12.7788 5.05257 12.4081 5.43146ZM7.01391 14.3912C8.08692 14.6046 9.65494 15.0373 10.7747 15.8642C10.57 16.1578 10.1628 16.5312 9.61997 16.826C9.14864 17.082 8.21522 17.4693 7.25883 17.1861C5.12432 16.5542 3.31143 14.0847 2.70735 13.1819C3.70504 12.7531 6.56737 11.6685 8.70502 12.3014C9.66127 12.5845 10.2335 13.4175 10.4895 13.8888C10.7278 14.3276 10.8636 14.7609 10.9133 15.1C10.7683 15.0053 10.6154 14.9138 10.4544 14.8255C9.56663 14.3392 8.45522 13.961 7.15101 13.7015C6.96056 13.6636 6.77545 13.7873 6.73767 13.9778C6.69975 14.1682 6.82345 14.3533 7.01391 14.3912ZM17.744 19.6999C17.4244 19.8501 17.0789 19.9124 16.733 19.9124C15.7408 19.9123 14.7468 19.3993 14.3597 18.9736C15.5842 18.165 17.2375 17.2598 19.1353 16.7054C19.3217 16.651 19.4286 16.4558 19.3742 16.2694C19.3198 16.083 19.1246 15.9761 18.9381 16.0305C17.0397 16.5851 15.3945 17.4601 14.1479 18.2651C14.1679 17.4172 14.664 16.0006 15.7631 15.4841C16.4931 15.1411 17.3636 15.0244 18.21 15.0244C19.4926 15.0244 20.7203 15.2924 21.3202 15.4465C20.8821 16.3763 19.5831 18.8358 17.744 19.6999Z" fill="#FED444"/>
<path d="M5.62253 13.4694C5.371 13.4431 5.22296 13.4343 5.21678 13.434C5.02304 13.4225 4.85673 13.5705 4.84534 13.7643C4.83399 13.9581 4.98184 14.1244 5.17562 14.1359C5.17698 14.1359 5.31568 14.1443 5.54959 14.1686C5.56201 14.17 5.57429 14.1706 5.58648 14.1706C5.76428 14.1706 5.9169 14.0362 5.93575 13.8554C5.95586 13.6624 5.81561 13.4895 5.62253 13.4694Z" fill="#FED444"/>
<path d="M17.1062 9.38868C17.0562 9.20108 16.8635 9.08957 16.6759 9.13968C16.5304 9.17849 16.386 9.22185 16.2467 9.26858C16.0626 9.33032 15.9634 9.52958 16.0252 9.71371C16.0745 9.86075 16.2115 9.95361 16.3584 9.95361C16.3954 9.95361 16.4332 9.94771 16.4703 9.93528C16.5958 9.89319 16.7259 9.8541 16.8572 9.81903C17.0448 9.76897 17.1563 9.57627 17.1062 9.38868Z" fill="#FED444"/>
<path d="M12.4215 19.4672C12.7011 19.2429 13.715 18.5291 14.1202 18.2448C15.3668 17.4398 17.012 16.5648 18.9104 16.0102C19.0968 15.9558 19.2921 16.0627 19.3465 16.2491C19.4009 16.4355 19.294 16.6306 19.1076 16.6851C17.2098 17.2395 15.5565 18.1447 14.332 18.9533C13.4995 19.5445 12.3627 20.4297 12.1676 20.6067C11.7007 22.5428 11.237 23.6917 11.2088 23.7607C11.1532 23.8969 11.0218 23.9794 10.8832 23.9794C10.839 23.9794 10.794 23.971 10.7505 23.9532C10.5707 23.8798 10.4845 23.6746 10.5579 23.4949C10.7705 22.9732 11.1459 21.8521 11.5027 20.3545C11.5037 20.3495 11.505 20.3445 11.5062 20.3395C11.6984 19.531 11.8849 18.6133 12.0374 17.6213C11.9109 17.113 11.1083 16.2164 10.747 15.8438C9.62723 15.017 8.05921 14.5843 6.98619 14.3708C6.79574 14.333 6.67204 14.1479 6.70996 13.9575C6.74774 13.767 6.93285 13.6433 7.1233 13.6812C8.42751 13.9407 9.53892 14.3189 10.4267 14.8052C10.5877 14.8935 10.7406 14.985 10.8856 15.0797C11.1275 15.3015 12.0393 16.08 12.2105 16.3288C12.3771 14.8827 12.452 13.4346 12.4337 12.0019C12.0567 11.2396 11.0715 10.1108 10.5871 9.59831C9.55195 8.67234 8.60395 8.27146 8.58843 8.26504C8.40899 8.19093 8.32359 7.98533 8.39774 7.8059C8.47185 7.62646 8.67745 7.54105 8.85689 7.61516C8.92298 7.64244 9.85654 8.03727 10.9078 8.93873C11.1995 9.24004 12.1099 10.1654 12.3822 10.5491C12.3008 9.1297 11.9754 7.00189 11.709 5.63113C11.5088 4.72001 11.2684 3.82278 10.9869 2.94326C10.9277 2.75834 11.0296 2.56043 11.2145 2.50123C11.3993 2.44198 11.5973 2.54393 11.6565 2.72885C11.9377 3.60706 12.1785 4.50237 12.3803 5.41114C12.6716 6.89816 13.0191 9.18834 13.0971 10.7302C13.1118 11.0215 13.1225 11.3136 13.1296 11.6063C13.3189 11.3092 14.2168 10.4267 14.5152 10.1242C14.6126 10.0523 14.7141 9.98184 14.8205 9.9134C14.9837 9.8084 15.2013 9.85551 15.3064 10.0188C15.4114 10.1821 15.3642 10.3996 15.201 10.5047C15.0541 10.5992 14.918 10.6984 14.7905 10.8004C13.9175 11.7399 13.1575 13.2295 13.1258 13.3809C13.0882 14.7261 12.9723 16.0794 12.7773 17.4273C12.6712 18.1613 12.5493 18.8432 12.4215 19.4672Z" fill="#3C3C3C"/>
</g>
<defs>
<clipPath id="clip0">
<rect width="24" height="24" fill="white"/>
</clipPath>
</defs>
</svg>
