<svg width="205" height="263" viewBox="0 0 205 263" fill="none" xmlns="http://www.w3.org/2000/svg">
<rect x="-34.5469" y="-68.0201" width="60.3793" height="79.186" stroke="#AEC7F4" stroke-opacity="0.5" stroke-width="0.494912"/>
<rect x="24.8418" y="-68.0201" width="60.3793" height="79.186" stroke="#AEC7F4" stroke-opacity="0.5" stroke-width="0.494912"/>
<rect x="84.2314" y="-68.0201" width="60.3793" height="79.186" stroke="#AEC7F4" stroke-opacity="0.5" stroke-width="0.494912"/>
<rect x="143.621" y="-68.0201" width="60.3793" height="79.186" stroke="#AEC7F4" stroke-opacity="0.5" stroke-width="0.494912"/>
<rect x="-34.5469" y="10.1772" width="60.3793" height="79.186" stroke="#AEC7F4" stroke-opacity="0.5" stroke-width="0.494912"/>
<rect x="24.8418" y="10.1773" width="60.3793" height="79.186" stroke="#AEC7F4" stroke-opacity="0.5" stroke-width="0.494912"/>
<rect x="84.2314" y="10.1773" width="60.3793" height="79.186" stroke="#AEC7F4" stroke-opacity="0.5" stroke-width="0.494912"/>
<rect x="143.621" y="10.1772" width="60.3793" height="79.186" stroke="#AEC7F4" stroke-opacity="0.5" stroke-width="0.494912"/>
<rect x="-34.5469" y="105.199" width="60.3793" height="79.186" stroke="#AEC7F4" stroke-opacity="0.5" stroke-width="0.494912"/>
<rect x="24.8418" y="105.199" width="60.3793" height="79.186" stroke="#AEC7F4" stroke-opacity="0.5" stroke-width="0.494912"/>
<rect x="84.2314" y="105.199" width="60.3793" height="79.186" stroke="#AEC7F4" stroke-opacity="0.5" stroke-width="0.494912"/>
<rect x="143.621" y="105.199" width="60.3793" height="79.186" stroke="#AEC7F4" stroke-opacity="0.5" stroke-width="0.494912"/>
<rect x="-34.5469" y="183.394" width="60.3793" height="79.186" stroke="#AEC7F4" stroke-opacity="0.5" stroke-width="0.494912"/>
<rect x="24.8418" y="183.394" width="60.3793" height="79.186" stroke="#AEC7F4" stroke-opacity="0.5" stroke-width="0.494912"/>
<rect x="84.2314" y="183.394" width="60.3793" height="79.186" stroke="#AEC7F4" stroke-opacity="0.5" stroke-width="0.494912"/>
<rect x="143.621" y="183.394" width="60.3793" height="79.186" stroke="#AEC7F4" stroke-opacity="0.5" stroke-width="0.494912"/>
<path d="M-25.307 197.305V197.057H-25.5544V197.305H-25.307ZM-12.0497 197.305H-11.8022V197.057H-12.0497V197.305ZM-12.0497 200.786V201.033H-11.8022V200.786H-12.0497ZM-21.4366 200.786V200.538H-21.6841V200.786H-21.4366ZM-21.4366 204.769H-21.6841V205.017H-21.4366V204.769ZM-14.1105 204.769H-13.8631V204.522H-14.1105V204.769ZM-14.1105 208.25V208.497H-13.8631V208.25H-14.1105ZM-21.4366 208.25V208.003H-21.6841V208.25H-21.4366ZM-21.4366 215.325V215.572H-21.1891V215.325H-21.4366ZM-25.307 215.325H-25.5544V215.572H-25.307V215.325ZM-25.307 197.552H-12.0497V197.057H-25.307V197.552ZM-12.2972 197.305V200.786H-11.8022V197.305H-12.2972ZM-12.0497 200.538H-21.4366V201.033H-12.0497V200.538ZM-21.6841 200.786V204.769H-21.1891V200.786H-21.6841ZM-21.4366 205.017H-14.1105V204.522H-21.4366V205.017ZM-14.358 204.769V208.25H-13.8631V204.769H-14.358ZM-14.1105 208.003H-21.4366V208.497H-14.1105V208.003ZM-21.6841 208.25V215.325H-21.1891V208.25H-21.6841ZM-21.4366 215.077H-25.307V215.572H-21.4366V215.077ZM-25.0595 215.325V197.305H-25.5544V215.325H-25.0595ZM5.68111 215.325H5.43365V215.572H5.68111V215.325ZM5.10307 206.491L4.91324 206.65L4.91469 206.651L5.10307 206.491ZM1.96153 206.591L2.15114 206.75L2.15238 206.749L1.96153 206.591ZM1.3081 215.325V215.572H1.55555V215.325H1.3081ZM-2.16016 215.325H-2.40761V215.572H-2.16016V215.325ZM-2.75076 206.491L-2.94062 206.65L-2.93742 206.653L-2.75076 206.491ZM-5.8923 206.591L-6.08166 206.432L-6.0819 206.432L-5.8923 206.591ZM-6.54574 215.325V215.572H-6.29828V215.325H-6.54574ZM-10.014 215.325H-10.2614V215.572H-10.014V215.325ZM-10.014 202.708V202.461H-10.2614V202.708H-10.014ZM-6.54574 202.708H-6.29828V202.461H-6.54574V202.708ZM-6.54574 204.254H-6.79319V205.117L-6.33589 204.385L-6.54574 204.254ZM-6.15619 203.764L-5.9734 203.931L-5.96996 203.927L-6.15619 203.764ZM-5.0378 202.96L-5.16191 202.746L-5.16327 202.746L-5.0378 202.96ZM-1.79574 202.696L-1.88068 202.928L-1.87668 202.93L-1.79574 202.696ZM-0.75275 203.236L-0.908121 203.429L-0.904236 203.432L-0.75275 203.236ZM-0.0867443 203.864L-0.275812 204.024L-0.268856 204.032L-0.0867443 203.864ZM0.302805 204.417L0.0746975 204.513L0.0766773 204.518L0.302805 204.417ZM0.403334 204.644L0.177206 204.744L0.359819 205.155L0.60923 204.781L0.403334 204.644ZM0.566694 204.417L0.370541 204.266L0.368729 204.269L0.566694 204.417ZM1.08191 203.89L1.25096 204.07L1.25115 204.07L1.08191 203.89ZM1.9364 203.224L2.06966 203.432L2.07367 203.429L1.9364 203.224ZM3.11762 202.696L3.19097 202.932L3.19347 202.931L3.11762 202.696ZM7.94301 203.864L7.75512 204.026L7.75668 204.027L7.94301 203.864ZM9.16193 215.325V215.572H9.40939V215.325H9.16193ZM5.92857 215.325V208.376H5.43365V215.325H5.92857ZM5.92857 208.376C5.92857 207.534 5.72658 206.841 5.29144 206.33L4.91469 206.651C5.25028 207.045 5.43365 207.609 5.43365 208.376H5.92857ZM5.29288 206.332C4.86028 205.815 4.29637 205.552 3.62026 205.552V206.047C4.15051 206.047 4.57513 206.245 4.91325 206.65L5.29288 206.332ZM3.62026 205.552C2.87444 205.552 2.25218 205.85 1.77069 206.434L2.15238 206.749C2.54214 206.277 3.0257 206.047 3.62026 206.047V205.552ZM1.77194 206.432C1.2871 207.01 1.06064 207.799 1.06064 208.765H1.55555C1.55555 207.872 1.76472 207.211 2.15113 206.75L1.77194 206.432ZM1.06064 208.765V215.325H1.55555V208.765H1.06064ZM1.3081 215.077H-2.16016V215.572H1.3081V215.077ZM-1.9127 215.325V208.376H-2.40761V215.325H-1.9127ZM-1.9127 208.376C-1.9127 207.532 -2.11949 206.839 -2.56411 206.328L-2.93742 206.653C-2.59456 207.047 -2.40761 207.611 -2.40761 208.376H-1.9127ZM-2.56095 206.332C-2.99279 205.816 -3.55209 205.552 -4.221 205.552V206.047C-3.70033 206.047 -3.27946 206.244 -2.94058 206.65L-2.56095 206.332ZM-4.221 205.552C-4.96664 205.552 -5.59221 205.85 -6.08166 206.432L-5.70294 206.751C-5.30438 206.277 -4.81575 206.047 -4.221 206.047V205.552ZM-6.0819 206.432C-6.56674 207.01 -6.79319 207.799 -6.79319 208.765H-6.29828C-6.29828 207.872 -6.08911 207.211 -5.7027 206.75L-6.0819 206.432ZM-6.79319 208.765V215.325H-6.29828V208.765H-6.79319ZM-6.54574 215.077H-10.014V215.572H-6.54574V215.077ZM-9.76653 215.325V202.708H-10.2614V215.325H-9.76653ZM-10.014 202.956H-6.54574V202.461H-10.014V202.956ZM-6.79319 202.708V204.254H-6.29828V202.708H-6.79319ZM-6.33589 204.385C-6.26349 204.269 -6.14487 204.119 -5.97344 203.931L-6.33893 203.597C-6.51935 203.795 -6.66043 203.971 -6.75558 204.123L-6.33589 204.385ZM-5.96996 203.927C-5.82332 203.759 -5.48305 203.509 -4.91234 203.173L-5.16327 202.746C-5.73188 203.081 -6.1372 203.366 -6.34242 203.601L-5.96996 203.927ZM-4.91369 203.174C-4.37247 202.86 -3.79942 202.705 -3.19058 202.705V202.21C-3.88862 202.21 -4.54705 202.389 -5.16191 202.746L-4.91369 203.174ZM-3.19058 202.705C-2.72337 202.705 -2.28734 202.78 -1.88066 202.928L-1.71081 202.463C-2.17539 202.294 -2.66926 202.21 -3.19058 202.21V202.705ZM-1.87668 202.93C-1.4585 203.074 -1.13885 203.243 -0.908091 203.429L-0.597408 203.044C-0.886045 202.811 -1.26173 202.619 -1.71479 202.462L-1.87668 202.93ZM-0.904236 203.432C-0.656219 203.624 -0.447239 203.822 -0.27565 204.024L0.10216 203.705C-0.0948563 203.472 -0.32988 203.251 -0.601263 203.04L-0.904236 203.432ZM-0.268856 204.032C-0.0846577 204.232 0.0236607 204.392 0.0747414 204.513L0.53087 204.321C0.44791 204.124 0.29653 203.916 0.0953655 203.697L-0.268856 204.032ZM0.0766773 204.518L0.177206 204.744L0.629463 204.543L0.528934 204.317L0.0766773 204.518ZM0.60923 204.781C0.638731 204.737 0.689743 204.666 0.76466 204.566L0.368729 204.269C0.29285 204.37 0.234957 204.45 0.197439 204.506L0.60923 204.781ZM0.762835 204.568C0.832726 204.477 0.990414 204.314 1.25096 204.07L0.912853 203.709C0.653997 203.951 0.468212 204.14 0.370554 204.266L0.762835 204.568ZM1.25115 204.07C1.50841 203.829 1.78123 203.616 2.06963 203.432L1.80317 203.015C1.48841 203.216 1.19156 203.448 0.912661 203.709L1.25115 204.07ZM2.07367 203.429C2.34935 203.246 2.71936 203.079 3.19097 202.932L3.04427 202.459C2.5441 202.615 2.12663 202.799 1.79914 203.018L2.07367 203.429ZM3.19347 202.931C3.66282 202.78 4.14823 202.705 4.65069 202.705V202.21C4.09759 202.21 3.56095 202.293 3.04177 202.46L3.19347 202.931ZM4.65069 202.705C5.97924 202.705 7.00413 203.149 7.75513 204.025L8.1309 203.703C7.27343 202.703 6.10344 202.21 4.65069 202.21V202.705ZM7.75668 204.027C8.51488 204.895 8.91447 206.201 8.91447 207.986H9.40939C9.40939 206.136 8.99636 204.694 8.12935 203.702L7.75668 204.027ZM8.91447 207.986V215.325H9.40939V207.986H8.91447ZM9.16193 215.077H5.68111V215.572H9.16193V215.077Z" fill="#AEC7F4" fill-opacity="0.5"/>
<path d="M43.7335 205.159L43.5389 205.312L43.7325 205.558L43.9273 205.313L43.7335 205.159ZM49.9663 197.305V197.057H49.8467L49.7724 197.151L49.9663 197.305ZM53.3843 197.305H53.6317V197.057H53.3843V197.305ZM53.3843 215.325V215.572H53.6317V215.325H53.3843ZM49.5265 215.325H49.279V215.572H49.5265V215.325ZM49.5265 203.311H49.7739V202.596L49.3318 203.159L49.5265 203.311ZM43.7335 210.688L43.5392 210.841L43.7339 211.088L43.9281 210.841L43.7335 210.688ZM37.953 203.362L38.1473 203.208L37.7056 202.649V203.362H37.953ZM37.953 215.325V215.572H38.2005V215.325H37.953ZM34.0827 215.325H33.8352V215.572H34.0827V215.325ZM34.0827 197.305V197.057H33.8352V197.305H34.0827ZM37.5635 197.305L37.7581 197.152L37.6838 197.057H37.5635V197.305ZM43.9273 205.313L50.1601 197.459L49.7724 197.151L43.5396 205.005L43.9273 205.313ZM49.9663 197.552H53.3843V197.057H49.9663V197.552ZM53.1368 197.305V215.325H53.6317V197.305H53.1368ZM53.3843 215.077H49.5265V215.572H53.3843V215.077ZM49.7739 215.325V203.311H49.279V215.325H49.7739ZM49.3318 203.159L43.5389 210.535L43.9281 210.841L49.7211 203.464L49.3318 203.159ZM43.9277 210.535L38.1473 203.208L37.7588 203.515L43.5392 210.841L43.9277 210.535ZM37.7056 203.362V215.325H38.2005V203.362H37.7056ZM37.953 215.077H34.0827V215.572H37.953V215.077ZM34.3301 215.325V197.305H33.8352V215.325H34.3301ZM34.0827 197.552H37.5635V197.057H34.0827V197.552ZM37.3689 197.458L43.5389 205.312L43.9281 205.006L37.7581 197.152L37.3689 197.458ZM64.5304 202.909L64.4222 203.132L64.4233 203.132L64.5304 202.909ZM65.8624 203.789L66.0523 203.63L66.0453 203.622L65.8624 203.789ZM66.252 204.254L66.0623 204.413L66.4994 204.935V204.254H66.252ZM66.252 197.305V197.057H66.0045V197.305H66.252ZM69.7202 197.305H69.9677V197.057H69.7202V197.305ZM69.7202 215.325V215.572H69.9677V215.325H69.7202ZM66.252 215.325H66.0045V215.572H66.252V215.325ZM66.252 213.779H66.4994V212.962L66.0461 213.642L66.252 213.779ZM66.0886 213.98L65.9047 213.815L65.9037 213.816L66.0886 213.98ZM65.6362 214.407L65.8006 214.592L65.801 214.592L65.6362 214.407ZM64.8948 214.96L65.0212 215.173L65.026 215.17L64.8948 214.96ZM58.2599 213.679L58.0797 213.848L58.0808 213.849L58.2599 213.679ZM58.2599 204.367L58.0803 204.197L58.0802 204.197L58.2599 204.367ZM65.3472 206.528L65.1654 206.696L65.1665 206.697L65.3472 206.528ZM60.9742 206.528L61.155 206.697L61.156 206.696L60.9742 206.528ZM62.5198 202.704C63.2045 202.704 63.8375 202.847 64.4222 203.132L64.6387 202.687C63.9835 202.368 63.2761 202.21 62.5198 202.21V202.704ZM64.4233 203.132C65.0424 203.43 65.4521 203.706 65.6796 203.956L66.0453 203.622C65.7533 203.302 65.2751 202.992 64.6375 202.686L64.4233 203.132ZM65.6727 203.948L66.0623 204.413L66.4417 204.095L66.0521 203.63L65.6727 203.948ZM66.4994 204.254V197.305H66.0045V204.254H66.4994ZM66.252 197.552H69.7202V197.057H66.252V197.552ZM69.4728 197.305V215.325H69.9677V197.305H69.4728ZM69.7202 215.077H66.252V215.572H69.7202V215.077ZM66.4994 215.325V213.779H66.0045V215.325H66.4994ZM66.0461 213.642C66.0226 213.677 65.9777 213.733 65.9047 213.815L66.2725 214.146C66.3504 214.059 66.4143 213.982 66.4579 213.916L66.0461 213.642ZM65.9037 213.816C65.8478 213.879 65.7081 214.011 65.4714 214.223L65.801 214.592C66.0335 214.384 66.1954 214.232 66.2736 214.145L65.9037 213.816ZM65.4718 214.222C65.2565 214.414 65.0205 214.59 64.7637 214.75L65.026 215.17C65.3053 214.996 65.5636 214.803 65.8006 214.592L65.4718 214.222ZM64.7685 214.748C64.5239 214.893 64.1972 215.028 63.782 215.15L63.9217 215.625C64.361 215.496 64.7296 215.346 65.0212 215.173L64.7685 214.748ZM63.782 215.15C63.3782 215.269 62.9578 215.329 62.5198 215.329V215.823C63.0034 215.823 63.471 215.757 63.9217 215.625L63.782 215.15ZM62.5198 215.329C60.959 215.329 59.6023 214.728 58.439 213.508L58.0808 213.849C59.3302 215.159 60.8135 215.823 62.5198 215.823V215.329ZM58.4401 213.509C57.2877 212.284 56.7104 210.792 56.7104 209.017H56.2155C56.2155 210.911 56.8362 212.526 58.0797 213.848L58.4401 213.509ZM56.7104 209.017C56.7104 207.241 57.2876 205.754 58.4396 204.537L58.0802 204.197C56.8363 205.51 56.2155 207.122 56.2155 209.017H56.7104ZM58.4396 204.537C59.603 203.309 60.9596 202.704 62.5198 202.704V202.21C60.8129 202.21 59.3295 202.878 58.0803 204.197L58.4396 204.537ZM60.7924 211.685C61.4402 212.387 62.234 212.745 63.1607 212.745V212.25C62.3784 212.25 61.7145 211.954 61.156 211.349L60.7924 211.685ZM63.1607 212.745C64.0874 212.745 64.8812 212.387 65.529 211.685L65.1654 211.349C64.6069 211.954 63.943 212.25 63.1607 212.25V212.745ZM65.529 211.685C66.1804 210.979 66.4994 210.083 66.4994 209.017H66.0045C66.0045 209.977 65.7204 210.748 65.1654 211.349L65.529 211.685ZM66.4994 209.017C66.4994 207.95 66.1804 207.057 65.528 206.359L65.1665 206.697C65.7204 207.29 66.0045 208.056 66.0045 209.017H66.4994ZM65.529 206.361C64.8812 205.659 64.0874 205.301 63.1607 205.301V205.796C63.943 205.796 64.6069 206.091 65.1654 206.696L65.529 206.361ZM63.1607 205.301C62.234 205.301 61.4402 205.659 60.7924 206.361L61.156 206.696C61.7145 206.091 62.3784 205.796 63.1607 205.796V205.301ZM60.7935 206.359C60.1411 207.057 59.822 207.95 59.822 209.017H60.3169C60.3169 208.056 60.601 207.29 61.1549 206.697L60.7935 206.359ZM59.822 209.017C59.822 210.083 60.1411 210.979 60.7924 211.685L61.156 211.349C60.601 210.748 60.3169 209.977 60.3169 209.017H59.822Z" fill="#AEC7F4" fill-opacity="0.5"/>
<path d="M105.7 197.305V197.057H105.453V197.305H105.7ZM109.558 197.305H109.805V197.057H109.558V197.305ZM109.558 215.325V215.572H109.805V215.325H109.558ZM106.215 215.325L106.02 215.476L106.094 215.572H106.215V215.325ZM97.3437 203.877L97.5393 203.725L97.0962 203.154V203.877H97.3437ZM97.3437 215.325V215.572H97.5911V215.325H97.3437ZM93.4733 215.325H93.2258V215.572H93.4733V215.325ZM93.4733 197.305V197.057H93.2258V197.305H93.4733ZM96.8285 197.305L97.0241 197.153L96.9498 197.057H96.8285V197.305ZM105.7 208.765L105.504 208.917L105.948 209.489V208.765H105.7ZM105.7 197.552H109.558V197.057H105.7V197.552ZM109.31 197.305V215.325H109.805V197.305H109.31ZM109.558 215.077H106.215V215.572H109.558V215.077ZM106.411 215.173L97.5393 203.725L97.1481 204.029L106.02 215.476L106.411 215.173ZM97.0962 203.877V215.325H97.5911V203.877H97.0962ZM97.3437 215.077H93.4733V215.572H97.3437V215.077ZM93.7208 215.325V197.305H93.2258V215.325H93.7208ZM93.4733 197.552H96.8285V197.057H93.4733V197.552ZM96.6328 197.456L105.504 208.917L105.896 208.614L97.0241 197.153L96.6328 197.456ZM105.948 208.765V197.305H105.453V208.765H105.948ZM117.16 211.404L116.981 211.574L116.982 211.575L117.16 211.404ZM121.508 211.404L121.687 211.575L121.688 211.574L121.508 211.404ZM124.022 204.43L123.847 204.605L123.848 204.607L124.022 204.43ZM124.022 213.616L124.195 213.792L124.195 213.792L124.022 213.616ZM114.635 213.616L114.461 213.792L114.461 213.792L114.635 213.616ZM114.635 204.43L114.808 204.607L114.809 204.606L114.635 204.43ZM116.981 206.471C116.323 207.165 115.996 208.024 115.996 209.029H116.491C116.491 208.141 116.775 207.408 117.34 206.812L116.981 206.471ZM115.996 209.029C115.996 210.027 116.323 210.881 116.981 211.574L117.34 211.234C116.775 210.637 116.491 209.908 116.491 209.029H115.996ZM116.982 211.575C117.637 212.258 118.425 212.607 119.334 212.607V212.112C118.568 212.112 117.907 211.824 117.339 211.233L116.982 211.575ZM119.334 212.607C120.243 212.607 121.031 212.258 121.687 211.575L121.33 211.233C120.762 211.824 120.101 212.112 119.334 212.112V212.607ZM121.688 211.574C122.346 210.881 122.673 210.027 122.673 209.029H122.178C122.178 209.908 121.894 210.637 121.329 211.234L121.688 211.574ZM122.673 209.029C122.673 208.024 122.346 207.165 121.688 206.471L121.329 206.812C121.894 207.408 122.178 208.141 122.178 209.029H122.673ZM121.688 206.471C121.033 205.78 120.245 205.426 119.334 205.426V205.921C120.1 205.921 120.761 206.213 121.329 206.812L121.688 206.471ZM119.334 205.426C118.424 205.426 117.636 205.78 116.981 206.471L117.34 206.812C117.908 206.213 118.569 205.921 119.334 205.921V205.426ZM123.848 204.607C125.136 205.87 125.772 207.337 125.772 209.017H126.267C126.267 207.194 125.571 205.603 124.195 204.253L123.848 204.607ZM125.772 209.017C125.772 210.696 125.136 212.167 123.848 213.44L124.195 213.792C125.571 212.434 126.267 210.838 126.267 209.017H125.772ZM123.848 213.44C122.569 214.702 121.068 215.329 119.334 215.329V215.823C121.203 215.823 122.827 215.143 124.195 213.792L123.848 213.44ZM119.334 215.329C117.601 215.329 116.096 214.702 114.808 213.439L114.461 213.792C115.838 215.143 117.466 215.823 119.334 215.823V215.329ZM114.809 213.44C113.52 212.167 112.884 210.696 112.884 209.017H112.389C112.389 210.838 113.085 212.434 114.461 213.792L114.809 213.44ZM112.884 209.017C112.884 207.337 113.52 205.87 114.808 204.607L114.461 204.253C113.085 205.603 112.389 207.194 112.389 209.017H112.884ZM114.809 204.606C116.096 203.334 117.601 202.704 119.334 202.704V202.21C117.465 202.21 115.837 202.895 114.461 204.254L114.809 204.606ZM119.334 202.704C121.068 202.704 122.568 203.334 123.847 204.605L124.196 204.254C122.828 202.895 121.203 202.21 119.334 202.21V202.704Z" fill="#AEC7F4" fill-opacity="0.5"/>
<path d="M165.089 215.325V215.572H165.336V215.325H165.089ZM152.862 215.325H152.615V215.572H152.862V215.325ZM152.862 197.305V197.057H152.615V197.305H152.862ZM156.732 197.305H156.98V197.057H156.732V197.305ZM156.732 211.857H156.485V212.104H156.732V211.857ZM165.089 211.857H165.336V211.609H165.089V211.857ZM165.089 215.077H152.862V215.572H165.089V215.077ZM153.109 215.325V197.305H152.615V215.325H153.109ZM152.862 197.552H156.732V197.057H152.862V197.552ZM156.485 197.305V211.857H156.98V197.305H156.485ZM156.732 212.104H165.089V211.609H156.732V212.104ZM164.841 211.857V215.325H165.336V211.857H164.841ZM170.882 202.708H171.129V202.461H170.882V202.708ZM170.882 215.325V215.572H171.129V215.325H170.882ZM167.401 215.325H167.154V215.572H167.401V215.325ZM167.401 202.708V202.461H167.154V202.708H167.401ZM167.665 200.509L167.488 200.682L167.49 200.684L167.665 200.509ZM170.634 202.708V215.325H171.129V202.708H170.634ZM170.882 215.077H167.401V215.572H170.882V215.077ZM167.648 215.325V202.708H167.154V215.325H167.648ZM167.401 202.956H170.882V202.461H167.401V202.956ZM170.409 197.886C170.722 198.184 170.886 198.585 170.886 199.114H171.381C171.381 198.472 171.176 197.934 170.751 197.528L170.409 197.886ZM170.886 199.114C170.886 199.635 170.722 200.032 170.409 200.33L170.751 200.688C171.175 200.283 171.381 199.75 171.381 199.114H170.886ZM170.409 200.33C170.098 200.628 169.662 200.79 169.072 200.79V201.285C169.756 201.285 170.326 201.094 170.751 200.688L170.409 200.33ZM169.072 200.79C168.539 200.79 168.137 200.632 167.84 200.334L167.49 200.684C167.896 201.091 168.433 201.285 169.072 201.285V200.79ZM167.842 200.336C167.551 200.039 167.397 199.64 167.397 199.114H166.902C166.902 199.745 167.091 200.276 167.488 200.682L167.842 200.336ZM167.397 199.114C167.397 198.581 167.555 198.179 167.852 197.882L167.502 197.532C167.096 197.939 166.902 198.475 166.902 199.114H167.397ZM167.852 197.882C168.15 197.584 168.548 197.427 169.072 197.427V196.932C168.44 196.932 167.908 197.126 167.502 197.532L167.852 197.882ZM169.072 197.427C169.662 197.427 170.098 197.588 170.409 197.886L170.751 197.528C170.326 197.122 169.756 196.932 169.072 196.932V197.427Z" fill="#AEC7F4" fill-opacity="0.5"/>
<path d="M32.2857 119.109V118.862H32.0383V119.109H32.2857ZM46.4352 119.109H46.6826V118.862H46.4352V119.109ZM46.4352 122.59V122.838H46.6826V122.59H46.4352ZM41.2956 122.59V122.343H41.0482V122.59H41.2956ZM41.2956 137.129V137.377H41.5431V137.129H41.2956ZM37.4378 137.129H37.1904V137.377H37.4378V137.129ZM37.4378 122.59H37.6853V122.343H37.4378V122.59ZM32.2857 122.59H32.0383V122.838H32.2857V122.59ZM32.2857 119.357H46.4352V118.862H32.2857V119.357ZM46.1877 119.109V122.59H46.6826V119.109H46.1877ZM46.4352 122.343H41.2956V122.838H46.4352V122.343ZM41.0482 122.59V137.129H41.5431V122.59H41.0482ZM41.2956 136.882H37.4378V137.377H41.2956V136.882ZM37.6853 137.129V122.59H37.1904V137.129H37.6853ZM37.4378 122.343H32.2857V122.838H37.4378V122.343ZM32.5332 122.59V119.109H32.0383V122.59H32.5332ZM62.9094 137.129H62.6619V137.377H62.9094V137.129ZM62.3313 128.295L62.1415 128.454L62.143 128.456L62.3313 128.295ZM59.1898 128.396L59.3794 128.555L59.3807 128.553L59.1898 128.396ZM58.5364 137.129V137.377H58.7838V137.129H58.5364ZM55.0681 137.129H54.8207V137.377H55.0681V137.129ZM54.4775 128.295L54.2877 128.454L54.2909 128.458L54.4775 128.295ZM51.336 128.396L51.1466 128.236L51.1464 128.237L51.336 128.396ZM50.6825 137.129V137.377H50.93V137.129H50.6825ZM47.2143 137.129H46.9668V137.377H47.2143V137.129ZM47.2143 124.513V124.265H46.9668V124.513H47.2143ZM50.6825 124.513H50.93V124.265H50.6825V124.513ZM50.6825 126.058H50.4351V126.921L50.8924 126.19L50.6825 126.058ZM51.0721 125.568L51.2549 125.735L51.2583 125.731L51.0721 125.568ZM52.1905 124.764L52.0664 124.55L52.065 124.551L52.1905 124.764ZM55.4325 124.5L55.3476 124.733L55.3516 124.734L55.4325 124.5ZM56.4755 125.041L56.3202 125.233L56.324 125.236L56.4755 125.041ZM57.1415 125.669L56.9525 125.829L56.9594 125.836L57.1415 125.669ZM57.5311 126.222L57.303 126.318L57.305 126.322L57.5311 126.222ZM57.6316 126.448L57.4055 126.548L57.5881 126.959L57.8375 126.585L57.6316 126.448ZM57.795 126.222L57.5988 126.071L57.597 126.073L57.795 126.222ZM58.3102 125.694L58.4792 125.875L58.4794 125.874L58.3102 125.694ZM59.1647 125.028L59.2979 125.237L59.3019 125.234L59.1647 125.028ZM60.3459 124.5L60.4192 124.737L60.4217 124.736L60.3459 124.5ZM65.1713 125.669L64.9834 125.83L64.985 125.832L65.1713 125.669ZM66.3902 137.129V137.377H66.6377V137.129H66.3902ZM63.1568 137.129V130.18H62.6619V137.129H63.1568ZM63.1568 130.18C63.1568 129.338 62.9549 128.646 62.5197 128.135L62.143 128.456C62.4786 128.85 62.6619 129.414 62.6619 130.18H63.1568ZM62.5212 128.136C62.0886 127.619 61.5246 127.357 60.8485 127.357V127.851C61.3788 127.851 61.8034 128.05 62.1415 128.454L62.5212 128.136ZM60.8485 127.357C60.1027 127.357 59.4805 127.655 58.999 128.238L59.3807 128.553C59.7704 128.081 60.254 127.851 60.8485 127.851V127.357ZM59.0002 128.237C58.5154 128.815 58.2889 129.603 58.2889 130.57H58.7838C58.7838 129.676 58.993 129.015 59.3794 128.555L59.0002 128.237ZM58.2889 130.57V137.129H58.7838V130.57H58.2889ZM58.5364 136.882H55.0681V137.377H58.5364V136.882ZM55.3156 137.129V130.18H54.8207V137.129H55.3156ZM55.3156 130.18C55.3156 129.337 55.1088 128.644 54.6642 128.133L54.2909 128.458C54.6337 128.852 54.8207 129.415 54.8207 130.18H55.3156ZM54.6673 128.136C54.2355 127.62 53.6762 127.357 53.0073 127.357V127.851C53.528 127.851 53.9488 128.049 54.2877 128.454L54.6673 128.136ZM53.0073 127.357C52.2616 127.357 51.6361 127.655 51.1466 128.236L51.5253 128.555C51.9239 128.081 52.4125 127.851 53.0073 127.851V127.357ZM51.1464 128.237C50.6615 128.815 50.4351 129.603 50.4351 130.57H50.93C50.93 129.676 51.1392 129.015 51.5256 128.555L51.1464 128.237ZM50.4351 130.57V137.129H50.93V130.57H50.4351ZM50.6825 136.882H47.2143V137.377H50.6825V136.882ZM47.4617 137.129V124.513H46.9668V137.129H47.4617ZM47.2143 124.76H50.6825V124.265H47.2143V124.76ZM50.4351 124.513V126.058H50.93V124.513H50.4351ZM50.8924 126.19C50.9648 126.074 51.0834 125.923 51.2548 125.735L50.8893 125.401C50.7089 125.599 50.5678 125.775 50.4727 125.927L50.8924 126.19ZM51.2583 125.731C51.405 125.564 51.7452 125.313 52.3159 124.977L52.065 124.551C51.4964 124.885 51.0911 125.171 50.8859 125.405L51.2583 125.731ZM52.3146 124.978C52.8558 124.664 53.4289 124.509 54.0377 124.509V124.014C53.3397 124.014 52.6812 124.194 52.0664 124.55L52.3146 124.978ZM54.0377 124.509C54.5049 124.509 54.9409 124.584 55.3476 124.733L55.5175 124.268C55.0529 124.098 54.559 124.014 54.0377 124.014V124.509ZM55.3516 124.734C55.7698 124.879 56.0894 125.047 56.3202 125.233L56.6309 124.848C56.3422 124.615 55.9665 124.423 55.5135 124.266L55.3516 124.734ZM56.324 125.236C56.5721 125.428 56.781 125.626 56.9526 125.829L57.3304 125.509C57.1334 125.276 56.8984 125.055 56.627 124.845L56.324 125.236ZM56.9594 125.836C57.1436 126.037 57.2519 126.196 57.303 126.318L57.7591 126.126C57.6762 125.929 57.5248 125.72 57.3236 125.501L56.9594 125.836ZM57.305 126.322L57.4055 126.548L57.8577 126.347L57.7572 126.121L57.305 126.322ZM57.8375 126.585C57.867 126.541 57.918 126.47 57.9929 126.37L57.597 126.073C57.5211 126.174 57.4632 126.254 57.4257 126.311L57.8375 126.585ZM57.9911 126.373C58.061 126.282 58.2187 126.118 58.4792 125.875L58.1411 125.513C57.8823 125.755 57.6965 125.944 57.5988 126.071L57.9911 126.373ZM58.4794 125.874C58.7367 125.633 59.0095 125.421 59.2979 125.236L59.0314 124.819C58.7167 125.021 58.4198 125.252 58.1409 125.513L58.4794 125.874ZM59.3019 125.234C59.5776 125.05 59.9476 124.883 60.4192 124.737L60.2725 124.264C59.7724 124.419 59.3549 124.604 59.0274 124.822L59.3019 125.234ZM60.4217 124.736C60.8911 124.585 61.3765 124.509 61.879 124.509V124.014C61.3259 124.014 60.7892 124.097 60.27 124.265L60.4217 124.736ZM61.879 124.509C63.2075 124.509 64.2324 124.954 64.9834 125.83L65.3592 125.508C64.5017 124.507 63.3317 124.014 61.879 124.014V124.509ZM64.985 125.832C65.7432 126.699 66.1427 128.005 66.1427 129.791H66.6377C66.6377 127.94 66.2246 126.498 65.3576 125.506L64.985 125.832ZM66.1427 129.791V137.129H66.6377V129.791H66.1427ZM66.3902 136.882H62.9094V137.377H66.3902V136.882Z" fill="#AEC7F4" fill-opacity="0.5"/>
<path d="M95.5341 119.109L95.751 118.99L95.6805 118.862H95.5341V119.109ZM99.7815 126.837L99.5646 126.957L99.7815 127.351L99.9984 126.957L99.7815 126.837ZM104.029 119.109V118.862H103.882L103.812 118.99L104.029 119.109ZM108.151 119.109L108.367 119.229L108.571 118.862H108.151V119.109ZM101.717 130.695L101.5 130.575L101.469 130.631V130.695H101.717ZM101.717 137.129V137.377H101.964V137.129H101.717ZM97.8463 137.129H97.5989V137.377H97.8463V137.129ZM97.8463 130.695H98.0938V130.631L98.0627 130.575L97.8463 130.695ZM91.4125 119.109V118.862H90.992L91.1961 119.229L91.4125 119.109ZM95.3173 119.229L99.5646 126.957L99.9984 126.718L95.751 118.99L95.3173 119.229ZM99.9984 126.957L104.246 119.229L103.812 118.99L99.5646 126.718L99.9984 126.957ZM104.029 119.357H108.151V118.862H104.029V119.357ZM107.934 118.989L101.5 130.575L101.933 130.815L108.367 119.229L107.934 118.989ZM101.469 130.695V137.129H101.964V130.695H101.469ZM101.717 136.882H97.8463V137.377H101.717V136.882ZM98.0938 137.129V130.695H97.5989V137.129H98.0938ZM98.0627 130.575L91.6288 118.989L91.1961 119.229L97.63 130.815L98.0627 130.575ZM91.4125 119.357H95.5341V118.862H91.4125V119.357ZM121.533 126.171L121.353 126.341L121.354 126.342L121.533 126.171ZM121.521 135.483L121.341 135.313L121.341 135.313L121.521 135.483ZM115.263 136.941L115.156 137.164L115.158 137.165L115.263 136.941ZM113.931 136.048L113.739 136.204L113.746 136.213L113.931 136.048ZM113.554 135.584L113.746 135.428L113.307 134.885V135.584H113.554ZM113.554 137.129V137.377H113.801V137.129H113.554ZM110.073 137.129H109.826V137.377H110.073V137.129ZM110.073 119.109V118.862H109.826V119.109H110.073ZM113.554 119.109H113.801V118.862H113.554V119.109ZM113.554 126.058H113.307V126.876L113.76 126.196L113.554 126.058ZM114.145 125.455L114.309 125.64L114.309 125.64L114.145 125.455ZM114.899 124.902L115.025 125.115L115.03 125.112L114.899 124.902ZM115.942 124.462L116.011 124.7L116.014 124.699L115.942 124.462ZM114.446 133.322L114.263 133.488L114.264 133.489L114.446 133.322ZM118.819 133.322L118.637 133.154L118.636 133.155L118.819 133.322ZM118.819 128.333L118.636 128.499L118.638 128.502L118.819 128.333ZM114.446 128.333L114.264 128.165L114.264 128.165L114.446 128.333ZM117.286 124.509C118.846 124.509 120.198 125.113 121.353 126.341L121.714 126.002C120.473 124.683 118.993 124.014 117.286 124.014V124.509ZM121.354 126.342C122.506 127.558 123.083 129.046 123.083 130.821H123.578C123.578 128.927 122.957 127.315 121.713 126.001L121.354 126.342ZM123.083 130.821C123.083 132.596 122.502 134.088 121.341 135.313L121.701 135.653C122.953 134.332 123.578 132.716 123.578 130.821H123.083ZM121.341 135.313C120.186 136.532 118.838 137.133 117.286 137.133V137.628C118.985 137.628 120.46 136.964 121.701 135.653L121.341 135.313ZM117.286 137.133C116.6 137.133 115.962 136.994 115.368 136.716L115.158 137.165C115.821 137.474 116.531 137.628 117.286 137.628V137.133ZM115.37 136.718C114.752 136.421 114.343 136.141 114.116 135.884L113.746 136.213C114.038 136.543 114.517 136.857 115.156 137.164L115.37 136.718ZM114.123 135.893L113.746 135.428L113.362 135.739L113.739 136.204L114.123 135.893ZM113.307 135.584V137.129H113.801V135.584H113.307ZM113.554 136.882H110.073V137.377H113.554V136.882ZM110.321 137.129V119.109H109.826V137.129H110.321ZM110.073 119.357H113.554V118.862H110.073V119.357ZM113.307 119.109V126.058H113.801V119.109H113.307ZM113.76 126.196C113.784 126.159 113.826 126.106 113.89 126.034L113.52 125.705C113.45 125.785 113.391 125.857 113.348 125.921L113.76 126.196ZM113.89 126.034C113.945 125.972 114.081 125.843 114.309 125.64L113.98 125.27C113.756 125.47 113.598 125.617 113.52 125.705L113.89 126.034ZM114.309 125.64C114.532 125.441 114.771 125.266 115.025 125.115L114.772 124.69C114.49 124.857 114.226 125.051 113.98 125.271L114.309 125.64ZM115.03 125.112C115.273 124.96 115.598 124.822 116.011 124.7L115.872 124.225C115.431 124.355 115.061 124.509 114.767 124.692L115.03 125.112ZM116.014 124.699C116.426 124.572 116.85 124.509 117.286 124.509V124.014C116.801 124.014 116.328 124.085 115.869 124.226L116.014 124.699ZM114.264 133.489C114.912 134.191 115.706 134.549 116.633 134.549V134.054C115.85 134.054 115.186 133.759 114.628 133.154L114.264 133.489ZM116.633 134.549C117.567 134.549 118.362 134.192 119.002 133.488L118.636 133.155C118.087 133.758 117.424 134.054 116.633 134.054V134.549ZM119.001 133.489C119.652 132.784 119.971 131.887 119.971 130.821H119.476C119.476 131.782 119.192 132.552 118.637 133.154L119.001 133.489ZM119.971 130.821C119.971 129.754 119.652 128.862 119 128.164L118.638 128.502C119.192 129.094 119.476 129.86 119.476 130.821H119.971ZM119.002 128.166C118.362 127.463 117.567 127.105 116.633 127.105V127.6C117.424 127.6 118.087 127.896 118.636 128.499L119.002 128.166ZM116.633 127.105C115.706 127.105 114.912 127.463 114.264 128.165L114.628 128.501C115.186 127.896 115.85 127.6 116.633 127.6V127.105ZM114.264 128.165C113.621 128.863 113.307 129.755 113.307 130.821H113.801C113.801 129.859 114.082 129.093 114.628 128.501L114.264 128.165ZM113.307 130.821C113.307 131.887 113.621 132.782 114.263 133.488L114.629 133.155C114.082 132.554 113.801 131.783 113.801 130.821H113.307Z" fill="#AEC7F4" fill-opacity="0.5"/>
<path d="M165.089 137.129V137.377H165.336V137.129H165.089ZM152.862 137.129H152.615V137.377H152.862V137.129ZM152.862 119.109V118.862H152.615V119.109H152.862ZM156.732 119.109H156.98V118.862H156.732V119.109ZM156.732 133.661H156.485V133.908H156.732V133.661ZM165.089 133.661H165.336V133.414H165.089V133.661ZM165.089 136.882H152.862V137.377H165.089V136.882ZM153.109 137.129V119.109H152.615V137.129H153.109ZM152.862 119.357H156.732V118.862H152.862V119.357ZM156.485 119.109V133.661H156.98V119.109H156.485ZM156.732 133.908H165.089V133.414H156.732V133.908ZM164.841 133.661V137.129H165.336V133.661H164.841ZM175.77 137.129H175.523V137.377H175.77V137.129ZM175.77 135.847H176.017V135.179L175.582 135.686L175.77 135.847ZM175.343 136.287L175.509 136.47L175.514 136.466L175.343 136.287ZM174.124 136.966L174.225 137.192L174.226 137.191L174.124 136.966ZM168.632 135.935L168.451 136.104L168.453 136.106L168.632 135.935ZM167.275 124.513V124.265H167.028V124.513H167.275ZM170.744 124.513H170.991V124.265H170.744V124.513ZM171.435 133.472L171.26 133.647L171.261 133.649L171.435 133.472ZM175.066 133.397L174.884 133.23L174.883 133.231L175.066 133.397ZM175.77 124.513V124.265H175.523V124.513H175.77ZM179.238 124.513H179.486V124.265H179.238V124.513ZM179.238 137.129V137.377H179.486V137.129H179.238ZM176.017 137.129V135.847H175.523V137.129H176.017ZM175.582 135.686C175.489 135.795 175.354 135.935 175.172 136.108L175.514 136.466C175.701 136.288 175.85 136.135 175.958 136.009L175.582 135.686ZM175.176 136.104C175.025 136.242 174.654 136.454 174.022 136.74L174.226 137.191C174.85 136.908 175.292 136.668 175.509 136.47L175.176 136.104ZM174.023 136.74C173.435 137.002 172.816 137.133 172.164 137.133V137.628C172.885 137.628 173.573 137.483 174.225 137.192L174.023 136.74ZM172.164 137.133C170.784 137.133 169.674 136.675 168.812 135.765L168.453 136.106C169.417 137.123 170.661 137.628 172.164 137.628V137.133ZM168.814 135.767C167.96 134.85 167.523 133.625 167.523 132.065H167.028C167.028 133.722 167.495 135.077 168.451 136.104L168.814 135.767ZM167.523 132.065V124.513H167.028V132.065H167.523ZM167.275 124.76H170.744V124.265H167.275V124.76ZM170.496 124.513V131.726H170.991V124.513H170.496ZM170.496 131.726C170.496 132.489 170.749 133.136 171.26 133.647L171.61 133.297C171.199 132.887 170.991 132.37 170.991 131.726H170.496ZM171.261 133.649C171.78 134.159 172.43 134.411 173.194 134.411V133.916C172.55 133.916 172.028 133.708 171.608 133.296L171.261 133.649ZM173.194 134.411C174.04 134.411 174.735 134.134 175.25 133.563L174.883 133.231C174.476 133.683 173.923 133.916 173.194 133.916V134.411ZM175.249 133.564C175.773 132.993 176.017 132.196 176.017 131.211H175.523C175.523 132.118 175.298 132.779 174.884 133.23L175.249 133.564ZM176.017 131.211V124.513H175.523V131.211H176.017ZM175.77 124.76H179.238V124.265H175.77V124.76ZM178.991 124.513V137.129H179.486V124.513H178.991ZM179.238 136.882H175.77V137.377H179.238V136.882Z" fill="#AEC7F4" fill-opacity="0.5"/>
<path d="M46.3095 42.106V42.3534H46.557V42.106H46.3095ZM34.0827 42.106H33.8352V42.3534H34.0827V42.106ZM34.0827 24.0861V23.8387H33.8352V24.0861H34.0827ZM37.953 24.0861H38.2005V23.8387H37.953V24.0861ZM37.953 38.6377H37.7056V38.8852H37.953V38.6377ZM46.3095 38.6377H46.557V38.3902H46.3095V38.6377ZM46.3095 41.8585H34.0827V42.3534H46.3095V41.8585ZM34.3301 42.106V24.0861H33.8352V42.106H34.3301ZM34.0827 24.3336H37.953V23.8387H34.0827V24.3336ZM37.7056 24.0861V38.6377H38.2005V24.0861H37.7056ZM37.953 38.8852H46.3095V38.3902H37.953V38.8852ZM46.0621 38.6377V42.106H46.557V38.6377H46.0621ZM54.289 42.106V42.3534H54.4603L54.5206 42.1931L54.289 42.106ZM50.6825 42.106L50.451 42.1933L50.5114 42.3534H50.6825V42.106ZM45.92 29.4896V29.2421H45.5621L45.6885 29.577L45.92 29.4896ZM49.5265 29.4896L49.7598 29.4072L49.7015 29.2421H49.5265V29.4896ZM52.4795 37.8586L52.2461 37.9409L52.479 38.6009L52.7127 37.9413L52.4795 37.8586ZM55.4451 29.4896V29.2421H55.2703L55.2119 29.4069L55.4451 29.4896ZM59.039 29.4896L59.2706 29.5768L59.3966 29.2421H59.039V29.4896ZM54.289 41.8585H50.6825V42.3534H54.289V41.8585ZM50.914 42.0186L46.1515 29.4022L45.6885 29.577L50.451 42.1933L50.914 42.0186ZM45.92 29.737H49.5265V29.2421H45.92V29.737ZM49.2931 29.5719L52.2461 37.9409L52.7129 37.7763L49.7598 29.4072L49.2931 29.5719ZM52.7127 37.9413L55.6783 29.5722L55.2119 29.4069L52.2463 37.776L52.7127 37.9413ZM55.4451 29.737H59.039V29.2421H55.4451V29.737ZM58.8074 29.4024L54.0574 42.0188L54.5206 42.1931L59.2706 29.5768L58.8074 29.4024Z" fill="#AEC7F4" fill-opacity="0.5"/>
<path d="M91.6763 24.0861V23.8387H91.4289V24.0861H91.6763ZM105.826 24.0861H106.073V23.8387H105.826V24.0861ZM105.826 27.5669V27.8144H106.073V27.5669H105.826ZM100.686 27.5669V27.3195H100.439V27.5669H100.686ZM100.686 42.106V42.3534H100.934V42.106H100.686ZM96.8285 42.106H96.581V42.3534H96.8285V42.106ZM96.8285 27.5669H97.0759V27.3195H96.8285V27.5669ZM91.6763 27.5669H91.4289V27.8144H91.6763V27.5669ZM91.6763 24.3336H105.826V23.8387H91.6763V24.3336ZM105.578 24.0861V27.5669H106.073V24.0861H105.578ZM105.826 27.3195H100.686V27.8144H105.826V27.3195ZM100.439 27.5669V42.106H100.934V27.5669H100.439ZM100.686 41.8585H96.8285V42.3534H100.686V41.8585ZM97.0759 42.106V27.5669H96.581V42.106H97.0759ZM96.8285 27.3195H91.6763V27.8144H96.8285V27.3195ZM91.9238 27.5669V24.0861H91.4289V27.5669H91.9238ZM115.074 31.1734L115.26 31.3366L115.405 31.1716L115.259 31.0081L115.074 31.1734ZM113.278 33.2217L113.08 33.3702L113.262 33.6141L113.464 33.3849L113.278 33.2217ZM113.026 32.9452L112.845 33.1137L112.851 33.1202L113.026 32.9452ZM112.323 32.4929L112.206 32.7111L112.21 32.7132L112.323 32.4929ZM110.086 32.518L110.231 32.7182L110.235 32.7152L110.086 32.518ZM110.262 34.0385L110.381 33.822L110.262 34.0385ZM111.694 34.6291L111.62 34.8653L111.624 34.8665L111.694 34.6291ZM113.416 35.2448L113.32 35.473L113.323 35.4741L113.416 35.2448ZM114.873 36.4009L114.674 36.5474L114.675 36.5489L114.873 36.4009ZM114.119 41.2138L113.959 41.0253L113.958 41.026L114.119 41.2138ZM106.077 40.8745L105.92 41.0661L105.927 41.071L106.077 40.8745ZM105.474 40.309L105.268 40.4463L105.275 40.4573L105.284 40.4674L105.474 40.309ZM105.298 40.0451L105.124 39.8696L104.979 40.013L105.092 40.1824L105.298 40.0451ZM107.233 38.1225L107.439 37.9852L107.272 37.7349L107.059 37.9469L107.233 38.1225ZM107.547 38.512L107.363 38.6773L107.372 38.687L107.547 38.512ZM108.477 39.1404L108.354 39.3552L108.357 39.3568L108.477 39.1404ZM111.179 39.2157L111.328 39.413L111.329 39.4123L111.179 39.2157ZM111.016 37.5193L110.889 37.7319L110.892 37.7339L111.016 37.5193ZM109.558 36.9161L109.486 37.1529L109.489 37.1538L109.558 36.9161ZM107.836 36.2878L107.738 36.5149L107.739 36.5155L107.836 36.2878ZM107.221 30.4697L107.059 30.2828L107.058 30.2835L107.221 30.4697ZM113.102 29.7283L113 29.9541L113.001 29.9546L113.102 29.7283ZM114.635 30.6833L114.819 30.5181L114.817 30.5159L114.635 30.6833ZM114.888 31.0102L113.092 33.0585L113.464 33.3849L115.26 31.3366L114.888 31.0102ZM113.475 33.0732C113.414 32.9917 113.32 32.8895 113.201 32.7703L112.851 33.1202C112.967 33.2356 113.04 33.3177 113.08 33.3702L113.475 33.0732ZM113.208 32.7769C113.065 32.6237 112.794 32.4559 112.435 32.2726L112.21 32.7132C112.572 32.8985 112.769 33.0322 112.845 33.1136L113.208 32.7769ZM112.439 32.2747C112.046 32.0644 111.638 31.9564 111.217 31.9564V32.4513C111.55 32.4513 111.878 32.5359 112.206 32.7111L112.439 32.2747ZM111.217 31.9564C110.705 31.9564 110.269 32.0684 109.936 32.3208L110.235 32.7152C110.455 32.5487 110.773 32.4513 111.217 32.4513V31.9564ZM109.94 32.3179C109.619 32.5513 109.424 32.8531 109.424 33.2217H109.919C109.919 33.0542 109.999 32.8868 110.231 32.7181L109.94 32.3179ZM109.424 33.2217C109.424 33.6713 109.703 34.0123 110.142 34.255L110.381 33.822C110.033 33.6291 109.919 33.4255 109.919 33.2217H109.424ZM110.142 34.255C110.554 34.4829 111.048 34.6858 111.62 34.8652L111.768 34.393C111.218 34.2206 110.757 34.0297 110.381 33.822L110.142 34.255ZM111.624 34.8665C112.185 35.0313 112.75 35.2334 113.32 35.473L113.512 35.0167C112.926 34.7704 112.343 34.562 111.764 34.3917L111.624 34.8665ZM113.323 35.4741C113.855 35.6903 114.305 36.0456 114.674 36.5474L115.073 36.2545C114.654 35.6839 114.132 35.2685 113.509 35.0156L113.323 35.4741ZM114.675 36.5489C115.031 37.0261 115.217 37.6289 115.217 38.3738H115.711C115.711 37.5438 115.503 36.8314 115.072 36.253L114.675 36.5489ZM115.217 38.3738C115.217 39.4289 114.803 40.3077 113.959 41.0253L114.28 41.4023C115.229 40.5951 115.711 39.5806 115.711 38.3738H115.217ZM113.958 41.026C113.128 41.7386 111.969 42.1098 110.45 42.1098V42.6047C112.048 42.6047 113.335 42.2136 114.281 41.4015L113.958 41.026ZM110.45 42.1098C109.8 42.1098 109.184 42.0326 108.603 41.8793L108.477 42.3578C109.102 42.5228 109.76 42.6047 110.45 42.6047V42.1098ZM108.603 41.8793C108.014 41.7238 107.548 41.5386 107.197 41.3283L106.943 41.7527C107.346 41.9947 107.86 42.1949 108.477 42.3578L108.603 41.8793ZM107.197 41.3283C106.826 41.1059 106.503 40.889 106.227 40.6779L105.927 41.071C106.22 41.2956 106.559 41.5227 106.943 41.7527L107.197 41.3283ZM106.234 40.683C105.961 40.46 105.775 40.2833 105.664 40.1506L105.284 40.4674C105.425 40.6363 105.64 40.8365 105.92 41.066L106.234 40.683ZM105.68 40.1717L105.504 39.9078L105.092 40.1824L105.268 40.4463L105.68 40.1717ZM105.472 40.2207L107.408 38.298L107.059 37.9469L105.124 39.8696L105.472 40.2207ZM107.027 38.2598C107.104 38.3747 107.218 38.5147 107.363 38.677L107.732 38.347C107.592 38.1911 107.497 38.0713 107.439 37.9852L107.027 38.2598ZM107.372 38.687C107.549 38.8641 107.887 39.0879 108.354 39.3552L108.6 38.9255C108.13 38.6567 107.847 38.4616 107.722 38.3371L107.372 38.687ZM108.357 39.3568C108.861 39.6355 109.388 39.7774 109.935 39.7774V39.2824C109.477 39.2824 109.032 39.1646 108.597 38.9239L108.357 39.3568ZM109.935 39.7774C110.512 39.7774 110.99 39.6693 111.328 39.413L111.03 39.0185C110.815 39.1811 110.464 39.2824 109.935 39.2824V39.7774ZM111.329 39.4123C111.672 39.1501 111.854 38.7982 111.854 38.3738H111.359C111.359 38.6363 111.255 38.8458 111.029 39.0192L111.329 39.4123ZM111.854 38.3738C111.854 37.9134 111.581 37.5588 111.139 37.3047L110.892 37.7339C111.238 37.9322 111.359 38.1473 111.359 38.3738H111.854ZM111.142 37.3067C110.726 37.0586 110.219 36.8502 109.627 36.6785L109.489 37.1538C110.053 37.3172 110.518 37.5109 110.889 37.7319L111.142 37.3067ZM109.63 36.6794C109.061 36.5061 108.495 36.2998 107.933 36.0602L107.739 36.5155C108.317 36.7618 108.899 36.9743 109.486 37.1529L109.63 36.6794ZM107.935 36.0607C107.414 35.8354 106.969 35.4855 106.6 35.0059L106.208 35.3079C106.626 35.8503 107.136 36.2544 107.738 36.5149L107.935 36.0607ZM106.6 35.0059C106.246 34.5465 106.061 33.9578 106.061 33.2217H105.566C105.566 34.0438 105.774 34.7452 106.208 35.3079L106.6 35.0059ZM106.061 33.2217C106.061 32.2955 106.486 31.4417 107.384 30.6559L107.058 30.2835C106.079 31.1397 105.566 32.1206 105.566 33.2217H106.061ZM107.383 30.6567C108.28 29.8786 109.381 29.4857 110.701 29.4857V28.9908C109.274 28.9908 108.055 29.4189 107.059 30.2828L107.383 30.6567ZM110.701 29.4857C111.541 29.4857 112.306 29.6429 113 29.9541L113.203 29.5025C112.439 29.1603 111.604 28.9908 110.701 28.9908V29.4857ZM113.001 29.9546C113.731 30.2778 114.203 30.5795 114.452 30.8508L114.817 30.5159C114.497 30.1673 113.947 29.8323 113.202 29.5021L113.001 29.9546ZM114.451 30.8486L114.89 31.3387L115.259 31.0081L114.819 30.5181L114.451 30.8486Z" fill="#AEC7F4" fill-opacity="0.5"/>
<path d="M157.511 28.899L157.688 29.0726L157.688 29.072L157.511 28.899ZM165.717 28.899L165.54 29.072L165.541 29.0726L165.717 28.899ZM154.659 39.7435L154.486 39.9205L154.487 39.9212L154.659 39.7435ZM154.659 26.4611L154.487 26.2834L154.486 26.2838L154.659 26.4611ZM168.557 26.4611L168.384 26.6384L168.385 26.6388L168.557 26.4611ZM168.557 39.7435L168.73 39.9209L168.73 39.9208L168.557 39.7435ZM157.335 28.7253C156.165 29.913 155.58 31.3796 155.58 33.1086H156.075C156.075 31.5034 156.613 30.1635 157.688 29.0726L157.335 28.7253ZM155.58 33.1086C155.58 34.8296 156.165 36.2919 157.335 37.4794L157.688 37.132C156.613 36.0409 156.075 34.705 156.075 33.1086H155.58ZM157.335 37.4794C158.505 38.6662 159.934 39.2621 161.608 39.2621V38.7672C160.065 38.7672 158.763 38.2238 157.688 37.132L157.335 37.4794ZM161.608 39.2621C163.29 39.2621 164.724 38.6665 165.893 37.4794L165.541 37.132C164.465 38.2236 163.159 38.7672 161.608 38.7672V39.2621ZM165.893 37.4794C167.063 36.2919 167.648 34.8296 167.648 33.1086H167.154C167.154 34.705 166.616 36.0409 165.541 37.132L165.893 37.4794ZM167.648 33.1086C167.648 31.3796 167.064 29.913 165.893 28.7253L165.541 29.0726C166.616 30.1635 167.154 31.5034 167.154 33.1086H167.648ZM165.894 28.7259C164.725 27.5302 163.291 26.9299 161.608 26.9299V27.4248C163.159 27.4248 164.465 27.9723 165.54 29.072L165.894 28.7259ZM161.608 26.9299C159.933 26.9299 158.504 27.5305 157.335 28.7259L157.688 29.072C158.764 27.972 160.066 27.4248 161.608 27.4248V26.9299ZM154.832 39.5666C152.994 37.7692 152.079 35.6167 152.079 33.096H151.584C151.584 35.7526 152.554 38.0318 154.486 39.9205L154.832 39.5666ZM152.079 33.096C152.079 30.5754 152.994 28.4274 154.832 26.6384L154.486 26.2838C152.554 28.1642 151.584 30.4394 151.584 33.096H152.079ZM154.831 26.6388C156.676 24.8508 158.93 23.9566 161.608 23.9566V23.4617C158.807 23.4617 156.428 24.4021 154.487 26.2834L154.831 26.6388ZM161.608 23.9566C164.295 23.9566 166.548 24.8509 168.384 26.6384L168.73 26.2838C166.796 24.402 164.417 23.4617 161.608 23.4617V23.9566ZM168.385 26.6388C170.231 28.4278 171.15 30.5758 171.15 33.096H171.644C171.644 30.4391 170.67 28.1637 168.729 26.2834L168.385 26.6388ZM171.15 33.096C171.15 35.6163 170.231 37.7687 168.384 39.5662L168.73 39.9208C170.67 38.0323 171.644 35.753 171.644 33.096H171.15ZM168.384 39.5662C166.548 41.3537 164.295 42.2481 161.608 42.2481V42.743C164.417 42.743 166.796 41.8027 168.73 39.9209L168.384 39.5662ZM161.608 42.2481C158.93 42.2481 156.676 41.3538 154.831 39.5658L154.487 39.9212C156.428 41.8025 158.807 42.743 161.608 42.743V42.2481ZM182.857 40.0451H183.105V39.2278L182.651 39.9078L182.857 40.0451ZM182.694 40.2462L182.51 40.0806L182.509 40.0818L182.694 40.2462ZM182.242 40.6734L182.406 40.8584L182.406 40.858L182.242 40.6734ZM181.5 41.2263L181.63 41.4373L181.631 41.4362L181.5 41.2263ZM180.457 41.6661L180.527 41.9036L180.53 41.9027L180.457 41.6661ZM175.205 39.9823L175.023 40.1505L175.024 40.1517L175.205 39.9823ZM175.205 31.1232L175.024 30.9543L175.024 30.9544L175.205 31.1232ZM182.468 30.5702L182.658 30.4113L182.653 30.4065L182.468 30.5702ZM182.857 31.0352L182.668 31.1941L183.105 31.7159V31.0352H182.857ZM182.857 29.4896V29.2421H182.61V29.4896H182.857ZM186.326 29.4896H186.573V29.2421H186.326V29.4896ZM184.416 45.6496L184.243 45.4717L184.242 45.4729L184.416 45.6496ZM177.567 47.2204L177.636 46.9828L177.633 46.982L177.567 47.2204ZM175.921 46.5544L176.048 46.3418L176.044 46.34L175.921 46.5544ZM174.086 45.0967L174.286 44.9511L174.282 44.945L174.277 44.9391L174.086 45.0967ZM173.847 44.8077L173.678 44.6276L173.509 44.7866L173.657 44.9653L173.847 44.8077ZM176.034 42.7468L176.235 42.603L176.071 42.3723L175.864 42.5668L176.034 42.7468ZM176.411 43.2118L176.224 43.3742L176.228 43.3786L176.411 43.2118ZM177.58 43.9532L177.693 43.7331L177.69 43.7318L177.58 43.9532ZM181.953 43.5134L181.779 43.3371L181.776 43.3396L181.953 43.5134ZM177.881 33.3348L177.701 33.165L177.701 33.1651L177.881 33.3348ZM177.881 37.7581L177.7 37.9265L177.701 37.9278L177.881 37.7581ZM181.965 37.7329L181.789 37.5592L181.788 37.5604L181.965 37.7329ZM181.965 33.3599L181.788 33.5324L181.79 33.5349L181.965 33.3599ZM183.105 41.0755V40.0451H182.61V41.0755H183.105ZM182.651 39.9078C182.628 39.9431 182.583 39.9995 182.51 40.0806L182.878 40.4117C182.956 40.3253 183.02 40.2477 183.063 40.1824L182.651 39.9078ZM182.509 40.0818C182.453 40.1446 182.313 40.2775 182.077 40.4888L182.406 40.858C182.639 40.6504 182.801 40.4985 182.879 40.4106L182.509 40.0818ZM182.077 40.4885C181.862 40.6799 181.626 40.856 181.369 41.0165L181.631 41.4362C181.911 41.2616 182.169 41.069 182.406 40.8584L182.077 40.4885ZM181.371 41.0153C181.135 41.1597 180.809 41.299 180.384 41.4296L180.53 41.9027C180.977 41.7652 181.346 41.6113 181.629 41.4373L181.371 41.0153ZM180.387 41.4287C179.984 41.5475 179.563 41.6072 179.125 41.6072V42.1021C179.609 42.1021 180.076 42.0361 180.527 41.9035L180.387 41.4287ZM179.125 41.6072C177.765 41.6072 176.521 41.0215 175.385 39.8128L175.024 40.1517C176.234 41.4396 177.603 42.1021 179.125 42.1021V41.6072ZM175.386 39.8141C174.264 38.6028 173.705 37.1842 173.705 35.5464H173.21C173.21 37.3099 173.817 38.8485 175.023 40.1505L175.386 39.8141ZM173.705 35.5464C173.705 33.9087 174.264 32.4946 175.386 31.292L175.024 30.9544C173.817 32.2482 173.21 33.7829 173.21 35.5464H173.705ZM175.385 31.292C176.521 30.075 177.766 29.4857 179.125 29.4857V28.9908C177.603 28.9908 176.234 29.658 175.024 30.9543L175.385 31.292ZM179.125 29.4857C179.81 29.4857 180.448 29.6287 181.041 29.9137L181.255 29.4675C180.593 29.1494 179.881 28.9908 179.125 28.9908V29.4857ZM181.041 29.9137C181.66 30.2109 182.064 30.4868 182.282 30.734L182.653 30.4065C182.369 30.084 181.893 29.7735 181.255 29.4675L181.041 29.9137ZM182.278 30.7292L182.668 31.1941L183.047 30.8763L182.657 30.4113L182.278 30.7292ZM183.105 31.0352V29.4896H182.61V31.0352H183.105ZM182.857 29.737H186.326V29.2421H182.857V29.737ZM186.078 29.4896V41.0755H186.573V29.4896H186.078ZM186.078 41.0755C186.078 42.8284 185.467 44.2882 184.244 45.4717L184.588 45.8275C185.911 44.548 186.573 42.9585 186.573 41.0755H186.078ZM184.242 45.4729C183.028 46.6634 181.5 47.2619 179.64 47.2619V47.7568C181.618 47.7568 183.273 47.1155 184.589 45.8263L184.242 45.4729ZM179.64 47.2619C178.942 47.2619 178.275 47.1686 177.636 46.9828L177.498 47.458C178.183 47.6575 178.898 47.7568 179.64 47.7568V47.2619ZM177.633 46.982C176.986 46.8016 176.459 46.5871 176.048 46.3418L175.794 46.7669C176.254 47.041 176.825 47.2705 177.501 47.4588L177.633 46.982ZM176.044 46.34C175.618 46.0942 175.249 45.842 174.934 45.584L174.62 45.9666C174.959 46.2447 175.352 46.5119 175.797 46.7687L176.044 46.34ZM174.934 45.584C174.612 45.3199 174.402 45.1097 174.286 44.9511L173.886 45.2422C174.039 45.4523 174.289 45.6944 174.62 45.9666L174.934 45.584ZM174.277 44.9391L174.038 44.6501L173.657 44.9653L173.895 45.2543L174.277 44.9391ZM174.017 44.9878L176.204 42.9269L175.864 42.5668L173.678 44.6276L174.017 44.9878ZM175.833 42.8907C175.923 43.0174 176.055 43.1793 176.224 43.3742L176.598 43.0494C176.432 42.8589 176.312 42.7108 176.235 42.603L175.833 42.8907ZM176.228 43.3786C176.439 43.6095 176.869 43.8743 177.469 44.1745L177.69 43.7318C177.084 43.4289 176.735 43.1994 176.594 43.0449L176.228 43.3786ZM177.466 44.1733C178.105 44.5015 178.789 44.6656 179.515 44.6656V44.1707C178.867 44.1707 178.26 44.0248 177.693 43.7331L177.466 44.1733ZM179.515 44.6656C180.596 44.6656 181.478 44.3473 182.129 43.6871L181.776 43.3396C181.238 43.8857 180.494 44.1707 179.515 44.1707V44.6656ZM182.126 43.6896C182.787 43.0385 183.105 42.1569 183.105 41.0755H182.61C182.61 42.055 182.325 42.7986 181.779 43.3372L182.126 43.6896ZM177.701 33.1651C177.108 33.7951 176.817 34.5958 176.817 35.5464H177.312C177.312 34.7044 177.566 34.0306 178.061 33.5045L177.701 33.1651ZM176.817 35.5464C176.817 36.4895 177.108 37.2891 177.7 37.9265L178.062 37.5897C177.565 37.0542 177.312 36.3794 177.312 35.5464H176.817ZM177.701 37.9278C178.3 38.5625 179.034 38.8852 179.892 38.8852V38.3902C179.174 38.3902 178.569 38.1265 178.061 37.5883L177.701 37.9278ZM179.892 38.8852C180.759 38.8852 181.513 38.5535 182.143 37.9054L181.788 37.5604C181.245 38.1187 180.617 38.3902 179.892 38.3902V38.8852ZM182.141 37.9067C182.782 37.2568 183.105 36.4653 183.105 35.5464H182.61C182.61 36.3365 182.338 37.0028 181.789 37.5592L182.141 37.9067ZM183.105 35.5464C183.105 34.6198 182.783 33.8275 182.14 33.185L181.79 33.5349C182.337 34.082 182.61 34.7473 182.61 35.5464H183.105ZM182.143 33.1874C181.513 32.5394 180.759 32.2077 179.892 32.2077V32.7026C180.617 32.7026 181.245 32.9741 181.788 33.5324L182.143 33.1874ZM179.892 32.2077C179.034 32.2077 178.3 32.5303 177.701 33.165L178.061 33.5046C178.569 32.9664 179.174 32.7026 179.892 32.7026V32.2077Z" fill="#AEC7F4" fill-opacity="0.5"/>
<path d="M-15.6562 31.94L-15.8508 32.0928L-15.6572 32.3393L-15.4623 32.0938L-15.6562 31.94ZM-9.42338 24.0861V23.8387H-9.54291L-9.61722 23.9323L-9.42338 24.0861ZM-6.00539 24.0861H-5.75794V23.8387H-6.00539V24.0861ZM-6.00539 42.106V42.3534H-5.75794V42.106H-6.00539ZM-9.8632 42.106H-10.1107V42.3534H-9.8632V42.106ZM-9.8632 30.0927H-9.61574V29.377L-10.0578 29.9399L-9.8632 30.0927ZM-15.6562 37.4691L-15.8504 37.6223L-15.6557 37.8691L-15.4616 37.6219L-15.6562 37.4691ZM-21.4366 30.143L-21.2423 29.9897L-21.6841 29.4299V30.143H-21.4366ZM-21.4366 42.106V42.3534H-21.1891V42.106H-21.4366ZM-25.307 42.106H-25.5544V42.3534H-25.307V42.106ZM-25.307 24.0861V23.8387H-25.5544V24.0861H-25.307ZM-21.8262 24.0861L-21.6316 23.9333L-21.7059 23.8387H-21.8262V24.0861ZM-15.4623 32.0938L-9.22955 24.24L-9.61722 23.9323L-15.85 31.7861L-15.4623 32.0938ZM-9.42338 24.3336H-6.00539V23.8387H-9.42338V24.3336ZM-6.25285 24.0861V42.106H-5.75794V24.0861H-6.25285ZM-6.00539 41.8585H-9.8632V42.3534H-6.00539V41.8585ZM-9.61574 42.106V30.0927H-10.1107V42.106H-9.61574ZM-10.0578 29.9399L-15.8508 37.3162L-15.4616 37.6219L-9.66858 30.2456L-10.0578 29.9399ZM-15.4619 37.3158L-21.2423 29.9897L-21.6309 30.2963L-15.8504 37.6223L-15.4619 37.3158ZM-21.6841 30.143V42.106H-21.1891V30.143H-21.6841ZM-21.4366 41.8585H-25.307V42.3534H-21.4366V41.8585ZM-25.0595 42.106V24.0861H-25.5544V42.106H-25.0595ZM-25.307 24.3336H-21.8262V23.8387H-25.307V24.3336ZM-22.0207 24.239L-15.8508 32.0928L-15.4616 31.7871L-21.6316 23.9333L-22.0207 24.239ZM-0.903543 40.397L-1.07631 40.5741L-1.07574 40.5747L-0.903543 40.397ZM-0.903543 31.2111L-0.731344 31.3888L-0.73078 31.3883L-0.903543 31.2111ZM5.75651 29.5147L5.6823 29.7508L5.68632 29.752L5.75651 29.5147ZM7.21418 30.1556L7.0769 30.3615L7.08013 30.3636L7.21418 30.1556ZM8.86034 31.5504L9.06171 31.4066L9.06047 31.4049L8.86034 31.5504ZM9.04884 31.8143L9.22381 31.9893L9.37204 31.841L9.2502 31.6705L9.04884 31.8143ZM6.86233 34.0008L6.64748 34.1236L6.80822 34.4049L7.0373 34.1758L6.86233 34.0008ZM6.52304 33.5359L6.3281 33.6884L6.33226 33.6935L6.52304 33.5359ZM5.51775 32.7945L5.38939 33.0061L5.39349 33.0085L5.51775 32.7945ZM1.53429 33.3474L1.35713 33.1746L1.35604 33.1757L1.53429 33.3474ZM5.51775 38.8639L5.40148 38.6454L5.40001 38.6462L5.51775 38.8639ZM6.6487 38.0345L6.83749 38.1947L6.84249 38.1884L6.6487 38.0345ZM6.98799 37.6073L7.16806 37.4376L6.97198 37.2295L6.7942 37.4534L6.98799 37.6073ZM9.04884 39.7938L9.2468 39.9423L9.37177 39.7756L9.22891 39.6241L9.04884 39.7938ZM8.83521 40.0828L8.63564 39.9365L8.63385 39.939L8.83521 40.0828ZM8.23204 40.6985L8.39706 40.883L8.39968 40.8806L8.23204 40.6985ZM7.20161 41.4651L7.32752 41.6782L7.33104 41.676L7.20161 41.4651ZM5.75651 42.0808L5.8307 42.3169L5.83277 42.3162L5.75651 42.0808ZM-0.73078 40.2198C-2.03581 38.9472 -2.67923 37.4765 -2.67923 35.7978H-3.17415C-3.17415 37.6208 -2.4688 39.2162 -1.07631 40.5741L-0.73078 40.2198ZM-2.67923 35.7978C-2.67923 34.1191 -2.03589 32.6529 -0.731346 31.3888L-1.07574 31.0334C-2.46872 32.3831 -3.17415 33.9747 -3.17415 35.7978H-2.67923ZM-0.73078 31.3883C0.572676 30.1172 2.11112 29.4857 3.89672 29.4857V28.9908C1.9795 28.9908 0.317768 29.6745 -1.07631 31.034L-0.73078 31.3883ZM3.89672 29.4857C4.52658 29.4857 5.12137 29.5745 5.68231 29.7508L5.8307 29.2786C5.2188 29.0863 4.57374 28.9908 3.89672 28.9908V29.4857ZM5.68632 29.752C6.26544 29.9233 6.72662 30.1279 7.07692 30.3615L7.35144 29.9497C6.94777 29.6806 6.43717 29.458 5.82669 29.2774L5.68632 29.752ZM7.08013 30.3636C7.44914 30.6014 7.77498 30.8419 8.05843 31.0848L8.38051 30.7091C8.07754 30.4494 7.73319 30.1956 7.34822 29.9476L7.08013 30.3636ZM8.05843 31.0848C8.3456 31.331 8.54265 31.5343 8.66022 31.696L9.06047 31.4049C8.90995 31.1979 8.67976 30.9656 8.38051 30.7091L8.05843 31.0848ZM8.65898 31.6942L8.84747 31.9581L9.2502 31.6705L9.06171 31.4066L8.65898 31.6942ZM8.87386 31.6393L6.68735 33.8258L7.0373 34.1758L9.22381 31.9893L8.87386 31.6393ZM7.07718 33.878C6.99957 33.7422 6.87579 33.5743 6.71382 33.3783L6.33226 33.6935C6.48863 33.8827 6.59105 34.0248 6.64748 34.1236L7.07718 33.878ZM6.71791 33.3833C6.53448 33.149 6.16021 32.8813 5.64201 32.5805L5.39349 33.0085C5.91409 33.3107 6.21001 33.5374 6.32817 33.6884L6.71791 33.3833ZM5.64608 32.5829C5.09836 32.2506 4.51391 32.082 3.89672 32.082V32.577C4.41886 32.577 4.9151 32.7183 5.38942 33.006L5.64608 32.5829ZM3.89672 32.082C2.91409 32.082 2.06354 32.4503 1.35714 33.1746L1.71144 33.5201C2.32867 32.8873 3.05307 32.577 3.89672 32.577V32.082ZM1.35604 33.1757C0.657089 33.9016 0.306673 34.7845 0.306673 35.8103H0.801584C0.801584 34.9093 1.10461 34.1503 1.71253 33.519L1.35604 33.1757ZM0.306673 35.8103C0.306673 36.8294 0.66243 37.7083 1.3697 38.4335L1.724 38.0879C1.10764 37.456 0.801584 36.7013 0.801584 35.8103H0.306673ZM1.3697 38.4335C2.07561 39.1573 2.92179 39.526 3.89672 39.526V39.0311C3.06213 39.0311 2.34173 38.7213 1.724 38.0879L1.3697 38.4335ZM3.89672 39.526C4.50835 39.526 5.08906 39.3772 5.63549 39.0815L5.40001 38.6462C4.9244 38.9035 4.42442 39.0311 3.89672 39.0311V39.526ZM5.63402 39.0823C6.16597 38.7992 6.57389 38.5052 6.83739 38.1946L6.46001 37.8744C6.25438 38.1168 5.90833 38.3757 5.40149 38.6455L5.63402 39.0823ZM6.84249 38.1884L7.18177 37.7612L6.7942 37.4534L6.45492 37.8806L6.84249 38.1884ZM6.80791 37.777L8.86876 39.9635L9.22891 39.6241L7.16806 37.4376L6.80791 37.777ZM8.85087 39.6453C8.7998 39.7134 8.72797 39.8106 8.63566 39.9365L9.03476 40.2291C9.12675 40.1037 9.19734 40.0082 9.2468 39.9423L8.85087 39.6453ZM8.63385 39.939C8.56744 40.0319 8.38598 40.2203 8.06439 40.5165L8.39968 40.8806C8.71478 40.5903 8.93543 40.3682 9.03658 40.2266L8.63385 39.939ZM8.06703 40.5141C7.75987 40.789 7.42833 41.0356 7.07219 41.2542L7.33104 41.676C7.71212 41.4422 8.06752 41.1778 8.39704 40.883L8.06703 40.5141ZM7.07573 41.252C6.72815 41.4574 6.26488 41.656 5.68025 41.8454L5.83277 42.3162C6.43773 42.1203 6.93786 41.9084 7.3275 41.6781L7.07573 41.252ZM5.68231 41.8448C5.12137 42.021 4.52658 42.1098 3.89672 42.1098V42.6047C4.57374 42.6047 5.2188 42.5092 5.8307 42.3169L5.68231 41.8448ZM3.89672 42.1098C2.11061 42.1098 0.571999 41.4821 -0.731346 40.2192L-1.07574 40.5747C0.318445 41.9256 1.98001 42.6047 3.89672 42.6047V42.1098Z" fill="#AEC7F4" fill-opacity="0.5"/>
</svg>
