<svg width="16" height="16" viewBox="0 0 16 16" fill="none" xmlns="http://www.w3.org/2000/svg">
<path fill-rule="evenodd" clip-rule="evenodd" d="M8 1.5C6.27609 1.5 4.62279 2.18482 3.40381 3.40381C2.18482 4.62279 1.5 6.27609 1.5 8C1.5 9.72391 2.18482 11.3772 3.40381 12.5962C4.62279 13.8152 6.27609 14.5 8 14.5C9.72391 14.5 11.3772 13.8152 12.5962 12.5962C13.8152 11.3772 14.5 9.72391 14.5 8C14.5 6.27609 13.8152 4.62279 12.5962 3.40381C11.3772 2.18482 9.72391 1.5 8 1.5ZM0 8C0 5.87827 0.842855 3.84344 2.34315 2.34315C3.84344 0.842855 5.87827 0 8 0C10.1217 0 12.1566 0.842855 13.6569 2.34315C15.1571 3.84344 16 5.87827 16 8C16 10.1217 15.1571 12.1566 13.6569 13.6569C12.1566 15.1571 10.1217 16 8 16C5.87827 16 3.84344 15.1571 2.34315 13.6569C0.842855 12.1566 0 10.1217 0 8ZM6.5 7.75C6.5 7.55109 6.57902 7.36032 6.71967 7.21967C6.86032 7.07902 7.05109 7 7.25 7H8.25C8.44891 7 8.63968 7.07902 8.78033 7.21967C8.92098 7.36032 9 7.55109 9 7.75V10.5H9.25C9.44891 10.5 9.63968 10.579 9.78033 10.7197C9.92098 10.8603 10 11.0511 10 11.25C10 11.4489 9.92098 11.6397 9.78033 11.7803C9.63968 11.921 9.44891 12 9.25 12H7.25C7.05109 12 6.86032 11.921 6.71967 11.7803C6.57902 11.6397 6.5 11.4489 6.5 11.25C6.5 11.0511 6.57902 10.8603 6.71967 10.7197C6.86032 10.579 7.05109 10.5 7.25 10.5H7.5V8.5H7.25C7.05109 8.5 6.86032 8.42098 6.71967 8.28033C6.57902 8.13968 6.5 7.94891 6.5 7.75ZM8 6C8.26522 6 8.51957 5.89464 8.70711 5.70711C8.89464 5.51957 9 5.26522 9 5C9 4.73478 8.89464 4.48043 8.70711 4.29289C8.51957 4.10536 8.26522 4 8 4C7.73478 4 7.48043 4.10536 7.29289 4.29289C7.10536 4.48043 7 4.73478 7 5C7 5.26522 7.10536 5.51957 7.29289 5.70711C7.48043 5.89464 7.73478 6 8 6Z" fill="#2C83CD"/>
</svg>
