<svg width="208" height="39" viewBox="0 0 208 39" fill="none" xmlns="http://www.w3.org/2000/svg">
<path d="M12.6724 0H25.8517L13.6862 38.5241H0L12.6724 0Z" fill="#FED444"/>
<path d="M17.7407 25.3447H33.9614L29.9062 38.524H13.6855L17.7407 25.3447Z" fill="#EAC030"/>
<path d="M28.8926 0L38.0167 14.7L33.9615 23.3172H20.7822L28.8926 0Z" fill="#20263E"/>
<path d="M28.8931 0H42.0724L54.7448 38.5241H41.0586L28.8931 0Z" fill="#343A52"/>
<path d="M54.2376 0H67.4169L54.7445 38.5241L47.6479 19.2621L54.2376 0Z" fill="#20263E"/>
<path d="M12.6724 0H25.8517L13.6862 38.5241H0L12.6724 0Z" fill="#FED444"/>
<path d="M17.7407 25.3447H33.9614L29.9062 38.524H13.6855L17.7407 25.3447Z" fill="#EAC030"/>
<path d="M28.8926 0L38.0167 14.7L33.9615 23.3172H20.7822L28.8926 0Z" fill="#20263E"/>
<path d="M28.8931 0H42.0724L54.7448 38.5241H41.0586L28.8931 0Z" fill="#343A52"/>
<path d="M54.2376 0H67.4169L54.7445 38.5241L47.6479 19.2621L54.2376 0Z" fill="#20263E"/>
<path d="M115.058 12.2654L114.385 5.98311L111.079 12.2654H115.058ZM115.611 16.8574H108.566L106.083 21.4494H99.5615L112.216 0H118.648L122.223 21.4494H116.195L115.611 16.8574Z" fill="#343A52"/>
<path d="M88.7528 0H95.0418L89.6962 16.6657H100.073L97.8718 21.3825H81.835L88.7528 0Z" fill="#343A52"/>
<path d="M130.1 0H135.446L141.421 13.5213L145.194 0H150.854L144.565 21.3825H138.591L133.559 10.0623L130.1 21.3825H123.812L130.1 0Z" fill="#343A52"/>
<path d="M154.037 0H160.325L157.81 7.86119H165.986L168.501 0H174.476L167.558 21.3825H161.583L164.413 12.8924H156.238L153.408 21.3825H147.433L154.037 0Z" fill="#343A52"/>
<path d="M177.498 0H183.473L176.555 21.3825H170.895L177.498 0Z" fill="#343A52"/>
<path d="M190.861 5.03116H184.572L186.459 0H204.068L202.496 5.03116H196.836L191.49 21.068H185.83L190.861 5.03116Z" fill="#343A52"/>
<path d="M80.8121 25.5742H204.076L207.383 32.4148L204.076 38.3609H80.8121L77.0659 32.084L80.8121 25.5742Z" fill="#343A52"/>
<path d="M85.2512 35.1084V29.3784H85.8666V31.9157H89.0552V29.3784H89.6706V35.1084H89.0552V32.4911H85.8666V35.1084H85.2512ZM92.2072 35.1084V29.3784H92.8225V35.1084H92.2072ZM95.8506 34.3292C95.2778 33.7565 94.9915 33.0612 94.9915 32.2434C94.9915 31.4256 95.2778 30.7303 95.8506 30.1575C96.4233 29.5848 97.1186 29.2984 97.9364 29.2984C98.2268 29.2984 98.5051 29.3397 98.7715 29.4223C99.0379 29.5022 99.2577 29.5995 99.4309 29.714C99.6067 29.8286 99.7598 29.9444 99.8904 30.0616C100.024 30.1789 100.119 30.2788 100.178 30.3613L100.27 30.4852L99.8584 30.8528C99.8424 30.8262 99.8184 30.7916 99.7865 30.7489C99.7545 30.7036 99.6799 30.6251 99.5627 30.5132C99.4455 30.4013 99.3176 30.3027 99.1791 30.2175C99.0433 30.1296 98.8634 30.0497 98.6397 29.9777C98.4159 29.9058 98.1815 29.8698 97.9364 29.8698C97.2811 29.8698 96.7283 30.0976 96.2781 30.5531C95.8279 31.0087 95.6028 31.5721 95.6028 32.2434C95.6028 32.9147 95.8279 33.4781 96.2781 33.9336C96.7283 34.3891 97.2811 34.6169 97.9364 34.6169C98.1655 34.6169 98.3839 34.5903 98.5917 34.537C98.7995 34.4811 98.97 34.4158 99.1032 34.3412C99.2364 34.2639 99.3536 34.1894 99.4548 34.1174C99.5561 34.0428 99.628 33.9776 99.6706 33.9216L99.7385 33.8417V32.7349H98.4279V32.1635H100.35V34.0055C100.329 34.0375 100.294 34.0801 100.246 34.1334C100.201 34.184 100.102 34.2773 99.9503 34.4131C99.7985 34.549 99.6346 34.6702 99.4588 34.7767C99.2857 34.8833 99.0606 34.9792 98.7835 35.0644C98.5091 35.147 98.2268 35.1883 97.9364 35.1883C97.1186 35.1883 96.4233 34.9019 95.8506 34.3292ZM102.683 35.1084V29.3784H103.298V31.9157H106.487V29.3784H107.102V35.1084H106.487V32.4911H103.298V35.1084H102.683ZM112.015 29.3784H114.185C114.715 29.3784 115.155 29.5502 115.504 29.8938C115.853 30.2375 116.027 30.6664 116.027 31.1805C116.027 31.692 115.851 32.1208 115.5 32.4671C115.151 32.8108 114.713 32.9826 114.185 32.9826H112.631V35.1084H112.015V29.3784ZM114.185 29.9538H112.631V32.4072H114.185C114.555 32.4072 114.852 32.2953 115.076 32.0716C115.3 31.8478 115.412 31.5508 115.412 31.1805C115.412 30.8102 115.3 30.5132 115.076 30.2894C114.852 30.0656 114.555 29.9538 114.185 29.9538ZM119.191 34.1054C119.527 34.4464 119.932 34.6169 120.406 34.6169C120.88 34.6169 121.285 34.4464 121.621 34.1054C121.956 33.7645 122.124 33.3489 122.124 32.8587V29.3784H122.739V32.8587C122.739 33.4927 122.509 34.0402 122.048 34.501C121.587 34.9592 121.04 35.1883 120.406 35.1883C119.774 35.1883 119.228 34.9579 118.768 34.497C118.307 34.0362 118.076 33.4901 118.076 32.8587V29.3784H118.688V32.8587C118.688 33.3489 118.855 33.7645 119.191 34.1054ZM125.192 29.3784H127.482C127.988 29.3784 128.407 29.5422 128.74 29.8698C129.076 30.1975 129.244 30.6064 129.244 31.0966C129.244 31.3416 129.203 31.5654 129.12 31.7679C129.037 31.9703 128.939 32.1288 128.824 32.2434C128.71 32.3579 128.594 32.4552 128.477 32.5351C128.359 32.615 128.261 32.6683 128.181 32.6949L128.057 32.7349L129.408 35.1084H128.712L127.442 32.8188H125.807V35.1084H125.192V29.3784ZM127.482 29.9538H125.807V32.2434H127.482C127.831 32.2434 128.109 32.1408 128.317 31.9357C128.525 31.7279 128.628 31.4495 128.628 31.1006C128.628 30.7489 128.525 30.4706 128.317 30.2654C128.109 30.0577 127.831 29.9538 127.482 29.9538ZM131.533 35.1084V29.3784H132.148V35.1084H131.533ZM133.989 29.3784H138.205V29.9538H136.403V35.1084H135.791V29.9538H133.989V29.3784ZM141.76 32.4472H141.8L143.519 29.3784H144.218L142.088 33.1025V35.1084H141.473V33.1025L139.347 29.3784H140.042L141.76 32.4472ZM153.63 30.4452L151.337 33.4701L149.047 30.4452V35.1084H148.432V29.3784H148.963L151.337 32.4911L153.71 29.3784H154.242V35.1084H153.63V30.4452ZM159.887 32.9387L158.784 30.2375L157.677 32.9387H159.887ZM160.135 33.5141H157.434L156.778 35.1084H156.123L158.497 29.3784H159.068L161.442 35.1084H160.79L160.135 33.5141ZM162.136 29.3784H166.352V29.9538H164.55V35.1084H163.938V29.9538H162.136V29.3784ZM168.804 34.537H172.201V35.1084H168.189V29.3784H172.117V29.9538H168.804V31.8358H171.462V32.4072H168.804V34.537ZM174.242 29.3784H176.531C177.038 29.3784 177.457 29.5422 177.79 29.8698C178.126 30.1975 178.294 30.6064 178.294 31.0966C178.294 31.3416 178.252 31.5654 178.17 31.7679C178.087 31.9703 177.989 32.1288 177.874 32.2434C177.76 32.3579 177.644 32.4552 177.526 32.5351C177.409 32.615 177.311 32.6683 177.231 32.6949L177.107 32.7349L178.457 35.1084H177.762L176.492 32.8188H174.857V35.1084H174.242V29.3784ZM176.531 29.9538H174.857V32.2434H176.531C176.88 32.2434 177.159 32.1408 177.367 31.9357C177.574 31.7279 177.678 31.4495 177.678 31.1006C177.678 30.7489 177.574 30.4706 177.367 30.2654C177.159 30.0577 176.88 29.9538 176.531 29.9538ZM180.582 35.1084V29.3784H181.198V35.1084H180.582ZM186.843 32.9387L185.74 30.2375L184.633 32.9387H186.843ZM187.091 33.5141H184.39L183.734 35.1084H183.079L185.453 29.3784H186.024L188.398 35.1084H187.746L187.091 33.5141ZM193.843 35.1084H190.283V29.3784H190.898V34.537H193.843V35.1084ZM198.422 33.554C198.422 33.3569 198.364 33.1891 198.25 33.0505C198.135 32.912 197.986 32.8041 197.802 32.7269C197.621 32.6496 197.42 32.5804 197.199 32.5191C196.978 32.4552 196.757 32.3859 196.535 32.3113C196.314 32.2341 196.112 32.1408 195.928 32.0316C195.747 31.9224 195.599 31.7679 195.485 31.5681C195.37 31.3683 195.313 31.1299 195.313 30.8528C195.313 30.4213 195.482 30.055 195.82 29.754C196.159 29.4503 196.603 29.2984 197.155 29.2984C197.363 29.2984 197.56 29.3251 197.746 29.3784C197.935 29.429 198.093 29.4902 198.218 29.5622C198.343 29.6314 198.455 29.702 198.553 29.7739C198.652 29.8432 198.723 29.9031 198.765 29.9538L198.833 30.0337L198.422 30.4452C198.411 30.4293 198.395 30.4093 198.374 30.3853C198.352 30.3587 198.302 30.3134 198.222 30.2495C198.142 30.1829 198.057 30.1242 197.966 30.0736C197.878 30.0204 197.76 29.9737 197.61 29.9338C197.464 29.8912 197.312 29.8698 197.155 29.8698C196.779 29.8698 196.48 29.9657 196.256 30.1575C196.035 30.3493 195.924 30.5811 195.924 30.8528C195.924 31.05 195.981 31.2178 196.096 31.3563C196.21 31.4948 196.36 31.6027 196.543 31.68C196.727 31.7572 196.93 31.8278 197.151 31.8917C197.372 31.953 197.592 32.0223 197.81 32.0995C198.031 32.1741 198.234 32.266 198.418 32.3752C198.601 32.4845 198.751 32.639 198.865 32.8388C198.98 33.0359 199.037 33.2743 199.037 33.554C199.037 34.0388 198.866 34.4331 198.525 34.7368C198.184 35.0378 197.713 35.1883 197.111 35.1883C196.866 35.1883 196.633 35.159 196.412 35.1004C196.191 35.0391 196.009 34.9685 195.868 34.8886C195.727 34.806 195.602 34.7221 195.493 34.6369C195.383 34.5516 195.307 34.4797 195.265 34.4211L195.189 34.3292L195.564 33.9136C195.575 33.9296 195.594 33.9549 195.62 33.9896C195.65 34.0215 195.711 34.0788 195.804 34.1614C195.897 34.2413 195.997 34.3119 196.104 34.3732C196.213 34.4318 196.36 34.4877 196.543 34.541C196.727 34.5916 196.916 34.6169 197.111 34.6169C197.532 34.6169 197.855 34.5197 198.082 34.3252C198.308 34.1281 198.422 33.871 198.422 33.554Z" fill="white"/>
</svg>
