<svg width="125" height="125" viewBox="0 0 125 125" fill="none" xmlns="http://www.w3.org/2000/svg">
<circle cx="62.5" cy="62.5" r="62.5" fill="#FED444"/>
<path d="M97.2417 37.4796C87.5217 46.1109 75.8577 60.6909 62.2497 81.2196L55.5429 91.6589C49.9442 84.6605 40.924 74.9405 28.4824 62.4989L34.7227 56.2586L51.4022 70.8386C57.2342 65.0066 62.6579 59.7287 67.6735 55.0047C72.689 50.2808 76.6839 46.6358 79.6582 44.0697C82.6325 41.5037 85.1889 39.3458 87.3273 37.5962C89.4657 35.8466 90.9626 34.6997 91.8179 34.1553L93.0427 33.3389C93.1982 33.3389 93.412 33.3777 93.6842 33.4555C93.9563 33.5333 94.4618 33.9123 95.2005 34.5927C95.9392 35.2731 96.6196 36.2354 97.2417 37.4796Z" fill="#3C3C3C"/>
</svg>
