<svg width="24" height="24" viewBox="0 0 24 24" fill="none" xmlns="http://www.w3.org/2000/svg">
<path d="M20.7 6H13.5C13.3343 6 13.2 6.13433 13.2 6.3V9.00001C13.2001 9.16568 13.3346 9.29989 13.5002 9.29978C13.5324 9.29974 13.5643 9.29457 13.5948 9.28441L13.9719 9.15871C14.3813 9.02468 14.8219 9.24796 14.9558 9.65738C15.0898 10.0668 14.8666 10.5073 14.4572 10.6413C14.2995 10.6929 14.1295 10.6929 13.9719 10.6413L13.5948 10.5156C13.4376 10.4633 13.2677 10.5482 13.2154 10.7054C13.2052 10.7359 13.2 10.7679 13.2 10.8V13.2H10.8C10.6343 13.2001 10.5001 13.3346 10.5002 13.5002C10.5002 13.5324 10.5054 13.5643 10.5156 13.5948L10.6413 13.9719C10.7753 14.3813 10.552 14.8219 10.1426 14.9558C9.73317 15.0899 9.29266 14.8666 9.15867 14.4572C9.10707 14.2995 9.10707 14.1295 9.15867 13.9719L9.28437 13.5948C9.33672 13.4376 9.25174 13.2677 9.09454 13.2154C9.06406 13.2052 9.03211 13.2 8.99997 13.2H6.3C6.13433 13.2 6 13.3343 6 13.5V20.7C6 20.8657 6.13433 21 6.3 21H20.7C20.8657 21 21 20.8657 21 20.7V6.3C21 6.13433 20.8657 6 20.7 6ZM13.2154 17.9054C13.2052 17.9359 13.2001 17.9679 13.2 18V20.4H6.6V13.8H8.58391C8.35467 14.5269 8.75809 15.302 9.48496 15.5312C10.2118 15.7604 10.9869 15.357 11.2161 14.6301C11.3013 14.36 11.3013 14.0701 11.2161 13.8H13.2V16.2C13.2001 16.3657 13.3346 16.4999 13.5002 16.4998C13.5324 16.4997 13.5643 16.4945 13.5948 16.4844L13.9719 16.3587C14.3813 16.2247 14.8219 16.4479 14.9558 16.8574C15.0898 17.2668 14.8666 17.7073 14.4572 17.8413C14.2995 17.8929 14.1295 17.8929 13.9719 17.8413L13.5948 17.7156C13.4376 17.6633 13.2677 17.7482 13.2154 17.9054ZM20.4 20.4H13.8V18.4161C14.5269 18.6454 15.302 18.2419 15.5312 17.5151C15.7604 16.7882 15.357 16.0131 14.6301 15.7839C14.36 15.6987 14.0701 15.6987 13.8 15.7839V13.8H16.2C16.3657 13.7999 16.4999 13.6655 16.4998 13.4998C16.4997 13.4677 16.4945 13.4357 16.4844 13.4052L16.3587 13.0281C16.2247 12.6187 16.4479 12.1782 16.8574 12.0442C17.2668 11.9102 17.7073 12.1334 17.8413 12.5429C17.8929 12.7005 17.8929 12.8705 17.8413 13.0282L17.7156 13.4053C17.6632 13.5625 17.7482 13.7323 17.9054 13.7847C17.9359 13.7948 17.9678 13.8 18 13.8001H20.4V20.4H20.4ZM20.4 13.2H18.4161C18.6454 12.4732 18.2419 11.6981 17.5151 11.4689C16.7882 11.2396 16.0131 11.643 15.7839 12.3699C15.6987 12.6401 15.6987 12.9299 15.7839 13.2001H13.8V11.2161C14.2167 11.3512 14.6728 11.2783 15.0267 11.0202C15.6472 10.5777 15.7914 9.71588 15.3488 9.09541C14.9993 8.60543 14.3726 8.39847 13.8 8.58394V6.6H20.4V13.2Z" fill="#FED444" stroke="#FED444" stroke-width="0.4"/>
<path d="M11.6302 5.58391C11.36 5.49871 11.0702 5.49871 10.8 5.58391V3.3C10.8 3.13433 10.6657 3 10.5 3H3.3C3.13433 3 3 3.13433 3 3.3V10.5C3 10.6657 3.13433 10.8 3.3 10.8H5.58391C5.35467 11.5269 5.75809 12.302 6.48496 12.5312C7.21182 12.7604 7.98691 12.357 8.21611 11.6301C8.30131 11.36 8.30131 11.0701 8.21611 10.8H10.5C10.6657 10.8 10.8 10.6657 10.8 10.5V8.21607C11.5269 8.44531 12.302 8.04189 12.5312 7.31502C12.7604 6.5882 12.357 5.81314 11.6302 5.58391ZM11.4572 7.64131C11.2996 7.69291 11.1296 7.69291 10.9719 7.64131L10.5948 7.51561C10.4376 7.46326 10.2677 7.54823 10.2154 7.70543C10.2052 7.73592 10.2001 7.76787 10.2 7.80001V10.2H7.80001C7.63434 10.2001 7.50012 10.3346 7.50023 10.5002C7.50027 10.5324 7.50545 10.5643 7.51561 10.5948L7.64131 10.9719C7.77533 11.3813 7.55206 11.8219 7.14263 11.9558C6.73321 12.0898 6.29269 11.8666 6.15871 11.4572C6.10711 11.2995 6.10711 11.1295 6.15871 10.9719L6.28441 10.5948C6.33676 10.4376 6.25178 10.2677 6.09458 10.2154C6.06409 10.2052 6.03214 10.2 6.00001 10.2H3.6V3.6H10.2V6.00001C10.2001 6.16568 10.3346 6.29989 10.5002 6.29978C10.5324 6.29974 10.5643 6.29457 10.5948 6.28441L10.9719 6.15871C11.3813 6.02472 11.8219 6.24796 11.9558 6.65738C12.0899 7.06677 11.8666 7.50732 11.4572 7.64131Z" fill="#3C3C3C" stroke="#3C3C3C" stroke-width="0.4"/>
</svg>
