<svg width="36" height="36" viewBox="0 0 36 36" fill="none" xmlns="http://www.w3.org/2000/svg">
<path d="M26.8974 26.0136L22.1774 21.2936C23.3116 19.9319 23.8772 18.1854 23.7565 16.4173C23.6358 14.6492 22.8381 12.9957 21.5294 11.8008C20.2206 10.6059 18.5016 9.96152 16.7298 10.0018C14.9581 10.042 13.2701 10.7638 12.0169 12.0169C10.7638 13.2701 10.042 14.9581 10.0018 16.7298C9.96152 18.5016 10.6059 20.2206 11.8008 21.5294C12.9957 22.8381 14.6492 23.6358 16.4173 23.7565C18.1854 23.8772 19.9319 23.3116 21.2936 22.1773L26.0136 26.8973L26.8974 26.0136ZM11.2724 16.8973C11.2724 15.7848 11.6023 14.6973 12.2203 13.7723C12.8384 12.8472 13.7169 12.1263 14.7448 11.7005C15.7726 11.2748 16.9036 11.1634 17.9947 11.3804C19.0859 11.5975 20.0882 12.1332 20.8748 12.9199C21.6615 13.7065 22.1972 14.7088 22.4143 15.8C22.6313 16.8911 22.5199 18.0221 22.0942 19.0499C21.6684 20.0778 20.9475 20.9563 20.0224 21.5744C19.0974 22.1924 18.0099 22.5223 16.8973 22.5223C15.406 22.5207 13.9762 21.9275 12.9217 20.873C11.8672 19.8185 11.274 18.3887 11.2724 16.8973Z" fill="#3C3C3C" stroke="#3C3C3C"/>
</svg>
