<svg width="24" height="24" viewBox="0 0 24 24" fill="none" xmlns="http://www.w3.org/2000/svg">
<path d="M20.8974 20.0136L16.1774 15.2936C17.3116 13.9319 17.8772 12.1854 17.7565 10.4173C17.6358 8.64921 16.8381 6.99572 15.5294 5.8008C14.2206 4.60588 12.5016 3.96152 10.7298 4.00178C8.95808 4.04204 7.27007 4.76381 6.01694 6.01694C4.76381 7.27007 4.04204 8.95808 4.00178 10.7298C3.96152 12.5016 4.60588 14.2206 5.8008 15.5294C6.99572 16.8381 8.64921 17.6358 10.4173 17.7565C12.1854 17.8772 13.9319 17.3116 15.2936 16.1773L20.0136 20.8973L20.8974 20.0136ZM5.27235 10.8973C5.27235 9.78483 5.60225 8.69729 6.22033 7.77227C6.83842 6.84724 7.71692 6.12627 8.74476 5.70053C9.77259 5.27478 10.9036 5.16339 11.9947 5.38043C13.0859 5.59747 14.0882 6.1332 14.8748 6.91987C15.6615 7.70654 16.1972 8.70882 16.4143 9.79997C16.6313 10.8911 16.5199 12.0221 16.0942 13.0499C15.6684 14.0778 14.9475 14.9563 14.0224 15.5744C13.0974 16.1924 12.0099 16.5223 10.8973 16.5223C9.40601 16.5207 7.97624 15.9275 6.9217 14.873C5.86717 13.8185 5.274 12.3887 5.27235 10.8973Z" fill="#A6B1C2"/>
</svg>
