<svg width="16" height="16" viewBox="0 0 16 16" fill="none" xmlns="http://www.w3.org/2000/svg">
<circle cx="8" cy="8" r="8" fill="#2F80ED"/>
<path d="M5.59833 6.06275C5.59713 6.09101 5.60173 6.11921 5.61183 6.14563C5.62194 6.17204 5.63734 6.19611 5.65709 6.21636C5.67684 6.2366 5.70053 6.25259 5.72669 6.26334C5.75285 6.27409 5.78093 6.27938 5.80921 6.27887H6.53108C6.65183 6.27887 6.74808 6.18 6.76383 6.06012C6.84258 5.48612 7.23633 5.06788 7.93808 5.06788C8.53833 5.06788 9.08783 5.368 9.08783 6.08987C9.08783 6.6455 8.76058 6.901 8.24346 7.2895C7.65458 7.71738 7.18821 8.217 7.22146 9.02813L7.22408 9.218C7.225 9.27541 7.24845 9.33015 7.28938 9.37042C7.3303 9.41069 7.38542 9.43326 7.44283 9.43325H8.15246C8.21047 9.43325 8.26611 9.4102 8.30714 9.36918C8.34816 9.32816 8.37121 9.27252 8.37121 9.2145V9.12262C8.37121 8.49438 8.61008 8.3115 9.25496 7.82237C9.78783 7.41725 10.3435 6.9675 10.3435 6.02338C10.3435 4.70125 9.22696 4.0625 8.00458 4.0625C6.89596 4.0625 5.68146 4.57875 5.59833 6.06275ZM6.96071 11.1054C6.96071 11.5717 7.33258 11.9165 7.84446 11.9165C8.37733 11.9165 8.74396 11.5717 8.74396 11.1054C8.74396 10.6224 8.37646 10.2829 7.84358 10.2829C7.33258 10.2829 6.96071 10.6224 6.96071 11.1054Z" fill="white"/>
</svg>
