<svg width="1920" height="591" viewBox="0 0 1920 591" fill="none" xmlns="http://www.w3.org/2000/svg">
<g opacity="0.4">
<path d="M10.3962 297.511C10.3963 231.295 48.8763 6.45721 233.311 4.21514C426.58 1.86569 413.589 181.488 534.239 278.728C602.432 333.69 631.653 175.421 692.165 213.638C782.826 270.898 856.461 394.387 975.997 316.003C1095.57 237.595 980.533 19.3368 1154.17 1.97308C1349.99 -17.609 1321.99 264.024 1443.33 336.462C1517.84 380.948 1512.64 233.182 1612.81 240.123C1712.99 247.064 1783.6 400.907 1941.24 311.379" stroke="#FA2A2A"/>
<path d="M-143.753 512.779C-134.33 495 -9.29823 378.826 131.311 378.826C271.92 378.826 336.041 513.92 470.607 549.898C605.173 585.876 703.325 615.936 951.912 525.84C1086.73 476.978 1090.04 395.814 1169.58 377.429C1249.12 359.044 1358.8 540.734 1495.6 585.876C1579.62 613.599 1616.19 492.291 1729.14 496.617C1842.08 500.942 1879.26 626.038 2057 570.245" stroke="#00F0FF"/>
<path d="M6.63525 302.76C6.75021 237.941 45.1116 17.7711 226.268 14.8211C416.043 11.7664 404.988 186.299 524.41 281.168C594.37 334.789 624.442 183.675 686.76 221.838C778.492 278.579 852.725 399.788 975.408 321.119C1095.35 243.432 983.203 28.5174 1154.55 11.1287C1347.53 -8.42418 1322.89 270.771 1444.6 342.543C1519.35 386.621 1515.17 239.5 1615.65 246.377C1716.13 253.254 1785.93 406.396 1944.06 317.691" stroke="#F42E2F"/>
<path d="M2.87402 308.006C3.1039 244.585 41.3466 29.0821 219.224 25.4243C405.505 21.6643 396.387 191.108 514.581 283.605C586.307 335.885 617.23 191.926 681.354 230.035C774.157 286.257 848.989 405.187 974.819 326.232C1095.13 249.266 985.872 37.6951 1154.92 20.2815C1345.07 0.757812 1323.79 277.515 1445.88 348.622C1520.85 392.29 1517.69 245.815 1618.49 252.628C1719.28 259.442 1788.26 411.883 1946.88 324" stroke="#EE3334"/>
<path d="M-0.876221 313.253C-0.531419 251.232 37.5926 40.3952 212.192 36.0295C394.979 31.5642 387.797 195.918 504.763 286.044C578.255 336.984 610.03 200.18 675.96 238.234C769.834 293.936 845.263 410.588 974.241 331.348C1094.93 255.102 988.553 46.8748 1155.31 29.4363C1342.62 9.94185 1324.69 284.262 1447.16 354.702C1522.37 397.962 1520.23 252.132 1621.33 258.882C1722.44 265.631 1790.6 417.371 1949.72 330.311" stroke="#E73839"/>
<path d="M-4.63721 318.502C-4.17748 257.879 33.8278 51.7094 205.148 46.6357C384.441 41.4652 379.196 200.73 494.935 288.483C570.193 338.083 602.819 208.434 670.555 246.434C765.5 301.617 841.527 415.99 973.652 336.464C1094.71 260.939 991.222 56.0556 1155.68 38.5923C1340.16 19.127 1325.59 291.009 1448.43 360.784C1523.88 403.635 1522.75 258.45 1624.17 265.136C1725.59 271.822 1792.94 422.861 1952.54 336.623" stroke="#E13D3E"/>
<path d="M-8.39844 323.751C-7.82379 264.525 30.0628 63.0232 198.105 57.2416C373.904 51.3658 370.595 205.541 485.106 290.923C562.13 339.182 595.607 216.688 665.15 254.633C761.165 309.298 837.79 421.392 973.063 341.58C1094.49 266.776 993.892 65.2361 1156.05 47.7478C1337.69 28.3117 1326.49 297.756 1449.71 366.866C1525.38 409.307 1525.28 264.768 1627 271.39C1728.73 278.012 1795.27 428.35 1955.36 342.935" stroke="#DB4244"/>
<path d="M-12.1594 328.997C-11.4699 271.17 26.2981 74.3351 191.061 67.8456C363.366 61.2645 361.995 210.351 475.277 293.361C554.067 340.279 588.396 224.941 659.744 262.831C756.831 316.976 834.054 426.792 972.475 346.694C1094.28 272.61 996.561 74.4147 1156.43 56.9015C1335.23 37.4946 1327.38 304.502 1450.98 372.945C1526.89 414.978 1527.8 271.084 1629.84 277.642C1731.88 284.2 1797.6 433.837 1958.18 349.245" stroke="#D54749"/>
<path d="M-15.9204 334.246C-15.1159 277.817 22.5333 85.6486 184.018 78.4513C352.829 71.1649 353.394 215.161 465.448 295.8C546.005 341.378 581.184 233.194 654.339 271.03C752.497 324.656 830.318 432.193 971.886 351.81C1094.06 278.447 999.231 83.5948 1156.8 66.0567C1332.77 46.679 1328.28 311.248 1452.26 379.026C1528.39 420.65 1530.32 277.401 1632.68 283.896C1735.03 290.39 1799.93 439.325 1961.01 355.557" stroke="#CF4B4E"/>
<path d="M-19.6814 339.495C-18.762 284.464 18.7686 96.9632 176.975 89.0579C342.291 81.0663 344.793 219.973 455.619 298.24C537.942 342.477 573.973 241.449 648.934 279.23C748.162 332.338 826.581 437.596 971.297 356.927C1093.84 284.284 1001.9 92.7761 1157.18 75.213C1330.31 55.8645 1329.18 317.996 1453.53 385.108C1529.9 426.324 1532.85 283.72 1635.51 290.151C1738.18 296.581 1802.26 444.815 1963.83 361.869" stroke="#C95053"/>
<path d="M-23.4426 344.744C-22.4083 291.112 15.0035 108.278 169.931 99.6647C331.753 90.9678 336.192 224.786 445.79 300.68C529.88 343.577 566.761 249.704 643.529 287.431C743.828 340.019 822.845 442.999 970.708 362.044C1093.63 290.122 1004.57 101.957 1157.55 84.3695C1327.85 65.0502 1330.07 324.744 1454.8 391.191C1531.4 431.997 1535.37 290.039 1638.35 296.406C1741.32 302.772 1804.59 450.305 1966.65 368.182" stroke="#C35558"/>
<path d="M-27.2036 349.991C-26.0544 297.757 11.2388 119.59 162.888 110.269C321.216 100.866 327.591 229.595 435.962 303.118C521.817 344.674 559.55 257.957 638.124 295.628C739.494 347.698 819.109 448.398 970.12 367.158C1093.41 295.957 1007.24 111.136 1157.93 93.5231C1325.39 74.233 1330.97 331.489 1456.08 397.27C1532.91 437.668 1537.9 296.355 1641.18 302.658C1744.47 308.961 1806.93 455.792 1969.47 374.492" stroke="#BD5A5E"/>
<path d="M-30.9646 355.24C-29.7004 304.404 7.47404 130.904 155.844 120.875C310.679 110.767 318.99 234.406 426.133 305.558C513.755 345.773 552.339 266.211 632.719 303.828C735.159 355.378 815.372 453.8 969.531 372.274C1093.19 301.793 1009.91 120.317 1158.3 102.679C1322.93 83.4179 1331.87 338.237 1457.35 403.351C1534.41 443.34 1540.42 302.673 1644.02 308.912C1747.62 315.151 1809.26 461.282 1972.29 380.804" stroke="#B75F63"/>
<path d="M-34.7148 360.49C-33.3358 311.052 3.72002 142.219 148.812 131.482C300.152 120.67 310.4 239.219 416.315 307.999C505.703 346.874 545.138 274.467 627.324 312.029C730.836 363.06 811.647 459.204 968.953 377.392C1092.99 307.632 1012.59 129.499 1158.69 111.836C1320.47 92.6044 1332.77 344.986 1458.63 409.435C1535.93 449.015 1542.96 308.992 1646.87 315.168C1750.78 321.343 1811.6 466.773 1975.13 387.118" stroke="#B16468"/>
<path d="M-38.4758 365.739C-36.9818 317.7 -0.0447289 153.534 141.768 142.089C289.614 130.571 301.799 244.031 406.486 310.439C497.64 347.974 537.927 282.722 621.919 320.23C726.502 370.742 807.91 464.606 968.364 382.509C1092.77 313.469 1015.26 138.68 1159.06 120.993C1318.01 101.79 1333.67 351.734 1459.91 415.517C1537.43 454.688 1545.48 315.311 1649.7 321.423C1753.92 327.534 1813.93 472.262 1977.95 393.431" stroke="#AB686D"/>
<path d="M-42.2368 370.986C-40.6279 324.345 -3.80948 164.846 134.725 152.693C279.077 140.47 293.198 248.841 396.657 312.877C489.578 349.071 530.716 290.974 616.514 328.427C722.167 378.42 804.174 470.006 967.776 387.623C1092.55 319.304 1017.93 147.859 1159.44 130.146C1315.55 110.973 1334.57 358.479 1461.18 421.596C1538.94 460.359 1548.01 321.627 1652.54 327.675C1757.07 333.723 1816.26 477.75 1980.77 399.741" stroke="#A46D72"/>
<path d="M-45.998 376.237C-44.2742 330.993 -7.57448 176.162 127.681 163.301C268.539 150.373 284.597 253.654 386.828 315.318C481.515 350.172 523.504 299.23 611.109 336.629C717.833 386.103 800.438 475.41 967.187 392.741C1092.34 325.143 1020.6 157.041 1159.81 139.304C1313.09 120.16 1335.46 365.228 1462.46 427.68C1540.45 466.033 1550.53 327.947 1655.37 333.931C1760.22 339.915 1818.6 483.241 1983.59 406.055" stroke="#9E7278"/>
<path d="M-49.7583 381.486C-47.9195 337.641 -11.3385 187.477 120.639 173.908C258.003 160.275 275.997 258.466 377 317.759C473.453 351.272 516.294 307.486 605.704 344.83C713.499 393.785 796.702 480.813 966.599 397.859C1092.12 330.981 1023.27 166.223 1160.19 148.461C1310.63 129.346 1336.36 371.976 1463.73 433.762C1541.95 471.707 1553.05 334.266 1658.21 340.186C1763.37 346.106 1820.93 488.731 1986.42 412.368" stroke="#98777D"/>
<path d="M-53.52 386.736C-51.5663 344.29 -15.104 198.792 113.595 184.516C247.464 170.177 267.396 263.279 367.171 320.2C465.39 352.373 509.082 315.742 600.299 353.031C709.164 401.467 792.965 486.216 966.009 402.976C1091.9 336.819 1025.94 175.405 1160.56 157.618C1308.17 138.532 1337.26 378.725 1465 439.845C1543.46 477.381 1555.58 340.585 1661.05 346.442C1766.51 352.298 1823.26 494.222 1989.24 418.681" stroke="#927C82"/>
<path d="M-57.2812 391.984C-55.2126 350.935 -18.869 210.105 106.551 195.121C236.927 180.076 258.795 268.089 357.342 322.639C457.327 353.471 501.87 323.995 594.893 361.229C704.83 409.146 789.228 491.617 965.42 408.091C1091.69 342.655 1028.61 184.584 1160.93 166.772C1305.7 147.716 1338.15 385.471 1466.28 445.926C1544.96 483.052 1558.1 346.902 1663.88 352.695C1769.66 358.487 1825.59 499.71 1992.06 424.992" stroke="#8C8187"/>
<path d="M-61.0422 397.235C-58.8587 357.584 -22.6338 221.421 99.5077 205.729C226.389 189.979 250.194 272.903 347.513 325.08C449.265 354.572 494.659 332.251 589.488 369.431C700.496 416.829 785.492 497.021 964.832 413.209C1091.47 348.494 1031.28 193.767 1161.31 175.93C1303.24 156.903 1339.05 392.221 1467.55 452.009C1546.47 488.727 1560.63 353.222 1666.72 358.951C1772.81 364.68 1827.92 505.201 1994.88 431.306" stroke="#86858D"/>
<path d="M-64.7925 402.485C-62.494 364.232 -26.3878 232.736 92.475 216.336C215.863 199.881 241.604 277.715 337.695 327.521C441.213 355.672 487.458 340.507 584.094 377.632C696.172 424.511 781.767 502.424 964.254 418.327C1091.26 354.332 1033.96 202.949 1161.69 185.087C1300.79 166.089 1339.95 398.969 1468.83 458.092C1547.98 494.401 1563.16 359.541 1669.56 365.206C1775.96 370.872 1830.27 510.692 1997.71 437.62" stroke="#808A92"/>
<path d="M-68.5535 407.736C-66.1401 370.882 -30.1525 244.052 85.4317 226.945C205.325 209.784 233.003 282.529 327.866 329.963C433.15 356.774 480.247 348.763 578.689 385.834C691.838 432.194 778.03 507.828 963.665 423.445C1091.05 360.171 1036.63 212.132 1162.07 194.245C1298.33 175.276 1340.85 405.719 1470.11 464.176C1549.49 500.076 1565.69 365.862 1672.4 371.463C1779.11 377.064 1832.6 516.183 2000.54 443.934" stroke="#7A8F97"/>
<path d="M-72.3147 412.984C-69.7864 377.528 -33.9175 255.366 78.388 237.55C194.787 219.685 224.402 287.34 318.037 332.403C425.088 357.873 473.035 357.017 573.283 394.033C687.503 439.874 774.294 513.23 963.076 428.561C1090.83 366.007 1039.3 221.312 1162.44 203.4C1295.87 184.461 1341.75 412.466 1471.38 470.257C1550.99 505.748 1568.21 372.179 1675.23 377.717C1782.26 383.254 1834.93 521.672 2003.36 450.246" stroke="#74949C"/>
<path d="M-76.0757 418.235C-73.4325 384.178 -37.6823 266.683 71.3447 248.159C184.25 229.588 215.801 292.154 308.208 334.845C417.025 358.974 465.824 365.274 567.878 402.236C683.169 447.557 770.558 518.634 962.488 433.68C1090.61 371.847 1041.97 230.495 1162.82 212.559C1293.41 193.648 1342.64 419.216 1472.66 476.341C1552.5 511.424 1570.73 378.5 1678.07 383.974C1785.41 389.447 1837.26 527.164 2006.18 456.56" stroke="#6E99A1"/>
<path d="M-79.8367 423.486C-77.0785 390.827 -41.447 277.998 64.3013 258.767C173.713 239.491 207.2 296.967 298.38 337.286C408.963 360.075 458.613 373.53 562.473 410.437C678.835 455.24 766.821 524.038 961.899 438.798C1090.39 377.686 1044.63 239.678 1163.19 221.716C1290.95 202.835 1343.54 425.965 1473.93 482.425C1554.01 517.098 1573.26 384.82 1680.91 390.23C1788.55 395.64 1839.59 532.655 2009 462.874" stroke="#689EA7"/>
<path d="M-83.5977 428.738C-80.7246 397.477 -45.2118 289.316 57.2579 269.376C163.175 249.395 198.599 301.782 288.551 339.73C400.9 361.178 451.401 381.788 557.068 418.641C674.5 462.924 763.085 529.443 961.31 443.918C1090.18 383.526 1047.3 248.862 1163.57 230.876C1288.48 212.023 1344.44 432.715 1475.2 488.51C1555.51 522.774 1575.78 391.141 1683.74 396.487C1791.7 401.834 1841.93 538.148 2011.82 469.19" stroke="#61A2AC"/>
<path d="M-87.3589 433.986C-84.3709 404.124 -48.9768 300.63 50.2143 279.982C152.637 259.296 189.998 306.593 278.722 342.169C392.837 362.277 444.19 390.042 551.663 426.84C670.166 470.604 759.349 534.845 960.721 449.034C1089.96 389.362 1049.97 258.042 1163.94 240.031C1286.02 221.208 1345.33 439.463 1476.48 494.591C1557.02 528.447 1578.31 397.459 1686.58 402.741C1794.85 408.024 1844.26 543.637 2014.65 475.502" stroke="#5BA7B1"/>
<path d="M-91.1199 439.238C-88.017 410.774 -52.7415 311.947 43.171 290.592C142.1 269.2 181.397 311.408 268.893 344.612C384.775 363.379 436.979 398.3 546.258 435.043C665.832 478.288 755.612 540.25 960.133 454.154C1089.74 395.203 1052.64 267.226 1164.31 249.19C1283.56 230.396 1346.23 446.213 1477.75 500.676C1558.52 534.123 1580.83 403.78 1689.41 408.999C1798 414.217 1846.59 549.129 2017.47 481.817" stroke="#55ACB6"/>
<path d="M-94.8809 444.49C-91.663 417.424 -56.5063 323.264 36.1276 301.201C131.563 279.104 172.797 316.223 259.064 347.055C376.712 364.482 429.767 406.558 540.853 443.246C661.498 485.972 751.876 545.655 959.544 459.273C1089.53 401.043 1055.31 276.41 1164.69 258.349C1281.1 239.584 1347.13 452.964 1479.02 506.761C1560.03 539.799 1583.36 410.101 1692.25 415.256C1801.14 420.411 1848.92 554.622 2020.29 488.132" stroke="#4FB1BB"/>
<path d="M-98.6313 449.743C-95.2986 424.075 -60.2606 334.582 29.0947 311.811C121.036 289.008 164.206 321.038 249.246 349.498C368.66 365.585 422.566 414.816 535.458 451.449C657.174 493.657 748.15 551.061 958.966 464.393C1089.32 406.883 1057.99 285.595 1165.07 267.508C1278.65 248.773 1348.03 459.715 1480.31 512.846C1561.54 545.475 1585.89 416.423 1695.1 421.514C1804.3 426.605 1851.26 560.115 2023.12 494.448" stroke="#49B6C1"/>
<path d="M-102.392 454.992C-98.9447 430.722 -64.0253 345.896 22.0514 322.417C110.498 298.91 155.605 325.85 239.417 351.939C360.598 366.684 415.355 423.071 530.053 459.65C652.839 501.338 744.414 556.464 958.377 469.51C1089.1 412.721 1060.66 294.776 1165.45 276.665C1276.19 257.959 1348.93 466.463 1481.58 518.928C1563.05 551.148 1588.42 422.742 1697.93 427.769C1807.45 432.796 1853.6 565.604 2025.95 500.761" stroke="#43BBC6"/>
<path d="M-106.153 460.245C-102.591 437.374 -67.7901 357.215 15.008 333.028C99.9606 308.815 147.005 330.666 229.588 354.383C352.535 367.788 408.144 431.33 524.648 467.854C648.505 509.023 740.678 561.87 957.788 474.631C1088.89 418.562 1063.33 303.961 1165.82 285.825C1273.73 267.148 1349.83 473.215 1482.86 525.014C1564.55 556.826 1590.94 429.064 1700.77 434.028C1810.6 438.991 1855.93 571.098 2028.77 507.078" stroke="#3DBFCB"/>
<path d="M-109.914 465.497C-106.237 444.024 -71.5548 368.532 7.96463 343.638C89.4232 318.719 138.404 335.481 219.76 356.826C344.473 368.891 400.933 439.587 519.243 476.057C644.171 516.707 736.941 567.275 957.2 479.75C1088.67 424.403 1066 313.145 1166.2 294.984C1271.26 276.337 1350.72 479.965 1484.13 531.099C1566.06 562.502 1593.46 435.386 1703.6 440.285C1813.74 445.185 1858.26 576.591 2031.59 513.393" stroke="#37C4D0"/>
<path d="M-113.676 470.751C-109.883 450.676 -75.3198 379.851 0.921002 354.248C78.8855 328.625 129.803 340.297 209.931 359.27C336.41 369.995 393.721 447.846 513.837 484.262C639.836 524.392 733.205 572.682 956.611 484.871C1088.45 430.244 1068.67 322.33 1166.57 304.145C1268.8 285.526 1351.62 486.717 1485.4 537.185C1567.56 568.179 1595.99 441.708 1706.44 446.544C1816.89 451.38 1860.59 582.085 2034.41 519.71" stroke="#31C9D5"/>
<path d="M-117.437 476.001C-113.529 457.325 -79.0846 391.167 -6.12237 364.856C68.3481 338.528 121.202 345.11 200.102 361.712C328.347 371.096 386.51 456.103 508.432 492.463C635.502 532.075 729.469 578.086 956.022 489.989C1088.24 436.083 1071.34 331.513 1166.95 313.302C1266.34 294.713 1352.52 493.467 1486.68 543.269C1569.07 573.854 1598.51 448.028 1709.28 452.801C1820.04 457.573 1862.92 587.576 2037.23 526.024" stroke="#2BCEDB"/>
<path d="M-121.198 481.255C-117.175 463.976 -82.8493 402.486 -13.1657 375.467C57.8106 348.433 112.601 349.926 190.273 364.156C320.285 372.199 379.298 464.362 503.027 500.668C631.168 539.76 725.732 583.492 955.433 495.11C1088.02 441.924 1074.01 340.698 1167.32 322.463C1263.88 303.903 1353.41 500.218 1487.95 549.355C1570.58 579.531 1601.04 454.351 1712.11 459.059C1823.19 463.768 1865.26 593.07 2040.06 532.34" stroke="#25D3E0"/>
<path d="M-124.959 486.508C-120.822 470.628 -86.6143 413.805 -20.2094 386.078C47.2729 358.339 104 354.742 180.444 366.601C312.222 373.303 372.087 472.621 497.622 508.872C626.833 547.446 721.996 588.899 954.844 500.231C1087.8 447.766 1076.68 349.884 1167.7 331.623C1261.42 313.092 1354.31 506.971 1489.22 555.442C1572.08 585.209 1603.56 460.674 1714.95 465.318C1826.33 469.963 1867.59 598.564 2042.88 538.657" stroke="#1ED8E5"/>
<path d="M-128.709 491.762C-124.457 477.28 -90.3684 425.124 -27.242 396.689C36.7462 368.245 95.4099 359.559 170.626 369.046C304.17 374.408 364.886 480.88 492.227 517.077C622.51 555.132 718.27 594.306 954.266 505.353C1087.6 453.608 1079.36 359.07 1168.08 340.784C1258.97 322.282 1355.21 513.723 1490.51 561.528C1573.6 590.887 1606.1 466.997 1717.79 471.578C1829.49 476.159 1869.93 604.059 2045.71 544.975" stroke="#18DCEA"/>
<path d="M-132.47 497.014C-128.103 483.93 -94.1331 436.441 -34.2853 407.299C26.2088 378.149 86.8091 364.374 160.797 371.489C296.108 375.51 357.675 489.138 486.822 525.28C618.176 562.816 714.534 599.712 953.678 510.473C1087.38 459.448 1082.03 368.254 1168.46 349.943C1256.51 331.471 1356.11 520.474 1491.78 567.613C1575.1 596.563 1608.62 473.319 1720.63 477.836C1832.64 482.352 1872.26 609.551 2048.53 551.29" stroke="#12E1EF"/>
<path d="M-136.231 502.269C-131.749 490.583 -97.8979 447.761 -41.3287 417.911C15.6714 388.055 78.2082 369.191 150.969 373.934C288.045 376.615 350.464 497.398 481.417 533.486C613.841 570.502 710.798 605.119 953.089 515.594C1087.16 465.291 1084.7 377.44 1168.83 359.105C1254.04 340.662 1357.01 527.227 1493.06 573.7C1576.61 602.241 1611.14 479.642 1723.46 484.095C1835.79 488.549 1874.59 615.046 2051.36 557.608" stroke="#0CE6F5"/>
<path d="M-139.992 507.524C-135.395 497.236 -101.663 459.081 -48.3723 428.523C5.13367 397.962 69.6071 374.008 141.14 376.38C279.982 377.72 343.252 505.659 476.012 541.692C609.507 578.189 707.061 610.527 952.5 520.717C1086.95 471.134 1087.37 386.627 1169.2 368.267C1251.58 349.852 1357.9 533.98 1494.33 579.788C1578.11 607.92 1613.67 485.966 1726.3 490.356C1838.93 494.745 1876.93 620.542 2054.18 563.926" stroke="#06EBFA"/>
</g>
</svg>
