<svg width="162" height="37" viewBox="0 0 162 37" fill="none" xmlns="http://www.w3.org/2000/svg">
<path fill-rule="evenodd" clip-rule="evenodd" d="M9.94041 12.6495L25.1846 1.21259C25.3327 1.07779 25.52 0.993458 25.7195 0.971834C25.9189 0.950209 26.1201 0.992407 26.2938 1.09232C26.4675 1.19223 26.6047 1.34466 26.6856 1.52748C26.7664 1.7103 26.7867 1.914 26.7434 2.10905L24.4172 20.9725C24.3319 22.7358 23.1341 22.6904 22.6324 22.0032C21.8887 20.2557 20.3022 18.4489 18.1267 17.0193C18.4531 17.038 18.7791 16.9748 19.0747 16.8357C22.2219 15.1158 20.9447 12.4915 21.3989 9.49013C19.0191 11.3798 16.094 11.5951 16.1733 15.1671C16.1992 15.4828 16.3027 15.7873 16.4748 16.0537L16.4906 16.0794C14.1744 14.9282 11.8184 14.4701 9.93446 14.6972C9.07973 14.6142 8.4491 13.6052 9.94041 12.6495Z" fill="white"/>
<path fill-rule="evenodd" clip-rule="evenodd" d="M6.34302 17.665C2.19236 20.5479 -0.718859 24.8644 0.155696 25.8951C1.21865 27.1411 1.68865 25.4272 3.14029 27.0799C4.59193 28.7326 2.98957 33.1044 6.44813 35.316C10.103 37.1938 13.0995 33.6277 15.2671 34.0503C17.4346 34.4728 16.1793 35.7366 17.7936 36.0249C19.1222 36.2658 21.4207 31.5978 21.855 26.5784C22.1762 22.8562 20.3557 20.2241 17.3751 18.285C17.6567 18.9485 17.5001 20.2932 15.5308 23.3301C12.7822 27.5716 10.6305 29.2539 10.1308 28.9578C9.63104 28.6616 10.0118 25.9781 12.3261 21.4878C13.984 18.2712 15.0727 17.4636 15.7926 17.3747C12.6196 15.7812 9.41884 15.5265 6.34302 17.665Z" fill="white"/>
<path d="M39.4679 21.6524H42.3757L44.0373 17.7546H51.6761L53.3146 21.6524H56.3147L49.2068 5.3924H46.5759L39.4679 21.6524ZM45.0758 15.2407L47.8452 8.78279L50.6376 15.2407H45.0758Z" fill="white"/>
<path d="M60.9312 21.6524H63.7698V16.9705L66.2853 14.3873L71.8009 21.6524H75.2395L68.2238 12.4499L74.9395 5.50772H71.4547L63.7698 13.6262V5.50772H60.9312V21.6524Z" fill="white"/>
<path d="M84.167 21.6524H87.0287V8.137H92.152V5.50772H79.0437V8.137H84.167V21.6524Z" fill="white"/>
<path d="M98.0931 21.6524H100.932V5.50772H98.0931V21.6524Z" fill="white"/>
<path d="M114.603 21.9292C117.626 21.9292 119.472 20.8221 121.157 19.0693L119.334 17.2242C117.949 18.5157 116.68 19.323 114.695 19.323C111.602 19.323 109.364 16.7398 109.364 13.5801C109.364 10.3742 111.602 7.83717 114.695 7.83717C116.541 7.83717 117.926 8.64441 119.218 9.84373L121.041 7.74492C119.495 6.26883 117.695 5.23096 114.718 5.23096C109.825 5.23096 106.387 8.99037 106.387 13.5801C106.387 18.262 109.895 21.9292 114.603 21.9292Z" fill="white"/>
<path d="M133.244 21.9292C138.205 21.9292 141.713 18.1237 141.713 13.5801C141.713 8.99037 138.252 5.23096 133.29 5.23096C128.328 5.23096 124.82 9.03649 124.82 13.5801C124.82 18.1698 128.282 21.9292 133.244 21.9292ZM133.29 19.323C130.082 19.323 127.797 16.7168 127.797 13.5801C127.797 10.3973 130.036 7.83717 133.244 7.83717C136.452 7.83717 138.736 10.4434 138.736 13.5801C138.736 16.7629 136.498 19.323 133.29 19.323Z" fill="white"/>
<path d="M146.066 21.6524H148.858V10.1205L153.912 17.6854H154.005L159.105 10.0744V21.6524H161.944V5.50772H158.92L154.005 13.1419L149.089 5.50772H146.066V21.6524Z" fill="white"/>
<path d="M39.8109 31.1638H41.4736C42.2742 31.1638 42.8028 30.8201 42.8028 30.1788C42.8028 29.6811 42.5102 29.44 42.0894 29.2964C42.3563 29.1578 42.6026 28.927 42.6026 28.496C42.6026 28.2447 42.5205 28.0497 42.3614 27.8907C42.1561 27.6854 41.8328 27.5726 41.4223 27.5726H39.8109V31.1638ZM40.4318 29.086V28.1318H41.3402C41.7456 28.1318 41.9714 28.3062 41.9714 28.5884C41.9714 28.927 41.6994 29.086 41.294 29.086H40.4318ZM40.4318 30.6046V29.6196H41.4325C41.9303 29.6196 42.1715 29.7991 42.1715 30.1018C42.1715 30.4353 41.9098 30.6046 41.4787 30.6046H40.4318Z" fill="white"/>
<path d="M48.1075 31.1638H48.7541L49.1236 30.2968H50.8222L51.1866 31.1638H51.8537L50.2731 27.5469H49.6881L48.1075 31.1638ZM49.3545 29.7376L49.9703 28.3011L50.5913 29.7376H49.3545Z" fill="white"/>
<path d="M60.0085 31.1638V30.2096L60.573 29.5683L61.6455 31.1638H62.405L60.9835 29.1014L62.3332 27.5726H61.5788L60.0085 29.44V27.5726H59.3824V29.44L57.812 27.5726H57.0576L58.4022 29.1014L56.9858 31.1638H57.7453L58.8179 29.5683L59.3824 30.2096V31.1638H60.0085Z" fill="white"/>
<path d="M67.8445 31.1638H70.5336V30.5995H68.4757V29.635H70.277V29.0706H68.4757V28.1369H70.5079V27.5726H67.8445V31.1638Z" fill="white"/>
<path d="M76.1834 31.1638H76.8146V29.6504H78.5286V31.1638H79.1599V27.5726H78.5286V29.0655H76.8146V27.5726H76.1834V31.1638Z" fill="white"/>
<path d="M91.4228 31.1638H92.054V30.0095H92.7674C93.5577 30.0095 94.2043 29.5888 94.2043 28.7833C94.2043 28.0497 93.6757 27.5726 92.8392 27.5726H91.4228V31.1638ZM92.054 29.44V28.1472H92.7879C93.26 28.1472 93.5628 28.3678 93.5628 28.7885C93.5628 29.1732 93.2651 29.44 92.7879 29.44H92.054Z" fill="white"/>
<path d="M99.7517 31.1638H102.441V30.5995H100.383V29.635H102.184V29.0706H100.383V28.1369H102.415V27.5726H99.7517V31.1638Z" fill="white"/>
<path d="M109.312 27.511C108.676 27.511 108.27 27.7265 107.926 28.0548L108.265 28.4653C108.537 28.2036 108.845 28.0651 109.271 28.0651C109.671 28.0651 109.948 28.2652 109.948 28.5679C109.948 28.9065 109.666 29.0911 109.209 29.0911H108.809V29.6144H109.214C109.681 29.6144 110.036 29.7683 110.036 30.1377C110.036 30.4763 109.712 30.6764 109.332 30.6764C108.845 30.6764 108.46 30.5071 108.137 30.1993L107.793 30.6354C108.193 31.0201 108.65 31.2254 109.348 31.2254C110.148 31.2254 110.667 30.7688 110.667 30.1736C110.667 29.7068 110.364 29.4349 109.964 29.3118C110.282 29.1784 110.574 28.9372 110.574 28.4755C110.574 27.9163 110.056 27.511 109.312 27.511Z" fill="white"/>
<path d="M116.93 31.2202C117.397 31.2202 117.767 30.9894 118.069 30.3789L119.47 27.5726H118.788L117.803 29.6606L116.684 27.5726H115.976L117.474 30.2916C117.294 30.5841 117.069 30.6815 116.91 30.6815C116.75 30.6815 116.612 30.6508 116.468 30.5687L116.227 31.0407C116.437 31.1535 116.653 31.2202 116.93 31.2202Z" fill="white"/>
<path d="M124.969 31.2048C125.677 31.2048 126.093 30.7482 126.093 28.4653V28.142H127.335V31.1638H127.966V27.5726H125.502V28.2806C125.502 30.4302 125.164 30.661 124.799 30.661C124.722 30.661 124.64 30.6456 124.594 30.6302L124.533 31.1484C124.63 31.1741 124.83 31.2048 124.969 31.2048Z" fill="white"/>
<path d="M133.794 31.1638H135.241C136.072 31.1638 136.596 30.7123 136.596 29.989C136.596 29.2656 136.052 28.8654 135.246 28.8654H134.42V27.5726H133.794V31.1638ZM134.42 30.5995V29.4144H135.22C135.698 29.4144 135.97 29.6144 135.97 29.9838C135.97 30.3891 135.698 30.5995 135.231 30.5995H134.42Z" fill="white"/>
<path d="M143.04 31.1638H143.677V28.1574H144.816V27.5726H141.901V28.1574H143.04V31.1638Z" fill="white"/>
<path d="M150.078 31.1638H150.725L151.095 30.2968H152.793L153.158 31.1638H153.825L152.244 27.5469H151.659L150.078 31.1638ZM151.325 29.7376L151.941 28.3011L152.562 29.7376H151.325Z" fill="white"/>
<path d="M160.224 31.1638H160.861V28.1574H162V27.5726H159.085V28.1574H160.224V31.1638Z" fill="white"/>
</svg>
