<svg width="229" height="15" viewBox="0 0 229 15" fill="none" xmlns="http://www.w3.org/2000/svg">
<path d="M156.315 7.19301L150.192 14.7452H152.362L158.073 7.66849L158.818 8.49639V14.7452H160.698V8.51746L161.401 7.77329L167.094 14.7454H169.349L163.161 7.19326L169.224 0.262247H166.907L160.698 7.23462V0.262247H158.817V7.21381L152.61 0.262247H150.314L156.315 7.19301ZM172.963 14.7452L180.415 5.10333L181.822 3.03445L181.759 5.41465V14.7452H183.639V0.261729H182.031L174.535 9.96495L173.192 11.9724L173.253 9.509V0.261478H171.375V14.7449H172.963V14.7452ZM192.371 14.9517C195.557 14.9517 198.098 13.2989 198.098 10.4833C198.098 9.07514 197.211 7.64716 195.349 7.19275C196.633 6.57316 197.583 5.49634 197.583 4.11024C197.583 1.50192 195.247 0.0546875 192.247 0.0546875C189.162 0.0546875 187.3 1.46108 186.265 2.90832L187.698 3.92375C188.541 2.82638 189.887 1.81197 192.019 1.81197C193.942 1.81197 195.681 2.49527 195.681 4.15109C195.681 5.51767 194.191 6.47068 192.371 6.47068H189.951V8.2259H192.494C194.773 8.2259 196.199 9.11572 196.199 10.4831C196.199 12.0762 194.604 13.1944 192.349 13.1944C190.01 13.1944 188.459 12.386 187.3 10.9388L185.893 11.9724C186.989 13.7521 189.332 14.9517 192.371 14.9517ZM211.469 14.7452H213.353V0.261729H211.469V6.51126H202.84V0.261729H200.959V14.7452H202.84V8.267H211.469V14.7452ZM222.563 7.39773C225.091 7.39773 226.497 8.28756 226.497 10.0703C226.497 12.0356 225.066 12.9876 222.501 12.9876H218.837V7.39773H222.563ZM218.837 0.261729H216.957V14.7452H222.441C226.227 14.7452 228.459 13.1533 228.459 10.0703C228.459 7.25389 226.536 5.64276 222.625 5.64276H218.837V0.261729Z" fill="#0047BB"/>
<path d="M13.0316 14.7593H9.88021V5.24509L3.0057 14.7593H0V0.24707H3.15135V9.76354L10.0672 0.24707H13.0316V14.7593Z" fill="#0047BB"/>
<path d="M15.3224 0.24707H18.5161V5.99157H24.9344V0.24707H28.1269V14.76H24.9344V8.93563H18.5161V14.76H15.3224V0.24707Z" fill="#0047BB"/>
<path d="M33.6116 14.7593H30.4194V0.24707H40.2912V3.12921H33.6116V14.7593Z" fill="#0047BB"/>
<path d="M55.6698 7.50026V7.49768C55.6662 3.0766 52.4558 0.039302 48.0234 0H47.9374C43.5063 0.0390451 40.2943 3.0766 40.2917 7.49768H40.2899L40.2917 7.50026C40.2917 7.50205 40.2899 7.50205 40.2899 7.50334H40.2917C40.2943 11.9231 43.5065 14.9604 47.9374 14.9997H48.0234C52.4558 14.9607 55.6662 11.9231 55.6698 7.50334V7.50026ZM47.9805 12.0575C45.411 12.0575 43.6296 10.3195 43.6296 7.50026C43.6296 4.68284 45.411 2.94225 47.9805 2.94225C50.5493 2.94225 52.3304 4.68284 52.3333 7.50026C52.3304 10.3195 50.5493 12.0575 47.9805 12.0575Z" fill="#0047BB"/>
<path d="M89.0821 3.1906H84.4023V0.24707H96.9579V3.1906H92.2771V14.7593H89.0821V3.1906Z" fill="#0047BB"/>
<path d="M98.8859 0.24707H105.409C108.872 0.24707 110.966 2.3013 110.966 5.30675C110.966 8.66514 108.353 10.4068 105.098 10.4068H102.079V14.759H98.8856V0.24707H98.8859ZM105.202 7.56546C106.796 7.56546 107.73 6.61244 107.73 5.32729C107.73 3.89624 106.737 3.12921 105.139 3.12921H102.079V7.56546H105.202Z" fill="#0047BB"/>
<path d="M139.586 14.7593L134.425 7.31603L139.376 0.24707H135.709L132.601 4.68305L129.523 0.24707H125.75L130.702 7.39078L125.541 14.7593H129.21L132.528 10.0232L135.815 14.7593H139.586Z" fill="#0047BB"/>
<path d="M121.946 14.7633H125.205L118.982 0.145996H116.037L109.816 14.7633H113.073L114.431 11.4182H120.587L121.946 14.7633ZM115.568 8.5877L117.509 4.05307L119.45 8.5877H115.568Z" fill="#0047BB"/>
<path d="M64.7209 12.0575C62.1513 12.0575 60.3681 10.3195 60.3681 7.50025C60.3681 4.68284 62.1513 2.94224 64.7209 2.94224C66.0641 2.94224 67.1704 3.32319 68.1126 4.12439L70.1003 2.14876C68.7458 0.86335 66.9513 0.0197667 64.7648 0.000244141H64.6772C60.2448 0.0392892 57.0323 3.07685 57.0308 7.49794V7.50051V7.50359C57.032 11.9234 60.2448 14.9607 64.6772 15H64.7648C66.9513 14.981 68.7458 14.1366 70.1003 12.8515L68.1126 10.8753C67.1704 11.6776 66.0643 12.0575 64.7209 12.0575Z" fill="#0047BB"/>
<path d="M78.0478 12.0575C75.4783 12.0575 73.6958 10.3195 73.6943 7.50025C73.6956 4.68284 75.4783 2.94224 78.0478 2.94224C79.3905 2.94224 80.4989 3.32319 81.4409 4.12439L83.4265 2.14876C82.0713 0.86335 80.2775 0.0197667 78.0902 0.000244141H78.0041C73.5718 0.0392892 70.3606 3.07685 70.3564 7.49794V7.50051V7.50359C70.3608 11.9234 73.572 14.9607 78.0041 15H78.0902C80.2775 14.981 82.0715 14.1366 83.4265 12.8515L81.4409 10.8753C80.4987 11.6776 79.3905 12.0575 78.0478 12.0575Z" fill="#0047BB"/>
</svg>
