<svg width="198" height="50" viewBox="0 0 198 50" fill="none" xmlns="http://www.w3.org/2000/svg">
<path fill-rule="evenodd" clip-rule="evenodd" d="M21.875 50H3.89903C3.37065 50 2.85674 49.8225 2.43569 49.4946C1.36991 48.6651 1.16108 47.106 1.96929 46.0124L9.82549 38.0371C9.82568 38.0371 13.8422 42.0247 21.875 50Z" fill="#FF4F12"/>
<path fill-rule="evenodd" clip-rule="evenodd" d="M0 46V15.316C0 13.509 0.691521 11.772 1.92998 10.468L11.875 0L29.6875 18L2.22755 45.766C1.76571 46.231 1.50605 46.863 1.50605 47.522C1.50605 48.891 2.60399 50 3.95833 50C1.77224 50 0 48.209 0 46Z" fill="#7700FF"/>
<path d="M53.2854 33.6606H56.6797V27.3864H61.4625C65.5254 27.3864 68.1997 25.3035 68.1997 21.5235C68.1997 17.7435 65.5254 15.6606 61.4625 15.6606H53.2854V33.6606ZM56.6797 24.3521V18.6949H61.3597C63.7254 18.6949 64.8054 19.8264 64.8054 21.5235C64.8054 23.2206 63.7254 24.3521 61.3597 24.3521H56.6797Z" fill="#101828"/>
<path d="M82.7958 27.2835C82.7958 22.8092 79.3243 20.5464 75.8272 20.5464C72.33 20.5464 68.8586 22.8092 68.8586 27.2835C68.8586 31.7578 72.33 34.0206 75.8272 34.0206C79.3243 34.0206 82.7958 31.7578 82.7958 27.2835ZM75.8272 30.9864C73.9243 30.9864 72.15 29.6235 72.15 27.2835C72.15 24.9435 73.9243 23.5806 75.8272 23.5806C77.73 23.5806 79.5043 24.9435 79.5043 27.2835C79.5043 29.6235 77.73 30.9864 75.8272 30.9864Z" fill="#101828"/>
<path d="M97.0015 30.6006L94.3272 29.1349C93.5558 30.2149 92.7329 30.9864 91.1386 30.9864C89.1844 30.9864 87.7444 29.5721 87.7444 27.2835C87.7444 25.0206 89.2358 23.5806 91.1386 23.5806C92.2958 23.5806 93.2986 24.1206 94.0958 25.3292L96.8729 23.7349C95.9472 21.7549 93.9415 20.5464 91.1644 20.5464C87.5386 20.5464 84.4529 23.2206 84.4529 27.2835C84.4529 31.3464 87.3844 34.0206 91.1644 34.0206C93.8901 34.0206 95.7158 32.7864 97.0015 30.6006Z" fill="#101828"/>
<path d="M101.687 33.6606H104.927V23.8378H108.733V20.9064H97.8816V23.8378H101.687V33.6606Z" fill="#101828"/>
<path d="M112.726 28.0549H122.549V26.9235C122.549 23.1949 119.978 20.5464 116.326 20.5464C112.623 20.5464 109.615 23.2464 109.615 27.2835C109.615 31.3206 112.623 34.0206 116.172 34.0206C118.975 34.0206 120.749 32.9664 122.035 30.7806L119.463 29.4949C118.666 30.4978 117.946 31.2435 116.223 31.2435C114.32 31.2435 112.932 30.0092 112.726 28.0549ZM116.223 23.0149C118.023 23.0149 119.232 23.9921 119.54 25.5864H112.778C113.24 24.1464 114.526 23.0149 116.223 23.0149Z" fill="#101828"/>
<path d="M124.751 33.8406C127.631 33.8406 128.66 31.9378 128.84 28.2606L129.071 23.8378H133.031V33.6606H136.271V20.9064H126.243L125.831 28.1321C125.703 30.4206 125.317 30.9606 124.52 30.9606C123.954 30.9606 123.62 30.8064 123.62 30.8064V33.6606C123.62 33.6606 124.16 33.8406 124.751 33.8406Z" fill="#101828"/>
<path d="M141.705 28.0549H151.528V26.9235C151.528 23.1949 148.956 20.5464 145.305 20.5464C141.602 20.5464 138.594 23.2464 138.594 27.2835C138.594 31.3206 141.602 34.0206 145.151 34.0206C147.954 34.0206 149.728 32.9664 151.014 30.7806L148.442 29.4949C147.645 30.4978 146.925 31.2435 145.202 31.2435C143.299 31.2435 141.911 30.0092 141.705 28.0549ZM145.202 23.0149C147.002 23.0149 148.211 23.9921 148.519 25.5864H141.756C142.219 24.1464 143.505 23.0149 145.202 23.0149Z" fill="#101828"/>
<path d="M165.116 20.9064H161.182L157.042 25.5349V20.9064H153.802V33.6606H157.042V28.3378L161.285 33.6606H165.116L159.613 26.9235L165.116 20.9064Z" fill="#101828"/>
<path d="M179.45 27.2835C179.45 22.8092 175.979 20.5464 172.482 20.5464C168.985 20.5464 165.513 22.8092 165.513 27.2835C165.513 31.7578 168.985 34.0206 172.482 34.0206C175.979 34.0206 179.45 31.7578 179.45 27.2835ZM172.482 30.9864C170.579 30.9864 168.805 29.6235 168.805 27.2835C168.805 24.9435 170.579 23.5806 172.482 23.5806C174.385 23.5806 176.159 24.9435 176.159 27.2835C176.159 29.6235 174.385 30.9864 172.482 30.9864Z" fill="#101828"/>
<path d="M181.776 33.6606H184.862V25.5864L188.282 33.6606H190.802L194.222 25.5864V33.6606H197.307V20.9064H193.065L189.542 29.8549L186.019 20.9064H181.776V33.6606Z" fill="#101828"/>
</svg>
