<svg width="184" height="40" viewBox="0 0 184 40" fill="none" xmlns="http://www.w3.org/2000/svg">
<g clip-path="url(#clip0_2_253)">
<path d="M14.8571 21.4285C14.8571 24.1904 12.3809 27.1904 8.19043 27.1904C6.90472 27.1904 5.80948 27.0475 4.19043 27.0475C2.76186 27.0475 1.52376 27.0951 0.380906 27.0951C0.238049 26.5713 0.19043 26.0475 0.19043 25.5237C0.952334 25.4285 1.66662 25.2856 2.42852 25.0475C2.52376 24.5713 2.57138 23.9999 2.57138 23.4761V15.4285C2.57138 13.9523 2.52376 12.857 2.42852 11.857C1.66662 11.6189 0.952334 11.4285 0.19043 11.3808C0.19043 10.857 0.238049 10.3332 0.380906 9.80942C1.47614 9.80942 2.71424 9.85703 4.09519 9.85703H7.14281C8.95233 9.85703 11.619 9.85703 13.1904 9.80942L13.4285 10.0475C13.4761 11.7618 13.3809 13.0951 13.1428 14.4761C12.4285 14.6189 11.8095 14.6189 11.1904 14.4761C11.1428 13.6666 11 12.7618 10.8095 11.9999H5.76186V17.0951C6.80948 16.9047 7.90472 16.857 8.95233 16.857C12.619 16.857 14.8571 18.9523 14.8571 21.4285ZM7.47614 24.9523C9.38091 24.9523 10.3333 24.6666 10.5238 24.4761C11.0952 23.9999 11.5238 23.1904 11.5238 21.9523C11.5238 20.1427 10.0476 18.9999 7.619 18.9999C6.95233 18.9999 6.38091 19.0475 5.76186 19.0951V24.9523H7.47614ZM22.9047 19.0951C22.8571 17.3808 22.4761 16.1904 21.0476 16.1904C20.4761 16.1904 19.8571 16.238 19.238 16.3332C19.0476 16.9523 19.0476 17.6666 19.0476 18.3808C18.3809 18.7142 17.7142 18.8094 17.0476 18.6666C16.5714 17.857 16.2857 16.8094 16.2857 15.6666C17.7142 14.8094 19.6666 14.238 21.619 14.238C23.238 14.238 26.0476 14.8094 26.0476 18.4761V23.1904C26.0476 23.7618 26.0952 24.5237 26.1428 25.0951C26.7142 24.9999 27.2857 24.9047 27.8095 24.7618C28.0952 24.9999 28.2857 25.3808 28.2857 25.8094C27.3809 26.7142 26 27.4761 24.7619 27.4761C24.1428 27.4761 23.5714 26.7618 23.1904 25.6666C21.9047 26.7142 20.3809 27.4761 19.1428 27.4761C17 27.4761 15.7142 26.3332 15.7142 24.238C15.7619 21.3332 19.8095 19.7618 22.9047 19.0951ZM22.9047 24.1427V21.1904C21.2857 21.3808 19.8095 21.7618 19.5238 21.9999C19.1904 22.2856 19 22.9523 19 23.4285C19 24.2856 19.5714 25.0475 20.7619 25.0475C21.3809 25.0475 22.238 24.6666 22.9047 24.1427ZM41.7619 23.238C41.7619 23.9523 41.8095 24.5713 41.8571 25.1904C42.5714 25.2856 43.3333 25.4285 43.7619 25.6666C43.7619 26.1427 43.7142 26.857 43.619 27.1427C42.9047 27.0951 41.1904 27.0951 40.238 27.0951C38.9523 27.0951 37.8095 27.1427 36.8095 27.1427C36.6666 26.6666 36.619 26.0951 36.619 25.6666C37.2857 25.5713 37.9523 25.4285 38.619 25.1904C38.7142 24.8094 38.7142 24.238 38.7142 23.7618V21.7618C37.3809 21.6666 36.0952 21.6666 34.8571 21.6666H33.3809V23.1904C33.3809 23.9047 33.4285 24.5237 33.4761 25.1427C34.1428 25.238 34.8571 25.3808 35.2857 25.6189C35.2857 26.0951 35.238 26.8094 35.1428 27.0951C34.4285 27.0475 32.7619 27.0475 31.8095 27.0475C30.4761 27.0475 29.2857 27.0951 28.2857 27.0951C28.1428 26.6189 28.0952 26.0475 28.0952 25.6189C28.7619 25.5237 29.4761 25.3808 30.1428 25.1427C30.238 24.7618 30.2857 24.1904 30.2857 23.7142V18.1427C30.2857 17.7142 30.238 17.1904 30.1904 16.7142C29.4761 16.4761 28.8095 16.3332 28.1428 16.238C28.1428 15.7618 28.1904 15.1904 28.3333 14.7618C29.3333 14.7618 30.4285 14.8094 31.7619 14.8094C32.9047 14.8094 34.3333 14.7618 35.1904 14.7618C35.3333 15.1904 35.3333 15.7142 35.3333 16.238C34.8095 16.4761 34.1904 16.6189 33.4761 16.7142C33.4285 17.2856 33.3809 17.9999 33.3809 18.6666V19.8094H38.7142V18.1427C38.7142 17.7142 38.6666 17.1904 38.619 16.7142C37.9523 16.4761 37.2857 16.3332 36.619 16.238C36.619 15.7618 36.6666 15.1904 36.8095 14.7618C37.8095 14.7618 38.8571 14.8094 40.1428 14.8094C41.3333 14.8094 42.7619 14.7618 43.6666 14.7618C43.7619 15.1904 43.8095 15.7142 43.8095 16.238C43.2857 16.4761 42.619 16.6189 41.8571 16.7142C41.8095 17.2856 41.7619 17.9999 41.7619 18.6666V23.238ZM49.9047 19.9523H50.2857C51.2857 19.9523 52.0952 19.857 52.3333 19.5713C53.5238 17.857 53.7619 14.5237 55.9047 14.5237C56.8571 14.5237 57.8571 14.9047 58.619 15.4285C58.7142 16.0475 58.4761 16.8094 58.0476 17.3332C57.2857 17.238 56.6666 17.1904 55.9523 17.238L54.2857 20.5237C55.0952 22.0475 56.0952 23.6189 56.8095 24.4285C57.4761 25.1427 57.9523 25.3332 58.7619 25.3332C59 25.3332 59.238 25.2856 59.4761 25.238C59.6666 25.6189 59.8095 26.0951 59.7142 26.5713C59.1904 26.857 57.5238 27.3332 56.0476 27.3332C54.619 27.3332 53.0952 24.9047 51.9047 21.7618H49.9047V23.1427C49.9047 23.857 49.9523 24.4761 50 25.0951C50.6666 25.1904 51.4285 25.3332 51.9047 25.5713C51.9047 26.0475 51.8571 26.7618 51.7619 27.0475C51.0476 26.9999 49.3333 26.9999 48.3809 26.9999C47.0476 26.9999 45.8571 27.0475 44.8571 27.0475C44.7142 26.5713 44.6666 25.9999 44.6666 25.5713C45.3333 25.4761 46.0476 25.3332 46.7142 25.0951C46.8095 24.7142 46.8571 24.1427 46.8571 23.6666V18.1427C46.8571 17.7142 46.8095 17.1904 46.7619 16.7142C46.0476 16.4761 45.3809 16.3332 44.7142 16.238C44.7142 15.7618 44.7619 15.1904 44.9047 14.7618C45.9047 14.7618 47 14.8094 48.3333 14.8094C49.5238 14.8094 50.9523 14.7618 51.8571 14.7618C52 15.1904 52 15.7142 52 16.238C51.4285 16.4761 50.8095 16.6189 50.0476 16.7142C50 17.2856 49.9523 17.9999 49.9523 18.6666V19.9523H49.9047ZM183.381 7.14275C182.809 8.71418 179.667 16.9047 179.286 17.7618C178.952 18.5237 178.476 19.3332 177.381 18.9999C176.381 18.7142 176.381 17.2856 176.476 16.5713C176.619 15.6666 177.048 14.0951 177.476 12.9047C178 11.3332 178.524 9.80941 179 8.23799C179.571 6.5237 179.476 4.71418 181.667 3.95227C183.238 3.42846 184.286 4.7618 183.381 7.14275ZM175.286 22.7142C174.095 23.0951 173 24.4761 173 25.9047C173 26.7618 173.524 27.2856 174.048 27.4761C174.762 27.7618 175.429 27.6189 176.095 27.1427C176.762 26.6189 177.381 25.4761 177.476 24.5713C177.476 23.3332 176.762 22.238 175.286 22.7142ZM170.381 22.6189C171 23.5237 170.238 24.9046 169.048 25.857C167.238 27.2856 165 27.9046 163.524 27.9999C159.286 28.1904 159.333 24.8094 159.333 24.8094C159.333 24.8094 157 27.6189 154.333 27.6666C152.905 27.6666 151.809 26.238 151.809 26.238C151.809 26.238 150.19 28.9999 147.429 28.6189C145.524 28.3332 144.381 26.1427 144.381 24.3808C144.381 23.9523 144.429 23.6189 144.524 23.2856C143.952 23.5237 143.333 23.6666 142.714 23.7618C141.381 23.9523 139.714 23.9999 138.857 23.9999C138.714 23.9999 138.619 23.9999 138.524 23.9999C138.524 24.238 138.667 24.9523 139.381 25.2856C139.857 25.5237 140.476 25.6189 141.048 25.6666C141.667 25.7618 142.238 25.857 142.571 26.0951C143.048 26.4285 143.333 26.9999 143.429 27.5713C143.476 28.0951 143.333 28.5713 143 28.9047C142.571 29.3332 141.571 29.6189 140.476 29.6189C139.714 29.6189 138.286 29.4761 137.048 28.6189C136.333 28.1427 135.333 27.0475 134.952 24.9999C134.952 25.3808 134.905 25.6666 134.905 25.9047C134.857 27.0475 134.809 30.3332 134.429 33.8094C134.048 37.2856 132.952 40.4761 129.952 39.7142C127.762 39.1427 126.476 36.8094 126.714 33.1904C126.857 31.1427 127.714 28.6666 128.524 26.9999C128.857 26.238 129.524 25.1904 129.524 25.1904C129.524 25.1904 127.857 26.4285 125.476 26.1427C124.809 26.0475 124.286 25.857 123.857 25.5713C124.333 26.4285 124.476 27.5237 123.524 28.4285C122.524 29.3808 121.19 28.857 120.809 28.6189C120 28.0951 119.429 27.3808 118.905 26.5713C118.381 25.7618 117.762 23.857 117.762 23.857C117.762 23.857 116.714 24.9523 115.857 25.7142C114.667 26.7618 112.857 28.0951 111.667 28.0951C110.476 28.0951 109.809 27.3808 109.381 26.5713C108.952 25.8094 108.857 24.7618 108.857 24.7618C108.857 24.7618 107.857 27.4285 106.143 29.0475C105 30.0951 103.524 30.5237 102.048 30.238C99.9523 29.8094 99.0952 28.1904 98.6666 26.5713C98.2381 25.0475 98.2857 23.857 98.2857 23.857C98.2857 23.857 96.8095 24.5713 94.4285 27.5713C93.7619 28.4285 93.1904 29.1427 92.2381 28.9999C91.3333 28.857 90.5238 28.2856 90.2381 27.2856C90 26.4761 89.9047 23.857 90.3333 20.5713C90.6666 18.1427 91.3809 14.3808 91.3809 14.3808C91.3809 14.3808 90 18.238 88.3333 22.3808C86.619 26.8094 84.9047 30.4285 82.8095 32.1904C81.3333 33.4285 79.3809 34.1427 77.1428 34.238C74.619 34.3808 70.9047 33.2856 68.7619 30.238C66.3809 26.9047 66.3809 22.3808 67.5238 19.7618C68.7142 17.0951 71.4761 15.4761 75.1904 15.4285C77.5714 15.4285 80 15.9999 80.7619 17.9523C81.5238 19.9047 80.3809 22.3808 78.9523 23.4285C77.5238 24.4761 74.7619 24.857 73.2857 23.238C72.3333 22.1427 72.9047 21.0951 73.619 20.857C73.8095 20.7618 75.0476 20.5237 75.3809 20.4285C76 20.1904 76.0952 19.7142 76.0952 19.7142C76.0952 19.7142 74.0476 18.9523 72.2381 19.8094C70.2857 20.6666 69.7142 23.1904 70.3809 25.5713C71.1904 28.3808 73.1904 30.5237 76.4285 30.4761C79.1428 30.4285 80.5238 29.2856 81.619 27.4285C83.4761 24.1427 85.2381 19.2856 86.0952 16.9523C88.1428 11.4285 90.1428 5.47608 90.1428 5.47608C90.1428 5.47608 88.3333 5.61894 84.1904 6.14275C81.2857 6.5237 77.0476 7.33323 75.5714 7.61894C73.7619 7.95227 71.7142 8.04751 71.4762 6.33323C71.2381 4.90465 72.8095 4.14275 76.1904 3.14275C78.1428 2.57132 85.1428 1.33323 91.6666 0.904655C97.619 0.523702 102.333 -0.428679 103.143 1.90465C103.619 3.38084 102.857 4.61894 100.476 4.80942C99.1428 4.90465 97.0952 4.99989 96.0476 5.14275C94.5238 5.33323 94.1428 7.09513 94.1428 7.09513C94.1428 7.09513 95.3809 6.95227 96.4762 7.19037C99.3333 7.80942 97.0952 11.9523 95.9523 15.0475C95.2857 16.9523 94.6666 18.9047 94.3809 20.9047C94.3333 21.238 94.2381 21.9523 94.2381 21.9523C94.2381 21.9523 96.5714 20.3808 97.7619 19.4285C98.7619 18.6666 99.2857 17.7618 99.619 17.1904C100.238 16.1904 101.476 14.7618 103.809 14.5713C106.19 14.3808 108.095 15.7142 108.952 17.2856C109.476 18.1904 109.571 18.9523 109.571 18.9523C109.571 18.9523 110.238 16.6189 110.571 16.0475C110.905 15.4761 111.429 15.2856 111.952 15.4285C112.714 15.6666 113.19 16.4761 113.381 17.0951C113.619 17.857 113.571 18.6666 113.333 19.4285C113.143 20.1904 112.429 22.7618 112.429 22.7618C112.429 22.7618 113.952 22.2856 116.286 19.4285C116.762 18.857 118.238 16.857 118.476 16.4761C119 15.7142 120 15.9047 120.809 16.5713C121.429 17.0475 121.809 17.6189 121.809 18.3332C121.809 19.1427 121.667 19.9523 121.667 20.8094C121.619 22.3332 122.143 23.3332 122.619 24.0475C122.333 23.2856 122.286 22.4285 122.333 21.5713C122.667 18.4285 124 16.5237 125.762 15.1427C126.905 14.238 128.429 13.4761 130.333 13.5237C132.19 13.5713 133.952 14.4285 134.857 15.9047C135.809 17.4285 135.381 19.2856 135.381 19.5713C135.333 19.857 135.286 20.1427 135.286 20.4285C136.333 17.5237 139.143 15.5237 142.381 15.5237C145.238 15.5237 147.143 16.857 147.429 19.0475C147.571 20.1427 147.238 21.0475 146.667 21.7618C147.143 21.857 147.524 22.1904 147.762 22.6666C148.857 24.5713 149.619 23.0951 149.952 22.4761C150.238 21.9523 151.143 18.4761 151.571 16.238C151.952 14.2856 153.524 14.0951 154.476 14.3808C155.429 14.6666 155.905 15.4761 155.476 17.4285C155.286 18.3332 154.667 20.857 154.381 22.1427C154.238 22.7142 154.476 23.0475 155.19 22.9523C157 22.7142 158.571 20.9047 159.476 17.1904C159.952 15.2856 161.048 14.5713 162.286 14.857C163.143 15.0951 163.952 15.857 163.571 17.5713C163.333 18.6189 162.286 21.2856 162.571 22.3332C163 24.0951 164.714 23.857 166.286 23.3332C167.714 22.8094 169.667 21.5713 170.381 22.6189ZM104.381 18.4761C103.381 18.4761 102.667 19.8094 102.333 21.4761C102 23.1427 101.667 25.9999 102.952 26.0475C103.714 26.0951 105.143 24.1904 105.714 22.1427C106.095 20.8094 106.048 18.5237 104.381 18.4761ZM131.381 28.0475C131.381 28.0475 130.19 30.3808 129.809 32.3332C129.429 34.3332 129.571 35.4761 130.095 35.5713C131 35.8094 131.048 33.0475 131.143 32.5237C131.19 31.5237 131.381 28.0475 131.381 28.0475ZM131.238 17.5237C130.762 16.9523 129.143 17.2856 128 18.3332C126.857 19.3332 126 21.0475 126.286 21.6666C126.667 22.5237 128.571 22.0951 130 20.7142C131.048 19.6666 131.857 18.238 131.238 17.5237ZM144.143 19.5237C144.143 19.0475 143.19 18.857 142.333 18.857C140.857 18.857 139.19 19.9523 138.762 20.7142H138.857C140.095 20.7142 141.238 20.6189 142.19 20.5237C143.429 20.3332 144.143 19.857 144.143 19.5237ZM147.809 11.3808C148.809 10.8094 149.571 9.04751 149.238 7.85703C149.048 7.04751 148.333 6.42846 147.381 6.42846C146.762 6.42846 146.333 6.7618 146 7.28561C145.571 7.90465 145.048 9.42846 145.667 10.7142C146.238 11.9523 147.238 11.7142 147.809 11.3808ZM141.524 10.9999C142.048 10.4761 142.429 9.47608 142.429 8.57132C142.429 7.66656 141.905 6.42846 140.619 6.38084C139.524 6.33322 138.905 7.42846 138.619 8.5237C138.333 9.61894 138.667 10.6189 138.905 11.0475C139.238 11.5237 140.095 12.4285 141.524 10.9999ZM115.238 12.0475C117.048 11.1427 119.571 11.5237 120.429 11.4285C121.524 11.3332 122.143 10.8094 122.333 9.80942C122.429 9.23799 122.286 8.85703 121.762 8.47608C121.381 8.23799 119.809 7.42846 117.095 7.42846C114.857 7.42846 113.286 7.95227 112.524 8.33323C111.952 8.61894 111.238 9.23799 111.381 10.4761C111.714 12.2856 113.762 12.8094 115.238 12.0475Z" fill="#C11F3E"/>
</g>
<defs>
<clipPath id="clip0_2_253">
<rect width="183.81" height="40" fill="white"/>
</clipPath>
</defs>
</svg>
