<svg width="256" height="42" viewBox="0 0 256 42" fill="none" xmlns="http://www.w3.org/2000/svg">
<g clip-path="url(#clip0_2_271)">
<path fill-rule="evenodd" clip-rule="evenodd" d="M142.877 4.22098C142.877 3.02878 143.1 2.2313 143.544 1.82855C143.989 1.42579 144.867 1.20293 146.179 1.15995L146.195 0.467195H135.957V1.15995C137.279 1.21371 138.16 1.44731 138.6 1.86076C139.039 2.27421 139.259 3.06095 139.259 4.22098V19.5422C139.259 20.756 139.039 21.5615 138.6 21.9588C138.16 22.356 137.279 22.5708 135.957 22.6032V23.296H146.195L146.179 22.6032C144.835 22.5496 143.948 22.3213 143.52 21.9185C143.092 21.5156 142.877 20.7235 142.877 19.5422V12.9046C142.983 12.894 143.092 12.8859 143.202 12.8804C143.314 12.8748 143.422 12.8724 143.528 12.8724C144.364 12.8724 145.279 13.4469 146.274 14.5962C147.269 15.7454 149.147 18.6453 151.909 23.296H157.369V22.6032C156.692 22.4637 156.168 22.2838 155.798 22.0635C155.428 21.8435 155.052 21.4649 154.671 20.9277C154.279 20.3585 153.718 19.5261 152.989 18.4305C150.576 14.779 148.528 12.5182 146.846 11.648C147.417 11.2291 147.912 10.6867 148.329 10.0208C148.747 9.35502 149.237 8.23796 149.798 6.66978C150.443 4.8976 150.93 3.78866 151.258 3.34296C151.586 2.89735 151.968 2.67449 152.401 2.67436C152.729 2.67436 153.158 2.88915 153.687 3.31877C154.216 3.74847 154.697 3.96329 155.132 3.96321C155.607 3.96321 156.002 3.79941 156.314 3.47182C156.626 3.14422 156.782 2.73341 156.782 2.23938C156.782 1.62715 156.51 1.10086 155.965 0.660534C155.42 0.220204 154.761 2.68805e-05 153.989 0C152.814 0 151.825 0.426929 151.02 1.28079C150.216 2.13465 149.29 4.01691 148.243 6.92755C147.671 8.51726 147.029 9.62889 146.314 10.2625C145.6 10.896 144.671 11.2128 143.528 11.213C143.359 11.213 143.227 11.2104 143.131 11.2049C143.036 11.1993 142.951 11.1916 142.877 11.1807V4.22098ZM165.577 21.4674C164.974 21.8057 164.36 21.9749 163.735 21.9749C162.974 21.9749 162.339 21.701 161.83 21.1533C161.323 20.6055 161.069 19.9234 161.069 19.1072C161.069 18.0977 161.526 17.209 162.442 16.4409C163.357 15.6727 164.852 14.9344 166.926 14.2256V20.1544C166.629 20.6916 166.18 21.1293 165.577 21.4674ZM167.799 23.0785C168.127 23.4168 168.55 23.5859 169.069 23.5859C169.651 23.5859 170.233 23.4088 170.815 23.0543C171.397 22.6999 171.921 22.1951 172.386 21.5399L171.99 21.0888C171.736 21.3251 171.519 21.4889 171.339 21.5802C171.162 21.6708 170.966 21.7178 170.768 21.7173C170.387 21.7173 170.117 21.5991 169.958 21.3628C169.799 21.1265 169.719 20.713 169.719 20.1223V11.8735C169.719 10.488 169.262 9.40056 168.347 8.61109C167.432 7.82169 166.18 7.42696 164.592 7.42696C162.921 7.42696 161.537 7.76799 160.442 8.45004C159.346 9.13224 158.799 9.95655 158.799 10.923C158.799 11.4172 158.939 11.8092 159.22 12.0991C159.5 12.3889 159.867 12.5339 160.323 12.5341C160.746 12.5341 161.101 12.3971 161.386 12.1232C161.524 11.995 161.634 11.8391 161.708 11.6655C161.782 11.492 161.818 11.3049 161.815 11.1163C161.811 10.9001 161.79 10.6846 161.751 10.4719C161.709 10.2249 161.688 10.0799 161.688 10.0369C161.688 9.53218 161.934 9.10261 162.426 8.74806C162.919 8.39352 163.53 8.21635 164.26 8.21642C165.233 8.21642 165.921 8.46074 166.323 8.94944C166.725 9.43814 166.926 10.3054 166.926 11.5513V13.3396C163.487 14.4673 161.18 15.4984 160.005 16.4328C158.831 17.3672 158.243 18.5325 158.243 19.9287C158.243 21.0458 158.585 21.9346 159.267 22.5949C159.95 23.2554 160.868 23.5856 162.021 23.5858C162.793 23.5858 163.592 23.4139 164.418 23.0702C165.244 22.7265 166.111 22.1949 167.022 21.4752C167.212 22.2059 167.471 22.7403 167.799 23.0785ZM180.292 23.296V22.6838C179.403 22.6515 178.808 22.477 178.507 22.1602C178.205 21.8434 178.054 21.2016 178.054 20.2349V9.03806H184.419V20.2349C184.419 21.191 184.263 21.8327 183.951 22.1602C183.639 22.4876 183.049 22.6567 182.182 22.6677V23.296H189.626V22.6677C188.673 22.6249 188.044 22.4583 187.737 22.1682C187.43 21.878 187.276 21.1853 187.277 20.0899V10.9874C187.277 9.90277 187.43 9.21269 187.737 8.9172C188.044 8.62179 188.673 8.45265 189.626 8.40971V7.78143H172.848V8.40971C173.789 8.45279 174.414 8.6246 174.721 8.9253C175.027 9.226 175.181 9.91333 175.181 10.9874V20.0899C175.181 21.1749 175.027 21.8649 174.721 22.1602C174.414 22.4556 173.789 22.6249 172.848 22.6677V23.296H180.292ZM202.198 12.4053V20.2349C202.198 21.191 202.042 21.8327 201.73 22.1602C201.418 22.4879 200.827 22.6571 199.96 22.6677V23.296H207.405V22.6677C206.463 22.6249 205.835 22.4556 205.524 22.1602C205.211 21.8649 205.056 21.1748 205.056 20.0899V10.9874C205.056 9.90277 205.212 9.21269 205.524 8.9172C205.835 8.62193 206.463 8.45279 207.405 8.40971V7.78143H199.96V8.40971C200.817 8.43139 201.4 8.58983 201.706 8.88504C202.013 9.18017 202.177 9.76819 202.198 10.6491L195.833 18.5755V10.8586C195.833 9.89186 195.987 9.24746 196.293 8.9253C196.6 8.60306 197.193 8.43125 198.071 8.40971V7.78143H190.627V8.40971C191.568 8.45279 192.192 8.62728 192.5 8.93332C192.807 9.23937 192.96 9.92403 192.96 10.9874V20.0899C192.96 21.1749 192.807 21.8649 192.5 22.1602C192.192 22.4554 191.568 22.6245 190.627 22.6677V23.296H198.071V22.6838C197.182 22.6515 196.587 22.477 196.285 22.1602C195.984 21.8434 195.833 21.2231 195.833 20.2994L202.198 12.4053ZM209.057 7.78157L207.597 12.4053H208.184C208.702 11.2348 209.277 10.4481 209.906 10.0451C210.535 9.6422 211.607 9.44082 213.121 9.44096H214.057V20.0901C214.057 21.1642 213.903 21.8516 213.596 22.1523C213.289 22.453 212.665 22.6248 211.723 22.6678V23.296H219.168L219.152 22.6677C218.274 22.6462 217.684 22.4823 217.383 22.1763C217.081 21.8702 216.931 21.2231 216.93 20.2349V9.44082H217.867C219.38 9.44082 220.451 9.6422 221.081 10.045C221.711 10.4477 222.284 11.2344 222.803 12.4052H223.422L221.93 7.78143H209.057V7.78157ZM231.694 21.4675C231.091 21.8059 230.477 21.975 229.852 21.975C229.091 21.975 228.456 21.7012 227.948 21.1534C227.439 20.6056 227.185 19.9236 227.185 19.1074C227.185 18.0979 227.643 17.2092 228.559 16.441C229.474 15.6729 230.969 14.9345 233.043 14.2258V20.1544C232.747 20.6916 232.297 21.1293 231.694 21.4674V21.4675ZM233.916 23.0786C234.244 23.4169 234.668 23.5861 235.186 23.5861C235.768 23.5861 236.35 23.4089 236.932 23.0544C237.514 22.7 238.038 22.1952 238.504 21.54L238.107 21.089C237.853 21.3254 237.636 21.4891 237.456 21.5803C237.279 21.671 237.083 21.718 236.884 21.7174C236.503 21.7174 236.233 21.5992 236.075 21.3629C235.916 21.1267 235.837 20.7131 235.837 20.1224V11.8735C235.837 10.488 235.379 9.40056 234.463 8.61109C233.548 7.82169 232.297 7.42696 230.71 7.42696C229.037 7.42696 227.653 7.76799 226.558 8.45004C225.463 9.1321 224.915 9.95641 224.915 10.923C224.915 11.4172 225.056 11.8092 225.336 12.0991C225.616 12.3889 225.985 12.5339 226.439 12.5341C226.863 12.5341 227.217 12.3971 227.503 12.1232C227.642 11.995 227.751 11.839 227.825 11.6655C227.898 11.492 227.935 11.3048 227.932 11.1163C227.929 10.9001 227.907 10.6846 227.868 10.4719C227.826 10.2249 227.805 10.0799 227.805 10.0369C227.805 9.53218 228.05 9.10261 228.542 8.74806C229.035 8.39359 229.646 8.21635 230.376 8.21642C231.35 8.21642 232.037 8.46074 232.44 8.94944C232.842 9.43814 233.042 10.3054 233.043 11.5513V13.3396C229.603 14.4673 227.297 15.4984 226.122 16.4328C224.948 17.3672 224.36 18.5324 224.36 19.9286C224.36 21.0457 224.701 21.9345 225.384 22.5949C226.066 23.2553 226.984 23.5856 228.138 23.5857C228.911 23.5857 229.71 23.4139 230.535 23.0702C231.36 22.7265 232.228 22.1949 233.138 21.4752C233.329 22.2059 233.588 22.7403 233.916 23.0785V23.0786ZM245.234 9.0382H250.726V20.2349C250.726 21.191 250.575 21.83 250.273 22.1521C249.972 22.4742 249.382 22.646 248.504 22.6677L248.488 23.296H255.932V22.6677C254.991 22.6249 254.366 22.4556 254.059 22.1602C253.753 21.8647 253.599 21.1746 253.599 20.0899V10.9874C253.599 9.90277 253.753 9.21269 254.059 8.9172C254.366 8.62179 254.991 8.45265 255.932 8.40971V7.78143H241.63V8.40971C242.509 8.43139 243.101 8.59786 243.408 8.90918C243.715 9.22043 243.869 9.87025 243.869 10.8586V17.1257C243.869 18.7906 243.76 19.9211 243.543 20.517C243.326 21.1129 242.948 21.4109 242.408 21.4111C242.165 21.4111 241.834 21.2526 241.416 20.9358C240.998 20.619 240.625 20.4606 240.297 20.4606C239.884 20.4606 239.538 20.5921 239.258 20.8553C238.977 21.1184 238.837 21.4487 238.837 21.8461C238.837 22.3833 239.064 22.821 239.519 23.1591C239.974 23.4972 240.572 23.6664 241.313 23.6666C242.54 23.6666 243.496 23.2128 244.178 22.3052C244.861 21.3977 245.202 20.1222 245.202 18.4788C245.202 18.4682 245.207 18.291 245.217 17.9472C245.228 17.6033 245.234 17.265 245.234 16.9322V9.03806V9.0382ZM42.382 39.9448H43.296L46.977 34.487V39.9448H47.8063V33.0355H46.8874L43.2114 38.5074V33.0355H42.382V39.9448ZM52.9984 39.9448V36.6881H56.5898V39.9448H57.5043V33.0355H56.5898V35.8728H52.9984V33.0355H52.0844V39.9448H52.9984ZM64.3741 39.9448C64.814 39.9448 65.1855 39.9062 65.4886 39.8291C65.7608 39.7664 66.0179 39.6503 66.245 39.4876C66.4462 39.3368 66.6152 39.1222 66.7519 38.8441C66.8891 38.5632 66.9593 38.2543 66.9567 37.9417C66.9567 37.5397 66.8444 37.1909 66.62 36.8954C66.395 36.6002 66.0736 36.3913 65.6559 36.2688C65.9797 36.1083 66.2216 35.8977 66.3817 35.6369C66.539 35.3871 66.6223 35.0979 66.622 34.8027C66.6202 34.4793 66.5262 34.163 66.3511 33.891C66.1741 33.6035 65.9124 33.3778 65.6019 33.2451C65.283 33.1056 64.8596 33.0358 64.3318 33.0355H61.7396V39.9448H64.3741ZM62.654 33.8507H64.0346C64.5314 33.8507 64.8817 33.883 65.0858 33.9475C65.2813 34.0055 65.4489 34.1328 65.5571 34.3055C65.6692 34.4874 65.7264 34.6977 65.722 34.9112C65.722 35.1531 65.6632 35.3542 65.5454 35.5144C65.4277 35.6746 65.2525 35.7894 65.0196 35.8587C64.8439 35.9119 64.5533 35.9385 64.148 35.9385H62.654V33.8507ZM62.654 36.7543H64.2516C64.6915 36.7543 65.0284 36.7927 65.2624 36.8696C65.485 36.938 65.6783 37.079 65.8116 37.2699C65.9458 37.4678 66.015 37.7026 66.0096 37.9417C66.0137 38.1441 65.9667 38.3445 65.8729 38.5239C65.7924 38.6804 65.6721 38.8128 65.5241 38.9078C65.3616 39.0034 65.1825 39.0673 64.9963 39.0965C64.877 39.1182 64.6695 39.1293 64.3741 39.1295H62.654V36.7543ZM76.1412 39.9448V39.1295H71.8989V36.7776H75.721V35.9672H71.8989V33.8507H75.9807V33.0355H70.9846V39.9448H76.1412ZM84.3639 38.8372C84.0084 39.1324 83.5748 39.2801 83.0631 39.2803C82.6492 39.2824 82.2431 39.1698 81.889 38.9549C81.5279 38.738 81.2619 38.4105 81.0901 37.9723C80.9191 37.5342 80.8332 37.0213 80.8332 36.4337C80.8325 35.9825 80.9057 35.5342 81.0507 35.1067C81.1837 34.6929 81.4477 34.3334 81.8018 34.0818C82.1586 33.8273 82.6021 33.7001 83.1335 33.6999C83.5952 33.6999 83.9781 33.8147 84.2836 34.0443C84.5884 34.2733 84.8207 34.6393 84.9812 35.1422L85.8807 34.9301C85.6956 34.2922 85.3676 33.7974 84.896 33.4455C84.4251 33.0934 83.8437 32.9174 83.1525 32.9177C82.5676 32.9117 81.9904 33.0551 81.4766 33.3346C80.9698 33.6122 80.5601 34.0382 80.3032 34.5556C80.028 35.091 79.8907 35.7185 79.8907 36.4381C79.8858 37.0739 80.0104 37.7041 80.256 38.2905C80.4996 38.8654 80.855 39.3046 81.3217 39.6077C81.7877 39.9109 82.3937 40.0626 83.1384 40.0626C83.8578 40.0626 84.4659 39.8654 84.9643 39.471C85.4626 39.0767 85.8075 38.5042 85.999 37.7533L85.0846 37.5223C84.9586 38.1034 84.7186 38.5416 84.3639 38.8372ZM92.2276 39.9448V33.8507H94.5138V33.0355H89.0369V33.8507H91.3139V39.9448H92.2276ZM98.2169 39.9448H99.1305L102.812 34.487V39.9448H103.641V33.0355H102.722L99.046 38.5074V33.0355H98.2169V39.9448ZM107.895 39.9448H113.15V41.8629H113.961V39.1295H113.329V33.0355H112.411V39.1295H108.81V33.0355H107.895V39.9448ZM117.795 39.9448H118.71L122.391 34.487V39.9448H123.22V33.0355H122.301L118.625 38.5074V33.0355H117.795V39.9448ZM127.588 38.3046C127.842 38.8377 128.247 39.2849 128.752 39.5912C129.264 39.9053 129.846 40.0624 130.496 40.0626C131.082 40.0659 131.66 39.919 132.173 39.6359C132.691 39.3517 133.092 38.933 133.375 38.3799C133.658 37.8269 133.799 37.2 133.799 36.4994C133.799 35.8083 133.665 35.1902 133.397 34.645C133.14 34.1137 132.733 33.6701 132.225 33.3701C131.713 33.0653 131.138 32.9129 130.5 32.9129C129.527 32.9129 128.731 33.2373 128.115 33.8863C127.5 34.5351 127.192 35.4329 127.192 36.5796C127.19 37.1774 127.325 37.7676 127.588 38.3046ZM128.834 34.3669C129.055 34.1509 129.316 33.9809 129.603 33.8664C129.89 33.7519 130.196 33.6954 130.505 33.6999C130.941 33.6944 131.369 33.8147 131.738 34.0463C132.106 34.2811 132.397 34.6209 132.572 35.022C132.762 35.4414 132.857 35.9323 132.857 36.495C132.857 37.384 132.634 38.0706 132.19 38.5546C131.745 39.0386 131.179 39.2805 130.491 39.2803C129.815 39.2803 129.254 39.0407 128.806 38.5614C128.358 38.0821 128.134 37.4263 128.134 36.5938C128.134 35.5539 128.367 34.8116 128.834 34.3669ZM138.671 39.9448V36.6881H142.262V39.9448H143.176V33.0355H142.262V35.8728H138.671V33.0355H137.756V39.9448H138.671ZM148.392 39.9448V36.6881H151.983V39.9448H152.898V33.0355H151.983V35.8728H148.392V33.0355H147.478V39.9448H148.392ZM157.383 39.9448L158.142 37.8522H161.031L161.837 39.9448H162.879L160.05 33.0355H159.066L156.413 39.9448H157.383ZM159.165 35.0809C159.323 34.6514 159.447 34.2101 159.537 33.7612C159.643 34.1354 159.807 34.6131 160.027 35.1942L160.748 37.1075H158.406L159.165 35.0809ZM170.913 39.9448V36.8764H169.852C169.681 36.8717 169.511 36.8828 169.343 36.9095C169.195 36.9471 169.054 37.0093 168.926 37.0933C168.789 37.1812 168.635 37.3352 168.462 37.5554C168.289 37.7756 168.069 38.0929 167.801 38.5074L166.888 39.9448H165.738L166.939 38.0643C167.152 37.7272 167.407 37.4185 167.698 37.1453C167.824 37.032 168.008 36.9173 168.25 36.801C167.587 36.7099 167.097 36.4963 166.779 36.1603C166.462 35.8243 166.303 35.4111 166.303 34.9209C166.299 34.5535 166.399 34.1926 166.591 33.8789C166.765 33.5795 167.036 33.3479 167.359 33.2217C167.68 33.0976 168.148 33.0355 168.764 33.0355H171.827V39.9448H170.913ZM170.913 33.7991H168.726C168.213 33.7991 167.839 33.9043 167.602 34.1149C167.486 34.2144 167.395 34.3384 167.333 34.4778C167.271 34.6172 167.242 34.7685 167.245 34.9209C167.245 35.141 167.309 35.3565 167.43 35.5406C167.557 35.7348 167.747 35.8807 167.967 35.9551C168.203 36.0417 168.529 36.085 168.947 36.0849H170.913V33.7991ZM181.528 39.9448H182.442V36.7115C182.781 36.7115 183.058 36.8081 183.272 37.0014C183.485 37.1947 183.751 37.5506 184.068 38.0691L185.223 39.9448H186.358L184.935 37.645C184.502 36.9442 184.062 36.5325 183.615 36.4099C183.829 36.3253 184.024 36.2014 184.19 36.0446C184.35 35.8926 184.547 35.5242 184.78 34.9394C184.965 34.4777 185.13 34.1761 185.274 34.0346C185.416 33.8935 185.633 33.8228 185.925 33.8225C185.947 33.8225 186.008 33.8241 186.109 33.8273C186.2 33.8306 186.261 33.8322 186.292 33.8322V33.0403C186.274 33.0339 186.088 33.0308 185.736 33.031C185.472 33.028 185.21 33.0937 184.977 33.2217C184.766 33.3336 184.583 33.4953 184.447 33.6931C184.324 33.8798 184.165 34.1994 183.974 34.6519C183.71 35.268 183.493 35.6569 183.323 35.8184C183.154 35.9805 182.859 36.0614 182.442 36.0611V33.0355H181.528V39.9448ZM189.896 38.3046C190.151 38.8376 190.556 39.2848 191.06 39.5912C191.573 39.9053 192.153 40.0624 192.805 40.0626C193.391 40.0659 193.968 39.919 194.482 39.6359C195.001 39.3517 195.401 38.933 195.684 38.3799C195.967 37.8269 196.108 37.2 196.108 36.4994C196.108 35.8083 195.973 35.1902 195.705 34.645C195.449 34.1137 195.041 33.6701 194.534 33.3701C194.022 33.0653 193.447 32.9129 192.809 32.9129C191.835 32.9129 191.04 33.2373 190.424 33.8863C189.808 34.5351 189.501 35.4329 189.501 36.5796C189.498 37.1774 189.634 37.7675 189.896 38.3046ZM191.143 34.3669C191.364 34.1509 191.625 33.9808 191.911 33.8663C192.198 33.7519 192.505 33.6954 192.814 33.6999C193.249 33.6944 193.677 33.8147 194.046 34.0463C194.415 34.2811 194.706 34.6209 194.88 35.022C195.07 35.4414 195.165 35.9323 195.165 36.495C195.165 37.384 194.943 38.0706 194.499 38.5546C194.054 39.0386 193.487 39.2805 192.8 39.2803C192.124 39.2803 191.562 39.0407 191.115 38.5614C190.667 38.0821 190.443 37.4263 190.443 36.5938C190.443 35.5539 190.677 34.8116 191.143 34.3669ZM200.89 39.9448V34.0629L202.888 39.9448H203.713L205.721 34.162V39.9448H206.603V33.0355H205.372L203.718 37.8429C203.551 38.33 203.429 38.699 203.35 38.9501C203.281 38.7239 203.171 38.383 203.021 37.9276L201.385 33.0355H200.009V39.9448H200.89ZM210.838 39.9448H211.752V33.8507H215.353V39.9448H216.272V33.0355H210.838V39.9448ZM220.729 39.9448L221.488 37.8522H224.377L225.182 39.9448H226.224L223.396 33.0355H222.411L219.758 39.9448H220.729ZM222.51 35.0809C222.669 34.6514 222.793 34.2101 222.883 33.7612C222.989 34.1354 223.153 34.6131 223.372 35.1942L224.093 37.1075H221.751L222.51 35.0809ZM230.648 39.9448V36.6881H234.239V39.9448H235.153V33.0355H234.239V35.8728H230.648V33.0355H229.733V39.9448H230.648ZM239.441 39.9448H240.355L244.036 34.487V39.9448H244.865V33.0355H243.946L240.27 38.5074V33.0355H239.441V39.9448ZM253.667 39.9448V36.8764H252.607C252.437 36.8717 252.267 36.8828 252.098 36.9095C251.95 36.9471 251.809 37.0093 251.681 37.0933C251.544 37.1812 251.39 37.3352 251.217 37.5554C251.044 37.7756 250.824 38.0929 250.557 38.5074L249.643 39.9448H248.493L249.695 38.0643C249.908 37.7272 250.163 37.4185 250.453 37.1453C250.579 37.032 250.763 36.9173 251.005 36.801C250.342 36.7099 249.852 36.4963 249.534 36.1603C249.217 35.8243 249.058 35.4111 249.058 34.9209C249.055 34.5535 249.154 34.1926 249.346 33.8789C249.52 33.5795 249.791 33.3479 250.114 33.2217C250.434 33.0976 250.903 33.0355 251.518 33.0355H254.582V39.9448H253.667ZM253.667 33.7991H251.48C250.969 33.7991 250.594 33.9043 250.357 34.1149C250.242 34.2144 250.15 34.3384 250.088 34.4778C250.027 34.6172 249.997 34.7685 250.001 34.9209C250 35.141 250.064 35.3565 250.185 35.5406C250.313 35.7347 250.501 35.8806 250.722 35.9551C250.957 36.0417 251.285 36.085 251.702 36.0849H253.667V33.7991ZM14.1123 19.682C8.01744 24.7475 4.11998 27.8135 0.708241 36.0781C0.240582 35.1008 -0.0014602 34.031 6.62729e-06 32.9476V13.0291C6.62729e-06 11.1042 0.764657 9.25816 2.12575 7.89708C3.48684 6.536 5.33287 5.77135 7.25774 5.77135H23.8296C23.8296 5.77135 21.7827 13.3068 14.1123 19.682ZM2.09669 38.028C2.09669 38.028 3.89789 35.6551 11.4511 31.2138C14.7756 29.259 21 27.8873 25.765 23.4318C30.4869 19.0167 33.4493 12.5408 34.0408 10.6679C34.3017 11.4277 34.4346 12.2257 34.4339 13.0291V32.9476C34.4339 34.8725 33.6693 36.7184 32.3082 38.0795C30.9471 39.4406 29.1011 40.2053 27.1762 40.2053H7.25774C6.29567 40.2064 5.34303 40.0157 4.45555 39.6442C3.56806 39.2728 2.76357 38.7282 2.08911 38.0421C2.09394 38.0332 2.09669 38.028 2.09669 38.028Z" fill="#567790"/>
<path fill-rule="evenodd" clip-rule="evenodd" d="M48.7984 3.39934C48.7984 2.60462 48.9254 2.10788 49.1795 1.90913C49.4331 1.71051 50.1631 1.61115 51.3697 1.61108C53.4757 1.61108 55.0101 1.97625 55.9731 2.70659C56.9361 3.43693 57.4175 4.59153 57.4174 6.17039C57.4174 7.81362 56.883 9.00042 55.8142 9.7307C54.7454 10.461 52.9836 10.8261 50.5286 10.8262H50.0048C49.4331 10.8262 49.0892 10.7591 48.973 10.6246C48.8569 10.4902 48.7987 10.0955 48.7984 9.44056V3.39934ZM48.7984 13.1301C48.7984 12.5824 48.8752 12.2468 49.0286 12.1232C49.1821 11.9997 49.6292 11.9379 50.3697 11.9378H51.1156C53.5389 11.9378 55.3247 12.346 56.473 13.1622C57.6214 13.9785 58.1954 15.2351 58.1951 16.9321C58.1951 18.5649 57.6767 19.8135 56.6396 20.678C55.6026 21.5425 54.1052 21.9748 52.1474 21.9748H51.4334C50.248 21.9748 49.5125 21.8621 49.2271 21.6366C48.9411 21.411 48.7982 20.976 48.7984 20.3316V13.1303V13.1301ZM52.116 23.296C55.5022 23.296 58.0074 22.7616 59.6318 21.6929C61.2562 20.6242 62.0684 18.9783 62.0684 16.7551C62.0684 15.2729 61.6055 14.0593 60.6798 13.1141C59.7536 12.1691 58.3858 11.5139 56.5763 11.1486C57.9944 10.7405 59.0948 10.0827 59.8778 9.17506C60.6607 8.26741 61.0523 7.21215 61.0527 6.00931C61.0527 4.26933 60.3225 2.91067 58.8621 1.93332C57.4017 0.95597 55.3487 0.467283 52.7031 0.467255H41.9092V1.16001C43.2531 1.22452 44.142 1.45275 44.576 1.84469C45.01 2.23664 45.2269 3.02875 45.2268 4.22104V19.5744C45.2268 20.7452 45.0098 21.5346 44.576 21.9427C44.1422 22.3507 43.2585 22.571 41.925 22.6033L41.9092 23.296H52.116ZM76.0527 20.1866C75.1848 20.7882 74.2325 21.0889 73.195 21.0888C71.5226 21.0888 70.1815 20.4417 69.1713 19.1475C68.1604 17.8534 67.6551 16.1215 67.6553 13.9518V13.5009H78.1953C78.0785 11.5998 77.4935 10.1016 76.4413 9.00605C75.3883 7.91054 74.0101 7.36271 72.306 7.36271C70.1898 7.36271 68.4755 8.14676 67.1633 9.71486C65.8511 11.283 65.195 13.3451 65.1948 15.9012C65.1948 18.2319 65.8033 20.1142 67.0202 21.5479C68.2371 22.9817 69.8139 23.6986 71.7506 23.6988C73.3062 23.6988 74.6738 23.2181 75.8542 22.2568C77.0339 21.2955 78.0841 19.8161 79.0048 17.8184L78.4177 17.4639C77.7082 18.6777 76.9199 19.5853 76.0527 20.1866ZM69.0124 9.50524C69.7056 8.77504 70.5864 8.40987 71.6556 8.40973C72.5974 8.40973 73.3801 8.74541 74.0044 9.41663C74.6288 10.0879 74.9406 10.9283 74.9413 11.938C74.9413 12.1743 74.8991 12.3328 74.8139 12.4132C74.7294 12.4938 74.481 12.534 74.0685 12.5342H67.7665C67.904 11.2453 68.3193 10.2357 69.0124 9.50524ZM85.0539 9.03808H90.5462V20.2349C90.5462 21.191 90.3956 21.8301 90.0936 22.1522C89.7924 22.4742 89.2018 22.6461 88.3234 22.6677L88.3079 23.296H95.7528V22.6677C94.8103 22.6249 94.186 22.4557 93.8798 22.1602C93.5729 21.8647 93.4195 21.1746 93.4195 20.0899V10.9875C93.4195 9.90279 93.5729 9.21271 93.8798 8.91723C94.186 8.62181 94.8103 8.45267 95.7528 8.40973V7.78145H81.4507V8.40973C82.3285 8.43141 82.9211 8.59788 83.228 8.9092C83.5356 9.22046 83.6891 9.87028 83.6891 10.8586V17.1257C83.6891 18.7906 83.58 19.9211 83.3632 20.517C83.1464 21.1129 82.7684 21.4109 82.2285 21.4111C81.985 21.4111 81.6542 21.2527 81.2368 20.9359C80.8187 20.619 80.4456 20.4606 80.1169 20.4606C79.7044 20.4606 79.3581 20.5921 79.078 20.8553C78.9407 20.9808 78.8323 21.1343 78.7598 21.3051C78.6873 21.476 78.6521 21.6605 78.6571 21.8461C78.6571 22.3833 78.8844 22.821 79.3391 23.1591C79.7945 23.4973 80.3921 23.6664 81.1333 23.6666C82.3609 23.6666 83.316 23.2128 83.9988 22.3052C84.6808 21.3977 85.0222 20.1222 85.0222 18.4788C85.0222 18.4683 85.0271 18.291 85.0377 17.9472C85.0483 17.6033 85.0539 17.2649 85.0539 16.9322V9.03808ZM108.246 20.1868C107.377 20.7884 106.425 21.0892 105.388 21.089C103.716 21.089 102.375 20.4419 101.365 19.1477C100.354 17.8535 99.8487 16.1216 99.8487 13.952V13.5009H110.389C110.272 11.5998 109.687 10.1016 108.634 9.00605C107.581 7.91054 106.203 7.36271 104.499 7.36257C102.383 7.36257 100.669 8.14662 99.3567 9.71472C98.0439 11.283 97.3879 13.3451 97.3879 15.9012C97.3879 18.2319 97.9968 20.1142 99.2138 21.5479C100.43 22.9817 102.007 23.6986 103.944 23.6988C105.499 23.6988 106.867 23.2181 108.047 22.2568C109.227 21.2955 110.277 19.8161 111.198 17.8184L110.611 17.4639C109.901 18.6777 109.113 19.5853 108.246 20.1866V20.1868ZM101.206 9.50546C101.899 8.77518 102.78 8.41001 103.849 8.40994C104.791 8.40994 105.573 8.74555 106.198 9.41684C106.823 10.0881 107.135 10.9286 107.135 11.9381C107.135 12.1745 107.092 12.3329 107.008 12.4134C106.923 12.4939 106.674 12.5342 106.262 12.5344H99.9599C100.097 11.2454 100.512 10.2357 101.206 9.50524V9.50546ZM123.508 20.4284C122.783 20.9116 121.934 21.1533 120.96 21.1533C119.457 21.1533 118.235 20.5303 117.294 19.2845C116.352 18.0386 115.881 16.4275 115.881 14.4512C115.881 12.6577 116.291 11.1916 117.111 10.053C117.931 8.91469 118.944 8.34547 120.151 8.34526C120.807 8.34526 121.315 8.51179 121.674 8.84473C122.034 9.17773 122.273 9.70402 122.389 10.4236C122.505 11.1002 122.69 11.5728 122.944 11.8413C123.198 12.1098 123.564 12.244 124.04 12.2441C124.537 12.2441 124.929 12.1018 125.214 11.8171C125.5 11.5326 125.643 11.1486 125.643 10.6652C125.643 9.6772 125.18 8.86366 124.254 8.22447C123.328 7.58535 122.14 7.26579 120.69 7.26593C118.489 7.26593 116.683 8.06877 115.27 9.67446C113.857 11.2801 113.151 13.3342 113.151 15.8368C113.151 18.0923 113.759 19.9664 114.976 21.4594C116.193 22.9523 117.722 23.6988 119.564 23.6988C120.949 23.6988 122.185 23.261 123.269 22.3857C124.354 21.5104 125.362 20.1436 126.294 18.2855L125.77 17.915C124.986 19.1073 124.232 19.945 123.508 20.4283V20.4284ZM3.18555 34.641C3.18555 34.641 6.96764 30.6888 14.2737 27.8268C21.5799 24.9648 24.87 22.0602 27.0554 19.2789C29.2408 16.4974 33.2568 10.2463 35.926 0.489351C30.652 0.248152 27.2168 0.126465 27.2168 0.126465C27.2168 0.126465 24.991 8.87534 21.9751 13.2307C18.959 17.5861 17.0882 19.3587 13.427 22.0207C9.76589 24.6825 4.39517 30.5686 3.18555 34.641Z" fill="#CD5A09"/>
</g>
<defs>
<clipPath id="clip0_2_271">
<rect width="256" height="42" fill="white"/>
</clipPath>
</defs>
</svg>
