<svg width="675" height="550" viewBox="0 0 675 550" fill="none" xmlns="http://www.w3.org/2000/svg">
<path d="M563.005 504.761L583.121 524.519L610.773 519.005L591.015 539.121L596.529 566.772L576.413 547.014L548.762 552.529L568.52 532.413L563.005 504.761Z" fill="#1068D7"/>
<path d="M95.1697 605C65.3119 594.566 28.5151 508.44 120.19 468.119C234.784 417.717 499.533 377.576 574.062 354.051C639.616 333.36 657.582 222.68 511.011 209.212C285.826 188.521 130.699 227.781 95.1697 132.283C66.7464 55.8842 156.387 -24.4051 204.76 -55" stroke="#C0C4E4" stroke-width="103"/>
<path d="M31.517 94.1404L51.6328 113.898L79.2843 108.384L59.5266 128.499L65.0409 156.151L44.9252 136.393L17.2737 141.908L37.0314 121.792L31.517 94.1404Z" fill="#1068D7"/>
</svg>
