<svg width="26" height="26" viewBox="0 0 26 26" fill="none" xmlns="http://www.w3.org/2000/svg">
<g clip-path="url(#clip0_204_12392)">
<path d="M12.9997 4.875C7.58301 4.875 2.95717 8.24417 1.08301 13C2.95717 17.7558 7.58301 21.125 12.9997 21.125C18.4163 21.125 23.0422 17.7558 24.9163 13C23.0422 8.24417 18.4163 4.875 12.9997 4.875ZM12.9997 18.4167C10.0097 18.4167 7.58301 15.99 7.58301 13C7.58301 10.01 10.0097 7.58333 12.9997 7.58333C15.9897 7.58333 18.4163 10.01 18.4163 13C18.4163 15.99 15.9897 18.4167 12.9997 18.4167ZM12.9997 9.75C11.2013 9.75 9.74967 11.2017 9.74967 13C9.74967 14.7983 11.2013 16.25 12.9997 16.25C14.798 16.25 16.2497 14.7983 16.2497 13C16.2497 11.2017 14.798 9.75 12.9997 9.75Z" fill="#1068D7"/>
</g>
<defs>
<clipPath id="clip0_204_12392">
<rect width="26" height="26" fill="white"/>
</clipPath>
</defs>
</svg>
