<svg width="26" height="27" viewBox="0 0 26 27" fill="none" xmlns="http://www.w3.org/2000/svg">
<path d="M12.9771 13.0511C14.6021 13.0511 16.0092 12.4682 17.1589 11.3183C18.3087 10.1686 18.8915 8.76187 18.8915 7.13671C18.8915 5.51203 18.3087 4.10513 17.1587 2.95501C16.0088 1.80546 14.6019 1.22266 12.9771 1.22266C11.3519 1.22266 9.94508 1.80546 8.79539 2.9552C7.6457 4.10494 7.06266 5.51188 7.06266 7.13671C7.06266 8.76187 7.64565 10.1688 8.79558 11.3186C9.94551 12.4681 11.3525 13.0511 12.9771 13.0511ZM23.3257 20.1045C23.2925 19.6261 23.2255 19.1041 23.1267 18.553C23.027 17.9977 22.8988 17.4727 22.7451 16.993C22.5864 16.4971 22.3706 16.0074 22.1039 15.538C21.827 15.051 21.5017 14.6268 21.1368 14.2778C20.7551 13.9127 20.2879 13.6191 19.7476 13.4049C19.2092 13.192 18.6125 13.0841 17.9743 13.0841C17.7236 13.0841 17.4812 13.1869 17.013 13.4918C16.6802 13.7085 16.3464 13.9236 16.0116 14.1373C15.69 14.3423 15.2542 14.5343 14.716 14.7082C14.1909 14.8781 13.6577 14.9643 13.1314 14.9643C12.6052 14.9643 12.0722 14.8781 11.5465 14.7082C11.0089 14.5344 10.5731 14.3425 10.2518 14.1375C9.87914 13.8994 9.54198 13.6821 9.24952 13.4915C8.78192 13.1867 8.53929 13.0839 8.28865 13.0839C7.65016 13.0839 7.05369 13.192 6.51544 13.4052C5.97551 13.6189 5.50809 13.9125 5.12609 14.278C4.76136 14.6272 4.43595 15.0511 4.15942 15.538C3.89286 16.0073 3.67704 16.4969 3.51815 16.9931C3.36468 17.4729 3.23638 17.9977 3.13672 18.553C3.03797 19.1034 2.97093 19.6255 2.93774 20.1051C2.90472 20.5877 2.88836 21.0714 2.88868 21.5551C2.88868 22.8369 3.29614 23.8746 4.09966 24.6399C4.89325 25.3951 5.94328 25.7782 7.2202 25.7782H19.0438C20.3207 25.7782 21.3704 25.3953 22.1642 24.6399C22.9679 23.8752 23.3753 22.8373 23.3753 21.5549C23.3751 21.0602 23.3585 20.5721 23.3257 20.1045Z" fill="#1068D7"/>
</svg>
