<svg width="26" height="27" viewBox="0 0 26 27" fill="none" xmlns="http://www.w3.org/2000/svg">
<path d="M25.4829 25.9829C24.7935 26.6724 23.6758 26.6724 22.9864 25.9829L0.517061 3.51365C-0.172353 2.82423 -0.172353 1.70647 0.51706 1.01706C1.20647 0.327647 2.32423 0.327647 3.01365 1.01706L25.4829 23.4864C26.1723 24.1758 26.1724 25.2935 25.4829 25.9829Z" fill="#1068D7"/>
<path d="M25.4829 1.01706C26.1724 1.70647 26.1724 2.82424 25.4829 3.51365L3.01365 25.9829C2.32423 26.6724 1.20647 26.6724 0.51706 25.9829C-0.172353 25.2935 -0.172353 24.1758 0.51706 23.4864L22.9864 1.01706C23.6758 0.327648 24.7935 0.327647 25.4829 1.01706Z" fill="#1068D7"/>
</svg>
