<svg width="30" height="30" viewBox="0 0 30 30" fill="none" xmlns="http://www.w3.org/2000/svg">
<path d="M29.415 29.1435C28.6339 29.9245 27.3676 29.9245 26.5866 29.1435L1.13071 3.68765C0.34966 2.9066 0.34966 1.64027 1.13071 0.859224C1.91176 0.0781754 3.17809 0.0781754 3.95914 0.859224L29.415 26.3151C30.196 27.0961 30.196 28.3624 29.415 29.1435Z" fill="#1068D7"/>
<path d="M29.415 0.859224C30.196 1.64027 30.196 2.9066 29.415 3.68765L3.95914 29.1435C3.17809 29.9245 1.91176 29.9245 1.13071 29.1435C0.34966 28.3624 0.34966 27.0961 1.13071 26.3151L26.5866 0.859225C27.3676 0.0781767 28.6339 0.0781754 29.415 0.859224Z" fill="#1068D7"/>
</svg>
