<svg width="23" height="18" viewBox="0 0 23 18" fill="none" xmlns="http://www.w3.org/2000/svg">
<path d="M8.72809 17.028C8.62437 17.1323 8.50104 17.2151 8.36522 17.2715C8.22939 17.328 8.08373 17.3571 7.93662 17.3571C7.78952 17.3571 7.64386 17.328 7.50803 17.2715C7.37221 17.2151 7.24888 17.1323 7.14516 17.028L0.824655 10.7063C0.509853 10.3914 0.333008 9.96439 0.333008 9.51913C0.333008 9.07387 0.509853 8.64683 0.824655 8.33194L1.61612 7.54047C1.93101 7.22567 2.35805 7.04883 2.80331 7.04883C3.24858 7.04883 3.67561 7.22567 3.99051 7.54047L7.93662 11.4866L18.5995 0.823678C18.9144 0.508876 19.3415 0.332031 19.7867 0.332031C20.232 0.332031 20.659 0.508876 20.9739 0.823678L21.7654 1.61514C22.0802 1.93004 22.257 2.35707 22.257 2.80233C22.257 3.2476 22.0802 3.67463 21.7654 3.98953L8.72809 17.028Z" fill="#02934E"/>
</svg>
