<svg width="16" height="16" viewBox="0 0 16 16" fill="none" xmlns="http://www.w3.org/2000/svg">
<path d="M4.6873 5.41662C5.28584 6.66324 6.10176 7.83162 7.13507 8.86493C8.16838 9.89824 9.33676 10.7142 10.5834 11.3127C10.6906 11.3642 10.7442 11.3899 10.8121 11.4097C11.0532 11.48 11.3492 11.4295 11.5534 11.2833C11.6109 11.2422 11.66 11.193 11.7583 11.0947C12.059 10.794 12.2093 10.6437 12.3604 10.5454C12.9305 10.1748 13.6654 10.1748 14.2355 10.5454C14.3866 10.6437 14.537 10.794 14.8376 11.0947L15.0052 11.2623C15.4622 11.7193 15.6907 11.9478 15.8148 12.1932C16.0617 12.6813 16.0617 13.2577 15.8148 13.7458C15.6907 13.9912 15.4622 14.2197 15.0052 14.6767L14.8696 14.8123C14.4142 15.2678 14.1864 15.4955 13.8768 15.6694C13.5333 15.8624 12.9997 16.0012 12.6056 16C12.2505 15.9989 12.0078 15.93 11.5224 15.7923C8.91378 15.0519 6.45226 13.6549 4.39869 11.6013C2.34511 9.54774 0.948124 7.08622 0.207722 4.47761C0.0699503 3.99221 0.00106355 3.7495 7.37728e-06 3.39439C-0.00116536 3.00033 0.1376 2.46673 0.330593 2.12317C0.504519 1.81356 0.732247 1.58583 1.1877 1.13037L1.32326 0.994814C1.78028 0.537794 2.00879 0.309283 2.25421 0.185152C2.74229 -0.0617174 3.3187 -0.0617174 3.80678 0.185152C4.05219 0.309283 4.2807 0.537793 4.73772 0.994814L4.9053 1.16239C5.20595 1.46304 5.35628 1.61337 5.45456 1.76453C5.8252 2.33459 5.8252 3.0695 5.45456 3.63956C5.35628 3.79072 5.20595 3.94105 4.90531 4.24169C4.807 4.34 4.75785 4.38915 4.71671 4.44661C4.5705 4.65079 4.52002 4.94684 4.5903 5.18793C4.61008 5.25577 4.63582 5.30939 4.6873 5.41662Z" fill="#1068D7"/>
</svg>
