<svg width="26" height="19" viewBox="0 0 26 19" fill="none" xmlns="http://www.w3.org/2000/svg">
<path d="M3.97718 8.70585e-05H3.97499C3.85389 -0.000167285 3.73394 0.0229906 3.62206 0.0682234C3.51018 0.113456 3.40859 0.179868 3.32315 0.263624C3.23605 0.347978 3.16699 0.448379 3.11998 0.558994C3.07298 0.66961 3.04896 0.788236 3.04932 0.907985V14.5218C3.04932 15.021 3.46716 15.4281 3.98086 15.4294C6.14648 15.4344 9.77476 15.8749 12.2778 18.4309V4.1837C12.2778 4.01447 12.2335 3.85549 12.1499 3.72394C10.0955 0.495553 6.14771 0.00504172 3.97718 8.70585e-05ZM22.9507 14.5218V0.9079C22.9507 0.664267 22.8534 0.435414 22.6768 0.263538C22.5914 0.179804 22.4898 0.113406 22.378 0.0681742C22.2661 0.0229426 22.1462 -0.00022727 22.0251 1.68031e-06H22.0228C19.8524 0.00504176 15.9046 0.495553 13.8501 3.72394C13.7665 3.85549 13.7223 4.01447 13.7223 4.1837V18.4308C16.2253 15.8748 19.8536 15.4344 22.0192 15.4293C22.5328 15.428 22.9507 15.0209 22.9507 14.5218Z" fill="white"/>
<path d="M25.0698 2.71484H24.3952V14.097C24.3952 15.3716 23.3309 16.411 22.0227 16.4141C20.1858 16.4184 17.157 16.7689 15.0119 18.75C18.7218 17.8636 22.6327 18.4398 24.8615 18.9355C24.998 18.9662 25.1399 18.9664 25.2765 18.936C25.4132 18.9056 25.541 18.8454 25.6504 18.76C25.7597 18.6752 25.848 18.5674 25.9085 18.4446C25.9691 18.3218 26.0004 18.1872 26 18.0509V3.62257C26.0001 3.12207 25.5827 2.71484 25.0698 2.71484ZM1.60483 14.097V2.71484H0.930225C0.417402 2.71484 0 3.12207 0 3.62257V18.0506C0 18.3283 0.127462 18.5867 0.349644 18.7597C0.459016 18.8452 0.58681 18.9054 0.723433 18.9358C0.860056 18.9662 1.00196 18.966 1.13849 18.9352C3.36732 18.4395 7.27827 17.8634 10.988 18.7497C8.84301 16.7687 5.81421 16.4183 3.97731 16.414C2.66917 16.411 1.60483 15.3716 1.60483 14.097Z" fill="white"/>
</svg>
