<svg width="24" height="21" viewBox="0 0 24 21" fill="none" xmlns="http://www.w3.org/2000/svg">
<path d="M23.2969 0H0.703125C0.314766 0 0 0.314766 0 0.703125V19.3334C0 19.7217 0.314766 20.0365 0.703125 20.0365H23.2969C23.6852 20.0365 24 19.7217 24 19.3334V0.703125C24 0.314766 23.6852 0 23.2969 0ZM9.02545 12.3787V7.65787C9.02545 7.32019 9.21811 7.01241 9.52809 6.85453C9.843 6.69436 10.2262 6.71578 10.5178 6.90656L14.541 9.25505C14.5615 9.26695 14.5813 9.27998 14.6005 9.29391C14.8383 9.46711 14.9747 9.73116 14.9747 10.0183C14.9747 10.3054 14.8383 10.5694 14.6005 10.7426C14.5813 10.7565 14.5615 10.7695 14.541 10.7814L10.5178 13.1299C10.3566 13.2352 10.1678 13.2889 9.97777 13.2889C9.82378 13.2889 9.66905 13.2535 9.52809 13.1818C9.21788 13.0241 9.02545 12.7163 9.02545 12.3787ZM16.5108 2.63053V1.40625H18.8701V2.63048L16.5108 2.63053ZM15.1045 2.63053H12.7451V1.40625H15.1045V2.63053ZM11.3388 2.63053H8.97952V1.40625H11.3388V2.63053ZM7.57327 2.63053H5.21391V1.40625H7.57327V2.63053ZM7.57327 17.406V18.6302H5.21391V17.406H7.57327ZM8.97952 17.406H11.3388V18.6302H8.97952V17.406ZM12.7451 17.406H15.1045V18.6302H12.7451V17.406ZM16.5108 17.406H18.8701V18.6302H16.5108V17.406ZM22.5938 2.63053H20.2763V1.40625H22.5938V2.63053ZM3.80766 1.40625V2.63048H1.40625V1.40625H3.80766ZM1.40625 17.406H3.80766V18.6302H1.40625V17.406ZM20.2764 18.6302V17.406H22.5938V18.6302H20.2764Z" fill="white"/>
</svg>
