<svg width="18" height="18" viewBox="0 0 18 18" fill="none" xmlns="http://www.w3.org/2000/svg">
<path d="M11.5373 8.75689L16.7495 3.54453C17.3255 2.96862 17.3255 2.03492 16.7495 1.45988L16.0547 0.765066C15.4786 0.189022 14.5449 0.189022 13.9699 0.765066L8.75782 5.97724L3.5455 0.763961C2.9696 0.188055 2.03589 0.188055 1.46086 0.763961L0.764937 1.45887C0.189031 2.03496 0.189031 2.96867 0.764937 3.54365L5.97813 8.75684L0.765997 13.9691C0.189953 14.5451 0.189953 15.4788 0.765997 16.0538L1.46086 16.7486C2.03677 17.3245 2.97047 17.3245 3.5455 16.7486L8.75777 11.5363L13.97 16.7486C14.546 17.3245 15.4797 17.3245 16.0548 16.7486L16.7496 16.0538C17.3255 15.4777 17.3255 14.544 16.7496 13.969L11.5373 8.75689Z" fill="#FF0000"/>
</svg>
