<svg width="26" height="27" viewBox="0 0 26 27" fill="none" xmlns="http://www.w3.org/2000/svg">
<path d="M5.97119 20.6269H21.865C21.9137 20.6269 21.9609 20.62 22.0062 20.6091C22.0098 20.6091 22.0128 20.6098 22.0164 20.6098C22.3557 20.6098 22.6313 20.3344 22.6313 19.9949V2.61493C22.6314 2.27549 22.3557 2 22.0164 2H5.97205C4.33529 2 3.00394 3.33166 3.00394 4.96796C3.00394 4.98991 3.00825 5.01074 3.01039 5.03192C3.00825 6.54346 2.98951 20.4326 3.00825 22.2585C3.00709 22.2942 3.00272 22.3291 3.00272 22.3651C3.00272 23.9386 4.23471 25.2266 5.78435 25.324C5.81544 25.3287 5.84592 25.3333 5.87818 25.3333H22.0163C22.3556 25.3333 22.6313 25.0579 22.6313 24.7183V22.4036C22.6313 22.0643 22.3556 21.7887 22.0163 21.7887C21.6771 21.7887 21.4014 22.0644 21.4014 22.4036V24.1034H5.97119C5.03673 24.1034 4.27393 23.3615 4.23644 22.4364C4.23735 22.4198 4.24035 22.4043 4.24004 22.3874C4.23943 22.3604 4.23852 22.3184 4.23791 22.2625C4.29165 21.352 5.0474 20.6269 5.97119 20.6269ZM6.39049 4.96796C6.39049 4.62852 6.66597 4.35304 7.00542 4.35304C7.34486 4.35304 7.62035 4.62852 7.62035 4.96796V17.4588C7.62035 17.7981 7.34486 18.0737 7.00542 18.0737C6.66597 18.0737 6.39049 17.7981 6.39049 17.4588V4.96796Z" fill="white"/>
</svg>
