<svg width="26" height="27" viewBox="0 0 26 27" fill="none" xmlns="http://www.w3.org/2000/svg">
<g clip-path="url(#clip0_204_11424)">
<path fill-rule="evenodd" clip-rule="evenodd" d="M23.0201 3.54596V26.5226C23.02 26.6876 22.9749 26.8494 22.8897 26.9907C22.8045 27.132 22.6823 27.2473 22.5364 27.3243C22.3905 27.4013 22.2263 27.4371 22.0616 27.4277C21.8969 27.4183 21.7378 27.3642 21.6016 27.2711L18.5844 25.2117L15.7317 27.259C15.5656 27.3787 15.3637 27.4385 15.1592 27.4286C14.9547 27.4187 14.7596 27.3398 14.6058 27.2046L12.4388 25.3097L10.2717 27.2046C10.1179 27.3398 9.9228 27.4187 9.71829 27.4286C9.51378 27.4385 9.31197 27.3787 9.14585 27.259L6.29312 25.2117L3.27593 27.2711C3.13968 27.3642 2.98063 27.4183 2.81591 27.4277C2.65118 27.4371 2.48702 27.4013 2.3411 27.3243C2.19518 27.2473 2.07303 27.132 1.9878 26.9907C1.90257 26.8494 1.85749 26.6876 1.85742 26.5226V3.54596C1.85742 2.37778 2.8043 1.42969 3.97369 1.42969H20.9038C22.0732 1.42969 23.0201 2.37778 23.0201 3.54596ZM7.60158 12.918H17.2759C17.5165 12.918 17.7472 12.8224 17.9173 12.6524C18.0874 12.4823 18.1829 12.2516 18.1829 12.011C18.1829 11.7705 18.0874 11.5398 17.9173 11.3697C17.7472 11.1996 17.5165 11.1041 17.2759 11.1041H7.60158C7.36103 11.1041 7.13034 11.1996 6.96025 11.3697C6.79016 11.5398 6.69461 11.7705 6.69461 12.011C6.69461 12.2516 6.79016 12.4823 6.96025 12.6524C7.13034 12.8224 7.36103 12.918 7.60158 12.918ZM7.60158 8.08082H17.2759C17.5165 8.08082 17.7472 7.98526 17.9173 7.81517C18.0874 7.64508 18.1829 7.41439 18.1829 7.17384C18.1829 6.9333 18.0874 6.70261 17.9173 6.53252C17.7472 6.36243 17.5165 6.26687 17.2759 6.26687H7.60158C7.36103 6.26687 7.13034 6.36243 6.96025 6.53252C6.79016 6.70261 6.69461 6.9333 6.69461 7.17384C6.69461 7.41439 6.79016 7.64508 6.96025 7.81517C7.13034 7.98526 7.36103 8.08082 7.60158 8.08082ZM7.60158 17.7552H12.4388C12.6793 17.7552 12.91 17.6596 13.0801 17.4895C13.2502 17.3194 13.3457 17.0888 13.3457 16.8482C13.3457 16.6077 13.2502 16.377 13.0801 16.2069C12.91 16.0368 12.6793 15.9412 12.4388 15.9412H7.60158C7.36103 15.9412 7.13034 16.0368 6.96025 16.2069C6.79016 16.377 6.69461 16.6077 6.69461 16.8482C6.69461 17.0888 6.79016 17.3194 6.96025 17.4895C7.13034 17.6596 7.36103 17.7552 7.60158 17.7552Z" fill="#1068D7"/>
</g>
<defs>
<clipPath id="clip0_204_11424">
<rect width="26" height="26" fill="white" transform="translate(0 0.5)"/>
</clipPath>
</defs>
</svg>
