<svg width="14" height="14" viewBox="0 0 14 14" fill="none" xmlns="http://www.w3.org/2000/svg">
<path fill-rule="evenodd" clip-rule="evenodd" d="M3.3136 0.334403L3.33135 0.335548C3.68061 0.364496 3.98396 0.538063 4.26087 0.808617C4.7871 1.32257 5.91709 2.82236 6.0024 3.23052C6.09682 3.68586 5.99587 3.9816 5.69492 4.50475L5.62197 4.63368C5.48387 4.88591 5.46276 4.99006 5.50552 5.10931C6.16261 6.71746 7.2839 7.83859 8.87368 8.4879C9.02425 8.54243 9.13792 8.51118 9.45608 8.32865L9.62211 8.23473C10.0694 7.9894 10.3529 7.91186 10.771 7.99893C11.1777 8.08415 12.6784 9.21486 13.1915 9.74042C13.4617 10.0171 13.6357 10.321 13.666 10.6932C13.6979 11.598 12.5938 12.872 11.9203 13.2551C11.1544 13.803 10.1824 13.7939 9.09262 13.2867C6.24271 12.1008 1.88331 7.76921 0.721568 4.9228L0.652024 4.76358C0.210894 3.70924 0.220453 2.79836 0.725967 2.11164C1.18723 1.34776 2.43088 0.293578 3.3136 0.334403ZM3.25973 1.30918L3.20096 1.31219C2.74789 1.37238 1.83933 2.15458 1.53676 2.65209L1.48449 2.72987C1.22384 3.15456 1.25405 3.73778 1.61694 4.53633L1.6863 4.69867C2.85665 7.32534 6.90886 11.3213 9.48556 12.394L9.62748 12.4571C10.373 12.7731 10.9373 12.759 11.3942 12.4351L11.428 12.4133C11.5694 12.3151 11.8954 12.0189 12.1465 11.7291C12.4993 11.3221 12.699 10.9492 12.6926 10.7506C12.6855 10.6657 12.62 10.5512 12.4938 10.422C12.1123 10.0313 10.7249 8.98592 10.5716 8.95379C10.4266 8.92359 10.3076 8.96418 9.98212 9.15139L9.8184 9.24336C9.33894 9.50193 9.00092 9.57141 8.52338 9.39807C6.67272 8.64271 5.35887 7.32904 4.5955 5.45974C4.41469 4.95993 4.51202 4.60631 4.82646 4.05828L4.90137 3.92648C5.04422 3.66856 5.07445 3.55914 5.04753 3.42933C5.0153 3.27515 3.97058 1.88854 3.57937 1.50645C3.44983 1.37988 3.336 1.31475 3.25081 1.30769L3.25973 1.30918Z" fill="#EA1B44"/>
</svg>
