<svg width="45" height="45" viewBox="0 0 45 45" fill="none" xmlns="http://www.w3.org/2000/svg">
<g opacity="0.3">
<g clip-path="url(#clip0_1_1312)">
<path d="M40.1094 3.91187H28.3699C27.8299 3.91187 27.3916 4.35017 27.3916 4.89019C27.3916 5.43021 27.8299 5.86851 28.3699 5.86851H40.1094C40.6494 5.86851 41.0878 5.43021 41.0878 4.89019C41.0878 4.35017 40.6494 3.91187 40.1094 3.91187Z" fill="#040606"/>
<path d="M40.8021 4.19935L36.8889 0.28615C36.5074 -0.0953835 35.8871 -0.0953835 35.5056 0.28615C35.1241 0.667684 35.1241 1.28795 35.5056 1.66949L38.7262 4.89005L35.5037 8.11255C35.1221 8.49408 35.1221 9.11435 35.5037 9.49588C35.6955 9.68564 35.9458 9.78158 36.1963 9.78158C36.4468 9.78158 36.6972 9.68573 36.8889 9.49588L40.8021 5.58269C41.1837 5.20106 41.1837 4.58088 40.8021 4.19935Z" fill="#040606"/>
<path d="M14.674 3.91187H2.9345C2.39448 3.91187 1.95618 4.35017 1.95618 4.89019C1.95618 5.43021 2.39448 5.86851 2.9345 5.86851H14.674C15.214 5.86851 15.6523 5.43021 15.6523 4.89019C15.6523 4.35017 15.214 3.91187 14.674 3.91187Z" fill="#040606"/>
<path d="M4.31771 4.89005L7.53828 1.66949C7.91982 1.28795 7.91982 0.667684 7.53828 0.28615C7.15675 -0.0953835 6.53648 -0.0953835 6.15495 0.28615L2.24184 4.19944C1.86031 4.58098 1.86031 5.20124 2.24184 5.58278L6.15504 9.49598C6.34681 9.68574 6.5972 9.78167 6.84767 9.78167C7.09814 9.78167 7.34852 9.68583 7.53837 9.49405C7.91991 9.11252 7.91991 8.49225 7.53837 8.11071L4.31771 4.89005Z" fill="#040606"/>
<path d="M39.1312 19.5645C38.327 19.5645 37.5776 19.8091 36.9554 20.2258C36.4194 18.7036 34.9656 17.6079 33.2614 17.6079C32.4573 17.6079 31.7079 17.8525 31.0857 18.2693C30.5496 16.7471 29.0958 15.6514 27.3917 15.6514C26.6795 15.6514 26.0104 15.8431 25.4351 16.1777V9.78161C25.4351 7.62346 23.6801 5.86841 21.5219 5.86841C19.3638 5.86841 17.6087 7.62346 17.6087 9.78161V26.4125L14.2082 23.8631C12.193 22.3507 9.32459 22.5523 7.53826 24.3367C6.39366 25.4813 6.39366 27.342 7.53826 28.4866L21.4711 42.4214C23.1342 44.0844 25.3471 45.0001 27.6989 45.0001H32.2832C38.2156 45.0001 43.0444 40.1733 43.0444 34.2389V23.4777C43.0444 21.3195 41.2893 19.5645 39.1312 19.5645ZM41.0878 34.2389C41.0878 39.0931 37.1375 43.0435 32.2832 43.0435H27.6989C25.8676 43.0435 24.1477 42.3313 22.8545 41.038L8.9216 27.1033C8.54006 26.7217 8.54006 26.1014 8.9216 25.7199C9.52811 25.1153 10.3381 24.8042 11.1521 24.8042C11.8135 24.8042 12.4787 25.0097 13.0363 25.4284L18.0002 29.1517C18.2976 29.3748 18.6968 29.408 19.0255 29.2437C19.3561 29.0774 19.5655 28.7389 19.5655 28.3691V9.78161C19.5655 8.7035 20.442 7.82505 21.522 7.82505C22.6021 7.82505 23.4786 8.70359 23.4786 9.78161V24.456C23.4786 24.996 23.9169 25.4343 24.4569 25.4343C24.9969 25.4343 25.4352 24.996 25.4352 24.456V19.5646C25.4352 18.4865 26.3117 17.608 27.3918 17.608C28.4718 17.608 29.3483 18.4865 29.3483 19.5646V24.456C29.3483 24.996 29.7866 25.4343 30.3267 25.4343C30.8667 25.4343 31.305 24.996 31.305 24.456V21.5211C31.305 20.443 32.1815 19.5646 33.2615 19.5646C34.3416 19.5646 35.2181 20.4431 35.2181 21.5211V24.456C35.2181 24.996 35.6564 25.4343 36.1964 25.4343C36.7364 25.4343 37.1747 24.996 37.1747 24.456V23.4777C37.1747 22.3996 38.0513 21.5211 39.1313 21.5211C40.2113 21.5211 41.0878 22.3997 41.0878 23.4777V34.2389V34.2389Z" fill="#040606"/>
</g>
</g>
<defs>
<clipPath id="clip0_1_1312">
<rect width="45" height="45" fill="white"/>
</clipPath>
</defs>
</svg>
