<svg width="170" height="33" viewBox="0 0 170 33" fill="none" xmlns="http://www.w3.org/2000/svg">
<path d="M43.7805 2.61375H47.3396V17.0424H57.5463V20.1633H43.7805V2.61375Z" fill="#040606"/>
<path d="M60.5443 2.61375H64.126V20.1633H60.5443V2.61375Z" fill="#040606"/>
<path d="M68.6399 2.61375H72.1991L83.1358 8.34057V2.61375H86.6949V20.1633H83.1358V12.1128L72.1991 6.42011V20.1633H68.6399V2.61375Z" fill="#040606"/>
<path d="M91.6572 2.61375H95.2163V11.6977L104.48 2.61375H109.038L100.393 10.9902L109.038 20.1633H104.3L97.8328 13.4712L95.2163 15.998V20.1633H91.6572V2.61375" fill="#040606"/>
<path d="M122.49 14.28L118.695 6.3078L115 14.28H122.49ZM116.775 2.61375H120.547L129.036 20.1633H125.297L123.894 17.2104H113.642L112.284 20.1633H108.533L116.775 2.61375" fill="#040606"/>
<path d="M130.563 11.2257C130.563 9.99069 130.795 8.83629 131.259 7.76206C131.723 6.68783 132.401 5.75374 133.292 4.96079C134.182 4.16687 135.277 3.5419 136.576 3.08543C137.875 2.62847 139.362 2.4005 141.039 2.4005C141.645 2.4005 142.254 2.43219 142.864 2.49603C143.474 2.55987 144.076 2.65824 144.671 2.79312C145.266 2.928 145.846 3.09841 146.412 3.30433C146.977 3.51025 147.514 3.75554 148.023 4.0397L146.383 6.73438C146.076 6.55486 145.729 6.39215 145.339 6.24623C144.95 6.09983 144.533 5.97649 144.088 5.87569C143.642 5.77441 143.181 5.69805 142.707 5.64525C142.231 5.59293 141.754 5.56655 141.275 5.56655C140.167 5.56655 139.179 5.70721 138.311 5.98753C137.442 6.26881 136.709 6.66141 136.11 7.16685C135.511 7.6718 135.055 8.27662 134.74 8.97982C134.426 9.68397 134.268 10.4548 134.268 11.2929C134.268 12.1617 134.433 12.9585 134.762 13.6847C135.092 14.411 135.56 15.0359 136.166 15.5601C136.772 16.0838 137.506 16.4936 138.367 16.7893C139.228 17.085 140.19 17.2328 141.253 17.2328C142.098 17.2328 142.873 17.1373 143.576 16.9468C144.28 16.7557 144.894 16.4845 145.418 16.1322C145.942 15.7804 146.369 15.3561 146.698 14.8583C147.028 14.3601 147.245 13.8009 147.349 13.1798H141.219V10.2489H150.549V10.2604L150.56 10.2489C150.748 11.147 150.806 12.0211 150.735 12.8706C150.663 13.7202 150.469 14.5214 150.151 15.2735C149.833 16.0257 149.396 16.7164 148.842 17.3452C148.289 17.974 147.626 18.5149 146.855 18.9676C146.084 19.4207 145.208 19.772 144.228 20.0231C143.247 20.2736 142.173 20.3994 141.006 20.3994C139.374 20.3994 137.912 20.1594 136.621 19.6804C135.33 19.2013 134.235 18.5461 133.336 17.7157C132.438 16.8849 131.752 15.9119 131.276 14.7964C130.8 13.6814 130.563 12.491 130.563 11.2257" fill="#040606"/>
<path d="M154.76 2.61375H169.705V5.73513H158.319V9.23864H168.402V12.169H158.319V17.0534H169.94V20.1633H154.76V2.61375" fill="#040606"/>
<path d="M46.5663 26.6353C45.9457 26.6353 45.4556 26.8422 45.0961 27.2555C44.7366 27.6692 44.5571 28.2351 44.5571 28.9537C44.5571 29.6934 44.7299 30.2645 45.0769 30.6677C45.423 31.0709 45.9169 31.2725 46.5587 31.2725C46.9527 31.2725 47.4025 31.2015 47.907 31.0599V31.6359C47.5158 31.7823 47.0324 31.8562 46.4579 31.8562C45.626 31.8562 44.9838 31.6037 44.5316 31.0983C44.0795 30.5938 43.8534 29.8762 43.8534 28.946C43.8534 28.3638 43.9624 27.8535 44.1798 27.4158C44.3977 26.978 44.7121 26.6406 45.123 26.4035C45.5339 26.1663 46.0177 26.0478 46.574 26.0478C47.1668 26.0478 47.6847 26.1558 48.1273 26.3722L47.8494 26.9367C47.4217 26.7356 46.994 26.6353 46.5663 26.6353" fill="#040606"/>
<path d="M58.5029 28.865H59.4033C59.867 28.865 60.2069 28.7728 60.4233 28.589C60.6398 28.4047 60.7478 28.1282 60.7478 27.7601C60.7478 27.3862 60.6379 27.1169 60.4176 26.9522C60.1973 26.7871 59.844 26.705 59.3568 26.705H58.5029V28.865ZM58.5029 29.429V31.7791H57.8458V26.129H59.3957C60.0883 26.129 60.6005 26.262 60.9317 26.5269C61.2629 26.7924 61.428 27.1917 61.428 27.725C61.428 28.4724 61.0493 28.9773 60.2918 29.2399L61.8264 31.7791H61.0493L59.6813 29.429H58.5029" fill="#040606"/>
<path d="M73.9443 31.7791L72.0277 26.7703H71.9965C72.033 27.1673 72.0507 27.6386 72.0507 28.1848V31.7791H71.444V26.129H72.4333L74.2227 30.7893H74.2534L76.0582 26.129H77.0398V31.7791H76.3827V28.1388C76.3827 27.7212 76.401 27.2681 76.437 26.7785H76.4062L74.4738 31.7791H73.9443" fill="#040606"/>
<path d="M101.246 30.2756C101.246 30.7729 101.065 31.1602 100.704 31.4386C100.344 31.717 99.8545 31.8562 99.2363 31.8562C98.5658 31.8562 98.0507 31.7698 97.6902 31.597V30.9634C97.9221 31.0613 98.1746 31.1386 98.4477 31.1953C98.7203 31.2519 98.991 31.2802 99.2589 31.2802C99.6966 31.2802 100.027 31.1972 100.249 31.0306C100.47 30.8645 100.581 30.6337 100.581 30.3375C100.581 30.1417 100.541 29.9809 100.463 29.8561C100.384 29.7313 100.253 29.6161 100.069 29.51C99.8843 29.4049 99.604 29.2848 99.2282 29.1509C98.7026 28.9628 98.3272 28.7401 98.1016 28.4823C97.8765 28.2245 97.7637 27.8886 97.7637 27.4738C97.7637 27.038 97.9269 26.6919 98.2547 26.4342C98.5811 26.1764 99.0145 26.0478 99.5531 26.0478C100.115 26.0478 100.631 26.1505 101.103 26.3569L100.898 26.9286C100.431 26.7332 99.9774 26.6353 99.5373 26.6353C99.1898 26.6353 98.9176 26.7101 98.7218 26.8589C98.5259 27.0087 98.4285 27.2161 98.4285 27.4815C98.4285 27.6774 98.464 27.8377 98.5365 27.9625C98.6085 28.0873 98.7304 28.202 98.9013 28.3066C99.0731 28.4108 99.3352 28.526 99.688 28.6522C100.28 28.8634 100.688 29.0905 100.911 29.3324C101.134 29.5748 101.246 29.8892 101.246 30.2756Z" fill="#040606"/>
<path d="M112.544 28.9538L114.051 26.129H114.762L112.876 29.5874V31.7791H112.212V29.6186L110.33 26.129H111.049L112.544 28.9538" fill="#040606"/>
<path d="M127.434 30.2756C127.434 30.7729 127.253 31.1602 126.892 31.4386C126.532 31.717 126.042 31.8562 125.424 31.8562C124.754 31.8562 124.238 31.7698 123.878 31.597V30.9634C124.11 31.0613 124.362 31.1386 124.636 31.1953C124.908 31.2519 125.179 31.2802 125.447 31.2802C125.885 31.2802 126.215 31.1972 126.436 31.0306C126.658 30.8645 126.769 30.6337 126.769 30.3375C126.769 30.1417 126.73 29.9809 126.651 29.8561C126.572 29.7313 126.441 29.6161 126.256 29.51C126.072 29.4049 125.792 29.2848 125.416 29.1509C124.891 28.9628 124.515 28.7401 124.29 28.4823C124.064 28.2245 123.952 27.8886 123.952 27.4738C123.952 27.038 124.115 26.6919 124.442 26.4342C124.769 26.1764 125.202 26.0478 125.741 26.0478C126.302 26.0478 126.819 26.1505 127.291 26.3569L127.086 26.9286C126.619 26.7332 126.166 26.6353 125.725 26.6353C125.377 26.6353 125.106 26.7101 124.91 26.8589C124.714 27.0087 124.616 27.2161 124.616 27.4815C124.616 27.6774 124.652 27.8377 124.724 27.9625C124.796 28.0873 124.918 28.202 125.089 28.3066C125.261 28.4108 125.523 28.526 125.876 28.6522C126.468 28.8634 126.876 29.0905 127.099 29.3324C127.322 29.5748 127.434 29.8892 127.434 30.2756Z" fill="#040606"/>
<path d="M139.034 31.7791H138.376V26.7127H136.587V26.129H140.823V26.7127H139.034V31.7791Z" fill="#040606"/>
<path d="M153.528 31.7791H150.378V26.129H153.528V26.7127H151.036V28.5328H153.377V29.1122H151.036V31.1916H153.528V31.7791Z" fill="#040606"/>
<path d="M165.986 31.7791L164.07 26.7703H164.039C164.075 27.1673 164.093 27.6386 164.093 28.1848V31.7791H163.486V26.129H164.476L166.265 30.7893H166.296L168.1 26.129H169.082V31.7791H168.425V28.1388C168.425 27.7212 168.443 27.2681 168.479 26.7785H168.448L166.516 31.7791H165.986" fill="#040606"/>
<path fill-rule="evenodd" clip-rule="evenodd" d="M27.7606 27.7739H4.63388V4.63612H27.7606V27.7739ZM0 0.00031739V32.4097H32.3949V0.00031739H0Z" fill="#EA1B44"/>
<path fill-rule="evenodd" clip-rule="evenodd" d="M13.9376 18.5158V9.25858H9.2572V23.1516H13.9376H23.1368V18.5158H13.9376Z" fill="#EA1B44"/>
<path fill-rule="evenodd" clip-rule="evenodd" d="M23.1368 13.8943H18.5159V9.25848H23.1368V13.8943Z" fill="#EA1B44"/>
</svg>
