<svg width="16" height="16" viewBox="0 0 16 16" fill="none" xmlns="http://www.w3.org/2000/svg">
<path fill-rule="evenodd" clip-rule="evenodd" d="M7.21652 0.53521C7.67261 0.682722 8.05273 1.06431 8.32667 1.60955C8.4661 1.88705 8.51799 2.2168 8.52493 2.55103C8.53198 2.8905 8.49311 3.26968 8.42341 3.66934C8.3064 4.34018 8.09636 5.10238 7.8369 5.88843C8.01024 6.1245 8.19302 6.36385 8.38304 6.60491C9.19863 7.63961 10.1247 8.67778 10.9583 9.58601C11.1996 9.55979 11.4353 9.53877 11.664 9.52357C12.6588 9.45746 13.5757 9.49687 14.2623 9.73115C14.6104 9.8499 14.9295 10.0288 15.1635 10.2982C15.4053 10.5765 15.5294 10.921 15.5294 11.3116C15.5294 11.6475 15.4663 11.9614 15.2917 12.2093C15.1049 12.4745 14.8345 12.6024 14.5551 12.6354C14.2922 12.6664 14.0195 12.6152 13.7693 12.5366C13.5141 12.4563 13.2494 12.3367 12.9909 12.1999C12.0892 11.7228 11.1173 10.956 10.6374 10.5722C8.99764 10.7859 7.10544 11.2256 5.37314 11.7083C5.33934 11.7765 5.30464 11.8469 5.26906 11.919C4.86561 12.7367 4.34974 13.7824 3.76311 14.5138C3.42179 14.9393 2.99928 15.3346 2.49153 15.4755C1.92969 15.6315 1.38212 15.4482 0.898456 14.9669C0.663585 14.7332 0.507481 14.4593 0.47623 14.1484C0.445168 13.8394 0.544217 13.5607 0.691268 13.3286C0.971783 12.8858 1.49025 12.5123 2.00591 12.2104C2.53789 11.899 3.14024 11.623 3.65867 11.3987C3.86235 11.3106 4.04808 11.2324 4.21243 11.1632C4.4052 11.0821 4.56856 11.0133 4.69701 10.9554C5.32017 9.70119 6.17154 7.81258 6.79 6.04376C6.26907 5.29929 5.8319 4.56553 5.56217 3.89447C5.0415 2.59908 5.246 1.40747 5.9282 0.813432C6.27813 0.508725 6.74565 0.382916 7.21652 0.53521ZM7.15909 4.90282C7.30651 4.40115 7.42262 3.92961 7.49623 3.50762C7.55964 3.14405 7.58933 2.82922 7.58396 2.57057C7.57848 2.30669 7.53699 2.13422 7.48568 2.03209C7.28278 1.62825 7.06685 1.47598 6.92689 1.43071C6.80171 1.39023 6.67318 1.41271 6.54627 1.52322C6.27478 1.75963 6.00244 2.46617 6.43545 3.54347C6.60299 3.9603 6.85161 4.41868 7.15909 4.90282ZM7.46189 6.95437C6.9847 8.23818 6.41779 9.53524 5.92214 10.5845C7.20832 10.2463 8.56139 9.94034 9.82436 9.73939C9.1048 8.94483 8.3374 8.06738 7.64388 7.18755C7.58274 7.10998 7.52204 7.03223 7.46189 6.95437ZM4.04715 12.2561C4.04224 12.2583 4.03732 12.2604 4.03241 12.2625C3.52264 12.4831 2.96269 12.7409 2.48138 13.0227C1.98375 13.314 1.63795 13.5929 1.48634 13.8323C1.41733 13.9412 1.40835 14.0111 1.41269 14.0542C1.41684 14.0955 1.43956 14.1776 1.56234 14.2997C1.86512 14.601 2.07709 14.6138 2.23981 14.5686C2.45662 14.5085 2.72368 14.3055 3.02891 13.9249C3.39567 13.4676 3.73491 12.8638 4.04715 12.2561ZM12.0135 10.4467C12.448 10.7685 12.954 11.1155 13.4311 11.368C13.6594 11.4888 13.8691 11.5813 14.0517 11.6387C14.2392 11.6977 14.3675 11.7098 14.4449 11.7007C14.5038 11.6937 14.5141 11.6789 14.5216 11.6683L14.5223 11.6673C14.542 11.6393 14.5882 11.5451 14.5882 11.3116C14.5882 11.1327 14.5364 11.0114 14.453 10.9154C14.3619 10.8106 14.2068 10.7067 13.9584 10.6219C13.5037 10.4668 12.8402 10.4103 12.0135 10.4467Z" fill="white"/>
</svg>
