<svg width="72" height="72" viewBox="0 0 72 72" fill="none" xmlns="http://www.w3.org/2000/svg">
<path fill-rule="evenodd" clip-rule="evenodd" d="M36 6C19.4315 6 6 19.4315 6 36C6 52.5685 19.4315 66 36 66C52.5685 66 66 52.5685 66 36C66 19.4315 52.5685 6 36 6ZM36.0001 10.1859C50.2567 10.1859 61.814 21.7432 61.814 35.9998C61.814 50.2565 50.2567 61.8138 36.0001 61.8138C21.7434 61.8138 10.1861 50.2565 10.1861 35.9998C10.1861 21.7432 21.7434 10.1859 36.0001 10.1859ZM32.6144 24.1634L32.3023 24.1338C31.7111 24.1135 31.1013 24.2619 30.5637 24.5519C29.8679 24.9244 29.3061 25.528 28.9947 26.2755C28.8516 26.6214 28.604 27.6895 28.4927 28.3098C28.2131 29.8342 28.0505 32.1786 28.023 34.7513L28.0188 35.6166C28.0158 38.3463 28.1666 40.9445 28.4451 42.6565L28.5978 43.443C28.7498 44.1423 28.9517 44.8876 29.1135 45.2018C29.7309 46.3944 30.9868 47.1311 32.3215 47.0887C32.8908 47.076 34.0866 46.6785 34.9182 46.3294C37.913 45.0696 43.1871 41.5388 45.624 39.1581L46.4333 38.3159C46.7431 37.9849 46.8825 37.831 47.0006 37.6698C47.4413 37.0708 47.6709 36.3472 47.6709 35.6144C47.6709 34.8359 47.4145 34.0759 46.9253 33.4558L46.6862 33.1793L46.0155 32.4632C43.7145 30.0107 37.6934 25.9674 34.6178 24.7723C33.9413 24.505 33.1785 24.2488 32.6144 24.1634ZM32.7181 28.5346L33.0906 28.6697C35.45 29.5865 40.4564 32.9092 42.5922 34.9542L43.2279 35.609L42.9871 35.8689C41.206 37.7892 35.9465 41.3553 33.2965 42.4702L32.7209 42.6806L32.5755 41.9763C32.3668 40.6935 32.2341 38.6628 32.2091 36.4527L32.2049 35.6166C32.2024 33.206 32.3255 30.9566 32.5376 29.509L32.6394 28.9124L32.7181 28.5346Z" fill="white"/>
</svg>
