<svg width="196" height="143" viewBox="0 0 196 143" fill="none" xmlns="http://www.w3.org/2000/svg">
<ellipse cx="97.806" cy="71.4962" rx="87.6246" ry="49.2436" transform="rotate(-16.0061 97.806 71.4962)" fill="#FFF1F4"/>
<path d="M92.9668 88.0867C92.9472 87.7814 92.8431 87.4875 92.666 87.238C92.4889 86.9885 92.2458 86.7933 91.964 86.6741L87.0201 83.8403L90.9613 81.5646C91.2419 81.4437 91.4839 81.248 91.6608 80.9989C91.8376 80.7497 91.9426 80.4568 91.964 80.152V68.5115C91.9445 68.2062 91.8403 67.9123 91.6632 67.6629C91.4861 67.4134 91.2431 67.2181 90.9613 67.099L81.7797 61.7975C81.0282 61.3926 80.1828 61.194 79.3296 61.2221C78.4736 61.195 77.6257 61.3934 76.8707 61.7975L62.876 69.8892L47.8785 61.2308C47.1173 60.8468 46.2766 60.6467 45.424 60.6467C44.5714 60.6467 43.7307 60.8468 42.9694 61.2308L31.5208 67.8401C31.239 67.9593 30.996 68.1545 30.8189 68.404C30.6418 68.6535 30.5376 68.9473 30.5181 69.2527V69.2527V80.867C30.5384 81.1698 30.642 81.4612 30.8174 81.7089C30.9928 81.9566 31.2332 82.1511 31.5121 82.2708L36.456 85.1308L32.4276 87.4589C32.1481 87.5813 31.9072 87.7774 31.7305 88.0262C31.5539 88.275 31.4483 88.5672 31.4249 88.8714V88.8714V100.477C31.4464 100.782 31.5513 101.075 31.7282 101.324C31.905 101.573 32.147 101.769 32.4276 101.89L41.5918 107.2C42.3515 107.584 43.1907 107.784 44.0419 107.784C44.8931 107.784 45.7324 107.584 46.4921 107.2L60.5827 99.0645L75.5976 107.723C76.3589 108.107 77.1996 108.307 78.0522 108.307C78.9048 108.307 79.7455 108.107 80.5067 107.723L91.9553 101.114C92.2283 100.994 92.4639 100.803 92.6373 100.56C92.8107 100.318 92.9155 100.033 92.9406 99.7359V99.7359V88.1303C92.9406 88.1303 92.9668 88.1041 92.9668 88.0867Z" fill="#F2768F"/>
<path opacity="0.25" d="M92.9668 88.0867C92.9472 87.7814 92.8431 87.4875 92.666 87.238C92.4889 86.9885 92.2458 86.7933 91.964 86.6741L87.0201 83.8403L90.9613 81.5646C91.2419 81.4437 91.4839 81.248 91.6608 80.9989C91.8376 80.7497 91.9426 80.4568 91.964 80.152V68.5115C91.9445 68.2062 91.8403 67.9123 91.6632 67.6629C91.4861 67.4134 91.2431 67.2181 90.9613 67.099L81.7797 61.7975C81.0282 61.3926 80.1828 61.194 79.3296 61.2221C78.4736 61.195 77.6257 61.3934 76.8707 61.7975L62.876 69.8892L47.8785 61.2308C47.1173 60.8468 46.2766 60.6467 45.424 60.6467C44.5714 60.6467 43.7307 60.8468 42.9694 61.2308L31.5208 67.8401C31.239 67.9593 30.996 68.1545 30.8189 68.404C30.6418 68.6535 30.5376 68.9473 30.5181 69.2527V69.2527V80.867C30.5384 81.1698 30.642 81.4612 30.8174 81.7089C30.9928 81.9566 31.2332 82.1511 31.5121 82.2708L36.456 85.1308L32.4276 87.4589C32.1481 87.5813 31.9072 87.7774 31.7305 88.0262C31.5539 88.275 31.4483 88.5672 31.4249 88.8714V88.8714V100.477C31.4464 100.782 31.5513 101.075 31.7282 101.324C31.905 101.573 32.147 101.769 32.4276 101.89L41.5918 107.2C42.3515 107.584 43.1907 107.784 44.0419 107.784C44.8931 107.784 45.7324 107.584 46.4921 107.2L60.5827 99.0645L75.5976 107.723C76.3589 108.107 77.1996 108.307 78.0522 108.307C78.9048 108.307 79.7455 108.107 80.5067 107.723L91.9553 101.114C92.2283 100.994 92.4639 100.803 92.6373 100.56C92.8107 100.318 92.9155 100.033 92.9406 99.7359V99.7359V88.1303C92.9406 88.1303 92.9668 88.1041 92.9668 88.0867Z" fill="black"/>
<path opacity="0.25" d="M74.7692 84.4681H88.1535L87.02 83.8141L90.9612 81.5383C91.2418 81.4175 91.4838 81.2218 91.6607 80.9727C91.8375 80.7236 91.9425 80.4306 91.9639 80.1258V68.5115C91.9444 68.2062 91.8402 67.9123 91.6631 67.6628C91.486 67.4134 91.243 67.2181 90.9612 67.0989L88.6767 65.791H74.7256L74.7692 84.4681Z" fill="black"/>
<path opacity="0.25" d="M78.0825 108.298C78.9301 108.325 79.7696 108.127 80.5152 107.723L91.9639 101.113C92.2369 100.994 92.4725 100.802 92.6459 100.56C92.8193 100.318 92.9241 100.033 92.9492 99.7357V99.7357V88.1302C92.9492 88.1302 92.9492 88.1301 92.9492 88.0865C92.9356 87.8626 92.8634 87.6461 92.7399 87.4587H78.0825V108.298Z" fill="black"/>
<path opacity="0.25" d="M31.5208 67.8312C31.239 67.9503 30.996 68.1456 30.8189 68.3951C30.6418 68.6445 30.5376 68.9384 30.5181 69.2437V69.2437V80.858C30.5384 81.1609 30.642 81.4522 30.8174 81.6999C30.9928 81.9476 31.2332 82.1421 31.5121 82.2619L36.456 85.1218H50.0496V66.8982H33.1426L31.5208 67.8312Z" fill="black"/>
<path opacity="0.25" d="M44.1206 107.766C44.9527 107.788 45.776 107.593 46.5097 107.2L60.6004 99.0643V87.4587H44.1206V107.766Z" fill="black"/>
<path d="M76.9664 78.0069L91.9639 86.6741C92.2583 86.7762 92.5136 86.9676 92.6943 87.2215C92.875 87.4754 92.9721 87.7793 92.9721 88.091C92.9721 88.4026 92.875 88.7066 92.6943 88.9605C92.5136 89.2144 92.2583 89.4058 91.9639 89.5079L80.5153 96.1172C79.7525 96.496 78.9124 96.6931 78.0607 96.6931C77.2091 96.6931 76.369 96.496 75.6062 96.1172L60.6 87.4588L46.5094 95.5941C45.7481 95.9727 44.9095 96.1698 44.0592 96.1698C43.209 96.1698 42.3703 95.9727 41.6091 95.5941L32.4275 90.2926C32.133 90.1905 31.8777 89.9992 31.697 89.7452C31.5163 89.4913 31.4193 89.1874 31.4193 88.8757C31.4193 88.5641 31.5163 88.2602 31.697 88.0062C31.8777 87.7523 32.133 87.561 32.4275 87.4588L46.5181 79.3236L31.5119 70.6652C31.2214 70.5591 30.9706 70.3662 30.7933 70.1128C30.6161 69.8593 30.521 69.5575 30.521 69.2483C30.521 68.939 30.6161 68.6372 30.7933 68.3837C30.9706 68.1303 31.2214 67.9375 31.5119 67.8314L42.9606 61.222C43.7218 60.838 44.5625 60.6379 45.4151 60.6379C46.2677 60.6379 47.1084 60.838 47.8696 61.222L62.8671 69.8804L76.8618 61.7975C77.6168 61.3934 78.4648 61.1949 79.3207 61.222C80.1739 61.1939 81.0193 61.3925 81.7709 61.7975L90.9524 67.0989C91.2342 67.2181 91.4773 67.4133 91.6544 67.6628C91.8315 67.9123 91.9356 68.2061 91.9552 68.5115C91.9343 68.8175 91.8297 69.1119 91.6529 69.3626C91.476 69.6132 91.2337 69.8104 90.9524 69.9327L76.9664 78.0069Z" fill="#F2768F"/>
<path d="M155.52 43.5215L159.461 41.2457C159.743 41.1265 159.986 40.9313 160.163 40.6818C160.34 40.4323 160.444 40.1385 160.464 39.8331V28.2275C160.446 27.9207 160.342 27.625 160.165 27.3739C159.988 27.1227 159.744 26.9261 159.461 26.8063L150.279 21.5049C149.528 21.0999 148.683 20.9013 147.829 20.9294C146.973 20.9023 146.125 21.1007 145.37 21.5049L131.419 29.5878L105.008 44.8381L100.971 47.1662C100.692 47.2886 100.451 47.4847 100.274 47.7335C100.097 47.9824 99.9916 48.2745 99.9683 48.5787V48.5787V60.1931C99.9888 60.4981 100.093 60.7915 100.27 61.0408C100.447 61.2901 100.69 61.4856 100.971 61.6056L110.153 66.907C110.902 67.3182 111.748 67.52 112.603 67.4912C113.456 67.5152 114.3 67.3169 115.053 66.9157L129.144 58.7805L155.52 43.5215Z" fill="#F2768F"/>
<path opacity="0.25" d="M155.52 43.5215L159.461 41.2457C159.743 41.1265 159.986 40.9313 160.163 40.6818C160.34 40.4323 160.444 40.1385 160.464 39.8331V28.2275C160.446 27.9207 160.342 27.625 160.165 27.3739C159.988 27.1227 159.744 26.9261 159.461 26.8063L150.279 21.5049C149.528 21.0999 148.683 20.9013 147.829 20.9294C146.973 20.9023 146.125 21.1007 145.37 21.5049L131.419 29.5878L105.008 44.8381L100.971 47.1662C100.692 47.2886 100.451 47.4847 100.274 47.7335C100.097 47.9824 99.9916 48.2745 99.9683 48.5787V48.5787V60.1931C99.9888 60.4981 100.093 60.7915 100.27 61.0408C100.447 61.2901 100.69 61.4856 100.971 61.6056L110.153 66.907C110.902 67.3182 111.748 67.52 112.603 67.4912C113.456 67.5152 114.3 67.3169 115.053 66.9157L129.144 58.7805L155.52 43.5215Z" fill="black"/>
<path opacity="0.25" d="M112.743 53.5576V67.4477C113.53 67.4566 114.308 67.274 115.01 66.9158L129.1 58.7806L155.52 43.5216L159.461 41.2458C159.743 41.1266 159.986 40.9314 160.163 40.6819C160.341 40.4324 160.445 40.1385 160.464 39.8332V28.2276C160.446 27.9208 160.343 27.6251 160.166 27.3739C159.988 27.1228 159.745 26.9262 159.461 26.8064L155.224 24.3562L112.743 53.5576Z" fill="black"/>
<path d="M145.467 37.723L129.1 47.1662L115.01 55.3014C114.248 55.6801 113.41 55.8771 112.559 55.8771C111.709 55.8771 110.87 55.6801 110.109 55.3014L100.928 50C100.633 49.8979 100.378 49.7065 100.197 49.4526C100.017 49.1987 99.9194 48.8948 99.9194 48.5831C99.9194 48.2714 100.017 47.9675 100.197 47.7136C100.378 47.4597 100.633 47.2683 100.928 47.1662L115.018 39.0309L131.402 29.5878L145.353 21.5049C146.108 21.1007 146.956 20.9023 147.812 20.9294C148.665 20.9013 149.511 21.0999 150.262 21.5049L159.444 26.8063C159.738 26.9084 159.994 27.0997 160.174 27.3537C160.355 27.6076 160.452 27.9115 160.452 28.2232C160.452 28.5348 160.355 28.8387 160.174 29.0927C159.994 29.3466 159.738 29.5379 159.444 29.6401L145.467 37.723Z" fill="#F2768F"/>
</svg>
