<svg width="184" height="179" viewBox="0 0 184 179" fill="none" xmlns="http://www.w3.org/2000/svg">
<ellipse cx="92.0003" cy="122" rx="85" ry="38" transform="rotate(12.9193 92.0003 122)" fill="#FFF1F4"/>
<path d="M56.0001 116.828V127.227C56.0727 135.883 61.8216 144.526 73.2599 151.13C96.2816 164.423 133.606 164.423 156.628 151.13C168.07 144.53 173.818 135.883 173.888 127.227V116.825L166.522 118.02C163.596 115.036 160.263 112.48 156.621 110.429C133.6 97.1397 96.275 97.1397 73.2533 110.429C69.6407 112.469 66.3305 115.002 63.4189 117.957L56.0001 116.828Z" fill="#EA1B44"/>
<path opacity="0.4" d="M56.0001 116.828V127.227C56.0727 135.883 61.8216 144.526 73.2599 151.13C96.2816 164.423 133.606 164.423 156.628 151.13C168.07 144.53 173.818 135.883 173.888 127.227V116.825L166.522 118.02C163.596 115.036 160.263 112.48 156.621 110.429C133.6 97.1397 96.275 97.1397 73.2533 110.429C69.6407 112.469 66.3305 115.002 63.4189 117.957L56.0001 116.828Z" fill="white"/>
<path opacity="0.4" d="M150.823 154.064C152.81 153.191 154.75 152.212 156.634 151.133C168.076 144.533 173.825 135.883 173.894 127.227V116.825L166.528 118.02C165.911 117.36 165.251 116.743 164.548 116.119L150.823 119.515V154.064Z" fill="#EA1B44"/>
<path d="M114.951 150.698C82.3931 150.698 56.0001 135.46 56.0001 116.663C56.0001 97.8668 82.3931 82.6292 114.951 82.6292C147.508 82.6292 173.901 97.8668 173.901 116.663C173.901 135.46 147.508 150.698 114.951 150.698Z" fill="#EA1B44"/>
<path opacity="0.6" d="M114.951 150.698C82.3931 150.698 56.0001 135.46 56.0001 116.663C56.0001 97.8668 82.3931 82.6292 114.951 82.6292C147.508 82.6292 173.901 97.8668 173.901 116.663C173.901 135.46 147.508 150.698 114.951 150.698Z" fill="white"/>
<path d="M64.7058 109.152C59.5378 118.106 63.9632 127.788 76.5434 135.052C97.3639 147.071 132.54 147.071 153.357 135.052C158.813 131.9 162.905 128.141 165.195 124.161C170.363 115.225 165.938 105.542 153.357 98.2751C132.537 86.256 97.3639 86.256 76.5434 98.2751C71.0882 101.427 66.9961 105.186 64.7058 109.149V109.152Z" fill="#EA1B44"/>
<path d="M64.7058 108.486C59.5378 118.234 63.9632 128.775 76.5434 136.682C97.3639 149.767 132.54 149.767 153.357 136.682C158.813 133.253 162.905 129.158 165.195 124.841C170.363 115.093 165.938 104.555 153.357 96.6448C132.537 83.5598 97.3639 83.5598 76.5434 96.6448C71.0882 100.074 66.9961 104.169 64.7058 108.486Z" fill="#EA1B44"/>
<path opacity="0.4" d="M64.7058 108.486C59.5378 118.234 63.9632 128.775 76.5434 136.682C97.3639 149.767 132.54 149.767 153.357 136.682C158.813 133.253 162.905 129.158 165.195 124.841C170.363 115.093 165.938 104.555 153.357 96.6448C132.537 83.5598 97.3639 83.5598 76.5434 96.6448C71.0882 100.074 66.9961 104.169 64.7058 108.486Z" fill="white"/>
<path d="M153.413 101.503C161.423 106.539 166.112 112.644 167.139 118.927C166.843 120.998 166.185 122.999 165.195 124.841C162.905 129.158 158.812 133.253 153.357 136.682C132.54 149.767 97.3638 149.767 76.5432 136.682C68.5338 131.646 63.8443 125.544 62.818 119.257C63.1148 117.188 63.7727 115.186 64.7618 113.344V113.344C67.0521 109.027 71.1442 104.932 76.5994 101.503C97.4199 88.4177 132.596 88.4177 153.413 101.503Z" fill="#FAFAFA"/>
<path d="M83.9985 137.484C84.285 137.621 84.5998 137.689 84.9173 137.682C85.2349 137.675 85.5463 137.594 85.8267 137.444L89.7374 135.19C90.2621 134.887 90.2885 134.418 89.8001 134.141C89.5135 134.004 89.1988 133.936 88.8812 133.943C88.5637 133.95 88.2522 134.031 87.9718 134.18L84.0612 136.434C83.5397 136.735 83.51 137.207 83.9985 137.484Z" fill="#EA1B44"/>
<path d="M83.9985 102.902C84.285 102.765 84.5998 102.697 84.9173 102.704C85.2349 102.711 85.5463 102.792 85.8267 102.941L89.7374 105.195C90.2621 105.496 90.2885 105.968 89.8001 106.245C89.5135 106.382 89.1988 106.45 88.8812 106.443C88.5637 106.436 88.2522 106.355 87.9718 106.205L84.0612 103.951C83.5397 103.648 83.51 103.179 83.9985 102.902Z" fill="#EA1B44"/>
<path d="M146.094 137.484C145.807 137.621 145.492 137.689 145.175 137.682C144.857 137.675 144.546 137.594 144.265 137.445L140.361 135.191C139.84 134.887 139.813 134.418 140.302 134.141C140.588 134.004 140.902 133.936 141.219 133.943C141.536 133.95 141.847 134.032 142.127 134.181L146.041 136.435C146.552 136.735 146.582 137.207 146.094 137.484Z" fill="#EA1B44"/>
<path d="M146.094 102.902C145.807 102.765 145.492 102.697 145.175 102.704C144.857 102.711 144.546 102.792 144.265 102.941L140.361 105.195C139.84 105.496 139.813 105.968 140.302 106.245C140.588 106.382 140.902 106.45 141.219 106.443C141.536 106.436 141.847 106.354 142.127 106.205L146.041 103.951C146.552 103.648 146.582 103.179 146.094 102.902Z" fill="#EA1B44"/>
<path d="M92.5624 114.086C92.5624 114.086 113.069 114.155 115.891 114.416C115.891 114.416 115.597 116.357 115.891 116.396L113.664 119.396L92.5624 116.076V114.086Z" fill="#263238"/>
<path d="M113.664 117.406L92.5624 114.086C92.5624 114.086 113.069 114.155 115.891 114.416L113.664 117.406Z" fill="#37474F"/>
<path d="M92.5621 129.514C92.5621 129.514 107.98 118.248 111.475 115.495C111.665 115.311 111.876 115.151 112.106 115.02C113.676 114.112 116.224 114.112 117.795 115.02C118.58 115.475 118.973 116.069 118.973 116.67C118.973 116.974 118.973 118.132 118.973 118.429C118.973 119.03 118.59 119.634 117.795 120.079C113.987 122.574 94.2287 132.036 94.2287 132.036L92.5786 131.286L92.5621 129.514Z" fill="#37474F"/>
<path d="M112.106 115.02C113.676 114.112 116.224 114.112 117.795 115.02C119.366 115.928 119.366 117.399 117.795 118.32C113.987 120.818 94.2287 130.277 94.2287 130.277L92.5786 129.527C92.5786 129.527 110.528 115.937 112.106 115.02Z" fill="#455A64"/>
<path d="M113.663 115.921C114.062 115.719 114.503 115.614 114.95 115.614C115.397 115.614 115.838 115.719 116.237 115.921C116.947 116.33 116.947 116.997 116.237 117.406C115.838 117.608 115.397 117.713 114.95 117.713C114.503 117.713 114.062 117.608 113.663 117.406C112.954 116.997 112.954 116.33 113.663 115.921Z" fill="#263238"/>
<path d="M101.613 97.7598L104.379 101.448L104.073 101.678L101.307 97.9895L101.613 97.7598Z" fill="#37474F"/>
<path d="M128.523 97.7665L128.829 97.9961L126.064 101.685L125.757 101.455L128.523 97.7665Z" fill="#37474F"/>
<path d="M104.073 138.505L104.379 138.735L101.613 142.424L101.307 142.194L104.073 138.505Z" fill="#37474F"/>
<path d="M126.057 138.491L128.823 142.18L128.517 142.409L125.751 138.721L126.057 138.491Z" fill="#37474F"/>
<path d="M72.8458 110.551L78.8916 111.806L78.8138 112.18L72.768 110.926L72.8458 110.551Z" fill="#37474F"/>
<path d="M78.8033 128.224L78.8809 128.598L72.8344 129.849L72.7568 129.475L78.8033 128.224Z" fill="#37474F"/>
<path d="M157.305 110.549L157.382 110.924L151.336 112.175L151.258 111.801L157.305 110.549Z" fill="#37474F"/>
<path d="M151.344 128.22L157.39 129.474L157.312 129.849L151.267 128.594L151.344 128.22Z" fill="#37474F"/>
<path d="M88.83 62.8814V58.6814C88.8962 53.2004 89.8104 47.7627 91.54 42.5614C95.94 28.9314 105.2 15.9214 115.92 9.74136C122.74 5.80136 128.92 5.31136 133.73 7.68136L124.35 2.28136C122.037 0.756837 119.32 -0.0375102 116.55 0.0013614C116.109 -0.00314272 115.669 0.0168858 115.23 0.061359C114.774 0.0856264 114.319 0.139065 113.87 0.221355C113.401 0.273185 112.936 0.360097 112.48 0.481357C112.01 0.581357 111.48 0.71136 111.05 0.85136C110.05 1.15771 109.068 1.52165 108.11 1.94136C107.61 2.16136 107.11 2.41136 106.6 2.65136C106.09 2.89136 105.6 3.19136 105.07 3.48136C90.07 12.1214 78 34.0414 78 52.4814V56.6714C78 75.0814 102.75 95.0814 102.75 95.0814L112.75 100.741C112.569 100.634 112.398 100.51 112.24 100.371C104.88 93.5114 88.83 77.0714 88.83 62.8814ZM118.38 24.1814C118.473 24.6466 118.533 25.1178 118.56 25.5914C118.56 25.7414 118.56 25.9014 118.56 26.0814C118.575 26.3611 118.575 26.6416 118.56 26.9214C118.56 35.5414 112.5 46.0514 105.01 50.3714C104.74 50.5214 104.47 50.6714 104.2 50.8014C103.93 50.9314 103.66 51.0614 103.4 51.1814L102.62 51.5014H102.54C103.71 58.1014 109.21 60.4114 115.86 56.5914C123.33 52.2714 129.39 41.7714 129.39 33.1314C129.45 25.5314 124.68 21.8814 118.38 24.2014V24.1814Z" fill="#F2768F"/>
<path opacity="0.2" d="M88.83 62.8814V58.6814C88.8962 53.2004 89.8104 47.7627 91.54 42.5614C95.94 28.9314 105.2 15.9214 115.92 9.74136C122.74 5.80136 128.92 5.31136 133.73 7.68136L124.35 2.28136C122.037 0.756837 119.32 -0.0375102 116.55 0.0013614C116.109 -0.00314272 115.669 0.0168858 115.23 0.061359C114.774 0.0856264 114.319 0.139065 113.87 0.221355C113.401 0.273185 112.936 0.360097 112.48 0.481357C112.01 0.581357 111.48 0.71136 111.05 0.85136C110.05 1.15771 109.068 1.52165 108.11 1.94136C107.61 2.16136 107.11 2.41136 106.6 2.65136C106.09 2.89136 105.6 3.19136 105.07 3.48136C90.07 12.1214 78 34.0414 78 52.4814V56.6714C78 75.0814 102.75 95.0814 102.75 95.0814L112.75 100.741C112.569 100.634 112.398 100.51 112.24 100.371C104.88 93.5114 88.83 77.0714 88.83 62.8814Z" fill="black"/>
<path opacity="0.5" d="M118.38 24.2014C118.473 24.6666 118.533 25.1378 118.56 25.6114C118.56 25.7614 118.56 25.9214 118.56 26.1014C118.575 26.3812 118.575 26.6616 118.56 26.9414C118.56 35.5614 112.5 46.0714 105.01 50.3914C104.74 50.5414 104.47 50.6914 104.2 50.8214C103.93 50.9514 103.66 51.0814 103.4 51.2014L102.62 51.5214H102.54C103.71 58.1214 109.21 60.4314 115.86 56.6114C123.33 52.2914 129.39 41.7914 129.39 33.1514C129.45 25.5314 124.68 21.8814 118.38 24.2014Z" fill="black"/>
<path d="M142.99 27.4314C142.99 9.0314 130.86 1.1014 115.91 9.7414C100.96 18.3814 88.8301 40.2914 88.8301 58.7414V62.8814C88.8301 77.0614 104.89 93.5114 112.27 100.321C112.687 100.709 113.19 100.993 113.736 101.151C114.283 101.31 114.859 101.338 115.419 101.234C115.979 101.13 116.506 100.897 116.96 100.552C117.413 100.208 117.78 99.7626 118.03 99.2514C124.41 86.1914 143.03 46.8614 143.03 31.6114L142.99 27.4314ZM115.91 56.6414C108.43 60.9614 102.37 57.4614 102.37 48.8214C102.37 40.1814 108.43 29.6914 115.91 25.3714C123.39 21.0514 129.45 24.5514 129.45 33.1914C129.45 41.8314 123.39 52.3214 115.91 56.6414V56.6414Z" fill="#F2768F"/>
<path d="M133.73 7.68136L124.35 2.28136C122.037 0.756837 119.32 -0.0375102 116.55 0.0013614C116.109 -0.00314272 115.669 0.0168858 115.23 0.061359C114.774 0.0856264 114.319 0.139065 113.87 0.221355C113.401 0.273185 112.936 0.360097 112.48 0.481357C112.01 0.581357 111.48 0.71136 111.05 0.85136C110.05 1.15771 109.068 1.52165 108.11 1.94136C107.61 2.16136 107.11 2.41136 106.6 2.65136C106.09 2.89136 105.6 3.19136 105.07 3.48136C94.96 9.32136 86.15 21.2414 81.5 34.0414L92.33 40.2914C96.98 27.5014 105.8 15.5814 115.92 9.74136C122.74 5.80136 128.97 5.31136 133.73 7.68136Z" fill="#F2768F"/>
<path opacity="0.3" d="M133.73 7.68136L124.35 2.28136C122.037 0.756837 119.32 -0.0375102 116.55 0.0013614C116.109 -0.00314272 115.669 0.0168858 115.23 0.061359C114.774 0.0856264 114.319 0.139065 113.87 0.221355C113.401 0.273185 112.936 0.360097 112.48 0.481357C112.01 0.581357 111.48 0.71136 111.05 0.85136C110.05 1.15771 109.068 1.52165 108.11 1.94136C107.61 2.16136 107.11 2.41136 106.6 2.65136C106.09 2.89136 105.6 3.19136 105.07 3.48136C94.96 9.32136 86.15 21.2414 81.5 34.0414L92.33 40.2914C96.98 27.5014 105.8 15.5814 115.92 9.74136C122.74 5.80136 128.97 5.31136 133.73 7.68136Z" fill="white"/>
<path d="M115.92 9.74146L114.32 10.8415C113.773 11.1885 113.245 11.5658 112.74 11.9715C111.74 12.8015 110.68 13.5515 109.74 14.4715C108.8 15.3915 107.83 16.2115 106.97 17.1815L105.64 18.5915L104.4 20.0815C97.8241 28.0915 93.0891 37.4489 90.53 47.4915C90.19 48.7415 89.99 50.0214 89.72 51.2814C89.45 52.5414 89.37 53.8415 89.18 55.1215C88.99 56.4015 88.99 57.7014 88.93 59.0014L88.84 62.8815L88.73 58.9915C88.73 57.6915 88.73 56.3815 88.78 55.0815C88.83 53.7815 89.01 52.4715 89.2 51.1815C89.39 49.8915 89.59 48.6015 89.9 47.3315C92.2356 37.0937 97.0422 27.5836 103.9 19.6315C107.294 15.6537 111.363 12.3058 115.92 9.74146Z" fill="#F2768F"/>
<g opacity="0.5">
<path d="M115.92 9.74146L114.32 10.8415C113.773 11.1885 113.245 11.5658 112.74 11.9715C111.74 12.8015 110.68 13.5515 109.74 14.4715C108.8 15.3915 107.83 16.2115 106.97 17.1815L105.64 18.5915L104.4 20.0815C97.8241 28.0915 93.0891 37.4489 90.53 47.4915C90.19 48.7415 89.99 50.0214 89.72 51.2814C89.45 52.5414 89.37 53.8415 89.18 55.1215C88.99 56.4015 88.99 57.7014 88.93 59.0014L88.84 62.8815L88.73 58.9915C88.73 57.6915 88.73 56.3815 88.78 55.0815C88.83 53.7815 89.01 52.4715 89.2 51.1815C89.39 49.8915 89.59 48.6015 89.9 47.3315C92.2356 37.0937 97.0422 27.5836 103.9 19.6315C107.294 15.6537 111.363 12.3058 115.92 9.74146Z" fill="white"/>
</g>
</svg>
