<svg width="181" height="106" viewBox="0 0 181 106" fill="none" xmlns="http://www.w3.org/2000/svg">
<ellipse cx="90.4543" cy="52.6886" rx="85" ry="38" transform="rotate(-10.3767 90.4543 52.6886)" fill="#FFF1F4"/>
<path d="M24.4541 30.2013V43.6455C24.4541 50.9451 29.2764 58.2358 38.9209 63.8074C58.2013 74.9419 89.48 74.9419 108.769 63.8074C118.414 58.2358 123.236 50.9451 123.236 43.6455V30.2013C123.236 22.9018 118.414 15.6022 108.769 10.0394C89.48 -1.09501 58.2101 -1.09501 38.9209 10.0394C29.2764 15.6287 24.4541 22.9018 24.4541 30.2013ZM118.458 30.2013C118.458 36.0374 114.164 41.7325 106.38 46.2286C97.7669 51.2007 86.2093 53.9425 73.8406 53.9425C61.4719 53.9425 49.9231 51.2007 41.31 46.2286C33.5168 41.7325 29.2323 36.0374 29.2323 30.2013C29.2323 24.3652 33.5168 18.6702 41.31 14.1741C49.9231 9.20193 61.4719 6.46019 73.8406 6.46019C86.2093 6.46019 97.7669 9.20193 106.38 14.1741C114.164 18.6702 118.458 24.3652 118.458 30.2013Z" fill="#F2768F"/>
<path opacity="0.3" d="M108.769 10.0394C89.48 -1.09501 58.2101 -1.09501 38.9209 10.0394C19.6318 21.1739 19.6318 39.2288 38.9209 50.3632C58.2101 61.4977 89.48 61.4977 108.769 50.3632C128.058 39.2288 128.058 21.1739 108.769 10.0394ZM106.38 46.1845C97.7669 51.1566 86.2093 53.8984 73.8406 53.8984C61.4719 53.8984 49.9231 51.1566 41.31 46.1845C33.5168 41.6884 29.2323 35.9934 29.2323 30.1573C29.2323 24.3211 33.5168 18.6261 41.31 14.13C49.9231 9.15783 61.4808 6.41609 73.8406 6.41609C86.2005 6.41609 97.7669 9.15783 106.38 14.13C114.173 18.6261 118.458 24.3211 118.458 30.1573C118.458 35.9934 114.173 41.7325 106.38 46.2286V46.1845Z" fill="white"/>
<path d="M118.467 30.2013C118.439 32.5762 117.772 34.8997 116.536 36.9278C114.579 33.5337 111.123 30.3512 106.38 27.6183C97.767 22.6461 86.2094 19.9044 73.8407 19.9044C61.472 19.9044 49.9232 22.6814 41.3278 27.6183C36.5848 30.3512 33.1378 33.5337 31.1631 36.9278C29.9354 34.8966 29.272 32.5746 29.2412 30.2013C29.2412 24.3652 33.5345 18.6702 41.3278 14.1653C49.9409 9.20193 61.4985 6.46021 73.8583 6.46021C86.2182 6.46021 97.7846 9.20193 106.398 14.1653C114.173 18.6702 118.467 24.3652 118.467 30.2013Z" fill="#F2768F"/>
<path opacity="0.1" d="M118.467 30.2013C118.439 32.5762 117.772 34.8997 116.536 36.9278C114.579 33.5337 111.123 30.3512 106.38 27.6183C97.767 22.6461 86.2094 19.9044 73.8407 19.9044C61.472 19.9044 49.9232 22.6814 41.3278 27.6183C36.5848 30.3512 33.1378 33.5337 31.1631 36.9278C29.9354 34.8966 29.272 32.5746 29.2412 30.2013C29.2412 24.3652 33.5345 18.6702 41.3278 14.1653C49.9409 9.20193 61.4985 6.46021 73.8583 6.46021C86.2182 6.46021 97.7846 9.20193 106.398 14.1653C114.173 18.6702 118.467 24.3652 118.467 30.2013Z" fill="black"/>
<path opacity="0.6" d="M106.38 20.2571C97.7668 15.2849 86.2092 12.552 73.8405 12.552C61.4718 12.552 49.923 15.2849 41.3099 20.2571C34.8832 23.9685 30.8455 28.4911 29.6289 33.2428C30.8455 37.9946 34.9184 42.5171 41.3099 46.2286C49.923 51.2008 61.4806 53.9425 73.8405 53.9425C86.2003 53.9425 97.7668 51.2008 106.38 46.2286C112.807 42.5171 116.844 37.9946 118.061 33.2428C116.844 28.4911 112.807 23.9685 106.38 20.2571Z" fill="white"/>
<path opacity="0.1" d="M85.4863 57.9449V71.3803C93.6545 70.3718 101.554 67.8103 108.76 63.8339C118.414 58.2623 123.236 50.9628 123.236 43.6632V30.2014C123.231 28.7127 123.032 27.2309 122.645 25.7935C124.981 34.4771 120.362 43.672 108.769 50.3633C102.104 54.2158 94.0113 56.7283 85.4863 57.9449Z" fill="black"/>
<path d="M107.297 58.9233C107.357 57.7216 107.7 56.551 108.298 55.5064C108.895 54.4618 109.73 53.5727 110.735 52.9109C111.083 52.6589 111.49 52.5026 111.917 52.4578C112.344 52.4129 112.776 52.481 113.168 52.6553V52.6553L129.795 62.1411C130.147 62.3887 130.427 62.7261 130.606 63.1183C130.784 63.5104 130.854 63.9432 130.809 64.3716C130.748 65.5733 130.405 66.7439 129.808 67.7885C129.211 68.8331 128.376 69.7222 127.371 70.384C127.023 70.6395 126.613 70.7972 126.183 70.8407C125.754 70.8841 125.32 70.8116 124.929 70.6308V70.6308L108.328 61.1626C107.974 60.9137 107.692 60.5754 107.51 60.1821C107.329 59.7888 107.256 59.3544 107.297 58.9233V58.9233Z" fill="#37474F"/>
<path d="M108.328 61.1626C107.974 60.9138 107.692 60.5755 107.51 60.1822C107.329 59.7888 107.256 59.3545 107.297 58.9234C107.313 58.028 107.514 57.1456 107.887 56.3315L129.328 68.5944C128.809 69.3176 128.153 69.9316 127.397 70.4017C127.049 70.6572 126.639 70.8149 126.21 70.8584C125.78 70.9018 125.347 70.8293 124.955 70.6485L108.328 61.1626Z" fill="#263238"/>
<path d="M124.594 70.3488C124.673 68.7861 125.119 67.264 125.895 65.9055C126.672 64.547 127.757 63.3904 129.063 62.5291C129.512 62.2054 130.037 62.0035 130.587 61.9432C131.137 61.883 131.694 61.9664 132.202 62.1853L174.262 83.7577L166.028 98.2951L125.96 73.2669C125.493 72.9461 125.121 72.5065 124.88 71.9936C124.64 71.4806 124.541 70.9128 124.594 70.3488Z" fill="#F2768F"/>
<path opacity="0.1" d="M166.081 98.3127L125.96 73.2668C125.498 72.9429 125.13 72.5019 124.895 71.9892C124.659 71.4764 124.564 70.9103 124.62 70.3488C124.681 68.6614 125.199 67.0222 126.119 65.6058L170.357 90.8192L166.081 98.3127Z" fill="black"/>
<path d="M170.242 97.872C171.958 96.746 173.384 95.2303 174.403 93.4485C175.422 91.6667 176.005 89.6693 176.105 87.6192C176.105 83.8548 173.46 82.3296 170.189 84.2339C168.475 85.3614 167.05 86.8775 166.031 88.659C165.013 90.4404 164.429 92.4371 164.327 94.4867C164.335 98.2511 166.989 99.7674 170.242 97.872Z" fill="#F2768F"/>
<g opacity="0.2">
<path d="M170.242 97.872C171.958 96.746 173.384 95.2303 174.403 93.4485C175.422 91.6667 176.005 89.6693 176.105 87.6192C176.105 83.8548 173.46 82.3296 170.189 84.2339C168.475 85.3614 167.05 86.8775 166.031 88.659C165.013 90.4404 164.429 92.4371 164.327 94.4867C164.335 98.2511 166.989 99.7674 170.242 97.872Z" fill="black"/>
</g>
</svg>
