<svg width="182" height="194" viewBox="0 0 182 194" fill="none" xmlns="http://www.w3.org/2000/svg">
<ellipse rx="85" ry="38" transform="matrix(-0.983645 -0.180119 -0.180119 0.983645 90.5808 141)" fill="#FFF1F4"/>
<path d="M89.1013 91.208L158.295 131.178C158.917 131.506 159.439 131.997 159.802 132.599C160.166 133.201 160.358 133.891 160.358 134.595C160.358 135.298 160.166 135.988 159.802 136.591C159.439 137.193 158.917 137.684 158.295 138.012L108.364 166.834C107.727 167.158 107.021 167.327 106.306 167.327C105.59 167.327 104.885 167.158 104.247 166.834L35.0534 126.864C34.4333 126.534 33.9146 126.042 33.5528 125.44C33.1911 124.838 33 124.149 33 123.447C33 122.745 33.1911 122.056 33.5528 121.454C33.9146 120.852 34.4333 120.36 35.0534 120.03L84.9838 91.208C85.6217 90.8839 86.327 90.715 87.0425 90.715C87.758 90.715 88.4634 90.8839 89.1013 91.208V91.208Z" fill="#F2768F"/>
<path opacity="0.2" d="M89.1013 91.208L158.295 131.178C158.917 131.506 159.439 131.997 159.802 132.599C160.166 133.201 160.358 133.891 160.358 134.595C160.358 135.298 160.166 135.988 159.802 136.591C159.439 137.193 158.917 137.684 158.295 138.012L108.364 166.834C107.727 167.158 107.021 167.327 106.306 167.327C105.59 167.327 104.885 167.158 104.247 166.834L35.0534 126.864C34.4333 126.534 33.9146 126.042 33.5528 125.44C33.1911 124.838 33 124.149 33 123.447C33 122.745 33.1911 122.056 33.5528 121.454C33.9146 120.852 34.4333 120.36 35.0534 120.03L84.9838 91.208C85.6217 90.8839 86.327 90.715 87.0425 90.715C87.758 90.715 88.4634 90.8839 89.1013 91.208V91.208Z" fill="black"/>
<path d="M106.34 101.16L158.329 131.178C158.952 131.506 159.473 131.997 159.836 132.599C160.2 133.201 160.392 133.891 160.392 134.595C160.392 135.298 160.2 135.988 159.836 136.591C159.473 137.193 158.952 137.684 158.329 138.012L108.399 166.834C107.765 167.169 107.057 167.34 106.34 167.329V101.16Z" fill="#F2768F"/>
<path opacity="0.1" d="M106.34 101.16L158.329 131.178C158.952 131.506 159.473 131.997 159.836 132.599C160.2 133.201 160.392 133.891 160.392 134.595C160.392 135.298 160.2 135.988 159.836 136.591C159.473 137.193 158.952 137.684 158.329 138.012L108.399 166.834C107.765 167.169 107.057 167.34 106.34 167.329V101.16Z" fill="black"/>
<path d="M158.329 131.178L89.1355 91.208C88.4976 90.8839 87.7923 90.715 87.0768 90.715C86.3613 90.715 85.6559 90.8839 85.0181 91.208L35.0877 120.03C33.9515 120.688 33.9515 121.739 35.0877 122.405L104.281 162.375C104.919 162.699 105.624 162.868 106.34 162.868C107.055 162.868 107.761 162.699 108.399 162.375L158.329 133.553C159.465 132.895 159.465 131.827 158.329 131.178Z" fill="#F2768F"/>
<path d="M125.646 90.0206L167.503 65.8712C167.844 66.4844 168.015 67.1774 167.999 67.8787L164.42 127.761C164.352 128.459 164.131 129.133 163.772 129.736C163.413 130.338 162.925 130.854 162.344 131.246C161.721 131.547 161.037 131.698 160.345 131.686C159.654 131.674 158.975 131.5 158.363 131.178L124.92 111.898L125.646 90.0206Z" fill="#F2768F"/>
<path opacity="0.2" d="M125.646 90.0206L167.503 65.8712C167.844 66.4844 168.015 67.1774 167.999 67.8787L164.42 127.761C164.352 128.459 164.131 129.133 163.772 129.736C163.413 130.338 162.925 130.854 162.344 131.246C161.721 131.547 161.037 131.698 160.345 131.686C159.654 131.674 158.975 131.5 158.363 131.178L124.92 111.898L125.646 90.0206Z" fill="black"/>
<path d="M150.606 131.178L89.101 95.6671C88.4632 95.343 87.7578 95.1741 87.0423 95.1741C86.3268 95.1741 85.6214 95.343 84.9836 95.6671L83.2751 96.6324C82.139 97.2902 82.139 98.3409 83.2751 99.0072L144.78 134.518C145.418 134.842 146.124 135.011 146.839 135.011C147.555 135.011 148.26 134.842 148.898 134.518L150.606 133.553C151.743 132.895 151.743 131.827 150.606 131.178Z" fill="#F2768F"/>
<path opacity="0.1" d="M150.606 131.178L89.101 95.6671C88.4632 95.343 87.7578 95.1741 87.0423 95.1741C86.3268 95.1741 85.6214 95.343 84.9836 95.6671L83.2751 96.6324C82.139 97.2902 82.139 98.3409 83.2751 99.0072L144.78 134.518C145.418 134.842 146.124 135.011 146.839 135.011C147.555 135.011 148.26 134.842 148.898 134.518L150.606 133.553C151.743 132.895 151.743 131.827 150.606 131.178Z" fill="black"/>
<path d="M142.859 135.628L81.3533 100.118C80.7142 99.7975 80.0093 99.6307 79.2946 99.6307C78.5798 99.6307 77.8749 99.7975 77.2358 100.118L58.1948 111.12C57.0587 111.769 57.0587 112.829 58.1948 113.495L119.7 149.006C120.338 149.33 121.043 149.499 121.759 149.499C122.474 149.499 123.18 149.33 123.818 149.006L142.859 138.003C144.02 137.354 144.02 136.286 142.859 135.628Z" fill="#F2768F"/>
<path opacity="0.1" d="M142.859 135.628L81.3533 100.118C80.7142 99.7975 80.0093 99.6307 79.2946 99.6307C78.5798 99.6307 77.8749 99.7975 77.2358 100.118L58.1948 111.12C57.0587 111.769 57.0587 112.829 58.1948 113.495L119.7 149.006C120.338 149.33 121.043 149.499 121.759 149.499C122.474 149.499 123.18 149.33 123.818 149.006L142.859 138.003C144.02 137.354 144.02 136.286 142.859 135.628Z" fill="black"/>
<path d="M92.7059 137.858L73.6649 126.864C73.027 126.54 72.3216 126.371 71.6061 126.371C70.8907 126.371 70.1853 126.54 69.5474 126.864L62.0899 131.178C60.9538 131.827 60.9538 132.886 62.0899 133.553L81.1309 144.547C81.7688 144.871 82.4742 145.04 83.1897 145.04C83.9051 145.04 84.6105 144.871 85.2484 144.547L92.7145 140.233C93.8421 139.584 93.842 138.516 92.7059 137.858Z" fill="#F2768F"/>
<path opacity="0.1" d="M92.7059 137.858L73.6649 126.864C73.027 126.54 72.3216 126.371 71.6061 126.371C70.8907 126.371 70.1853 126.54 69.5474 126.864L62.0899 131.178C60.9538 131.827 60.9538 132.886 62.0899 133.553L81.1309 144.547C81.7688 144.871 82.4742 145.04 83.1897 145.04C83.9051 145.04 84.6105 144.871 85.2484 144.547L92.7145 140.233C93.8421 139.584 93.842 138.516 92.7059 137.858Z" fill="black"/>
<path d="M86.8118 116.408L84.8983 115.298C84.8128 115.246 84.8214 115.169 84.8983 115.118L87.3328 113.734C87.3831 113.709 87.4388 113.695 87.4952 113.695C87.5516 113.695 87.6072 113.709 87.6575 113.734L89.571 114.836C89.6564 114.888 89.6393 114.973 89.571 115.024L87.1876 116.4C87.1312 116.434 87.0668 116.453 87.0008 116.454C86.9349 116.456 86.8696 116.44 86.8118 116.408ZM91.0232 111.804L92.9452 112.906C93.0221 112.957 93.0136 113.034 92.9452 113.094L90.5619 114.469C90.5131 114.494 90.4589 114.508 90.4038 114.508C90.3488 114.508 90.2946 114.494 90.2458 114.469L88.3238 113.367C88.2469 113.316 88.2554 113.239 88.3238 113.179L90.7071 111.804C90.7559 111.778 90.8101 111.765 90.8651 111.765C90.9202 111.765 90.9744 111.778 91.0232 111.804V111.804ZM97.2164 115.374L100.463 117.254C100.548 117.254 100.539 117.382 100.463 117.433L98.0792 118.808C98.0287 118.833 97.9732 118.846 97.9169 118.846C97.8606 118.846 97.8051 118.833 97.7546 118.808L94.5085 116.929C94.4316 116.886 94.4401 116.801 94.5085 116.75L96.8918 115.374C96.9383 115.341 96.9922 115.32 97.0488 115.313C97.1054 115.305 97.1629 115.312 97.2164 115.332V115.374ZM93.7995 113.418L95.7215 114.529C95.7984 114.571 95.7898 114.657 95.7215 114.708L93.3125 116.075C93.2635 116.1 93.2094 116.113 93.1545 116.113C93.0996 116.113 93.0455 116.1 92.9965 116.075L91.0744 114.964C90.9975 114.922 91.0061 114.836 91.0744 114.785L93.4578 113.41C93.5097 113.37 93.5717 113.346 93.6366 113.34C93.7014 113.334 93.7667 113.346 93.8251 113.376L93.7995 113.418ZM101.325 117.758L103.239 118.868C103.324 118.911 103.316 118.996 103.239 119.048L100.855 120.432C100.805 120.457 100.75 120.47 100.693 120.47C100.637 120.47 100.581 120.457 100.531 120.432L98.6174 119.33C98.532 119.278 98.549 119.193 98.6174 119.142L101.001 117.732C101.053 117.701 101.113 117.683 101.174 117.68C101.235 117.677 101.296 117.689 101.351 117.715L101.325 117.758ZM104.127 119.381L106.041 120.483C106.126 120.534 106.118 120.619 106.041 120.671L103.657 122.046C103.606 122.069 103.551 122.081 103.495 122.081C103.439 122.081 103.384 122.069 103.333 122.046L101.419 120.936C101.334 120.884 101.351 120.807 101.419 120.748L103.803 119.372C103.852 119.335 103.911 119.313 103.973 119.307C104.035 119.301 104.097 119.312 104.153 119.338L104.127 119.381ZM94.7306 124.968L92.8085 123.866C92.7317 123.814 92.7402 123.737 92.8085 123.678L95.1919 122.302C95.2407 122.277 95.2949 122.264 95.3499 122.264C95.4049 122.264 95.4592 122.277 95.5079 122.302L97.43 123.404C97.5069 123.456 97.4983 123.532 97.43 123.592L95.0466 124.968C94.9994 124.981 94.9497 124.984 94.901 124.977C94.8524 124.97 94.8059 124.952 94.7647 124.925L94.7306 124.968ZM97.5325 126.591L95.6104 125.48C95.5336 125.437 95.5421 125.352 95.6104 125.301L97.9938 123.925C98.0421 123.898 98.0965 123.884 98.1518 123.884C98.2071 123.884 98.2615 123.898 98.3099 123.925L100.232 125.036C100.309 125.079 100.3 125.164 100.232 125.215L97.8486 126.591C97.8038 126.601 97.7573 126.603 97.7119 126.596C97.6665 126.588 97.6229 126.572 97.5837 126.548L97.5325 126.591ZM100.334 128.205L98.4124 127.103C98.3355 127.052 98.344 126.966 98.4124 126.915L100.855 125.472C100.905 125.449 100.959 125.437 101.014 125.437C101.068 125.437 101.122 125.449 101.172 125.472L103.094 126.582C103.17 126.625 103.162 126.71 103.094 126.761L100.71 128.145C100.66 128.178 100.602 128.197 100.542 128.2C100.482 128.203 100.422 128.19 100.369 128.162L100.334 128.205ZM103.136 129.828L101.214 128.718C101.137 128.666 101.146 128.59 101.214 128.53L103.598 127.154C103.646 127.129 103.701 127.116 103.756 127.116C103.811 127.116 103.865 127.129 103.914 127.154L105.836 128.256C105.913 128.308 105.904 128.385 105.836 128.444L103.452 129.82C103.358 129.846 103.256 129.833 103.17 129.785L103.136 129.828ZM89.5795 118.065L87.666 116.955C87.5806 116.955 87.5891 116.827 87.666 116.775L90.0493 115.4C90.0998 115.375 90.1554 115.362 90.2116 115.362C90.2679 115.362 90.3235 115.375 90.3739 115.4L92.2875 116.511C92.3729 116.553 92.3558 116.639 92.2875 116.69L89.9041 118.065C89.8555 118.08 89.8043 118.083 89.7542 118.076C89.7041 118.068 89.6561 118.05 89.6137 118.023L89.5795 118.065ZM91.9287 123.353L87.6575 120.884C87.572 120.833 87.5891 120.756 87.6575 120.696L93.4492 117.356C93.498 117.331 93.5522 117.318 93.6073 117.318C93.6623 117.318 93.7165 117.331 93.7653 117.356L95.9778 118.629C96.0546 118.68 96.0461 118.757 95.9778 118.817L92.911 120.585C92.8171 120.637 92.8085 120.722 92.911 120.765L94.6793 121.79C94.7562 121.832 94.7477 121.918 94.6793 121.969L92.296 123.344C92.242 123.367 92.1833 123.376 92.1251 123.37C92.0669 123.364 92.0111 123.343 91.9628 123.31L91.9287 123.353ZM106.98 120.953L108.894 122.063C108.979 122.106 108.971 122.191 108.894 122.243L106.511 123.618C106.46 123.643 106.405 123.656 106.348 123.656C106.292 123.656 106.236 123.643 106.186 123.618L104.272 122.507C104.187 122.465 104.204 122.379 104.272 122.328L106.656 120.953C106.706 120.926 106.762 120.913 106.818 120.913C106.875 120.913 106.93 120.926 106.98 120.953V120.953ZM109.782 122.576L111.696 123.678C111.781 123.729 111.773 123.806 111.696 123.866L109.312 125.241C109.262 125.266 109.207 125.28 109.15 125.28C109.094 125.28 109.038 125.266 108.988 125.241L107.074 124.139C106.989 124.088 107.006 124.011 107.074 123.951L109.458 122.576C109.504 122.553 109.555 122.541 109.607 122.541C109.659 122.541 109.71 122.553 109.757 122.576H109.782ZM123.126 141.096C123.077 141.121 123.023 141.134 122.968 141.134C122.912 141.134 122.858 141.121 122.809 141.096L120.896 139.994C120.811 139.942 120.819 139.866 120.896 139.806L123.279 138.43C123.33 138.405 123.385 138.392 123.442 138.392C123.498 138.392 123.554 138.405 123.604 138.43L125.517 139.532C125.603 139.584 125.586 139.661 125.517 139.72L123.126 141.096ZM132.198 135.517L134.12 136.619C134.197 136.671 134.188 136.748 134.12 136.807L131.736 138.183C131.688 138.208 131.633 138.221 131.578 138.221C131.523 138.221 131.469 138.208 131.42 138.183L129.498 137.081C129.421 137.029 129.43 136.953 129.498 136.893L131.882 135.517C131.927 135.496 131.977 135.485 132.027 135.485C132.077 135.485 132.127 135.496 132.172 135.517H132.198ZM127.269 139.549C127.22 139.574 127.165 139.587 127.111 139.587C127.056 139.587 127.002 139.574 126.953 139.549L125.039 138.439C124.954 138.439 124.962 138.311 125.039 138.26L127.431 136.884C127.48 136.859 127.534 136.847 127.589 136.847C127.644 136.847 127.698 136.859 127.747 136.884L129.661 137.995C129.746 138.037 129.737 138.123 129.661 138.174L127.269 139.549ZM117.932 142.223L116.01 141.113C115.933 141.07 115.941 140.985 116.01 140.933L118.393 139.558C118.442 139.533 118.496 139.52 118.551 139.52C118.606 139.52 118.66 139.533 118.709 139.558L120.631 140.669C120.708 140.711 120.7 140.797 120.631 140.848L118.248 142.223C118.196 142.252 118.137 142.268 118.077 142.268C118.017 142.268 117.958 142.252 117.906 142.223H117.932ZM121.05 143.829C121.001 143.855 120.947 143.868 120.892 143.868C120.837 143.868 120.782 143.855 120.734 143.829L118.812 142.727C118.735 142.676 118.743 142.591 118.812 142.539L121.195 141.164C121.244 141.141 121.298 141.129 121.353 141.129C121.408 141.129 121.462 141.141 121.511 141.164L123.433 142.275C123.51 142.326 123.501 142.403 123.433 142.454L121.05 143.829ZM129.396 133.894L131.318 135.005C131.395 135.048 131.386 135.133 131.318 135.184L128.934 136.568C128.886 136.594 128.831 136.607 128.776 136.607C128.721 136.607 128.667 136.594 128.618 136.568L126.696 135.458C126.619 135.458 126.628 135.33 126.696 135.278L129.08 133.903C129.125 133.882 129.174 133.871 129.224 133.869C129.274 133.868 129.324 133.876 129.37 133.894H129.396ZM115.386 125.805L117.308 126.915C117.385 126.958 117.377 127.043 117.308 127.095L114.925 128.478C114.876 128.504 114.822 128.517 114.767 128.517C114.712 128.517 114.658 128.504 114.609 128.478L112.687 127.377C112.61 127.325 112.618 127.24 112.687 127.189L115.07 125.813C115.115 125.793 115.165 125.781 115.214 125.78C115.264 125.778 115.314 125.787 115.361 125.805H115.386ZM126.568 132.305L128.49 133.416C128.567 133.416 128.559 133.544 128.49 133.595L126.107 134.971C126.058 134.995 126.004 135.008 125.949 135.008C125.894 135.008 125.84 134.995 125.791 134.971L123.869 133.86C123.792 133.818 123.8 133.732 123.869 133.681L126.252 132.305C126.301 132.28 126.355 132.267 126.41 132.267C126.465 132.267 126.519 132.28 126.568 132.305V132.305ZM112.559 124.216L114.472 125.326C114.558 125.326 114.549 125.454 114.472 125.506L112.089 126.881C112.04 126.906 111.986 126.919 111.931 126.919C111.876 126.919 111.822 126.906 111.773 126.881L109.851 125.771C109.774 125.728 109.782 125.642 109.851 125.591L112.234 124.216C112.281 124.183 112.336 124.164 112.393 124.159C112.45 124.155 112.507 124.166 112.559 124.19V124.216ZM118.162 127.453L120.084 128.555C120.161 128.607 120.153 128.684 120.084 128.743L117.701 130.119C117.652 130.142 117.598 130.153 117.543 130.153C117.489 130.153 117.435 130.142 117.385 130.119L115.463 129.008C115.386 128.957 115.395 128.88 115.463 128.82L117.846 127.445C117.894 127.417 117.947 127.4 118.002 127.398C118.057 127.395 118.112 127.405 118.162 127.428V127.453ZM120.964 129.068L122.886 130.178C122.963 130.221 122.955 130.307 122.886 130.358L120.503 131.733C120.454 131.758 120.4 131.771 120.345 131.771C120.29 131.771 120.236 131.758 120.187 131.733L118.265 130.623C118.188 130.58 118.197 130.495 118.265 130.443L120.648 129.059C120.696 129.032 120.749 129.016 120.804 129.013C120.859 129.01 120.914 129.02 120.964 129.042V129.068ZM123.766 130.691L125.688 131.793C125.765 131.844 125.757 131.921 125.688 131.981L123.305 133.356C123.256 133.382 123.202 133.395 123.147 133.395C123.092 133.395 123.038 133.382 122.989 133.356L121.067 132.254C120.99 132.203 120.998 132.126 121.067 132.066L123.45 130.691C123.497 130.661 123.55 130.644 123.605 130.639C123.66 130.635 123.715 130.644 123.766 130.665V130.691ZM108.774 133.04L106.861 131.938C106.775 131.887 106.784 131.81 106.861 131.75L109.244 130.375C109.293 130.349 109.347 130.336 109.402 130.336C109.457 130.336 109.511 130.349 109.56 130.375L111.499 131.451C111.576 131.503 111.568 131.579 111.499 131.639L109.116 133.015C109.064 133.045 109.005 133.06 108.945 133.06C108.885 133.06 108.826 133.045 108.774 133.015V133.04ZM84.8556 108.207L86.7776 109.318C86.8545 109.361 86.8459 109.446 86.7776 109.497L84.3943 110.873C84.3453 110.897 84.2911 110.91 84.2362 110.91C84.1813 110.91 84.1272 110.897 84.0782 110.873L82.1561 109.762C82.0793 109.762 82.0878 109.634 82.1561 109.583L84.5395 108.207C84.5825 108.181 84.6312 108.165 84.6817 108.16C84.7321 108.156 84.7829 108.163 84.8299 108.182L84.8556 108.207ZM88.2725 110.164L90.1946 111.274C90.2714 111.317 90.2629 111.402 90.1946 111.453L87.8112 112.829C87.7622 112.854 87.7081 112.866 87.6532 112.866C87.5983 112.866 87.5442 112.854 87.4952 112.829L85.5731 111.718C85.4962 111.718 85.5048 111.59 85.5731 111.539L87.9564 110.164C88.0282 110.129 88.1095 110.12 88.1871 110.138L88.2725 110.164ZM82.0793 106.593L83.9159 107.669C83.9928 107.72 83.9842 107.797 83.9159 107.857L81.5326 109.232C81.4838 109.258 81.4295 109.271 81.3745 109.271C81.3195 109.271 81.2653 109.258 81.2165 109.232L79.2944 108.13C79.2176 108.079 79.2261 108.002 79.2944 107.943L81.6778 106.567C81.7307 106.536 81.7912 106.519 81.8529 106.519C81.9146 106.519 81.9751 106.536 82.028 106.567L82.0793 106.593ZM96.1572 121.798L94.2351 120.688C94.1582 120.637 94.1668 120.56 94.2351 120.5L96.6184 119.125C96.6672 119.099 96.7215 119.086 96.7765 119.086C96.8315 119.086 96.8857 119.099 96.9345 119.125L98.8566 120.227C98.9335 120.278 98.9249 120.363 98.8566 120.414L96.4732 121.79C96.4157 121.819 96.3517 121.832 96.2873 121.829C96.223 121.826 96.1605 121.807 96.1059 121.773L96.1572 121.798ZM78.91 104.97C78.959 104.945 79.0132 104.932 79.0681 104.932C79.123 104.932 79.1771 104.945 79.2261 104.97L81.1481 106.08C81.225 106.08 81.2165 106.208 81.1481 106.26L78.7648 107.635C78.7158 107.66 78.6617 107.673 78.6068 107.673C78.5519 107.673 78.4977 107.66 78.4487 107.635L76.5267 106.524C76.4498 106.482 76.4584 106.396 76.5267 106.345L78.91 104.97ZM105.972 131.409L104.05 130.298C103.973 130.298 103.982 130.17 104.05 130.119L106.434 128.743C106.483 128.719 106.537 128.706 106.592 128.706C106.647 128.706 106.701 128.719 106.75 128.743L108.689 129.828C108.766 129.871 108.757 129.956 108.689 130.008L106.306 131.383C106.256 131.413 106.199 131.431 106.141 131.434C106.083 131.437 106.025 131.425 105.972 131.4V131.409ZM71.6063 111.565L69.6928 110.463C69.6073 110.411 69.6159 110.334 69.6928 110.275L72.0761 108.899C72.1264 108.874 72.182 108.86 72.2384 108.86C72.2948 108.86 72.3504 108.874 72.4007 108.899L74.3142 110.001C74.3996 110.053 74.3825 110.129 74.3142 110.189L71.9565 111.547C71.9043 111.58 71.8442 111.599 71.7826 111.6C71.7209 111.602 71.66 111.586 71.6063 111.556V111.565ZM77.8166 111.223L75.8946 110.112C75.8177 110.061 75.8262 109.984 75.8946 109.924L78.2779 108.549C78.3267 108.524 78.3809 108.51 78.4359 108.51C78.491 108.51 78.5452 108.524 78.594 108.549L80.4989 109.634C80.5758 109.685 80.5673 109.762 80.4989 109.822L78.1156 111.197C78.0696 111.22 78.0193 111.234 77.9679 111.237C77.9164 111.24 77.8649 111.232 77.8166 111.214V111.223ZM75.5016 106.952C75.5511 106.929 75.6051 106.917 75.6596 106.917C75.7142 106.917 75.7682 106.929 75.8177 106.952L77.7397 108.062C77.8166 108.105 77.8081 108.19 77.7397 108.242L75.3564 109.625C75.3076 109.651 75.2534 109.664 75.1984 109.664C75.1433 109.664 75.0891 109.651 75.0403 109.625L73.1183 108.523C73.0414 108.472 73.0499 108.387 73.1183 108.335L75.5016 106.952ZM74.9122 106.61L69.1204 109.95C69.0714 109.975 69.0173 109.988 68.9624 109.988C68.9075 109.988 68.8534 109.975 68.8044 109.95L66.8909 108.839C66.8054 108.797 66.814 108.711 66.8909 108.66L72.6826 105.32C72.7309 105.293 72.7853 105.279 72.8406 105.279C72.896 105.279 72.9504 105.293 72.9987 105.32L74.9207 106.431C75.0147 106.448 75.0062 106.533 74.9122 106.584V106.61ZM81.4215 110.172L83.3435 111.283C83.4204 111.283 83.4119 111.411 83.3435 111.462L80.9602 112.837C80.9112 112.862 80.8571 112.875 80.8022 112.875C80.7473 112.875 80.6931 112.862 80.6441 112.837L78.7221 111.727C78.6452 111.684 78.6538 111.599 78.7221 111.547L81.1054 110.172C81.1524 110.143 81.2055 110.126 81.2604 110.121C81.3153 110.117 81.3705 110.126 81.4215 110.146V110.172ZM102.513 122.354L104.418 123.43C104.495 123.481 104.486 123.558 104.418 123.618L102.034 124.993C101.986 125.019 101.931 125.032 101.876 125.032C101.821 125.032 101.767 125.019 101.718 124.993L99.7962 123.891C99.7193 123.84 99.7279 123.763 99.7962 123.703L102.18 122.328C102.23 122.3 102.288 122.285 102.346 122.285C102.404 122.285 102.462 122.3 102.513 122.328V122.354ZM74.7243 113.188C74.6753 113.212 74.6211 113.225 74.5662 113.225C74.5113 113.225 74.4572 113.212 74.4082 113.188L72.4947 112.077C72.4093 112.034 72.4178 111.949 72.4947 111.898L74.878 110.522C74.9279 110.495 74.9837 110.481 75.0403 110.481C75.097 110.481 75.1528 110.495 75.2026 110.522L77.1161 111.633C77.2015 111.633 77.1845 111.761 77.1161 111.812L74.7243 113.188ZM99.7108 120.731L101.633 121.841C101.71 121.884 101.701 121.969 101.633 122.02L99.2495 123.396C99.2005 123.421 99.1464 123.433 99.0915 123.433C99.0366 123.433 98.9824 123.421 98.9334 123.396L97.0114 122.285C96.9345 122.285 96.9431 122.157 97.0114 122.106L99.3947 120.731C99.4417 120.702 99.4948 120.684 99.5497 120.68C99.6046 120.675 99.6598 120.684 99.7108 120.705V120.731ZM120.298 139.524C120.249 139.549 120.195 139.562 120.14 139.562C120.085 139.562 120.031 139.549 119.982 139.524L118.068 138.413C117.983 138.371 117.992 138.285 118.068 138.234L120.452 136.859C120.502 136.834 120.558 136.821 120.614 136.821C120.67 136.821 120.726 136.834 120.776 136.859L122.69 137.969C122.775 138.012 122.758 138.097 122.69 138.148L120.298 139.524ZM124.919 135.27L126.833 136.372C126.918 136.423 126.901 136.5 126.833 136.56L124.45 137.935C124.401 137.96 124.347 137.974 124.292 137.974C124.237 137.974 124.182 137.96 124.134 137.935L122.22 136.833C122.135 136.782 122.143 136.705 122.22 136.645L124.603 135.27C124.653 135.246 124.707 135.233 124.761 135.233C124.816 135.233 124.87 135.246 124.919 135.27V135.27ZM117.163 137.832L115.249 136.73C115.164 136.679 115.173 136.602 115.249 136.543L117.633 135.167C117.683 135.142 117.739 135.128 117.795 135.128C117.851 135.128 117.907 135.142 117.957 135.167L119.871 136.269C119.956 136.32 119.939 136.397 119.871 136.457L117.488 137.832C117.443 137.862 117.391 137.88 117.338 137.886C117.284 137.892 117.23 137.885 117.18 137.867L117.163 137.832ZM114.361 136.218L112.448 135.116C112.362 135.065 112.371 134.979 112.448 134.928L114.831 133.553C114.882 133.53 114.937 133.518 114.993 133.518C115.049 133.518 115.105 133.53 115.155 133.553L117.069 134.663C117.154 134.706 117.137 134.791 117.069 134.843L114.686 136.226C114.64 136.255 114.588 136.272 114.535 136.276C114.482 136.28 114.428 136.272 114.378 136.252L114.361 136.218ZM111.559 134.603L109.646 133.493C109.56 133.45 109.569 133.365 109.646 133.313L112.029 131.93C112.079 131.904 112.135 131.891 112.191 131.891C112.248 131.891 112.303 131.904 112.354 131.93L114.267 133.04C114.352 133.083 114.335 133.168 114.267 133.22L111.884 134.595C111.838 134.623 111.788 134.642 111.735 134.649C111.682 134.657 111.628 134.653 111.576 134.638L111.559 134.603ZM122.118 133.612L124.031 134.723C124.116 134.723 124.099 134.851 124.031 134.902L121.648 136.286C121.599 136.312 121.545 136.325 121.49 136.325C121.435 136.325 121.38 136.312 121.332 136.286L119.418 135.184C119.333 135.133 119.341 135.048 119.418 134.996L121.801 133.621C121.855 133.601 121.913 133.592 121.971 133.597C122.029 133.601 122.084 133.618 122.135 133.647L122.118 133.612ZM119.316 131.998L121.246 133.16C121.332 133.202 121.315 133.288 121.246 133.339L118.863 134.714C118.814 134.739 118.76 134.752 118.705 134.752C118.65 134.752 118.596 134.739 118.547 134.714L116.633 133.604C116.548 133.561 116.556 133.476 116.633 133.425L119.017 132.049C119.064 132.021 119.118 132.005 119.173 132.002C119.228 131.999 119.283 132.009 119.333 132.032L119.316 131.998ZM108.099 125.523L110.021 126.633C110.098 126.633 110.09 126.761 110.021 126.813L107.638 128.197C107.589 128.222 107.535 128.235 107.48 128.235C107.425 128.235 107.371 128.222 107.322 128.197L105.4 127.095C105.323 127.043 105.332 126.958 105.4 126.907L107.835 125.574C107.923 125.532 108.024 125.526 108.117 125.557L108.099 125.523ZM110.901 127.146L112.823 128.248C112.9 128.299 112.892 128.385 112.823 128.436L110.44 129.811C110.391 129.834 110.337 129.846 110.282 129.846C110.227 129.846 110.174 129.834 110.124 129.811L108.211 128.701C108.125 128.649 108.134 128.572 108.211 128.513L110.602 127.18C110.651 127.155 110.705 127.141 110.76 127.141C110.815 127.141 110.87 127.155 110.918 127.18L110.901 127.146ZM105.298 123.908L107.22 125.019C107.296 125.062 107.288 125.147 107.22 125.198L104.836 126.574C104.787 126.598 104.733 126.611 104.678 126.611C104.623 126.611 104.569 126.598 104.52 126.574L102.598 125.463C102.521 125.42 102.53 125.335 102.598 125.284L104.981 123.908C105.029 123.893 105.08 123.888 105.13 123.894C105.181 123.9 105.229 123.916 105.272 123.942L105.298 123.908ZM116.514 130.383L118.427 131.485C118.513 131.537 118.496 131.614 118.427 131.673L116.044 133.049C115.995 133.074 115.941 133.087 115.886 133.087C115.831 133.087 115.777 133.074 115.728 133.049L113.814 131.947C113.729 131.895 113.737 131.819 113.814 131.759L116.198 130.383C116.252 130.362 116.31 130.353 116.368 130.359C116.427 130.365 116.482 130.385 116.531 130.418L116.514 130.383ZM113.712 128.76L115.625 129.871C115.711 129.914 115.694 129.999 115.625 130.05L113.242 131.426C113.193 131.45 113.139 131.463 113.084 131.463C113.029 131.463 112.975 131.45 112.926 131.426L111.012 130.315C110.927 130.315 110.936 130.187 111.012 130.136L113.396 128.76C113.45 128.739 113.509 128.731 113.566 128.737C113.624 128.743 113.68 128.763 113.729 128.795L113.712 128.76ZM115.087 140.566L113.165 139.464C113.088 139.413 113.097 139.336 113.165 139.276L115.548 137.901C115.597 137.875 115.651 137.862 115.706 137.862C115.761 137.862 115.816 137.875 115.865 137.901L117.787 139.003C117.863 139.054 117.855 139.131 117.787 139.191L115.403 140.566C115.359 140.594 115.31 140.612 115.258 140.618C115.206 140.624 115.153 140.618 115.104 140.6L115.087 140.566ZM132.257 138.49L134.641 137.115C134.69 137.09 134.744 137.077 134.799 137.077C134.854 137.077 134.908 137.09 134.957 137.115L136.879 138.285C136.956 138.328 136.947 138.413 136.879 138.465L134.496 139.84C134.447 139.865 134.392 139.878 134.337 139.878C134.283 139.878 134.228 139.865 134.179 139.84L132.257 138.729C132.172 138.661 132.181 138.576 132.274 138.524L132.257 138.49ZM127.815 139.857L130.207 138.482C130.256 138.456 130.31 138.443 130.365 138.443C130.42 138.443 130.474 138.456 130.523 138.482L133.47 140.19C133.556 140.233 133.539 140.318 133.47 140.37L131.087 141.753C131.038 141.779 130.984 141.792 130.929 141.792C130.874 141.792 130.82 141.779 130.771 141.753L127.824 140.045C127.73 139.994 127.738 139.994 127.832 139.891L127.815 139.857ZM135.948 135.842L138.331 134.467C138.38 134.441 138.434 134.428 138.489 134.428C138.544 134.428 138.598 134.441 138.647 134.467L141.013 135.825C141.09 135.876 141.082 135.953 141.013 136.013L138.587 137.431C138.539 137.456 138.484 137.47 138.429 137.47C138.374 137.47 138.32 137.456 138.271 137.431L135.905 136.073C135.862 136.013 135.871 135.936 135.965 135.876L135.948 135.842ZM134.137 134.8C134.088 134.825 134.034 134.838 133.979 134.838C133.924 134.838 133.87 134.825 133.821 134.8L131.907 133.689C131.822 133.647 131.83 133.561 131.907 133.51L134.299 132.135C134.348 132.11 134.402 132.097 134.457 132.097C134.512 132.097 134.566 132.11 134.615 132.135L136.529 133.245C136.614 133.288 136.605 133.373 136.529 133.425L134.137 134.8ZM123.672 141.403L126.064 140.019C126.113 139.994 126.167 139.981 126.222 139.981C126.277 139.981 126.331 139.994 126.38 140.019L130.045 142.172C130.13 142.223 130.122 142.3 130.045 142.36L127.662 143.735C127.611 143.761 127.556 143.774 127.499 143.774C127.443 143.774 127.387 143.761 127.337 143.735L123.655 141.608C123.587 141.574 123.595 141.489 123.689 141.437L123.672 141.403ZM121.596 144.137L123.98 142.753C124.029 142.727 124.083 142.714 124.138 142.714C124.193 142.714 124.247 142.727 124.296 142.753L126.662 144.111C126.739 144.162 126.73 144.239 126.662 144.299L124.279 145.674C124.23 145.7 124.176 145.713 124.121 145.713C124.066 145.713 124.012 145.7 123.963 145.674L121.596 144.316C121.503 144.265 121.502 144.265 121.614 144.171L121.596 144.137ZM113.302 122.781C113.252 122.804 113.198 122.816 113.144 122.816C113.089 122.816 113.035 122.804 112.986 122.781L111.072 121.67C110.987 121.67 110.995 121.542 111.072 121.491L113.456 120.107C113.506 120.081 113.561 120.068 113.618 120.068C113.674 120.068 113.73 120.081 113.78 120.107L115.694 121.209C115.779 121.26 115.762 121.346 115.694 121.397L113.302 122.781ZM118.94 126.044C118.891 126.069 118.837 126.083 118.782 126.083C118.727 126.083 118.672 126.069 118.624 126.044L116.71 124.942C116.625 124.891 116.633 124.814 116.71 124.754L119.102 123.379C119.151 123.353 119.205 123.34 119.26 123.34C119.315 123.34 119.369 123.353 119.418 123.379L121.332 124.481C121.417 124.532 121.409 124.609 121.332 124.669L118.94 126.044ZM131.369 133.22C131.32 133.245 131.266 133.258 131.211 133.258C131.156 133.258 131.102 133.245 131.053 133.22L129.139 132.118C129.054 132.066 129.063 131.989 129.139 131.93L131.523 130.597C131.573 130.571 131.629 130.558 131.685 130.558C131.741 130.558 131.797 130.571 131.847 130.597L133.761 131.699C133.846 131.75 133.829 131.827 133.761 131.887L131.369 133.22ZM116.138 124.421C116.09 124.448 116.035 124.462 115.98 124.462C115.925 124.462 115.87 124.448 115.822 124.421L113.908 123.31C113.823 123.268 113.831 123.182 113.908 123.131L116.3 121.756C116.349 121.731 116.403 121.718 116.458 121.718C116.513 121.718 116.567 121.731 116.616 121.756L118.53 122.866C118.615 122.909 118.607 122.994 118.53 123.046L116.138 124.421ZM121.75 127.658C121.7 127.683 121.644 127.696 121.588 127.696C121.532 127.696 121.476 127.683 121.426 127.658L119.512 126.548C119.427 126.505 119.444 126.42 119.512 126.369L121.895 124.993C121.944 124.968 121.999 124.956 122.053 124.956C122.108 124.956 122.163 124.968 122.212 124.993L124.125 126.104C124.21 126.104 124.202 126.232 124.125 126.283L121.75 127.658ZM120.042 144.419C120.092 144.394 120.148 144.381 120.204 144.381C120.26 144.381 120.316 144.394 120.366 144.419L123.313 146.127C123.39 146.127 123.382 146.255 123.313 146.307L120.93 147.682C120.881 147.705 120.827 147.717 120.772 147.717C120.718 147.717 120.664 147.705 120.614 147.682L117.667 145.973C117.582 145.931 117.59 145.845 117.667 145.794L120.042 144.419ZM125.774 129.982C125.724 130.005 125.67 130.017 125.616 130.017C125.561 130.017 125.507 130.005 125.458 129.982L123.544 128.871C123.459 128.82 123.467 128.743 123.544 128.692L125.927 127.308C125.978 127.283 126.033 127.269 126.09 127.269C126.146 127.269 126.202 127.283 126.252 127.308L128.166 128.41C128.251 128.461 128.234 128.547 128.166 128.598L125.774 129.982ZM128.576 131.596C128.527 131.621 128.472 131.634 128.418 131.634C128.363 131.634 128.309 131.621 128.26 131.596L126.346 130.486C126.261 130.486 126.269 130.358 126.346 130.307L128.729 128.931C128.78 128.906 128.835 128.893 128.892 128.893C128.948 128.893 129.003 128.906 129.054 128.931L130.967 130.042C131.053 130.084 131.036 130.17 130.967 130.221L128.576 131.596ZM68.1124 114.443C68.1619 114.42 68.2159 114.408 68.2705 114.408C68.325 114.408 68.379 114.42 68.4285 114.443L73.1524 117.168C73.2293 117.22 73.2208 117.296 73.1524 117.356L70.7691 118.732C70.7196 118.755 70.6657 118.766 70.6111 118.766C70.5565 118.766 70.5026 118.755 70.453 118.732L65.7291 116.007C65.6522 115.955 65.6608 115.87 65.7291 115.819L68.1124 114.443ZM74.3057 118.023C74.3547 117.998 74.4088 117.985 74.4637 117.985C74.5186 117.985 74.5727 117.998 74.6217 118.023L76.5438 119.133C76.6207 119.176 76.6121 119.261 76.5438 119.312L74.1605 120.688C74.1115 120.713 74.0573 120.725 74.0024 120.725C73.9475 120.725 73.8934 120.713 73.8444 120.688L71.9223 119.577C71.8455 119.577 71.854 119.449 71.9223 119.398L74.3057 118.023ZM112.328 138.986L110.406 137.875C110.329 137.832 110.338 137.747 110.406 137.696L112.789 136.32C112.838 136.296 112.892 136.283 112.947 136.283C113.002 136.283 113.056 136.296 113.105 136.32L115.027 137.431C115.104 137.474 115.096 137.559 115.027 137.61L112.644 138.986C112.593 139.017 112.534 139.034 112.473 139.034C112.413 139.034 112.354 139.017 112.302 138.986H112.328ZM79.9095 121.252C79.9583 121.226 80.0125 121.213 80.0675 121.213C80.1226 121.213 80.1768 121.226 80.2256 121.252L82.1476 122.354C82.2245 122.405 82.2159 122.49 82.1476 122.542L79.7643 123.917C79.7147 123.94 79.6608 123.952 79.6062 123.952C79.5517 123.952 79.4977 123.94 79.4482 123.917L77.5262 122.806C77.4493 122.806 77.4578 122.678 77.5262 122.627L79.9095 121.252ZM65.3105 112.829C65.3588 112.802 65.4132 112.788 65.4685 112.788C65.5239 112.788 65.5783 112.802 65.6266 112.829L67.5486 113.939C67.6255 113.982 67.617 114.067 67.5486 114.119L65.1226 115.477C65.0736 115.502 65.0194 115.515 64.9645 115.515C64.9096 115.515 64.8555 115.502 64.8065 115.477L62.8845 114.366C62.8076 114.324 62.8161 114.238 62.8845 114.187L65.3105 112.829ZM60.1253 112.581L65.8914 109.241C65.9409 109.218 65.9949 109.206 66.0494 109.206C66.104 109.206 66.1579 109.218 66.2075 109.241L68.121 110.351C68.2064 110.394 68.1978 110.48 68.121 110.531L62.3292 113.88C62.2804 113.905 62.2262 113.918 62.1712 113.918C62.1161 113.918 62.0619 113.905 62.0131 113.88L60.0911 112.778C59.9971 112.718 59.9971 112.658 60.0996 112.581H60.1253ZM90.3825 127.3C90.4313 127.274 90.4855 127.261 90.5405 127.261C90.5956 127.261 90.6498 127.274 90.6986 127.3L93.0648 128.658C93.1417 128.709 93.1332 128.786 93.0648 128.846L90.6815 130.221C90.6327 130.247 90.5785 130.26 90.5234 130.26C90.4684 130.26 90.4142 130.247 90.3654 130.221L87.9992 128.863C87.9223 128.812 87.9308 128.735 87.9992 128.675L90.3825 127.3ZM83.3008 123.216C83.3513 123.191 83.4069 123.179 83.4631 123.179C83.5194 123.179 83.575 123.191 83.6254 123.216L86.5726 124.925C86.6495 124.976 86.6409 125.062 86.5726 125.113L84.1892 126.488C84.1397 126.511 84.0858 126.523 84.0312 126.523C83.9766 126.523 83.9227 126.511 83.8732 126.488L80.926 124.78C80.8406 124.737 80.8492 124.651 80.926 124.6L83.3008 123.216ZM96.8747 131.05C96.9237 131.025 96.9779 131.012 97.0328 131.012C97.0877 131.012 97.1418 131.025 97.1908 131.05L112.96 140.147C113.046 140.19 113.037 140.276 112.96 140.327L110.577 141.702C110.526 141.727 110.471 141.74 110.414 141.74C110.358 141.74 110.303 141.727 110.252 141.702L94.4743 132.587C94.3889 132.587 94.406 132.459 94.4743 132.408L96.8747 131.05ZM113.541 140.669C113.59 140.643 113.644 140.63 113.699 140.63C113.754 140.63 113.808 140.643 113.857 140.669L116.215 142.027C116.3 142.078 116.292 142.155 116.215 142.215L113.823 143.59C113.774 143.615 113.72 143.629 113.665 143.629C113.61 143.629 113.556 143.615 113.507 143.59L111.149 142.232C111.064 142.181 111.081 142.104 111.149 142.044L113.541 140.669ZM93.6286 129.17C93.6774 129.145 93.7316 129.132 93.7866 129.132C93.8417 129.132 93.8959 129.145 93.9447 129.17L96.3024 130.529C96.3878 130.58 96.3793 130.657 96.3024 130.717L93.9191 132.092C93.8681 132.115 93.8127 132.127 93.7567 132.127C93.7008 132.127 93.6454 132.115 93.5944 132.092L91.2367 130.725C91.1599 130.725 91.1684 130.597 91.2367 130.546L93.6286 129.17ZM116.761 142.556C116.81 142.531 116.864 142.518 116.919 142.518C116.975 142.518 117.029 142.531 117.078 142.556L119.435 143.915C119.521 143.966 119.504 144.043 119.435 144.103L117.052 145.478C117.002 145.501 116.948 145.513 116.894 145.513C116.839 145.513 116.785 145.501 116.736 145.478L114.378 144.111C114.293 144.068 114.301 143.983 114.378 143.932L116.761 142.556ZM87.1108 125.472C87.1597 125.447 87.2139 125.434 87.2688 125.434C87.3237 125.434 87.3778 125.447 87.4268 125.472L89.7931 126.838C89.87 126.881 89.8614 126.966 89.7931 127.018L87.4097 128.393C87.3607 128.418 87.3066 128.431 87.2517 128.431C87.1968 128.431 87.1427 128.418 87.0937 128.393L84.7274 127.026C84.6505 126.984 84.6591 126.898 84.7274 126.847L87.1108 125.472ZM77.082 119.637C77.1315 119.614 77.1854 119.602 77.24 119.602C77.2946 119.602 77.3485 119.614 77.398 119.637L79.3201 120.748C79.3969 120.799 79.3884 120.876 79.3201 120.927L76.9367 122.311C76.8879 122.336 76.8337 122.35 76.7787 122.35C76.7237 122.35 76.6695 122.336 76.6207 122.311L74.6986 121.209C74.6217 121.158 74.6303 121.072 74.6986 121.021L77.082 119.637ZM70.9998 115.144L69.0863 114.033C69.0008 113.991 69.0179 113.905 69.0863 113.854L71.4696 112.479C71.5186 112.454 71.5727 112.441 71.6276 112.441C71.6825 112.441 71.7367 112.454 71.7857 112.479L73.6992 113.589C73.7846 113.632 73.776 113.717 73.6992 113.768L71.3158 115.144C71.2665 115.167 71.2125 115.18 71.1578 115.18C71.1031 115.18 71.0491 115.167 70.9998 115.144V115.144ZM84.0099 114.785L82.0963 113.683C82.0109 113.632 82.0195 113.546 82.0963 113.495L84.4797 112.12C84.5307 112.097 84.586 112.085 84.642 112.085C84.698 112.085 84.7533 112.097 84.8043 112.12L86.7178 113.23C86.8032 113.282 86.7861 113.358 86.7178 113.41L84.3345 114.794C84.2839 114.819 84.2277 114.832 84.1711 114.83C84.1144 114.829 84.059 114.813 84.0099 114.785V114.785ZM89.8956 126.044L84.2918 122.806C84.2149 122.806 84.2234 122.678 84.2918 122.627L86.6751 121.243C86.7239 121.218 86.7781 121.204 86.8331 121.204C86.8881 121.204 86.9424 121.218 86.9912 121.243L92.595 124.481C92.6804 124.481 92.6719 124.609 92.595 124.66L90.2116 126.035C90.1629 126.06 90.1093 126.074 90.0546 126.075C89.9999 126.077 89.9456 126.066 89.8956 126.044V126.044ZM74.1434 116.75C74.0931 116.775 74.0375 116.789 73.9811 116.789C73.9247 116.789 73.869 116.775 73.8187 116.75L71.9053 115.648C71.8198 115.597 71.8369 115.52 71.9053 115.46L74.2886 114.085C74.3374 114.059 74.3916 114.046 74.4466 114.046C74.5016 114.046 74.5559 114.059 74.6047 114.085L76.5267 115.221C76.6121 115.272 76.6036 115.349 76.5267 115.409L74.1434 116.75ZM77.2272 114.794L75.3137 113.692C75.2282 113.64 75.2368 113.555 75.3137 113.504L77.7055 112.128C77.7551 112.105 77.809 112.093 77.8636 112.093C77.9182 112.093 77.9721 112.105 78.0216 112.128L79.9351 113.239C80.0205 113.282 80.012 113.367 79.9351 113.418L77.5518 114.802C77.4991 114.831 77.4398 114.845 77.3798 114.844C77.3198 114.842 77.2613 114.825 77.2101 114.794H77.2272ZM92.6975 127.658L90.784 126.556C90.6986 126.505 90.7156 126.428 90.784 126.369L93.1673 124.993C93.2168 124.97 93.2708 124.958 93.3254 124.958C93.3799 124.958 93.4339 124.97 93.4834 124.993L95.3969 126.104C95.4823 126.155 95.4738 126.232 95.3969 126.292L93.0135 127.667C92.9615 127.693 92.9039 127.705 92.8459 127.704C92.7879 127.702 92.7311 127.687 92.6804 127.658H92.6975ZM80.3195 120.346C80.2712 120.373 80.2168 120.387 80.1615 120.387C80.1062 120.387 80.0518 120.373 80.0035 120.346L78.0814 119.236C78.0045 119.193 78.0131 119.107 78.0814 119.056L80.4989 117.672C80.5479 117.648 80.602 117.635 80.657 117.635C80.7119 117.635 80.766 117.648 80.815 117.672L82.737 118.783C82.8139 118.783 82.8054 118.911 82.737 118.962L80.3195 120.346ZM106.698 135.722L104.776 134.62C104.7 134.569 104.708 134.492 104.776 134.433L107.16 133.057C107.209 133.034 107.263 133.022 107.318 133.022C107.372 133.022 107.426 133.034 107.476 133.057L109.398 134.168C109.475 134.219 109.466 134.296 109.398 134.356L106.98 135.722C106.936 135.743 106.888 135.753 106.839 135.753C106.791 135.753 106.743 135.743 106.698 135.722V135.722ZM103.897 134.108L101.975 132.997C101.898 132.955 101.906 132.869 101.975 132.818L104.418 131.451C104.467 131.426 104.521 131.414 104.576 131.414C104.631 131.414 104.685 131.426 104.734 131.451L106.656 132.562C106.733 132.562 106.724 132.69 106.656 132.741L104.272 134.116C104.218 134.155 104.154 134.177 104.087 134.18C104.02 134.183 103.954 134.167 103.897 134.134V134.108ZM109.5 137.346L107.578 136.235C107.501 136.235 107.51 136.107 107.578 136.056L109.962 134.672C110.01 134.646 110.065 134.633 110.12 134.633C110.175 134.633 110.229 134.646 110.278 134.672L112.2 135.774C112.277 135.825 112.268 135.91 112.2 135.962L109.816 137.337C109.769 137.365 109.717 137.383 109.662 137.389C109.608 137.395 109.552 137.389 109.5 137.371V137.346ZM98.2842 130.87L96.3707 129.76C96.2938 129.717 96.3024 129.632 96.3707 129.58L98.7541 128.205C98.803 128.18 98.8572 128.167 98.9121 128.167C98.967 128.167 99.0211 128.18 99.0701 128.205L100.984 129.316C101.069 129.358 101.061 129.444 100.984 129.495L98.6003 130.87C98.5536 130.9 98.5005 130.918 98.4454 130.922C98.3904 130.927 98.3351 130.918 98.2842 130.896V130.87ZM101.095 132.485L99.1726 131.383C99.0958 131.332 99.1043 131.255 99.1726 131.195L101.556 129.82C101.605 129.794 101.659 129.781 101.714 129.781C101.769 129.781 101.823 129.794 101.872 129.82L103.794 130.922C103.871 130.973 103.862 131.05 103.794 131.11L101.411 132.485C101.364 132.514 101.311 132.532 101.256 132.537C101.201 132.541 101.146 132.532 101.095 132.511V132.485ZM95.4823 129.256L93.5688 128.145C93.4834 128.145 93.5005 128.017 93.5688 127.966L95.9521 126.582C96.0009 126.557 96.0551 126.543 96.1102 126.543C96.1652 126.543 96.2194 126.557 96.2682 126.582L98.1817 127.684C98.2671 127.735 98.2586 127.821 98.1817 127.872L95.7984 129.247C95.751 129.275 95.6984 129.292 95.644 129.298C95.5895 129.304 95.5345 129.298 95.4823 129.281V129.256ZM83.745 104.696C83.6962 104.722 83.642 104.735 83.587 104.735C83.532 104.735 83.4778 104.722 83.429 104.696L81.5069 103.594C81.43 103.543 81.4386 103.466 81.5069 103.407L82.1391 103.039C82.1894 103.014 82.245 103 82.3014 103C82.3578 103 82.4134 103.014 82.4637 103.039L84.3772 104.15C84.4626 104.192 84.4455 104.278 84.3772 104.329L83.745 104.696ZM97.4727 113.632C97.4239 113.657 97.3697 113.671 97.3147 113.671C97.2596 113.671 97.2054 113.657 97.1566 113.632L95.2346 112.53C95.1577 112.479 95.1662 112.402 95.2346 112.342L97.6179 110.967C97.6667 110.941 97.7209 110.928 97.776 110.928C97.831 110.928 97.8852 110.941 97.934 110.967L99.856 112.069C99.9329 112.12 99.9244 112.197 99.856 112.256L97.4727 113.632ZM91.8689 110.394C91.8193 110.417 91.7654 110.429 91.7108 110.429C91.6563 110.429 91.6023 110.417 91.5528 110.394L89.6308 109.284C89.5539 109.284 89.5624 109.156 89.6308 109.104L92.0141 107.72C92.0629 107.695 92.1171 107.682 92.1721 107.682C92.2271 107.682 92.2814 107.695 92.3302 107.72L94.2522 108.822C94.3291 108.874 94.3205 108.959 94.2522 109.01L91.8689 110.394ZM100.89 115.605C100.84 115.628 100.786 115.64 100.732 115.64C100.677 115.64 100.623 115.628 100.574 115.605L98.6601 114.495C98.5747 114.495 98.5917 114.366 98.6601 114.315L101.043 112.931C101.092 112.906 101.146 112.893 101.201 112.893C101.256 112.893 101.311 112.906 101.359 112.931L103.273 114.033C103.358 114.085 103.35 114.17 103.273 114.221L100.89 115.605ZM94.6708 112.009C94.6225 112.036 94.5681 112.05 94.5127 112.05C94.4574 112.05 94.403 112.036 94.3547 112.009L92.4583 110.949C92.3814 110.907 92.39 110.821 92.4583 110.77L94.8416 109.395C94.8906 109.37 94.9448 109.357 94.9997 109.357C95.0546 109.357 95.1087 109.37 95.1577 109.395L97.0797 110.505C97.1566 110.548 97.1481 110.633 97.0797 110.685L94.6708 112.009ZM106.502 118.843C106.452 118.868 106.396 118.881 106.34 118.881C106.283 118.881 106.228 118.868 106.177 118.843L104.264 117.741C104.178 117.689 104.196 117.613 104.264 117.553L106.647 116.177C106.696 116.152 106.75 116.139 106.805 116.139C106.86 116.139 106.915 116.152 106.963 116.177L108.877 117.279C108.962 117.331 108.954 117.408 108.877 117.467L106.502 118.843ZM103.7 117.228C103.65 117.254 103.594 117.267 103.538 117.267C103.481 117.267 103.426 117.254 103.375 117.228L101.462 116.118C101.377 116.075 101.394 115.989 101.462 115.938L103.845 114.563C103.894 114.538 103.948 114.525 104.003 114.525C104.058 114.525 104.112 114.538 104.161 114.563L106.075 115.673C106.16 115.673 106.152 115.802 106.075 115.853L103.7 117.228ZM89.3489 107.934C89.3001 107.959 89.2459 107.973 89.1908 107.973C89.1358 107.973 89.0816 107.959 89.0328 107.934L87.1193 106.832C87.0339 106.781 87.0424 106.695 87.1193 106.644L87.7514 106.277C87.8017 106.251 87.8573 106.238 87.9137 106.238C87.9701 106.238 88.0257 106.251 88.076 106.277L89.9895 107.379C90.075 107.43 90.0579 107.507 89.9895 107.567L89.3489 107.934ZM80.9431 103.073C80.8948 103.1 80.8404 103.114 80.7851 103.114C80.7298 103.114 80.6754 103.1 80.6271 103.073L78.705 101.963C78.6281 101.92 78.6367 101.835 78.705 101.783L79.3372 101.416C79.3875 101.391 79.4431 101.377 79.4995 101.377C79.5559 101.377 79.6115 101.391 79.6618 101.416L81.5753 102.518C81.6607 102.569 81.6436 102.646 81.5753 102.706L80.9431 103.073ZM75.9373 105.969C75.8878 105.992 75.8338 106.004 75.7792 106.004C75.7247 106.004 75.6707 105.992 75.6212 105.969L73.6992 104.859C73.6223 104.807 73.6308 104.731 73.6992 104.671L76.0825 103.295C76.1313 103.27 76.1855 103.257 76.2405 103.257C76.2956 103.257 76.3498 103.27 76.3986 103.295L78.3206 104.397C78.3975 104.449 78.3889 104.526 78.3206 104.585L75.9373 105.969ZM68.1979 113.512L66.2843 112.402C66.1989 112.35 66.216 112.274 66.2843 112.214L68.6677 110.838C68.7165 110.813 68.7707 110.8 68.8257 110.8C68.8807 110.8 68.935 110.813 68.9838 110.838L70.8972 111.94C70.9827 111.992 70.9741 112.069 70.8972 112.128L68.5395 113.512C68.4863 113.538 68.4279 113.551 68.3687 113.551C68.3095 113.551 68.2511 113.538 68.1979 113.512ZM86.5469 106.319C86.498 106.344 86.4438 106.357 86.3889 106.357C86.334 106.357 86.2799 106.344 86.2309 106.319L84.3088 105.209C84.232 105.209 84.2405 105.081 84.3088 105.03L84.941 104.662C84.9915 104.637 85.047 104.624 85.1033 104.624C85.1596 104.624 85.2151 104.637 85.2656 104.662L87.1791 105.773C87.2645 105.773 87.2474 105.901 87.1791 105.952L86.5469 106.319ZM109.304 120.466C109.253 120.491 109.198 120.504 109.142 120.504C109.085 120.504 109.03 120.491 108.979 120.466L107.066 119.355C106.98 119.355 106.997 119.227 107.066 119.176L109.449 117.8C109.498 117.776 109.552 117.763 109.607 117.763C109.662 117.763 109.716 117.776 109.765 117.8L111.679 118.911C111.764 118.911 111.756 119.039 111.679 119.09L109.304 120.466Z" fill="#F2768F"/>
<path d="M162.31 131.246C162.891 130.854 163.379 130.338 163.738 129.736C164.097 129.133 164.318 128.459 164.386 127.761L167.965 67.8786C167.967 67.1452 167.78 66.4236 167.423 65.7832C167.065 65.1428 166.549 64.6053 165.923 64.2225L96.7296 24.2525C96.1336 23.9619 95.4792 23.8108 94.8161 23.8108C94.153 23.8108 93.4986 23.9619 92.9026 24.2525C92.3218 24.6472 91.8348 25.1648 91.476 25.7685C91.1173 26.3723 90.8957 27.0475 90.8268 27.7464L87.2476 87.6287C87.2484 88.3351 87.4244 89.0303 87.7598 89.6519C88.0953 90.2736 88.5796 90.8024 89.1696 91.1909L158.363 131.161C158.969 131.48 159.641 131.654 160.326 131.669C161.011 131.684 161.69 131.539 162.31 131.246V131.246Z" fill="#F2768F"/>
<path opacity="0.4" d="M162.31 131.246C162.891 130.854 163.379 130.338 163.738 129.736C164.097 129.133 164.318 128.459 164.386 127.761L167.965 67.8786C167.967 67.1452 167.78 66.4236 167.423 65.7832C167.065 65.1428 166.549 64.6053 165.923 64.2225L96.7296 24.2525C96.1336 23.9619 95.4792 23.8108 94.8161 23.8108C94.153 23.8108 93.4986 23.9619 92.9026 24.2525C92.3218 24.6472 91.8348 25.1648 91.476 25.7685C91.1173 26.3723 90.8957 27.0475 90.8268 27.7464L87.2476 87.6287C87.2484 88.3351 87.4244 89.0303 87.7598 89.6519C88.0953 90.2736 88.5796 90.8024 89.1696 91.1909L158.363 131.161C158.969 131.48 159.641 131.654 160.326 131.669C161.011 131.684 161.69 131.539 162.31 131.246V131.246Z" fill="white"/>
<path d="M162.19 66.5288L92.9964 26.5589C92.7894 26.3869 92.5357 26.2807 92.268 26.254C92.0002 26.2273 91.7306 26.2812 91.4937 26.4088C91.2568 26.5364 91.0635 26.732 90.9385 26.9703C90.8135 27.2086 90.7627 27.4788 90.7924 27.7463L87.2132 87.6286C87.214 88.335 87.39 89.0301 87.7254 89.6518C88.0609 90.2735 88.5452 90.8022 89.1352 91.1908L158.329 131.161C158.536 131.33 158.789 131.433 159.055 131.459C159.321 131.484 159.589 131.429 159.824 131.302C160.059 131.175 160.251 130.981 160.376 130.744C160.501 130.507 160.552 130.239 160.524 129.973L164.103 70.0825C164.108 69.3771 163.936 68.6819 163.601 68.0609C163.267 67.4399 162.781 66.913 162.19 66.5288V66.5288Z" fill="#F2768F"/>
<path d="M160.55 67.9725L94.0984 29.6085C93.9333 29.4705 93.7306 29.3851 93.5166 29.3634C93.3025 29.3417 93.0868 29.3846 92.8974 29.4867C92.708 29.5888 92.5535 29.7453 92.4539 29.936C92.3543 30.1267 92.3142 30.3429 92.3386 30.5567L89.2207 82.7594C89.2212 83.3229 89.3611 83.8774 89.6279 84.3737C89.8947 84.8701 90.2801 85.2927 90.7497 85.604L156.689 123.686C156.856 123.821 157.059 123.904 157.273 123.925C157.487 123.945 157.702 123.902 157.891 123.801C158.081 123.7 158.236 123.545 158.338 123.356C158.441 123.167 158.485 122.952 158.465 122.738L162.062 70.8C162.068 70.2396 161.933 69.6866 161.668 69.1924C161.404 68.6981 161.019 68.2785 160.55 67.9725V67.9725Z" fill="white"/>
<path d="M74.092 1.46987V54.6635C74.1299 55.3766 74.3352 56.0707 74.6914 56.6896C75.0476 57.3085 75.5446 57.8347 76.1422 58.2257L137.648 93.7365C138.784 94.3942 139.698 93.8646 139.698 92.5491V39.3555C139.661 38.6422 139.456 37.9479 139.099 37.3289C138.743 36.7099 138.246 36.1837 137.648 35.7933L76.1422 0.282474C75.0061 -0.375292 74.092 0.154338 74.092 1.46987Z" fill="#37474F"/>
<path d="M76.1422 58.2256L137.648 93.7365C138.784 94.3942 139.698 93.8646 139.698 92.5491V41.4398L74.092 3.5542V54.6635C74.1299 55.3765 74.3352 56.0707 74.6914 56.6896C75.0476 57.3085 75.5446 57.8347 76.1422 58.2256Z" fill="#F8A6B7"/>
<path d="M79.1834 10.9521L99.8732 22.9114C100.233 23.1448 100.533 23.4598 100.748 23.8309C100.963 24.202 101.088 24.6187 101.112 25.047V28.8826C101.112 29.677 100.557 29.9931 99.8732 29.6001L79.1834 17.6408C78.8235 17.4074 78.5236 17.0924 78.3084 16.7213C78.0931 16.3502 77.9686 15.9335 77.9448 15.5052V11.6696C77.9362 10.8752 78.5001 10.5591 79.1834 10.9521Z" fill="#EBEBEB"/>
<path d="M79.1835 19.8616L107.596 36.263C107.95 36.4929 108.247 36.8027 108.46 37.1676C108.674 37.5326 108.799 37.9424 108.826 38.3644C108.826 39.1332 108.279 39.4322 107.596 39.0393L79.1835 22.6378C78.8261 22.4099 78.5276 22.1007 78.3124 21.7355C78.0971 21.3704 77.9712 20.9595 77.9449 20.5364C77.9363 19.7676 78.5001 19.4686 79.1835 19.8616Z" fill="#EBEBEB"/>
<path d="M79.1835 26.0378L107.596 42.4393C107.952 42.6677 108.249 42.9771 108.463 43.3423C108.677 43.7076 108.801 44.1182 108.826 44.5407C108.826 45.3095 108.279 45.6085 107.596 45.2155L79.1835 28.8141C78.8275 28.5846 78.5301 28.2751 78.315 27.9102C78.1 27.5454 77.9732 27.1353 77.9449 26.7127C77.9363 25.9439 78.5001 25.6449 79.1835 26.0378Z" fill="#EBEBEB"/>
<path d="M79.1835 32.2055L107.596 48.5899C107.95 48.8198 108.247 49.1296 108.46 49.4945C108.674 49.8594 108.799 50.2693 108.826 50.6913C108.826 51.4601 108.279 51.7591 107.596 51.3661L79.1835 34.9647C78.8261 34.7368 78.5276 34.4276 78.3124 34.0624C78.0971 33.6972 77.9712 33.2864 77.9449 32.8633C77.9363 32.1115 78.5001 31.8126 79.1835 32.2055Z" fill="#EBEBEB"/>
<path d="M79.1835 38.3816L107.596 54.783C107.952 55.0114 108.249 55.3209 108.463 55.6861C108.677 56.0513 108.801 56.462 108.826 56.8844C108.826 57.6447 108.279 57.9522 107.596 57.5593L79.1835 41.1579C78.8275 40.9284 78.5301 40.6189 78.315 40.254C78.1 39.8891 77.9732 39.479 77.9449 39.0564C77.9363 38.2876 78.5001 37.9886 79.1835 38.3816Z" fill="#EBEBEB"/>
<path d="M79.5932 46.8813L134.205 78.4113C134.683 78.7217 135.081 79.1416 135.365 79.6363C135.648 80.131 135.81 80.6863 135.836 81.256V86.3814C135.836 87.4321 135.085 87.8592 134.179 87.3296L79.6273 55.7825C79.149 55.4705 78.7507 55.0505 78.4643 54.5565C78.178 54.0624 78.0116 53.508 77.9787 52.9379V47.8124C77.936 46.7446 78.6877 46.3175 79.5932 46.8813Z" fill="#EBEBEB"/>
</svg>
