<svg width="166" height="108" viewBox="0 0 166 108" fill="none" xmlns="http://www.w3.org/2000/svg">
<ellipse cx="82.9999" cy="65" rx="79" ry="31" transform="rotate(-8.44239 82.9999 65)" fill="#FFF1F4"/>
<path d="M104.503 28.3572L58.4928 54.9302C58.0586 55.2124 57.6971 55.593 57.4377 56.0411C57.1783 56.4893 57.0283 56.9923 57 57.5094V58.1112C57.0283 58.6282 57.1783 59.1313 57.4377 59.5794C57.6971 60.0276 58.0586 60.4082 58.4928 60.6903L104.503 87.2634C104.966 87.4982 105.477 87.6206 105.996 87.6206C106.515 87.6206 107.026 87.4982 107.489 87.2634L153.507 60.6903C153.941 60.4073 154.301 60.0265 154.561 59.5785C154.82 59.1305 154.97 58.628 155 58.1112V57.5094C154.97 56.9926 154.82 56.49 154.561 56.0421C154.301 55.5941 153.941 55.2133 153.507 54.9302L107.489 28.3572C107.026 28.1224 106.515 28 105.996 28C105.477 28 104.966 28.1224 104.503 28.3572Z" fill="#F2768F"/>
<path opacity="0.7" d="M104.503 28.3572L58.4928 54.9302C58.0586 55.2124 57.6971 55.593 57.4377 56.0411C57.1783 56.4893 57.0283 56.9923 57 57.5094V58.1112C57.0283 58.6282 57.1783 59.1313 57.4377 59.5794C57.6971 60.0276 58.0586 60.4082 58.4928 60.6903L104.503 87.2634C104.966 87.4982 105.477 87.6206 105.996 87.6206C106.515 87.6206 107.026 87.4982 107.489 87.2634L153.507 60.6903C153.941 60.4073 154.301 60.0265 154.561 59.5785C154.82 59.1305 154.97 58.628 155 58.1112V57.5094C154.97 56.9926 154.82 56.49 154.561 56.0421C154.301 55.5941 153.941 55.2133 153.507 54.9302L107.489 28.3572C107.026 28.1224 106.515 28 105.996 28C105.477 28 104.966 28.1224 104.503 28.3572Z" fill="#FAFAFA"/>
<path d="M60.5014 53.7814L58.4928 54.9459C58.0586 55.228 57.6971 55.6086 57.4377 56.0568C57.1783 56.505 57.0283 57.008 57 57.5251V58.1269C57.0283 58.6439 57.1783 59.147 57.4377 59.5951C57.6971 60.0433 58.0586 60.4239 58.4928 60.706L104.503 87.2791C104.962 87.5257 105.476 87.6495 105.996 87.6386V80.0575L60.5014 53.7814Z" fill="#F2768F"/>
<path opacity="0.6" d="M60.5014 53.7814L58.4928 54.9459C58.0586 55.228 57.6971 55.6086 57.4377 56.0568C57.1783 56.505 57.0283 57.008 57 57.5251V58.1269C57.0283 58.6439 57.1783 59.147 57.4377 59.5951C57.6971 60.0433 58.0586 60.4239 58.4928 60.706L104.503 87.2791C104.962 87.5257 105.476 87.6495 105.996 87.6386V80.0575L60.5014 53.7814Z" fill="#FAFAFA"/>
<path d="M104.503 28.3572L58.4928 54.9302C58.3126 54.9906 58.1559 55.106 58.0448 55.2603C57.9338 55.4146 57.874 55.5999 57.874 55.79C57.874 55.98 57.9338 56.1653 58.0448 56.3196C58.1559 56.4739 58.3126 56.5893 58.4928 56.6497L104.503 83.2228C104.966 83.4576 105.477 83.5799 105.996 83.5799C106.515 83.5799 107.026 83.4576 107.489 83.2228L153.507 56.6497C153.688 56.5893 153.844 56.4739 153.955 56.3196C154.066 56.1653 154.126 55.98 154.126 55.79C154.126 55.5999 154.066 55.4146 153.955 55.2603C153.844 55.106 153.688 54.9906 153.507 54.9302L107.489 28.3572C107.026 28.1224 106.515 28 105.996 28C105.477 28 104.966 28.1224 104.503 28.3572Z" fill="#F2768F"/>
<path opacity="0.8" d="M104.503 28.3572L58.4928 54.9302C58.3126 54.9906 58.1559 55.106 58.0448 55.2603C57.9338 55.4146 57.874 55.5999 57.874 55.79C57.874 55.98 57.9338 56.1653 58.0448 56.3196C58.1559 56.4739 58.3126 56.5893 58.4928 56.6497L104.503 83.2228C104.966 83.4576 105.477 83.5799 105.996 83.5799C106.515 83.5799 107.026 83.4576 107.489 83.2228L153.507 56.6497C153.688 56.5893 153.844 56.4739 153.955 56.3196C154.066 56.1653 154.126 55.98 154.126 55.79C154.126 55.5999 154.066 55.4146 153.955 55.2603C153.844 55.106 153.688 54.9906 153.507 54.9302L107.489 28.3572C107.026 28.1224 106.515 28 105.996 28C105.477 28 104.966 28.1224 104.503 28.3572Z" fill="#FAFAFA"/>
<path d="M74.3895 52.8356L97.4143 39.5491C97.6462 39.4335 97.9017 39.3733 98.1607 39.3733C98.4198 39.3733 98.6753 39.4335 98.9071 39.5491L102.627 41.7062C102.717 41.7363 102.796 41.7941 102.851 41.8712C102.907 41.9484 102.937 42.041 102.937 42.136C102.937 42.2311 102.907 42.3237 102.851 42.4009C102.796 42.478 102.717 42.5357 102.627 42.5659L79.6025 55.8524C79.3718 55.9717 79.1159 56.0339 78.8561 56.0339C78.5964 56.0339 78.3405 55.9717 78.1097 55.8524L74.3895 53.7031C74.2965 53.6749 74.215 53.6175 74.1571 53.5394C74.0991 53.4613 74.0679 53.3666 74.0679 53.2694C74.0679 53.1721 74.0991 53.0775 74.1571 52.9994C74.215 52.9213 74.2965 52.8639 74.3895 52.8356V52.8356Z" fill="#F2768F"/>
<path d="M84.8862 58.8927L100.893 49.6546C101.123 49.5354 101.379 49.4731 101.639 49.4731C101.899 49.4731 102.155 49.5354 102.385 49.6546L106.113 51.8039C106.203 51.8361 106.28 51.895 106.334 51.9726C106.389 52.0503 106.418 52.1428 106.418 52.2377C106.418 52.3325 106.389 52.4251 106.334 52.5027C106.28 52.5803 106.203 52.6393 106.113 52.6714L90.0836 61.9095C89.8518 62.0251 89.5963 62.0853 89.3372 62.0853C89.0782 62.0853 88.8226 62.0251 88.5908 61.9095L84.8628 59.7602C84.7743 59.7257 84.6987 59.6647 84.6462 59.5856C84.5937 59.5065 84.5669 59.4131 84.5695 59.3182C84.5721 59.2233 84.6039 59.1315 84.6606 59.0554C84.7172 58.9792 84.7961 58.9224 84.8862 58.8927V58.8927Z" fill="#455A64"/>
<path d="M95.3905 64.9576L121.893 49.6546C122.124 49.5354 122.38 49.4731 122.64 49.4731C122.899 49.4731 123.155 49.5354 123.386 49.6546L127.114 51.8039C127.203 51.8361 127.28 51.895 127.335 51.9726C127.389 52.0503 127.419 52.1428 127.419 52.2377C127.419 52.3325 127.389 52.4251 127.335 52.5027C127.28 52.5803 127.203 52.6393 127.114 52.6714L100.603 67.9744C100.372 68.09 100.116 68.1502 99.8571 68.1502C99.598 68.1502 99.3425 68.09 99.1107 67.9744L95.3905 65.8173C95.3003 65.7871 95.222 65.7294 95.1665 65.6523C95.1109 65.5752 95.0811 65.4825 95.0811 65.3875C95.0811 65.2924 95.1109 65.1998 95.1665 65.1226C95.222 65.0455 95.3003 64.9878 95.3905 64.9576V64.9576Z" fill="#37474F"/>
<path d="M105.887 71.0226L118.392 63.801C118.623 63.6817 118.878 63.6195 119.138 63.6195C119.398 63.6195 119.654 63.6817 119.885 63.801L123.613 65.9503C124.027 66.1926 124.027 66.5755 123.613 66.81L111.108 74.0316C110.877 74.1509 110.621 74.2131 110.361 74.2131C110.102 74.2131 109.846 74.1509 109.615 74.0316L105.887 71.8823C105.473 71.6401 105.473 71.2571 105.887 71.0226Z" fill="#263238"/>
<path d="M19.07 71.5088L62.69 45.9717L61.97 39.6026C61.52 35.5459 59.97 32.7467 57.65 31.4181L51.59 27.8685C49.32 26.5399 46.37 26.6819 43.18 28.5581L26.45 38.345C20.04 42.0975 14.61 51.6511 13.71 60.7483L13 67.9591L19.07 71.5088Z" fill="#F2768F"/>
<path opacity="0.3" d="M19.07 71.5088L62.69 45.9717L61.97 39.6026C61.52 35.5459 59.97 32.7467 57.65 31.4181L51.59 27.8685C49.32 26.5399 46.37 26.6819 43.18 28.5581L26.45 38.345C20.04 42.0975 14.61 51.6511 13.71 60.7483L13 67.9591L19.07 71.5088Z" fill="black"/>
<path d="M61.9701 39.6025C61.5201 35.5458 59.9701 32.7466 57.6501 31.4181C55.3301 30.0895 52.4301 30.2315 49.2401 32.1077L32.5101 41.9047C26.1101 45.647 20.6801 55.2006 19.8101 64.308L19.1001 71.5087L62.7201 45.9716L61.9701 39.6025Z" fill="#F2768F"/>
<path d="M50.3201 4.2887C52.4701 5.54629 53.7901 8.24402 53.7901 12.0878C53.7901 19.7651 48.4801 29.0956 41.9201 32.9394C38.6501 34.8562 35.6801 35.0387 33.5301 33.7811L27.5301 30.2923C25.3901 29.0348 24.0601 26.337 24.0601 22.4933C24.0601 14.8159 29.3701 5.48544 35.9301 1.65183C39.2001 -0.275119 42.1701 -0.457676 44.3201 0.79991L50.3201 4.2887Z" fill="#F2768F"/>
<path opacity="0.3" d="M50.3201 4.2887C52.4701 5.54629 53.7901 8.24402 53.7901 12.0878C53.7901 19.7651 48.4801 29.0956 41.9201 32.9394C38.6501 34.8562 35.6801 35.0387 33.5301 33.7811L27.5301 30.2923C25.3901 29.0348 24.0601 26.337 24.0601 22.4933C24.0601 14.8159 29.3701 5.48544 35.9301 1.65183C39.2001 -0.275119 42.1701 -0.457676 44.3201 0.79991L50.3201 4.2887Z" fill="black"/>
<path d="M41.9201 32.9596C38.6501 34.8764 35.6801 35.059 33.5301 33.8014C31.3801 32.5438 30.0601 29.8461 30.0601 26.0023C30.0601 18.325 35.3701 8.99447 41.9301 5.16086C45.2001 3.23391 48.1701 3.05136 50.3201 4.30894C52.4701 5.56653 53.7901 8.26426 53.7901 12.108C53.8101 19.7854 48.4801 29.1159 41.9201 32.9596Z" fill="#F2768F"/>
</svg>
