<svg width="137" height="156" viewBox="0 0 137 156" fill="none" xmlns="http://www.w3.org/2000/svg">
<ellipse cx="68.4812" cy="115.783" rx="67.3788" ry="38" transform="rotate(-178.678 68.4812 115.783)" fill="#FFF1F4"/>
<path d="M110.838 35.4311L52.3067 1.3264C49.5603 -0.257502 47.09 -0.373749 45.3172 0.716091L38.2695 4.84295C40.0278 3.84029 42.469 4.00013 45.1428 5.54044L103.674 39.6452C106.495 41.4766 108.842 43.9493 110.524 46.8612C112.206 49.773 113.175 53.0415 113.352 56.3996L112.902 120.163C112.902 123.069 111.885 125.205 110.257 126.266L117.116 122.24L117.305 122.124L117.479 122.023C119.078 120.962 120.066 118.869 120.08 115.948L120.531 52.171C120.347 48.8147 119.374 45.5492 117.689 42.6402C116.005 39.7313 113.658 37.2612 110.838 35.4311V35.4311Z" fill="#EA1B44"/>
<path opacity="0.4" d="M110.838 35.4311L52.3067 1.3264C49.5603 -0.257502 47.09 -0.373749 45.3172 0.716091L38.2695 4.84295C40.0278 3.84029 42.469 4.00013 45.1428 5.54044L103.674 39.6452C106.495 41.4766 108.842 43.9493 110.524 46.8612C112.206 49.773 113.175 53.0415 113.352 56.3996L112.902 120.163C112.902 123.069 111.885 125.205 110.257 126.266L117.116 122.24L117.305 122.124L117.479 122.023C119.078 120.962 120.066 118.869 120.08 115.948L120.531 52.171C120.347 48.8147 119.374 45.5492 117.689 42.6402C116.005 39.7313 113.658 37.2612 110.838 35.4311V35.4311Z" fill="black"/>
<path d="M112.902 120.162L113.352 56.385C113.175 53.027 112.206 49.7585 110.524 46.8466C108.842 43.9347 106.495 41.462 103.674 39.6306L45.1427 5.52587C42.469 3.98557 40.0278 3.82573 38.2695 4.82838C36.5403 5.84557 35.465 7.98164 35.4505 11.0332L35 74.8106C35.1761 78.169 36.1449 81.4379 37.8269 84.35C39.509 87.2621 41.8567 89.7345 44.6778 91.5651L103.224 125.67C106.014 127.297 108.542 127.37 110.315 126.222C112.088 125.074 112.887 123.069 112.902 120.162Z" fill="#EA1B44"/>
<path opacity="0.2" d="M112.902 120.162L113.352 56.385C113.175 53.027 112.206 49.7585 110.524 46.8466C108.842 43.9347 106.495 41.462 103.674 39.6306L45.1427 5.52587C42.469 3.98557 40.0278 3.82573 38.2695 4.82838C36.5403 5.84557 35.465 7.98164 35.4505 11.0332L35 74.8106C35.1761 78.169 36.1449 81.4379 37.8269 84.35C39.509 87.2621 41.8567 89.7345 44.6778 91.5651L103.224 125.67C106.014 127.297 108.542 127.37 110.315 126.222C112.088 125.074 112.887 123.069 112.902 120.162Z" fill="black"/>
<path opacity="0.2" d="M110.838 35.4311L52.3067 1.3264C49.5603 -0.257502 47.09 -0.373749 45.3172 0.716091L38.2695 4.84295C40.0278 3.84029 42.469 4.00013 45.1428 5.54044L103.674 39.6452C106.495 41.4766 108.842 43.9493 110.524 46.8612C112.206 49.773 113.175 53.0415 113.352 56.3996L112.902 120.163C112.902 123.069 111.885 125.205 110.257 126.266L117.116 122.24L117.305 122.124L117.479 122.023C119.078 120.962 120.066 118.869 120.08 115.948L120.531 52.171C120.347 48.8147 119.374 45.5492 117.689 42.6402C116.005 39.7313 113.658 37.2612 110.838 35.4311V35.4311Z" fill="white"/>
<path opacity="0.3" d="M112.902 120.162L113.352 56.385C113.175 53.027 112.206 49.7585 110.524 46.8466C108.842 43.9347 106.495 41.462 103.674 39.6306L45.1427 5.52587C42.469 3.98557 40.0278 3.82573 38.2695 4.82838C36.5403 5.84557 35.465 7.98164 35.4505 11.0332L35 74.8106C35.1761 78.169 36.1449 81.4379 37.8269 84.35C39.509 87.2621 41.8567 89.7345 44.6778 91.5651L103.224 125.67C106.014 127.297 108.542 127.37 110.315 126.222C112.088 125.074 112.887 123.069 112.902 120.162Z" fill="white"/>
<g opacity="0.9">
<path d="M88.3439 67.4869L93.4007 70.3932L93.299 105.704L54.8931 83.5439L54.9948 48.2331L60.0371 51.1393V42.7548C60.0371 33.7745 66.4308 30.1418 74.2341 34.661C82.0373 39.1802 88.3729 50.1222 88.3439 59.0879V67.4869ZM82.8656 64.3191V55.9346C82.7043 52.9354 81.8371 50.0166 80.3347 47.4158C78.8323 44.815 76.7371 42.6056 74.2195 40.9675C69.4388 38.2066 65.5008 40.4298 65.5008 45.9226V54.3217L82.8365 64.3191M77.1112 87.758L75.9488 76.0167C77.3147 76.0167 78.2738 74.9705 78.2738 73.1105C78.2008 71.6792 77.7885 70.2858 77.071 69.0453C76.3534 67.8047 75.3512 66.7526 74.1469 65.9757C71.8655 64.6533 70.0055 65.6996 70.0055 68.3297C70.1048 70.4172 70.9267 72.4052 72.3305 73.9533L71.1244 84.2995L77.1112 87.758" fill="white"/>
</g>
</svg>
