<svg width="125" height="144" viewBox="0 0 125 144" fill="none" xmlns="http://www.w3.org/2000/svg">
<ellipse cx="62.4285" cy="101.308" rx="60.1403" ry="38" transform="rotate(-3.63499 62.4285 101.308)" fill="#FFF1F4"/>
<path d="M31.4042 10.1177L44.7604 2.32143H44.8478C51.3447 -1.35182 60.2655 -0.789588 70.1232 4.89519C89.9887 16.3647 106.081 44.2514 106.081 67.1779C106.081 78.6224 102.07 86.6686 95.586 90.4418L82.055 98.2006C75.5082 102.361 66.2626 101.949 56.005 96.0766C36.152 84.6071 20.0472 56.7204 20.0472 33.7939C20.0847 21.8871 24.4451 13.666 31.4042 10.1177Z" fill="#FF6583"/>
<path d="M104.819 55.0837C105.689 59.0528 106.142 63.1022 106.168 67.1655C106.168 78.61 102.158 86.6561 95.6735 90.4293L82.105 98.2256L78.9315 92.9032L70.0108 75.1866L104.819 55.0837Z" fill="#EA1B44"/>
<path d="M56.0925 13.0413C75.958 24.5108 92.0503 52.3975 92.0503 75.324C92.0503 98.2505 75.958 107.559 56.0925 96.0891C36.227 84.6196 20.1347 56.7329 20.1347 33.8064C20.1347 10.8798 36.1895 1.57177 56.0925 13.0413Z" fill="#F2768F"/>
<path d="M41.837 44.976V36.1552C41.837 26.16 47.9465 21.4873 55.4929 25.8352C62.9893 30.1956 69.1364 41.8775 69.1364 51.9227V59.7939C69.303 65.2337 70.8879 70.5355 73.7342 75.1741V75.1741C74.4312 76.4028 74.8132 77.7849 74.8462 79.1972V79.1972C74.8462 81.696 73.3094 82.9454 71.4103 81.7959L39.5256 63.3922C38.4787 62.6419 37.6226 61.6564 37.0259 60.515C36.4291 59.3736 36.1085 58.1082 36.0897 56.8204C36.0427 56.33 36.1084 55.8353 36.2816 55.3741C36.4548 54.9129 36.7311 54.4974 37.0892 54.1591V54.1591C39.9879 52.8972 41.837 49.7113 41.837 44.976Z" fill="white"/>
<path d="M48.9333 71.5758C48.9333 76.3985 51.8694 81.9958 55.4927 84.0698C59.1159 86.1438 62.0396 83.9324 62.0396 79.0722L48.9333 71.5758Z" fill="white"/>
</svg>
