<svg width="186" height="121" viewBox="0 0 186 121" fill="none" xmlns="http://www.w3.org/2000/svg">
<ellipse cx="92.5509" cy="60.4489" rx="86.0788" ry="46.4149" transform="rotate(9.48539 92.5509 60.4489)" fill="#FFF1F4"/>
<path d="M174.792 40.5561V52.8876C174.706 63.1529 167.888 73.4024 154.324 81.2334C127.023 96.9972 82.761 96.9972 55.4601 81.2334C41.8918 73.4063 35.0744 63.1529 34.9922 52.8876V40.5522L43.7273 41.9689C47.1973 38.4304 51.1499 35.4 55.4679 32.9677C82.7688 17.2079 127.031 17.2079 154.332 32.9677C158.616 35.3858 162.541 38.3905 165.994 41.8945L174.792 40.5561Z" fill="#EA1B44"/>
<path opacity="0.4" d="M174.792 40.5561V52.8876C174.706 63.1529 167.888 73.4024 154.324 81.2334C127.023 96.9972 82.761 96.9972 55.4601 81.2334C41.8918 73.4063 35.0744 63.1529 34.9922 52.8876V40.5522L43.7273 41.9689C47.1973 38.4304 51.1499 35.4 55.4679 32.9677C82.7688 17.2079 127.031 17.2079 154.332 32.9677C158.616 35.3858 162.541 38.3905 165.994 41.8945L174.792 40.5561Z" fill="white"/>
<path opacity="0.4" d="M62.3441 84.7125C59.9869 83.677 57.6864 82.5169 55.4523 81.2373C41.8841 73.4102 35.0667 63.1528 34.9845 52.8876V40.5521L43.7195 41.9688C44.4514 41.1861 45.2341 40.4543 46.0677 39.7146L62.3441 43.7416V84.7125Z" fill="#EA1B44"/>
<path d="M104.884 80.7207C143.493 80.7207 174.792 62.6508 174.792 40.3604C174.792 18.07 143.493 0 104.884 0C66.2754 0 34.9767 18.07 34.9767 40.3604C34.9767 62.6508 66.2754 80.7207 104.884 80.7207Z" fill="#EA1B44"/>
<path opacity="0.6" d="M104.884 80.7207C143.493 80.7207 174.792 62.6508 174.792 40.3604C174.792 18.07 143.493 0 104.884 0C66.2754 0 34.9767 18.07 34.9767 40.3604C34.9767 62.6508 66.2754 80.7207 104.884 80.7207Z" fill="white"/>
<path d="M164.468 31.453C170.597 42.0705 165.349 53.5528 150.43 62.1665C125.74 76.4196 84.0251 76.4196 59.3385 62.1665C52.8694 58.4291 48.0166 53.9715 45.3006 49.2518C39.172 38.6539 44.4201 27.1716 59.3385 18.554C84.029 4.30085 125.74 4.30085 150.43 18.554C156.899 22.2914 161.752 26.7489 164.468 31.4491V31.453Z" fill="#EA1B44"/>
<path d="M164.468 30.6626C170.597 42.2232 165.349 54.7231 150.43 64.0999C125.74 79.6171 84.0251 79.6171 59.3385 64.0999C52.8694 60.0337 48.0166 55.177 45.3006 50.0581C39.172 38.4975 44.4201 26.0016 59.3385 16.6208C84.029 1.10361 125.74 1.10361 150.43 16.6208C156.899 20.687 161.752 25.5437 164.468 30.6626Z" fill="#EA1B44"/>
<path opacity="0.4" d="M164.468 30.6626C170.597 42.2232 165.349 54.7231 150.43 64.0999C125.74 79.6171 84.0251 79.6171 59.3385 64.0999C52.8694 60.0337 48.0166 55.177 45.3006 50.0581C39.172 38.4975 44.4201 26.0016 59.3385 16.6208C84.029 1.10361 125.74 1.10361 150.43 16.6208C156.899 20.687 161.752 25.5437 164.468 30.6626Z" fill="white"/>
<path d="M59.2719 22.3814C49.7737 28.3535 44.2126 35.5936 42.9955 43.0449C43.3464 45.4998 44.1267 47.8737 45.3006 50.058C48.0166 55.1769 52.8694 60.0336 59.3384 64.0998C84.0251 79.617 125.74 79.617 150.43 64.0998C159.928 58.1277 165.489 50.8916 166.707 43.4363C166.355 40.9817 165.574 38.608 164.401 36.4232C161.685 31.3043 156.833 26.4476 150.364 22.3814C125.673 6.86423 83.9585 6.86423 59.2719 22.3814Z" fill="#FAFAFA"/>
<path d="M141.589 65.0508C141.25 65.2132 140.876 65.2935 140.5 65.2854C140.123 65.2772 139.754 65.1808 139.421 65.0039L134.784 62.3309C134.162 61.9709 134.13 61.4152 134.709 61.0864C135.049 60.9241 135.422 60.8437 135.799 60.8519C136.176 60.86 136.545 60.9565 136.878 61.1334L141.515 63.8063C142.133 64.1625 142.169 64.7221 141.589 65.0508Z" fill="#EA1B44"/>
<path d="M141.589 24.0409C141.25 23.8785 140.876 23.7982 140.5 23.8064C140.123 23.8145 139.754 23.9109 139.421 24.0879L134.784 26.7608C134.162 27.1169 134.13 27.6766 134.709 28.0053C135.049 28.1677 135.422 28.248 135.799 28.2399C136.176 28.2317 136.545 28.1353 136.878 27.9584L141.515 25.2854C142.133 24.9253 142.169 24.3696 141.589 24.0409Z" fill="#EA1B44"/>
<path d="M67.9522 65.0509C68.2921 65.2133 68.6653 65.2936 69.0418 65.2855C69.4184 65.2773 69.7878 65.1809 70.1203 65.0039L74.75 62.331C75.3684 61.971 75.3997 61.4152 74.8205 61.0865C74.4813 60.9242 74.1087 60.8438 73.7328 60.852C73.3569 60.8602 72.9881 60.9566 72.6563 61.1335L68.0148 63.8064C67.4082 64.1625 67.373 64.7222 67.9522 65.0509Z" fill="#EA1B44"/>
<path d="M67.9522 24.0409C68.2921 23.8785 68.6653 23.7982 69.0418 23.8064C69.4184 23.8145 69.7878 23.9109 70.1203 24.0879L74.75 26.7608C75.3684 27.1169 75.3997 27.6766 74.8205 28.0053C74.4813 28.1676 74.1087 28.248 73.7328 28.2398C73.3569 28.2316 72.9881 28.1352 72.6563 27.9584L68.0148 25.2854C67.4082 24.9253 67.373 24.3696 67.9522 24.0409Z" fill="#EA1B44"/>
<path d="M131.434 37.304C131.434 37.304 107.115 37.3861 103.769 37.6953C103.769 37.6953 104.117 39.9965 103.769 40.0434L106.411 43.6009L131.434 39.6638V37.304Z" fill="#263238"/>
<path d="M106.411 41.241L131.434 37.304C131.434 37.304 107.115 37.3861 103.769 37.6953L106.411 41.241Z" fill="#37474F"/>
<path d="M131.434 55.5997C131.434 55.5997 113.15 42.2389 109.005 38.975C108.781 38.7565 108.53 38.5672 108.258 38.4114C106.395 37.3352 103.374 37.3352 101.511 38.4114C100.579 38.9515 100.114 39.6559 100.114 40.3682C100.114 40.7282 100.114 42.1019 100.114 42.4541C100.114 43.1664 100.568 43.8825 101.511 44.4109C106.027 47.3695 129.457 58.5896 129.457 58.5896L131.414 57.7013L131.434 55.5997Z" fill="#37474F"/>
<path d="M108.258 38.4114C106.395 37.3352 103.374 37.3352 101.511 38.4114C99.6479 39.4876 99.6479 41.2331 101.511 42.325C106.027 45.2875 129.457 56.5037 129.457 56.5037L131.414 55.6154C131.414 55.6154 110.128 39.4994 108.258 38.4114Z" fill="#455A64"/>
<path d="M106.411 39.4798C105.937 39.2404 105.415 39.1157 104.884 39.1157C104.354 39.1157 103.831 39.2404 103.358 39.4798C102.517 39.9651 102.517 40.7556 103.358 41.2409C103.831 41.4802 104.354 41.605 104.884 41.605C105.415 41.605 105.937 41.4802 106.411 41.2409C107.252 40.7556 107.252 39.9651 106.411 39.4798Z" fill="#263238"/>
<path d="M120.701 17.9431L117.42 22.3169L117.783 22.5893L121.064 18.2155L120.701 17.9431Z" fill="#37474F"/>
<path d="M88.7893 17.9508L88.4261 18.2231L91.7057 22.5975L92.0689 22.3252L88.7893 17.9508Z" fill="#37474F"/>
<path d="M117.784 66.2622L117.421 66.5345L120.701 70.9089L121.064 70.6366L117.784 66.2622Z" fill="#37474F"/>
<path d="M91.7136 66.2456L88.4332 70.6194L88.7964 70.8918L92.0767 66.518L91.7136 66.2456Z" fill="#37474F"/>
<path d="M154.815 33.1123L147.646 34.5996L147.738 35.0441L154.907 33.5567L154.815 33.1123Z" fill="#37474F"/>
<path d="M147.751 54.069L147.659 54.5135L154.829 55.9972L154.921 55.5526L147.751 54.069Z" fill="#37474F"/>
<path d="M54.6577 33.1098L54.5657 33.5543L61.7361 35.0379L61.8281 34.5934L54.6577 33.1098Z" fill="#37474F"/>
<path d="M61.7261 54.0645L54.5565 55.5519L54.6487 55.9964L61.8183 54.509L61.7261 54.0645Z" fill="#37474F"/>
</svg>
