<svg width="30" height="30" viewBox="0 0 30 30" fill="none" xmlns="http://www.w3.org/2000/svg">
<path d="M26.8135 14C27.3658 14 27.8135 14.4477 27.8135 15C27.8135 15.5523 27.3658 16 26.8135 16V14ZM1.10637 15.7071C0.715845 15.3166 0.715845 14.6834 1.10637 14.2929L7.47033 7.92893C7.86086 7.53841 8.49402 7.53841 8.88454 7.92893C9.27507 8.31946 9.27507 8.95262 8.88454 9.34315L3.22769 15L8.88454 20.6569C9.27507 21.0474 9.27507 21.6805 8.88454 22.0711C8.49402 22.4616 7.86086 22.4616 7.47033 22.0711L1.10637 15.7071ZM26.8135 16L1.81348 16V14L26.8135 14V16Z" fill="#9EB4DB"/>
</svg>
