<svg width="60" height="60" viewBox="0 0 60 60" fill="none" xmlns="http://www.w3.org/2000/svg">
<circle cx="30" cy="30" r="30" fill="#EAF2FF"/>
<path d="M30 30C27.9167 30 26.1458 29.2708 24.6875 27.8125C23.2292 26.3542 22.5 24.5833 22.5 22.5C22.5 20.4167 23.2292 18.6458 24.6875 17.1875C26.1458 15.7292 27.9167 15 30 15C32.0833 15 33.8542 15.7292 35.3125 17.1875C36.7708 18.6458 37.5 20.4167 37.5 22.5C37.5 24.5833 36.7708 26.3542 35.3125 27.8125C33.8542 29.2708 32.0833 30 30 30ZM19.75 45C17.1266 45 15 42.8734 15 40.25C15 39.375 15.2083 38.5417 15.625 37.75C16.0417 36.9583 16.625 36.3333 17.375 35.875C19.25 34.75 21.2396 33.9063 23.3438 33.3438C25.4479 32.7813 27.6667 32.5 30 32.5C32.3333 32.5 34.5521 32.7813 36.6562 33.3438C38.7604 33.9063 40.75 34.75 42.625 35.875C43.375 36.3333 43.9583 36.9583 44.375 37.75C44.7917 38.5417 45 39.375 45 40.25C45 42.8734 42.8734 45 40.25 45H19.75Z" fill="#5C93F5"/>
</svg>
