<svg width="36" height="36" viewBox="0 0 36 36" fill="none" xmlns="http://www.w3.org/2000/svg">
<path d="M4.31997 4.31995C2.3488 4.31995 0.719971 5.94878 0.719971 7.91995C0.719971 9.89111 2.3488 11.5199 4.31997 11.5199C6.29114 11.5199 7.91997 9.89111 7.91997 7.91995C7.91997 5.94878 6.29114 4.31995 4.31997 4.31995ZM9.35997 6.47995V9.35995H35.28V6.47995H9.35997ZM4.31997 7.19995C4.73467 7.19995 5.03997 7.50524 5.03997 7.91995C5.03997 8.33465 4.73467 8.63995 4.31997 8.63995C3.90527 8.63995 3.59997 8.33465 3.59997 7.91995C3.59997 7.50524 3.90527 7.19995 4.31997 7.19995ZM4.31997 14.3999C2.34027 14.3999 0.719971 16.0202 0.719971 17.9999C0.719971 19.9796 2.34027 21.5999 4.31997 21.5999C6.29967 21.5999 7.91997 19.9796 7.91997 17.9999C7.91997 16.0202 6.29967 14.3999 4.31997 14.3999ZM4.31997 15.8399C5.52143 15.8399 6.47997 16.7985 6.47997 17.9999C6.47997 19.2014 5.52143 20.1599 4.31997 20.1599C3.11851 20.1599 2.15997 19.2014 2.15997 17.9999C2.15997 16.7985 3.11851 15.8399 4.31997 15.8399ZM9.35997 16.5599V19.4399H35.28V16.5599H9.35997ZM4.31997 24.4799C2.34027 24.4799 0.719971 26.1002 0.719971 28.0799C0.719971 30.0596 2.34027 31.6799 4.31997 31.6799C6.29967 31.6799 7.91997 30.0596 7.91997 28.0799C7.91997 26.1002 6.29967 24.4799 4.31997 24.4799ZM4.31997 25.9199C5.52143 25.9199 6.47997 26.8785 6.47997 28.0799C6.47997 29.2814 5.52143 30.2399 4.31997 30.2399C3.11851 30.2399 2.15997 29.2814 2.15997 28.0799C2.15997 26.8785 3.11851 25.9199 4.31997 25.9199ZM9.35997 26.6399V29.5199H35.28V26.6399H9.35997Z" fill="#5588E0"/>
</svg>
