<svg width="18" height="18" viewBox="0 0 18 18" fill="none" xmlns="http://www.w3.org/2000/svg">
<path d="M8.99999 0.359985C5.82468 0.359985 3.23999 2.94467 3.23999 6.11999C3.23999 11.2008 8.5064 17.2603 8.72999 17.5162C8.7989 17.595 8.89593 17.64 8.99999 17.64C9.11108 17.633 9.20108 17.595 9.26999 17.5162C9.49358 17.2561 14.76 11.0925 14.76 6.11999C14.76 2.94467 12.1753 0.359985 8.99999 0.359985ZM8.99999 4.31999C10.1925 4.31999 11.16 5.28749 11.16 6.47999C11.16 7.67249 10.1925 8.63998 8.99999 8.63998C7.80749 8.63998 6.83999 7.67249 6.83999 6.47999C6.83999 5.28749 7.80749 4.31999 8.99999 4.31999Z" fill="#5C93F5"/>
</svg>
