<svg width="40" height="40" viewBox="0 0 40 40" fill="none" xmlns="http://www.w3.org/2000/svg">
<rect width="40" height="40" rx="10" fill="#5C93F5"/>
<rect x="18.1445" y="8.28125" width="3.71094" height="14.8438" rx="0.78125" fill="white"/>
<rect x="12.5781" y="17.5586" width="3.71094" height="14.8438" rx="0.78125" transform="rotate(-90 12.5781 17.5586)" fill="white"/>
<path d="M9.14062 29.0709V28.2812H9.99165V29.0709H9.14062ZM9.14062 33.5156V29.6568H9.99165V33.5156H9.14062Z" fill="#0A1532"/>
<path d="M11.0494 33.5156V28.3706H11.9005V30.5358H14.3088V28.3706H15.1562V33.5156H14.3088V31.3433H11.9005V33.5156H11.0494Z" fill="#0A1532"/>
<path d="M17.0312 33.4075V28.3859H19.1245C19.1737 28.3859 19.2371 28.3882 19.3145 28.3928C19.3919 28.3952 19.4634 28.4021 19.5291 28.4138C19.8222 28.4579 20.0638 28.5544 20.2538 28.7032C20.4461 28.852 20.588 29.0403 20.6795 29.2681C20.7733 29.4937 20.8202 29.7447 20.8202 30.0214C20.8202 30.2957 20.7733 30.5468 20.6795 30.7746C20.5856 31.0001 20.4426 31.1873 20.2503 31.3361C20.0603 31.4849 19.8199 31.5814 19.5291 31.6255C19.4634 31.6348 19.3907 31.6418 19.3109 31.6465C19.2335 31.6511 19.1714 31.6534 19.1245 31.6534H17.8791V33.4075H17.0312ZM17.8791 30.8688H19.0893C19.1362 30.8688 19.189 30.8665 19.2476 30.8618C19.3062 30.8572 19.3602 30.8479 19.4094 30.8339C19.5502 30.7991 19.6604 30.7374 19.7401 30.6491C19.8222 30.5608 19.8797 30.4608 19.9125 30.3492C19.9477 30.2376 19.9653 30.1283 19.9653 30.0214C19.9653 29.9144 19.9477 29.8052 19.9125 29.6936C19.8797 29.5797 19.8222 29.4785 19.7401 29.3902C19.6604 29.3019 19.5502 29.2402 19.4094 29.2054C19.3602 29.1914 19.3062 29.1833 19.2476 29.181C19.189 29.1763 19.1362 29.174 19.0893 29.174H17.8791V30.8688Z" fill="white"/>
<path d="M21.5954 33.4075V28.2812H22.4432V33.4075H21.5954Z" fill="white"/>
<path d="M24.9218 33.5156C24.6404 33.5156 24.4082 33.4691 24.2253 33.3761C24.0423 33.2831 23.8969 33.1646 23.789 33.0204C23.6811 32.8763 23.6014 32.7229 23.5498 32.5601C23.4982 32.3974 23.4642 32.2439 23.4478 32.0998C23.4337 31.9533 23.4267 31.8348 23.4267 31.7441V29.6413H24.2851V31.4547C24.2851 31.5709 24.2933 31.7023 24.3097 31.8487C24.3261 31.9929 24.3636 32.1323 24.4223 32.2672C24.4832 32.3997 24.5724 32.509 24.6896 32.595C24.8092 32.681 24.9699 32.724 25.1716 32.724C25.2795 32.724 25.3862 32.7066 25.4917 32.6717C25.5973 32.6368 25.6923 32.5776 25.7767 32.4939C25.8635 32.4078 25.9327 32.2904 25.9843 32.1416C26.0359 31.9929 26.0617 31.8045 26.0617 31.5767L26.5647 31.7894C26.5647 32.1103 26.5014 32.4009 26.3748 32.6612C26.2505 32.9216 26.0664 33.1297 25.8224 33.2855C25.5785 33.4389 25.2783 33.5156 24.9218 33.5156ZM26.1637 33.4075V32.2393H26.0617V29.6413H26.913V33.4075H26.1637Z" fill="white"/>
<path d="M29.3685 33.5121C28.8994 33.5121 28.5183 33.4075 28.2251 33.1983C27.9319 32.989 27.7537 32.695 27.6904 32.316L28.5558 32.1835C28.6004 32.3695 28.6989 32.5159 28.8513 32.6229C29.0038 32.7298 29.1961 32.7833 29.4283 32.7833C29.6323 32.7833 29.7894 32.7438 29.8997 32.6647C30.0123 32.5834 30.0685 32.4729 30.0685 32.3334C30.0685 32.2474 30.0474 32.1788 30.0052 32.1277C29.9654 32.0742 29.8762 32.0231 29.7379 31.9743C29.5995 31.9254 29.3872 31.8638 29.1011 31.7894C28.7821 31.7057 28.5288 31.6162 28.3412 31.5209C28.1536 31.4233 28.0187 31.3082 27.9366 31.1757C27.8545 31.0432 27.8135 30.8827 27.8135 30.6944C27.8135 30.4596 27.8756 30.255 27.9999 30.0807C28.1242 29.9063 28.2978 29.7726 28.5206 29.6796C28.7434 29.5843 29.0061 29.5367 29.3087 29.5367C29.6042 29.5367 29.8657 29.582 30.0932 29.6727C30.323 29.7633 30.5083 29.8924 30.649 30.0598C30.7897 30.2271 30.8765 30.4236 30.9094 30.6491L30.0439 30.8025C30.0228 30.6421 29.9489 30.5154 29.8223 30.4224C29.698 30.3294 29.5315 30.2771 29.3227 30.2655C29.1234 30.2539 28.9627 30.2841 28.8408 30.3562C28.7188 30.4259 28.6578 30.5247 28.6578 30.6526C28.6578 30.7247 28.6824 30.7863 28.7317 30.8374C28.7809 30.8886 28.8794 30.9397 29.0272 30.9908C29.1773 31.042 29.4001 31.1048 29.6956 31.1792C29.9982 31.2559 30.2398 31.3442 30.4204 31.4442C30.6033 31.5418 30.7346 31.6592 30.8144 31.7964C30.8965 31.9336 30.9375 32.0998 30.9375 32.2951C30.9375 32.674 30.798 32.9716 30.5189 33.1878C30.2421 33.404 29.8586 33.5121 29.3685 33.5121Z" fill="white"/>
</svg>
