<svg width="16" height="16" viewBox="0 0 16 16" fill="none" xmlns="http://www.w3.org/2000/svg">
<path d="M12.1501 9.92582C11.8794 9.76716 11.5468 9.77049 11.2774 9.93049L9.91342 10.7432C9.60809 10.9252 9.22675 10.9038 8.94675 10.6852C8.46275 10.3072 7.68342 9.67116 7.00542 8.99316C6.32742 8.31516 5.69142 7.53582 5.31342 7.05182C5.09475 6.77182 5.07342 6.39049 5.25542 6.08516L6.06809 4.72116C6.22875 4.45182 6.23009 4.11649 6.07142 3.84582L4.07009 0.427155C3.87609 0.0964886 3.49075 -0.066178 3.11809 0.0251554C2.75609 0.113155 2.28609 0.327822 1.79342 0.821155C0.250753 2.36382 -0.56858 4.96582 5.23275 10.7672C11.0341 16.5685 13.6354 15.7498 15.1788 14.2065C15.6728 13.7125 15.8868 13.2418 15.9754 12.8792C16.0654 12.5072 15.9054 12.1245 15.5754 11.9312C14.7514 11.4492 12.9741 10.4085 12.1501 9.92582Z" fill="#5C93F5"/>
</svg>
