<svg width="16" height="17" viewBox="0 0 16 17" fill="none" xmlns="http://www.w3.org/2000/svg">
<g clip-path="url(#clip0_1309_14509)">
<path d="M11.2727 0.5C10.0099 0.5 8.82244 0.991829 7.93039 1.8846L1.38494 8.43005C0.49217 9.32312 0 10.5103 0 11.7727C0 14.3792 2.12072 16.5 4.72728 16.5C5.99079 16.5 7.17756 16.0082 8.06961 15.1154L14.6151 8.5703C15.5085 7.67718 16 6.49004 16 5.22724C16 2.62072 13.8792 0.5 11.2727 0.5ZM5.10937 7.79118L2.92755 9.97266C2.44673 10.4535 2.18181 11.093 2.18181 11.7727C2.18185 11.8205 2.17246 11.8678 2.1542 11.9119C2.13593 11.9561 2.10915 11.9962 2.07538 12.0299C2.0416 12.0637 2.0015 12.0905 1.95737 12.1088C1.91323 12.127 1.86593 12.1364 1.81817 12.1364C1.7704 12.1364 1.7231 12.127 1.67897 12.1088C1.63484 12.0905 1.59473 12.0637 1.56096 12.0299C1.52719 11.9962 1.5004 11.9561 1.48214 11.9119C1.46387 11.8678 1.45449 11.8205 1.45452 11.7727C1.45452 10.8984 1.79471 10.0767 2.41333 9.45847L4.59514 7.27699C4.7372 7.13493 4.96731 7.13493 5.10933 7.27699C5.25142 7.41901 5.25142 7.64913 5.10937 7.79118ZM13.5866 7.54188L10.5711 10.5571L5.94313 5.92866L8.9588 2.91299C9.5767 2.29475 10.3984 1.95452 11.2727 1.95452C13.0774 1.95452 14.5454 3.42258 14.5454 5.22724C14.5454 6.10154 14.2053 6.92364 13.5866 7.54188Z" fill="#6597F0"/>
</g>
<defs>
<clipPath id="clip0_1309_14509">
<rect width="16" height="16" fill="white" transform="translate(0 0.5)"/>
</clipPath>
</defs>
</svg>
