<svg width="156" height="43" viewBox="0 0 156 43" fill="none" xmlns="http://www.w3.org/2000/svg">
<path fill-rule="evenodd" clip-rule="evenodd" d="M43.0957 0.000976562H98.979C110.589 0.000976562 120.001 9.41281 120.001 21.0229C120.001 32.633 110.589 42.0448 98.979 42.0448H43.0957V0.000976562ZM43.9716 41.1689H98.979C110.105 41.1689 119.125 32.1492 119.125 21.0229C119.125 9.89657 110.105 0.87689 98.979 0.87689H43.9716V41.1689Z" fill="#5C93F5"/>
<path d="M50.916 15.5633V13.4727H53.1958V15.5633H50.916ZM50.916 27.3314V17.1147H53.1958V27.3314H50.916Z" fill="#0A1532"/>
<path d="M56.0295 27.3314V13.7092H58.3093V19.4418H64.761V13.7092H67.0313V27.3314H64.761V21.5798H58.3093V27.3314H56.0295Z" fill="#0A1532"/>
<path d="M71.8242 27.0486V13.4264H77.4528C77.5853 13.4264 77.7556 13.4327 77.9637 13.4453C78.1718 13.4516 78.3641 13.4705 78.5407 13.5021C79.329 13.6219 79.9786 13.8836 80.4895 14.2872C81.0066 14.6908 81.3881 15.2017 81.6341 15.8197C81.8864 16.4315 82.0125 17.1126 82.0125 17.8631C82.0125 18.6072 81.8864 19.2883 81.6341 19.9064C81.3818 20.5181 80.9971 21.0258 80.48 21.4294C79.9692 21.833 79.3227 22.0948 78.5407 22.2146C78.3641 22.2398 78.1686 22.2587 77.9542 22.2714C77.7461 22.284 77.579 22.2903 77.4528 22.2903H74.104V27.0486H71.8242ZM74.104 20.1618H77.3582C77.4844 20.1618 77.6263 20.1555 77.7839 20.1429C77.9416 20.1303 78.0867 20.105 78.2191 20.0672C78.5975 19.9726 78.8939 19.8055 79.1083 19.5658C79.329 19.3262 79.4836 19.055 79.5719 18.7523C79.6664 18.4496 79.7137 18.1532 79.7137 17.8631C79.7137 17.5729 79.6664 17.2765 79.5719 16.9738C79.4836 16.6648 79.329 16.3905 79.1083 16.1508C78.8939 15.9112 78.5975 15.744 78.2191 15.6494C78.0867 15.6116 77.9416 15.5895 77.7839 15.5832C77.6263 15.5706 77.4844 15.5643 77.3582 15.5643H74.104V20.1618Z" fill="#5C93F5"/>
<path d="M84.0969 27.0486V13.1426H86.3767V27.0486H84.0969Z" fill="#5C93F5"/>
<path d="M93.0417 27.3418C92.2849 27.3418 91.6605 27.2157 91.1686 26.9634C90.6767 26.7112 90.2857 26.3895 89.9956 25.9985C89.7055 25.6075 89.4911 25.1913 89.3523 24.7498C89.2136 24.3084 89.1221 23.8921 89.078 23.5011C89.0401 23.1038 89.0212 22.7822 89.0212 22.5362V16.8319H91.3294V21.7511C91.3294 22.0664 91.3515 22.4227 91.3956 22.82C91.4398 23.211 91.5407 23.5894 91.6984 23.9552C91.8623 24.3147 92.102 24.6111 92.4173 24.8444C92.739 25.0778 93.171 25.1944 93.7133 25.1944C94.0034 25.1944 94.2904 25.1471 94.5742 25.0526C94.858 24.958 95.1134 24.7971 95.3404 24.5701C95.5738 24.3368 95.7598 24.0183 95.8985 23.6147C96.0373 23.211 96.1067 22.7002 96.1067 22.0822L97.4594 22.6592C97.4594 23.5295 97.2891 24.3178 96.9486 25.0242C96.6143 25.7305 96.1193 26.2949 95.4634 26.7175C94.8075 27.1337 94.0003 27.3418 93.0417 27.3418ZM96.381 27.0486V23.8795H96.1067V16.8319H98.396V27.0486H96.381Z" fill="#5C93F5"/>
<path d="M104.998 27.3324C103.737 27.3324 102.712 27.0486 101.924 26.481C101.136 25.9134 100.656 25.1156 100.486 24.0876L102.813 23.7282C102.933 24.2327 103.198 24.63 103.608 24.9201C104.018 25.2102 104.535 25.3553 105.159 25.3553C105.708 25.3553 106.131 25.2481 106.427 25.0336C106.73 24.8129 106.881 24.5133 106.881 24.1349C106.881 23.9016 106.824 23.7156 106.711 23.5768C106.604 23.4318 106.364 23.293 105.992 23.1606C105.62 23.0281 105.049 22.861 104.28 22.6592C103.422 22.4322 102.741 22.1894 102.236 21.9308C101.732 21.6659 101.369 21.3537 101.148 20.9943C100.928 20.6348 100.817 20.1996 100.817 19.6888C100.817 19.0518 100.984 18.4969 101.319 18.0239C101.653 17.5509 102.12 17.1882 102.719 16.936C103.318 16.6774 104.024 16.5481 104.838 16.5481C105.632 16.5481 106.335 16.6711 106.947 16.9171C107.565 17.163 108.063 17.513 108.442 17.9671C108.82 18.4212 109.054 18.9541 109.142 19.5658L106.815 19.9821C106.758 19.5469 106.559 19.2032 106.219 18.9509C105.885 18.6987 105.437 18.5568 104.876 18.5252C104.339 18.4937 103.907 18.5757 103.58 18.7712C103.252 18.9604 103.088 19.2284 103.088 19.5753C103.088 19.7708 103.154 19.9379 103.286 20.0767C103.419 20.2154 103.684 20.3541 104.081 20.4929C104.485 20.6316 105.084 20.8019 105.878 21.0037C106.692 21.2118 107.341 21.4515 107.827 21.7227C108.319 21.9876 108.672 22.306 108.886 22.6781C109.107 23.0502 109.218 23.5011 109.218 24.0309C109.218 25.0589 108.842 25.8661 108.092 26.4526C107.348 27.0391 106.317 27.3324 104.998 27.3324Z" fill="#5C93F5"/>
<mask id="path-4-inside-1_40_162" fill="white">
<path fill-rule="evenodd" clip-rule="evenodd" d="M21.0219 42.0438C11.6346 42.0438 3.68433 35.8908 0.984281 27.3978C3.68457 35.8904 11.6346 42.0431 21.0217 42.0431H39.9418V42.0438H21.0219ZM50.4528 42.0438H134.54C146.15 42.0438 155.562 32.632 155.562 21.0219C155.562 20.3293 155.529 19.6446 155.463 18.9692C155.529 19.6443 155.562 20.3288 155.562 21.0212C155.562 32.6312 146.15 42.0431 134.54 42.0431H50.4529V0H39.9419V0.000386238H50.4528V42.0438ZM39.9419 0.000386238V0H21.0219C9.50678 0 0.154098 9.2585 0.00186976 20.7375C0.000624555 20.8318 0 20.9262 0 21.0208C0 32.6309 9.41186 42.0427 21.0219 42.0427H39.9418V0.000386238H39.9419Z"/>
</mask>
<path fill-rule="evenodd" clip-rule="evenodd" d="M21.0219 42.0438C11.6346 42.0438 3.68433 35.8908 0.984281 27.3978C3.68457 35.8904 11.6346 42.0431 21.0217 42.0431H39.9418V42.0438H21.0219ZM50.4528 42.0438H134.54C146.15 42.0438 155.562 32.632 155.562 21.0219C155.562 20.3293 155.529 19.6446 155.463 18.9692C155.529 19.6443 155.562 20.3288 155.562 21.0212C155.562 32.6312 146.15 42.0431 134.54 42.0431H50.4529V0H39.9419V0.000386238H50.4528V42.0438ZM39.9419 0.000386238V0H21.0219C9.50678 0 0.154098 9.2585 0.00186976 20.7375C0.000624555 20.8318 0 20.9262 0 21.0208C0 32.6309 9.41186 42.0427 21.0219 42.0427H39.9418V0.000386238H39.9419Z" fill="#5C93F5"/>
<path d="M0.984281 27.3978L2.28381 26.9846L-0.315264 27.8109L0.984281 27.3978ZM39.9418 42.0431H41.3055V40.6794H39.9418V42.0431ZM39.9418 42.0438V43.4075H41.3055V42.0438H39.9418ZM50.4528 42.0438H49.0892V43.4075H50.4528V42.0438ZM155.463 18.9692L156.821 18.8376L154.106 19.1006L155.463 18.9692ZM50.4529 42.0431H49.0892V43.4067H50.4529V42.0431ZM50.4529 0H51.8165V-1.36364H50.4529V0ZM39.9419 0V-1.36364H38.5783V0H39.9419ZM39.9419 0.000386238H38.5783V1.36402H39.9419V0.000386238ZM50.4528 0.000386238H51.8164V-1.36325H50.4528V0.000386238ZM39.9419 0H41.3055V-1.36364H39.9419V0ZM39.9419 0.000386238V1.36402H41.3055V0.000386238H39.9419ZM0.00186976 20.7375L-1.36165 20.7194L-1.36165 20.7195L0.00186976 20.7375ZM39.9418 42.0427V43.4063H41.3055V42.0427H39.9418ZM39.9418 0.000386238V-1.36325H38.5782V0.000386238H39.9418ZM-0.315264 27.8109C2.55952 36.8536 11.0236 43.4075 21.0219 43.4075V40.6802C12.2456 40.6802 4.80915 34.928 2.28383 26.9846L-0.315264 27.8109ZM21.0217 40.6794C12.2456 40.6794 4.80935 34.9276 2.28381 26.9846L-0.315248 27.811C2.55979 36.8532 11.0236 43.4067 21.0217 43.4067V40.6794ZM39.9418 40.6794H21.0217V43.4067H39.9418V40.6794ZM41.3055 42.0438V42.0431H38.5782V42.0438H41.3055ZM21.0219 43.4075H39.9418V40.6802H21.0219V43.4075ZM50.4528 43.4075H134.54V40.6802H50.4528V43.4075ZM134.54 43.4075C146.904 43.4075 156.926 33.3851 156.926 21.0219H154.199C154.199 31.8789 145.397 40.6802 134.54 40.6802V43.4075ZM156.926 21.0219C156.926 20.2853 156.89 19.5567 156.821 18.8376L154.106 19.1007C154.167 19.7325 154.199 20.3733 154.199 21.0219H156.926ZM154.106 19.1006C154.167 19.732 154.198 20.3727 154.198 21.0212H156.926C156.926 20.285 156.89 19.5566 156.821 18.8377L154.106 19.1006ZM154.198 21.0212C154.198 31.8781 145.397 40.6794 134.54 40.6794V43.4067C146.903 43.4067 156.926 33.3843 156.926 21.0212H154.198ZM134.54 40.6794H50.4529V43.4067H134.54V40.6794ZM51.8165 42.0431V0H49.0892V42.0431H51.8165ZM50.4529 -1.36364H39.9419V1.36364H50.4529V-1.36364ZM38.5783 0V0.000386238H41.3056V0H38.5783ZM39.9419 1.36402H50.4528V-1.36325H39.9419V1.36402ZM49.0892 0.000386238V42.0438H51.8164V0.000386238H49.0892ZM38.5782 0V0.000386238H41.3055V0H38.5782ZM21.0219 1.36364H39.9419V-1.36364H21.0219V1.36364ZM1.36539 20.7556C1.50774 10.0216 10.2538 1.36364 21.0219 1.36364V-1.36364C8.75972 -1.36364 -1.19954 8.49542 -1.36165 20.7194L1.36539 20.7556ZM1.36364 21.0208C1.36364 20.9322 1.36422 20.8438 1.36539 20.7555L-1.36165 20.7195C-1.36297 20.8198 -1.36364 20.9202 -1.36364 21.0208H1.36364ZM21.0219 40.679C10.165 40.679 1.36364 31.8777 1.36364 21.0208H-1.36364C-1.36364 33.384 8.65874 43.4063 21.0219 43.4063V40.679ZM39.9418 40.679H21.0219V43.4063H39.9418V40.679ZM41.3055 42.0427V0.000386238H38.5782V42.0427H41.3055ZM39.9418 1.36402H39.9419V-1.36325H39.9418V1.36402Z" fill="#5C93F5" mask="url(#path-4-inside-1_40_162)"/>
<rect x="17.8672" y="8.41211" width="6.30658" height="25.2263" rx="3.15329" fill="white"/>
<rect x="8.4082" y="24.1797" width="6.30658" height="25.2263" rx="3.15329" transform="rotate(-90 8.4082 24.1797)" fill="white"/>
</svg>
