<svg width="363" height="250" viewBox="0 0 363 250" fill="none" xmlns="http://www.w3.org/2000/svg">
<path fill-rule="evenodd" clip-rule="evenodd" d="M144.084 0L3.21069 174.908C-1.63929 180.93 -0.68939 189.743 5.33235 194.593C11.3541 199.443 20.1674 198.493 25.0173 192.471L176.382 4.53728C177.502 3.14608 178.313 1.60589 178.823 0H144.084ZM326.785 0L189.939 169.908C185.089 175.93 186.039 184.743 192.06 189.593C198.082 194.443 206.895 193.493 211.745 187.471L362.737 0H326.785ZM239.851 56.5373C244.701 50.5155 243.751 41.7023 237.729 36.8523C231.707 32.0023 222.894 32.9522 218.044 38.9739L66.6798 226.908C61.8298 232.93 62.7797 241.743 68.8015 246.593C74.8232 251.443 83.6365 250.493 88.4865 244.471L239.851 56.5373Z" fill="white" fill-opacity="0.15"/>
</svg>
