<svg width="14" height="16" viewBox="0 0 14 16" fill="none" xmlns="http://www.w3.org/2000/svg">
<path fill-rule="evenodd" clip-rule="evenodd" d="M2.21053 3.63636C1.80358 3.63636 1.47368 3.96197 1.47368 4.36364V13.8182C1.47368 14.2198 1.80358 14.5455 2.21053 14.5455H11.7895C12.1964 14.5455 12.5263 14.2198 12.5263 13.8182V4.36364C12.5263 3.96197 12.1964 3.63636 11.7895 3.63636H2.21053ZM0 4.36364C0 3.15865 0.989686 2.18182 2.21053 2.18182H11.7895C13.0103 2.18182 14 3.15865 14 4.36364V13.8182C14 15.0232 13.0103 16 11.7895 16H2.21053C0.989686 16 0 15.0232 0 13.8182V4.36364Z" fill="#ACACAC"/>
<path d="M3.68421 0.727273C3.68421 0.325611 4.01411 0 4.42105 0C4.828 0 5.15789 0.325611 5.15789 0.727273V3.63636C5.15789 4.03803 4.828 4.36364 4.42105 4.36364C4.01411 4.36364 3.68421 4.03803 3.68421 3.63636V0.727273Z" fill="#ACACAC"/>
<path d="M8.84211 0.727273C8.84211 0.325611 9.172 0 9.57895 0C9.98589 0 10.3158 0.325611 10.3158 0.727273V3.63636C10.3158 4.03803 9.98589 4.36364 9.57895 4.36364C9.172 4.36364 8.84211 4.03803 8.84211 3.63636V0.727273Z" fill="#ACACAC"/>
<path d="M2.94737 7.27273C2.94737 6.87107 3.27726 6.54545 3.68421 6.54545C4.09116 6.54545 4.42105 6.87107 4.42105 7.27273C4.42105 7.67439 4.09116 8 3.68421 8C3.27726 8 2.94737 7.67439 2.94737 7.27273Z" fill="#ACACAC"/>
<path d="M5.15789 7.27273C5.15789 6.87107 5.48779 6.54545 5.89474 6.54545C6.30168 6.54545 6.63158 6.87107 6.63158 7.27273C6.63158 7.67439 6.30168 8 5.89474 8C5.48779 8 5.15789 7.67439 5.15789 7.27273Z" fill="#ACACAC"/>
<path d="M7.36842 7.27273C7.36842 6.87107 7.69832 6.54545 8.10526 6.54545C8.51221 6.54545 8.84211 6.87107 8.84211 7.27273C8.84211 7.67439 8.51221 8 8.10526 8C7.69832 8 7.36842 7.67439 7.36842 7.27273Z" fill="#ACACAC"/>
<path d="M9.57895 7.27273C9.57895 6.87107 9.90884 6.54545 10.3158 6.54545C10.7227 6.54545 11.0526 6.87107 11.0526 7.27273C11.0526 7.67439 10.7227 8 10.3158 8C9.90884 8 9.57895 7.67439 9.57895 7.27273Z" fill="#ACACAC"/>
<path d="M2.94737 9.45455C2.94737 9.05288 3.27726 8.72727 3.68421 8.72727C4.09116 8.72727 4.42105 9.05288 4.42105 9.45455C4.42105 9.85621 4.09116 10.1818 3.68421 10.1818C3.27726 10.1818 2.94737 9.85621 2.94737 9.45455Z" fill="#ACACAC"/>
<path d="M5.15789 9.45455C5.15789 9.05288 5.48779 8.72727 5.89474 8.72727C6.30168 8.72727 6.63158 9.05288 6.63158 9.45455C6.63158 9.85621 6.30168 10.1818 5.89474 10.1818C5.48779 10.1818 5.15789 9.85621 5.15789 9.45455Z" fill="#ACACAC"/>
<path d="M7.36842 9.45455C7.36842 9.05288 7.69832 8.72727 8.10526 8.72727C8.51221 8.72727 8.84211 9.05288 8.84211 9.45455C8.84211 9.85621 8.51221 10.1818 8.10526 10.1818C7.69832 10.1818 7.36842 9.85621 7.36842 9.45455Z" fill="#ACACAC"/>
<path d="M9.57895 9.45455C9.57895 9.05288 9.90884 8.72727 10.3158 8.72727C10.7227 8.72727 11.0526 9.05288 11.0526 9.45455C11.0526 9.85621 10.7227 10.1818 10.3158 10.1818C9.90884 10.1818 9.57895 9.85621 9.57895 9.45455Z" fill="#ACACAC"/>
<path d="M2.94737 11.6364C2.94737 11.2347 3.27726 10.9091 3.68421 10.9091C4.09116 10.9091 4.42105 11.2347 4.42105 11.6364C4.42105 12.038 4.09116 12.3636 3.68421 12.3636C3.27726 12.3636 2.94737 12.038 2.94737 11.6364Z" fill="#ACACAC"/>
<path d="M5.15789 11.6364C5.15789 11.2347 5.48779 10.9091 5.89474 10.9091C6.30168 10.9091 6.63158 11.2347 6.63158 11.6364C6.63158 12.038 6.30168 12.3636 5.89474 12.3636C5.48779 12.3636 5.15789 12.038 5.15789 11.6364Z" fill="#ACACAC"/>
<path d="M7.36842 11.6364C7.36842 11.2347 7.69832 10.9091 8.10526 10.9091C8.51221 10.9091 8.84211 11.2347 8.84211 11.6364C8.84211 12.038 8.51221 12.3636 8.10526 12.3636C7.69832 12.3636 7.36842 12.038 7.36842 11.6364Z" fill="#ACACAC"/>
<path d="M9.57895 11.6364C9.57895 11.2347 9.90884 10.9091 10.3158 10.9091C10.7227 10.9091 11.0526 11.2347 11.0526 11.6364C11.0526 12.038 10.7227 12.3636 10.3158 12.3636C9.90884 12.3636 9.57895 12.038 9.57895 11.6364Z" fill="#ACACAC"/>
</svg>
