<svg width="14" height="14" viewBox="0 0 14 14" fill="none" xmlns="http://www.w3.org/2000/svg">
<path fill-rule="evenodd" clip-rule="evenodd" d="M1.98 2.12005C1.80496 2.12005 1.63708 2.18959 1.51331 2.31337C1.38954 2.43714 1.32 2.60501 1.32 2.78005V11.7467L2.83331 10.2334C2.95708 10.1096 3.12496 10.04 3.3 10.04H11.22C11.395 10.04 11.5629 9.9705 11.6867 9.84673C11.8105 9.72296 11.88 9.55509 11.88 9.38005V2.78005C11.88 2.60501 11.8105 2.43714 11.6867 2.31337C11.5629 2.18959 11.395 2.12005 11.22 2.12005H1.98ZM0.579928 1.37997C0.951251 1.00864 1.45487 0.800049 1.98 0.800049H11.22C11.7451 0.800049 12.2487 1.00864 12.6201 1.37997C12.9914 1.75129 13.2 2.25492 13.2 2.78005V9.38005C13.2 9.90518 12.9914 10.4088 12.6201 10.7801C12.2487 11.1515 11.7451 11.36 11.22 11.36H3.57338L1.12669 13.8067C0.937932 13.9955 0.654054 14.052 0.407429 13.9498C0.160804 13.8477 0 13.607 0 13.34V2.78005C0 2.25492 0.208606 1.75129 0.579928 1.37997Z" fill="#666666"/>
</svg>
