<svg width="15" height="12" viewBox="0 0 15 12" fill="none" xmlns="http://www.w3.org/2000/svg">
<path fill-rule="evenodd" clip-rule="evenodd" d="M1.98005 1.32C1.61856 1.32 1.32005 1.61851 1.32005 1.98V9.9C1.32005 10.2615 1.61856 10.56 1.98005 10.56H12.5401C12.9015 10.56 13.2001 10.2615 13.2001 9.9V1.98C13.2001 1.61851 12.9015 1.32 12.5401 1.32H1.98005ZM5.39988e-05 1.98C5.39988e-05 0.889492 0.889546 0 1.98005 0H12.5401C13.6306 0 14.5201 0.889492 14.5201 1.98V9.9C14.5201 10.9905 13.6306 11.88 12.5401 11.88H1.98005C0.889546 11.88 5.39988e-05 10.9905 5.39988e-05 9.9V1.98Z" fill="#666666"/>
<path fill-rule="evenodd" clip-rule="evenodd" d="M0.119363 1.6015C0.328394 1.30288 0.739928 1.23029 1.03854 1.43932L7.26005 5.79438L13.4816 1.43932C13.7802 1.23029 14.1917 1.30288 14.4007 1.6015C14.6098 1.90012 14.5372 2.31165 14.2385 2.52068L7.63855 7.14068C7.41129 7.29976 7.10882 7.29976 6.88157 7.14068L0.281573 2.52068C-0.0170434 2.31165 -0.0896688 1.90012 0.119363 1.6015Z" fill="#666666"/>
</svg>
