<svg width="16" height="16" viewBox="0 0 16 16" fill="none" xmlns="http://www.w3.org/2000/svg">
<path d="M12.474 15.18C12.408 15.18 12.342 15.18 12.276 15.18C10.164 14.916 8.052 14.19 6.27 13.068C4.62 12.012 3.168 10.56 2.112 8.91C0.923998 7.128 0.198 5.01598 0 2.90398C0 2.37598 0.131998 1.84797 0.461998 1.45197C0.791998 1.05597 1.254 0.791984 1.782 0.725984C1.848 0.725984 1.914 0.725984 1.98 0.725984H3.96C4.95 0.725984 5.808 1.45197 5.94 2.44197C6.006 3.03597 6.13799 3.62999 6.33599 4.15799C6.59999 4.88399 6.402 5.676 5.874 6.27L5.412 6.73197C6.204 7.91997 7.194 8.97599 8.448 9.76799L8.91 9.30598C9.438 8.77798 10.296 8.57998 11.022 8.84398C11.55 9.04198 12.144 9.174 12.738 9.24C13.728 9.372 14.454 10.23 14.454 11.22V13.2C14.454 13.728 14.256 14.256 13.86 14.586C13.464 14.916 13.002 15.18 12.474 15.18ZM3.96 2.04598H1.98C1.782 2.04598 1.584 2.178 1.452 2.31C1.386 2.442 1.32 2.57397 1.32 2.77197C1.518 4.68597 2.178 6.53398 3.234 8.18398C4.224 9.70198 5.47799 11.022 6.99599 11.946C8.64599 13.002 10.494 13.662 12.408 13.86C12.672 13.86 12.804 13.794 12.936 13.662C13.068 13.53 13.134 13.398 13.134 13.2V11.22C13.134 10.89 12.87 10.626 12.54 10.56C11.88 10.494 11.22 10.296 10.56 10.032C10.296 9.96597 10.032 9.96598 9.834 10.164L8.97599 11.022C8.77799 11.22 8.448 11.286 8.184 11.154C6.402 10.164 4.95 8.712 3.96 6.93C3.894 6.666 3.96 6.33599 4.158 6.13799L5.01599 5.28C5.14799 5.148 5.214 4.818 5.148 4.62C4.884 3.96 4.752 3.3 4.62 2.64C4.62 2.31 4.29 2.04598 3.96 2.04598ZM11.814 6.66598C11.484 6.66598 11.22 6.46799 11.154 6.13799C10.956 5.08199 10.098 4.28998 9.042 4.02598C8.712 3.95998 8.448 3.62998 8.514 3.23398C8.58 2.90398 8.90999 2.63998 9.30599 2.70598C10.89 3.03598 12.144 4.22399 12.408 5.80799C12.474 6.13799 12.276 6.534 11.88 6.6C11.88 6.6 11.88 6.66598 11.814 6.66598ZM14.454 6.6C14.124 6.6 13.86 6.33598 13.794 6.00598C13.53 3.56398 11.616 1.65 9.108 1.32C8.778 1.254 8.514 0.923976 8.514 0.593976C8.514 0.263976 8.91 0 9.24 0C12.342 0.33 14.718 2.70599 15.048 5.80799C15.114 6.13799 14.85 6.46798 14.454 6.53398C14.52 6.59998 14.454 6.6 14.454 6.6Z" fill="#666666"/>
</svg>
