<svg width="42" height="31" viewBox="0 0 42 31" fill="none" xmlns="http://www.w3.org/2000/svg">
<path fill-rule="evenodd" clip-rule="evenodd" d="M39 3C40.6569 3 42 4.34315 42 6V28C42 29.6569 40.6569 31 39 31H3C1.34315 31 0 29.6569 0 28V6C0 4.34315 1.34315 3 3 3H4V2C4 0.89543 4.89543 0 6 0H10C11.1046 0 12 0.895431 12 2V3H39ZM27 28C33.0751 28 38 23.0751 38 17C38 10.9249 33.0751 6 27 6C20.9249 6 16 10.9249 16 17C16 23.0751 20.9249 28 27 28ZM34 17C34 20.866 30.866 24 27 24C23.134 24 20 20.866 20 17C20 13.134 23.134 10 27 10C30.866 10 34 13.134 34 17ZM16 5V7H8V5H16Z" fill="white"/>
</svg>
